<!DOCTYPE svg PUBLIC "-//W3C//DTD SVG 20010904//EN" "http://www.w3.org/TR/2001/REC-SVG-20010904/DTD/svg10.dtd">
<svg version="1.0" xmlns="http://www.w3.org/2000/svg" width="1348px" height="293px" viewBox="0 0 13480 2930" preserveAspectRatio="xMidYMid meet">
<g id="layer101" fill="#ffffff" stroke="none">
 <path d="M7184 2910 c-142 -37 -243 -108 -285 -203 -21 -46 -24 -66 -23 -172 l1 -120 207 -825 c114 -454 211 -842 217 -862 l10 -38 409 0 c270 0 410 3 410 10 0 6 -83 343 -185 750 -118 472 -185 758 -185 790 0 28 7 65 16 81 45 88 240 91 340 5 77 -66 84 -87 284 -885 l186 -746 413 -3 c390 -2 413 -1 409 15 -3 10 -126 503 -274 1096 l-269 1077 -411 0 -411 0 23 -97 c13 -54 26 -109 29 -122 5 -20 -9 -10 -67 45 -120 113 -237 174 -401 208 -110 23 -349 21 -443 -4z"/>
 <path d="M4555 2890 c-150 -24 -249 -74 -292 -147 -27 -46 -28 -54 -28 -173 l1 -125 302 -1195 c166 -657 305 -1203 308 -1212 5 -17 34 -18 415 -18 321 0 409 3 409 13 0 6 -38 156 -84 332 l-83 320 169 3 c129 2 169 5 165 15 -2 6 -30 119 -63 250 l-59 237 -170 0 -171 0 -132 538 c-73 295 -133 545 -132 555 0 31 27 73 57 87 16 8 74 15 136 18 59 2 107 7 107 11 0 3 -25 111 -57 240 -53 215 -60 234 -83 243 -33 13 -638 20 -715 8z"/>
 <path d="M0 2871 c0 -19 1234 -2310 1287 -2389 131 -196 336 -353 559 -428 143 -48 204 -54 519 -54 l293 0 6 113 c4 61 27 654 51 1317 25 663 47 1260 51 1328 l6 122 -477 0 -476 0 5 -52 c3 -29 8 -109 11 -178 3 -69 8 -158 11 -198 l6 -72 -347 2 -347 3 -108 245 -107 245 -472 3 c-275 1 -471 -2 -471 -7z m1884 -1133 c13 -167 57 -1021 54 -1042 -2 -12 -111 213 -262 539 -142 308 -260 566 -263 573 -4 9 46 12 230 12 l235 0 6 -82z"/>
 <path d="M2934 2863 c3 -10 161 -641 351 -1403 190 -762 350 -1402 356 -1422 l10 -38 409 0 c321 0 410 3 410 13 0 6 -161 653 -358 1437 l-359 1425 -412 3 c-390 2 -412 1 -407 -15z"/>
 <path d="M5587 2853 c3 -16 126 -507 273 -1093 l266 -1065 413 -3 413 -2 -7 28 c-3 16 -126 508 -273 1093 l-268 1064 -412 3 -412 2 7 -27z"/>
 <path d="M9526 1788 c151 -601 274 -1094 274 -1095 0 -2 187 -3 415 -3 325 0 415 3 415 13 0 6 -13 63 -29 125 l-29 112 88 -83 c101 -96 223 -164 355 -198 104 -26 285 -35 400 -20 215 29 321 100 376 253 l22 59 71 -69 c123 -120 249 -186 431 -228 118 -28 360 -25 469 4 228 63 304 166 293 397 -4 100 -20 171 -175 788 -111 441 -179 697 -198 735 -36 74 -149 187 -231 230 -113 60 -188 72 -435 72 -120 0 -218 -2 -218 -5 0 -3 84 -339 186 -748 112 -449 186 -762 186 -792 1 -104 -54 -149 -177 -149 -123 1 -213 57 -265 166 -18 37 -93 319 -211 793 l-184 735 -414 0 c-389 0 -413 -1 -406 -17 21 -55 375 -1500 375 -1531 0 -90 -61 -145 -164 -146 -125 -2 -220 53 -270 157 -18 38 -396 1500 -396 1533 0 2 -186 4 -414 4 l-414 0 274 -1092z"/>
 <path d="M13149 2852 c-126 -66 -157 -230 -64 -339 48 -56 104 -76 194 -71 58 3 78 9 112 33 60 42 89 102 89 182 0 43 -6 76 -19 102 -58 113 -196 154 -312 93z m184 -49 l32 -18 -32 -3 c-27 -3 -33 -8 -38 -35 -9 -40 -22 -57 -46 -57 -16 0 -19 8 -19 45 0 43 -1 45 -30 45 l-30 0 0 -115 0 -114 36 -7 c108 -20 187 37 140 101 -11 15 -11 25 0 54 7 20 15 45 19 56 6 19 7 19 25 -5 49 -63 30 -176 -38 -228 -29 -22 -46 -27 -93 -27 -65 0 -98 18 -136 75 -53 78 -14 202 77 242 29 13 101 8 133 -9z m-48 -188 c0 -14 -8 -21 -27 -23 -24 -3 -28 0 -28 23 0 23 4 26 28 23 19 -2 27 -9 27 -23z"/>
 </g>

</svg>