<!DOCTYPE svg PUBLIC "-//W3C//DTD SVG 20010904//EN" "http://www.w3.org/TR/2001/REC-SVG-20010904/DTD/svg10.dtd">
<svg version="1.0" xmlns="http://www.w3.org/2000/svg" width="1600px" height="797px" viewBox="0 0 16000 7970" preserveAspectRatio="xMidYMid meet">
<g id="layer101" fill="#bbbbbb" stroke="none">
 <path d="M2945 7656 c-5 -3 -42 -14 -81 -26 -116 -34 -186 -94 -234 -199 -22 -47 -25 -69 -25 -165 0 -95 4 -124 29 -201 34 -107 64 -159 132 -228 74 -75 127 -110 225 -150 98 -41 329 -91 494 -107 208 -21 320 -58 355 -117 41 -69 15 -126 -68 -151 -114 -34 -261 23 -293 113 l-13 35 -308 0 -308 0 1 -32 c2 -79 79 -225 165 -312 161 -163 462 -245 859 -233 188 6 238 12 345 43 62 17 160 64 160 76 0 5 10 12 23 17 13 5 37 37 61 82 37 69 40 81 44 174 4 112 -3 161 -93 605 -18 91 -41 203 -50 250 -8 47 -24 123 -35 170 -27 123 -26 188 5 234 31 46 32 74 3 81 -13 3 -162 4 -333 3 l-310 -3 -3 -72 c-2 -40 -5 -73 -8 -73 -8 0 -64 40 -88 62 -11 10 -24 18 -30 18 -5 0 -42 15 -80 34 -112 54 -189 69 -371 73 -88 1 -164 1 -170 -1z m601 -416 c27 -14 68 -42 91 -63 50 -46 114 -170 121 -236 5 -40 3 -44 -14 -37 -10 5 -48 14 -84 22 -141 30 -274 74 -309 102 -39 31 -81 103 -81 139 0 29 49 74 98 90 51 17 120 10 178 -17z"/>
 <path d="M5748 7647 c-20 -7 -40 -15 -44 -19 -4 -5 -15 -8 -25 -8 -25 0 -115 -74 -145 -119 -14 -22 -37 -72 -51 -112 -35 -100 -36 -270 -4 -439 36 -187 89 -453 126 -630 18 -91 36 -183 39 -205 3 -22 13 -73 22 -113 l16 -72 319 0 319 0 0 28 c0 15 -14 85 -30 156 -17 72 -30 140 -30 152 0 13 -16 92 -35 175 -19 84 -35 163 -35 175 0 12 -12 73 -26 135 -39 171 -44 211 -33 260 17 76 76 119 163 119 62 0 169 -53 181 -89 3 -10 14 -26 25 -36 26 -23 98 -245 110 -338 5 -40 23 -130 40 -201 16 -72 30 -139 30 -151 0 -12 16 -92 35 -178 19 -86 35 -168 35 -182 l0 -25 320 0 320 0 0 22 c0 31 -16 117 -56 303 -19 88 -34 169 -34 181 0 11 -14 81 -31 155 -17 73 -35 159 -39 189 -4 30 -22 125 -39 210 -43 202 -96 468 -111 550 -6 36 -14 68 -16 72 -3 5 -138 8 -300 8 l-294 0 0 -32 c0 -18 7 -58 15 -88 8 -30 15 -61 15 -69 0 -7 -33 16 -74 53 -41 36 -76 66 -80 66 -3 0 -22 11 -42 25 -20 14 -73 37 -118 51 -71 23 -102 27 -241 30 -106 2 -172 -1 -197 -9z"/>
 <path d="M10795 7654 c-11 -3 -59 -14 -106 -24 -47 -11 -105 -31 -130 -45 -24 -13 -57 -31 -74 -38 -58 -28 -164 -146 -206 -232 -92 -184 -88 -455 11 -730 25 -72 62 -145 72 -145 5 0 8 -8 8 -18 0 -47 189 -259 300 -335 25 -17 50 -36 56 -42 6 -5 51 -29 100 -52 265 -125 525 -147 781 -64 227 73 386 258 427 499 19 110 21 271 4 405 l-12 97 -587 0 -587 0 -7 30 c-7 33 3 115 18 145 19 38 71 90 101 103 78 33 120 35 198 8 58 -20 83 -36 121 -76 l48 -50 305 0 c216 0 304 3 304 11 0 19 -70 142 -96 170 -13 14 -24 28 -24 32 0 18 -178 177 -197 177 -7 0 -13 3 -13 8 0 14 -197 107 -261 122 -24 5 -73 17 -109 26 -64 16 -399 29 -445 18z m658 -1103 c9 -35 -14 -111 -46 -153 -18 -23 -52 -52 -77 -66 -39 -21 -54 -23 -113 -18 -71 5 -165 46 -205 89 -27 29 -92 138 -92 154 0 10 53 13 264 13 253 0 264 -1 269 -19z"/>
 <path d="M12600 7643 c-36 -8 -81 -18 -100 -23 -66 -15 -172 -72 -243 -132 -64 -53 -134 -165 -164 -261 -37 -119 -42 -286 -13 -422 12 -55 26 -120 31 -144 8 -39 56 -159 80 -201 82 -144 84 -147 159 -230 58 -64 140 -140 151 -140 4 0 14 -6 21 -14 20 -20 156 -96 203 -113 258 -96 517 -108 755 -36 83 25 140 49 150 62 3 4 21 17 41 29 32 20 83 70 130 128 24 31 28 39 55 111 21 55 27 92 31 196 l6 127 -327 0 -326 0 0 -38 c0 -62 -28 -130 -66 -158 -28 -22 -44 -26 -101 -26 -37 0 -81 5 -96 11 -32 12 -117 81 -117 94 0 4 -13 25 -28 45 -47 62 -87 172 -108 302 -28 174 -11 280 52 337 58 51 120 64 190 39 87 -30 162 -106 191 -193 l15 -43 325 0 326 0 -7 31 c-8 43 -86 219 -96 219 -5 0 -12 10 -16 23 -11 36 -102 144 -171 202 -35 30 -68 55 -72 55 -4 0 -17 9 -29 21 -44 40 -215 107 -343 133 -102 22 -150 26 -274 25 -95 0 -174 -6 -215 -16z"/>
 <path d="M14465 7653 c-151 -31 -245 -63 -273 -90 -7 -7 -18 -13 -23 -13 -13 0 -75 -46 -116 -87 -37 -36 -97 -127 -120 -181 -54 -127 -57 -381 -8 -577 44 -174 148 -376 241 -469 17 -17 34 -39 37 -49 4 -9 18 -22 32 -27 14 -5 28 -16 31 -25 7 -18 128 -100 209 -142 57 -29 146 -59 265 -90 81 -20 292 -28 389 -14 111 16 254 65 321 109 64 41 187 164 196 196 3 11 16 44 29 71 39 81 45 121 45 296 0 155 -2 172 -30 270 -17 57 -35 120 -40 140 -11 41 -85 193 -112 229 -11 14 -33 43 -49 65 -55 73 -153 167 -227 216 -182 123 -386 180 -634 178 -79 -1 -152 -3 -163 -6z m363 -485 c112 -69 180 -181 226 -373 46 -192 28 -336 -51 -405 -35 -31 -54 -35 -138 -31 -114 7 -221 125 -285 316 -29 87 -34 117 -38 227 -6 172 17 229 113 282 41 22 123 15 173 -16z"/>
 <path d="M4490 7594 c0 -27 10 -76 56 -279 15 -66 33 -154 41 -195 7 -41 27 -130 43 -196 17 -67 30 -130 30 -140 0 -11 15 -86 34 -169 19 -82 51 -222 70 -310 19 -88 49 -223 67 -300 18 -77 36 -165 40 -195 4 -30 17 -91 29 -135 11 -44 29 -123 39 -175 10 -52 30 -149 45 -215 25 -113 47 -211 130 -592 19 -87 49 -221 67 -298 18 -77 34 -156 36 -175 3 -19 20 -99 39 -177 19 -78 34 -150 34 -160 0 -16 25 -128 106 -478 19 -82 34 -159 34 -170 0 -11 13 -73 30 -136 34 -133 60 -311 60 -416 0 -63 -5 -99 -25 -198 -2 -12 -22 -41 -44 -65 l-40 -45 -88 1 c-82 0 -93 3 -163 39 -79 40 -173 100 -227 144 -18 14 -49 40 -69 56 -133 106 -437 404 -399 390 11 -4 49 -18 85 -32 94 -37 262 -56 365 -41 96 13 143 42 195 121 l35 52 3 152 c4 145 2 157 -32 298 -20 80 -36 155 -36 166 0 11 -16 84 -35 162 -19 78 -35 151 -35 162 0 11 -16 84 -35 162 -19 78 -35 150 -35 160 0 10 -15 86 -34 168 -42 184 -73 326 -93 425 -8 41 -31 140 -49 220 -19 80 -34 153 -34 164 0 10 -14 76 -31 147 l-32 129 -338 0 c-187 0 -339 -3 -339 -7 0 -5 11 -55 25 -113 14 -58 25 -117 25 -132 0 -15 13 -89 29 -165 94 -451 100 -510 56 -613 -32 -77 -52 -101 -125 -149 -55 -36 -56 -36 -180 -39 -113 -3 -132 -1 -195 22 -133 48 -140 51 -249 113 -56 32 -121 95 -425 410 -17 17 -31 35 -31 40 0 5 -16 24 -35 43 -19 19 -35 40 -35 47 0 8 -6 16 -14 19 -8 3 -47 48 -86 101 -39 52 -80 102 -91 111 -10 9 -19 21 -19 27 0 6 -9 21 -21 34 -24 26 -107 135 -131 171 -8 14 -27 37 -41 53 l-26 27 -1071 0 c-849 0 -1070 -3 -1070 -12 0 -15 170 -206 194 -220 9 -5 16 -15 16 -23 0 -8 16 -26 35 -41 19 -14 35 -31 35 -37 0 -5 17 -27 38 -47 43 -42 146 -155 332 -365 73 -82 147 -165 164 -183 17 -19 47 -51 66 -71 19 -21 64 -71 100 -111 36 -40 78 -87 93 -104 16 -17 43 -47 61 -66 18 -19 88 -98 156 -175 68 -77 138 -156 156 -175 56 -61 87 -95 154 -170 36 -40 82 -89 103 -109 20 -20 37 -41 37 -45 0 -5 13 -21 29 -35 16 -14 91 -96 167 -181 76 -85 156 -175 178 -200 23 -24 57 -62 76 -84 19 -22 52 -56 73 -76 20 -20 37 -41 37 -45 0 -4 17 -25 38 -45 56 -56 157 -168 451 -499 65 -74 117 -131 176 -194 17 -18 62 -68 100 -111 39 -44 82 -91 96 -105 14 -14 79 -87 144 -161 65 -74 135 -153 156 -175 63 -68 92 -99 159 -175 36 -41 82 -90 103 -110 20 -19 37 -39 37 -44 0 -5 15 -23 34 -40 18 -17 105 -112 193 -211 88 -99 198 -214 244 -256 102 -92 221 -189 257 -209 15 -8 29 -18 32 -22 9 -12 134 -87 215 -130 109 -57 277 -126 350 -144 212 -50 258 -56 395 -51 123 4 145 8 245 41 60 21 112 41 115 45 3 3 28 21 57 39 57 37 117 97 159 163 16 24 32 47 37 50 10 7 54 127 79 214 17 60 20 101 20 300 0 238 -6 296 -52 474 -11 44 -20 90 -20 103 0 12 -14 76 -30 141 -16 65 -35 149 -41 185 -5 37 -23 121 -40 186 -16 65 -29 129 -29 141 0 12 -16 86 -35 164 -19 77 -35 151 -35 163 0 13 -14 76 -30 141 -16 65 -35 149 -41 185 -5 37 -23 121 -40 186 -16 65 -29 129 -29 141 0 12 -16 86 -35 164 -19 77 -35 151 -35 163 0 13 -14 76 -30 141 -16 65 -35 149 -41 185 -5 37 -23 121 -40 186 -16 65 -29 129 -29 141 0 12 -16 86 -35 164 -19 77 -35 151 -35 163 0 13 -14 76 -30 141 -16 65 -35 149 -41 185 -5 37 -23 121 -40 186 -16 65 -29 129 -29 141 0 12 -16 86 -35 164 -19 77 -35 151 -35 162 0 12 -13 78 -29 148 -47 198 -102 455 -101 470 0 7 -14 70 -31 140 -17 69 -34 151 -39 181 -5 30 -23 114 -39 185 -51 225 -102 459 -101 474 0 7 -16 80 -36 162 l-36 149 -329 0 -329 0 0 -26z"/>
 <path d="M7264 7606 c-3 -8 1 -41 9 -73 8 -32 20 -89 27 -128 6 -38 23 -119 36 -180 13 -60 28 -139 35 -175 6 -36 24 -126 39 -200 16 -74 31 -157 35 -185 4 -27 17 -96 31 -153 13 -56 28 -133 34 -170 6 -37 24 -128 40 -202 16 -74 32 -152 35 -172 l6 -38 294 0 295 0 0 28 c0 15 -7 52 -15 82 -26 96 -23 98 53 32 135 -117 317 -192 467 -192 223 0 397 107 430 264 l6 28 62 -59 c80 -76 81 -77 152 -122 186 -119 452 -144 653 -63 129 53 201 159 223 331 16 124 0 244 -82 631 -16 74 -33 167 -39 205 -6 39 -22 117 -35 175 -13 58 -31 150 -40 205 -10 55 -21 110 -26 122 l-9 23 -314 0 c-178 0 -317 -4 -320 -9 -4 -5 5 -60 18 -123 49 -226 89 -424 98 -482 4 -33 22 -118 38 -190 22 -94 30 -155 30 -222 l0 -93 -37 -36 c-34 -33 -40 -35 -103 -35 -58 0 -73 4 -113 31 -56 37 -75 62 -115 155 -34 78 -36 85 -86 334 -19 96 -50 254 -70 350 -19 96 -41 207 -48 245 l-13 70 -314 3 c-185 1 -319 -2 -324 -7 -6 -6 0 -53 16 -123 14 -62 35 -160 46 -218 11 -58 27 -143 36 -190 9 -47 32 -157 51 -245 40 -186 46 -315 16 -350 -36 -43 -64 -55 -132 -55 -60 0 -69 3 -115 38 -37 27 -59 55 -85 107 -48 93 -60 139 -126 480 -9 44 -31 152 -49 240 -18 88 -38 194 -45 235 -7 41 -18 78 -24 82 -6 4 -150 8 -319 8 -257 0 -309 -2 -313 -14z"/>
 </g>
<g id="layer102" fill="#ffffff" stroke="none">
 <path d="M2957 7647 c2 -4 -7 -5 -21 -1 -17 4 -26 2 -26 -6 0 -6 -5 -8 -11 -5 -14 9 -69 -14 -69 -29 0 -7 -4 -6 -9 2 -7 11 -9 10 -15 -3 -3 -9 -10 -14 -16 -10 -13 8 -61 -25 -53 -38 3 -6 1 -7 -5 -3 -15 9 -64 -42 -55 -57 3 -6 1 -7 -5 -3 -13 8 -45 -61 -35 -77 3 -6 1 -7 -5 -3 -13 8 -28 -37 -17 -53 3 -6 2 -11 -4 -11 -5 0 -9 -37 -10 -85 0 -47 4 -85 9 -85 5 0 7 -6 4 -14 -6 -16 14 -96 24 -96 4 0 7 -13 8 -29 1 -38 36 -107 52 -103 8 1 11 -2 7 -8 -3 -5 -1 -19 5 -30 14 -25 100 -115 100 -103 0 4 4 3 8 -2 18 -25 75 -64 84 -59 6 4 8 3 5 -3 -7 -12 121 -65 136 -56 6 3 7 1 4 -4 -4 -6 3 -13 15 -16 12 -4 25 -1 29 5 4 7 10 6 15 -4 11 -18 163 -52 189 -42 14 6 16 4 10 -6 -6 -10 0 -12 29 -7 25 4 34 2 30 -5 -5 -8 6 -9 34 -5 28 3 40 2 36 -5 -4 -7 8 -9 35 -6 22 2 41 0 41 -4 0 -5 11 -8 25 -8 14 0 25 6 25 13 0 8 3 8 9 -2 5 -8 18 -12 30 -8 12 3 21 1 21 -5 0 -6 11 -8 25 -6 14 3 25 2 25 -2 0 -4 19 -13 43 -20 112 -33 155 -82 143 -165 -4 -25 -11 -43 -16 -40 -10 6 -62 -20 -54 -28 3 -3 -3 -3 -15 0 -12 3 -21 1 -21 -3 0 -5 -24 -9 -54 -9 -30 0 -52 3 -49 8 2 4 -4 7 -14 7 -10 0 -36 9 -57 20 -22 10 -43 17 -47 14 -5 -3 -9 0 -9 6 0 16 -36 61 -43 54 -3 -3 -5 1 -4 8 2 45 15 43 -313 43 l-310 0 1 -30 c1 -43 34 -130 49 -127 6 1 9 -2 5 -8 -17 -28 140 -231 166 -214 8 4 9 3 5 -4 -8 -14 93 -74 112 -67 7 3 11 1 8 -4 -7 -11 43 -33 56 -25 6 4 8 3 5 -3 -8 -13 68 -36 95 -27 15 4 18 3 13 -7 -6 -9 -2 -11 13 -7 12 4 22 2 22 -4 0 -6 9 -8 20 -5 11 3 20 1 20 -5 0 -6 11 -8 25 -6 14 3 25 1 25 -5 0 -5 15 -7 35 -4 19 3 35 2 35 -4 0 -5 14 -9 30 -9 17 0 30 4 30 10 0 5 7 7 15 4 8 -4 12 -10 9 -15 -3 -5 69 -9 169 -9 154 0 176 2 181 17 5 12 9 14 18 5 16 -16 72 -16 62 -1 -4 7 0 9 14 5 25 -8 94 3 87 14 -2 4 7 5 22 2 14 -3 23 -1 20 4 -3 5 11 10 30 12 41 3 135 52 129 67 -2 6 5 12 17 12 26 2 29 6 72 86 21 40 35 77 32 88 -3 10 -1 19 4 19 14 0 11 87 -3 94 -10 5 -10 7 0 12 7 3 12 24 12 50 0 30 -4 43 -11 39 -7 -5 -8 5 -4 29 4 20 3 36 -1 36 -5 0 -10 21 -10 47 -1 26 -6 49 -11 50 -6 2 -8 15 -5 30 3 18 1 24 -7 19 -8 -6 -10 0 -5 18 4 16 2 26 -5 26 -6 0 -8 7 -4 16 3 9 0 20 -8 25 -10 6 -10 9 -1 9 6 0 12 9 12 21 0 11 -4 17 -10 14 -7 -4 -9 2 -4 19 3 15 2 26 -4 26 -5 0 -7 12 -4 26 3 17 1 25 -5 21 -6 -4 -8 3 -5 18 2 14 0 25 -6 25 -6 0 -8 9 -5 20 3 11 1 20 -4 20 -6 0 -8 12 -5 26 3 19 1 25 -7 20 -8 -6 -10 0 -5 18 4 16 2 26 -5 26 -6 0 -8 7 -4 16 3 9 0 20 -8 25 -10 6 -10 9 -1 9 6 0 12 9 12 21 0 13 -4 18 -12 13 -8 -5 -9 -2 -4 11 7 20 -13 125 -25 125 -4 0 -5 9 -2 20 3 11 0 20 -6 20 -5 0 -8 7 -5 15 8 19 -16 118 -30 127 -8 5 -7 8 2 8 7 0 12 13 12 30 0 17 -4 30 -10 30 -5 0 -1 9 10 20 18 18 24 33 21 52 0 5 5 7 11 5 17 -3 23 44 6 54 -7 5 -156 9 -330 9 l-318 0 7 -45 c4 -31 2 -45 -6 -45 -6 0 -11 -13 -11 -30 0 -16 -3 -30 -6 -30 -8 0 -63 39 -89 63 -11 10 -30 16 -42 14 -13 -2 -21 1 -20 7 1 6 -6 10 -15 10 -10 -1 -16 2 -13 6 7 11 -24 22 -37 13 -6 -3 -8 -1 -5 4 9 14 -38 33 -89 36 -23 1 -40 5 -38 8 6 10 -61 20 -80 13 -9 -3 -16 -2 -16 3 0 6 -60 9 -144 9 -80 0 -142 -4 -139 -9z m523 -380 c0 -5 9 -7 20 -4 11 3 18 1 14 -4 -3 -5 1 -9 8 -9 7 0 37 -15 65 -34 28 -19 54 -32 56 -30 2 3 10 -2 17 -11 7 -8 9 -15 5 -15 -4 0 -2 -7 6 -16 7 -9 27 -45 44 -80 17 -35 33 -62 36 -60 2 2 5 -20 7 -49 3 -51 2 -53 -22 -51 -13 0 -22 4 -19 9 2 4 -3 7 -11 7 -9 0 -16 -6 -17 -12 0 -10 -2 -10 -6 -1 -5 15 -79 37 -93 28 -6 -3 -10 -2 -10 2 0 5 -42 20 -92 33 -62 17 -107 36 -134 57 -23 17 -45 28 -49 25 -4 -4 -5 -2 -4 3 4 14 -23 85 -31 80 -3 -2 -6 9 -5 23 0 34 58 89 102 98 18 3 31 9 29 13 -2 3 16 6 40 6 24 0 44 -3 44 -8z"/>
 <path d="M5755 7648 c-16 -5 -39 -13 -50 -17 -11 -5 -33 -14 -48 -20 -17 -7 -25 -16 -21 -23 4 -7 3 -8 -5 -4 -31 19 -163 -169 -147 -210 3 -8 0 -14 -5 -14 -6 0 -9 -9 -6 -20 3 -13 1 -18 -5 -13 -8 4 -9 -8 -5 -35 3 -25 1 -42 -5 -42 -6 0 -8 -24 -4 -62 3 -35 5 -85 5 -111 0 -32 4 -47 10 -42 7 4 9 -5 5 -25 -4 -20 -3 -30 5 -30 7 0 10 -4 7 -9 -8 -12 17 -161 26 -161 5 0 6 -11 2 -25 -4 -16 -2 -25 6 -25 6 0 8 -4 5 -10 -10 -16 6 -81 18 -73 7 4 8 0 3 -12 -3 -10 1 -54 9 -99 45 -235 80 -384 88 -379 5 3 6 -4 2 -17 -5 -15 -2 -25 6 -31 10 -6 11 -9 2 -9 -20 0 -15 -30 5 -30 13 0 14 -2 4 -9 -12 -7 -11 -21 3 -85 l17 -76 320 0 c274 0 319 2 309 14 -9 11 -9 15 0 18 9 3 4 41 -19 144 -18 76 -32 149 -32 161 0 12 -16 91 -35 174 -19 84 -35 162 -35 173 0 31 -52 261 -59 264 -4 1 -5 18 -3 37 3 21 0 35 -7 35 -6 0 -11 7 -11 15 0 8 4 15 9 15 5 0 11 18 15 39 12 74 94 121 188 107 24 -4 53 -8 65 -9 11 -1 19 -5 17 -9 -7 -11 44 -41 56 -33 5 3 10 -2 10 -12 0 -25 29 -65 41 -57 5 3 9 2 7 -3 -4 -14 45 -152 53 -147 4 2 5 -6 1 -18 -3 -11 -1 -19 4 -16 5 3 10 -10 11 -30 1 -20 6 -38 11 -40 6 -2 8 -12 5 -22 -3 -11 -1 -20 5 -20 6 0 8 -9 5 -20 -3 -11 0 -20 6 -20 8 0 7 -6 -1 -21 -10 -16 -10 -23 -2 -26 7 -2 10 -13 7 -23 -3 -11 -1 -20 4 -20 6 0 8 -12 5 -26 -3 -19 -1 -25 7 -20 8 6 10 0 5 -18 -3 -15 -2 -26 4 -26 5 0 7 -12 4 -26 -3 -17 -1 -25 5 -21 6 4 8 -3 5 -18 -2 -14 0 -25 6 -25 6 0 8 -9 5 -20 -3 -11 -1 -20 5 -20 6 0 8 -9 5 -20 -3 -11 0 -20 6 -20 8 0 7 -6 -1 -21 -10 -16 -10 -23 -2 -26 7 -2 10 -13 7 -23 -3 -11 -1 -20 4 -20 6 0 8 -12 5 -26 -3 -19 -1 -25 7 -20 8 6 10 0 5 -18 -3 -15 -2 -26 4 -26 5 0 7 -12 4 -26 -3 -17 -1 -25 5 -21 6 4 8 -3 5 -18 -2 -14 0 -25 5 -25 5 0 9 -10 9 -22 0 -13 1 -40 2 -60 l2 -38 318 0 318 0 2 36 c2 23 -1 33 -8 29 -7 -4 -9 2 -4 19 4 16 2 26 -5 26 -6 0 -8 7 -4 16 3 9 0 20 -8 25 -10 6 -10 9 -1 9 6 0 12 9 12 21 0 11 -4 17 -10 14 -7 -4 -9 2 -4 19 3 15 2 26 -4 26 -6 0 -8 9 -5 20 3 11 1 20 -4 20 -6 0 -8 12 -5 26 3 19 1 25 -7 20 -8 -6 -10 0 -5 18 3 15 2 26 -4 26 -5 0 -7 12 -4 26 3 19 1 25 -7 20 -9 -6 -10 0 -5 20 5 20 4 25 -6 19 -9 -5 -10 -2 -5 15 5 15 2 25 -6 31 -10 6 -11 9 -1 9 6 0 12 9 12 21 0 11 -4 17 -10 14 -7 -4 -9 2 -4 19 3 15 2 26 -4 26 -6 0 -8 9 -5 20 3 11 1 20 -4 20 -6 0 -8 12 -5 26 3 19 1 25 -7 20 -8 -6 -10 0 -5 18 3 15 2 26 -4 26 -5 0 -7 12 -4 26 3 17 1 25 -5 21 -6 -4 -8 3 -5 18 2 14 0 25 -7 25 -5 0 -8 7 -4 16 3 9 0 20 -8 25 -10 6 -10 9 -1 9 6 0 12 9 12 21 0 11 -4 17 -10 14 -7 -4 -9 2 -4 19 3 15 2 26 -4 26 -6 0 -8 9 -5 20 3 11 1 20 -4 20 -6 0 -8 12 -5 26 3 19 1 25 -7 20 -8 -6 -10 0 -5 18 3 15 2 26 -4 26 -5 0 -7 12 -4 26 3 17 1 25 -5 21 -6 -4 -8 3 -5 18 2 14 0 25 -7 25 -5 0 -8 7 -4 16 3 9 0 20 -8 25 -10 6 -10 9 -1 9 6 0 12 9 12 21 0 11 -4 17 -10 14 -7 -4 -9 2 -4 19 3 15 2 26 -4 26 -6 0 -8 9 -5 20 3 11 1 20 -4 20 -6 0 -8 12 -5 26 3 19 1 25 -7 20 -8 -6 -10 0 -5 18 3 15 2 26 -4 26 -5 0 -7 12 -4 26 3 17 1 25 -5 21 -6 -4 -8 3 -5 18 2 14 0 25 -7 25 -5 0 -8 7 -4 16 3 9 0 20 -8 25 -10 6 -10 9 -1 9 6 0 12 9 12 21 0 11 -4 17 -10 14 -7 -4 -9 2 -4 19 3 14 2 26 -3 26 -5 0 -9 10 -9 23 l1 22 -297 3 -298 2 0 -29 c0 -45 12 -91 22 -85 5 3 6 -5 2 -20 -3 -15 -2 -26 4 -26 6 0 8 -9 5 -20 -5 -18 -9 -16 -50 20 -25 22 -50 37 -56 33 -5 -3 -7 -2 -4 4 10 15 -39 57 -58 49 -9 -3 -13 -2 -10 4 8 12 -56 52 -73 45 -7 -3 -11 -1 -8 4 7 10 -71 34 -84 26 -6 -3 -10 -1 -10 6 0 6 -8 9 -20 6 -12 -3 -18 -1 -14 5 5 7 -4 9 -25 6 -17 -2 -31 -2 -31 1 0 10 -272 9 -305 -1z"/>
 <path d="M10810 7648 c0 -4 -14 -5 -32 -1 -24 5 -29 3 -23 -7 6 -10 4 -12 -9 -7 -24 10 -135 -19 -186 -48 -25 -13 -56 -30 -70 -35 -35 -16 -71 -51 -63 -63 3 -6 1 -7 -4 -4 -15 9 -66 -40 -57 -55 4 -6 3 -8 -4 -5 -15 10 -64 -53 -59 -75 3 -10 1 -16 -3 -13 -12 8 -33 -33 -24 -47 4 -6 3 -8 -2 -5 -6 3 -16 -8 -23 -25 -12 -25 -11 -32 0 -39 11 -7 10 -9 -5 -9 -16 0 -18 -6 -13 -40 3 -24 1 -40 -5 -40 -6 0 -8 -14 -4 -35 4 -22 3 -35 -4 -35 -6 0 -10 -25 -10 -60 0 -33 4 -60 10 -60 6 0 7 -18 3 -45 -3 -27 -2 -45 4 -45 6 0 8 -11 5 -25 -3 -16 0 -25 8 -25 10 0 10 -3 1 -14 -13 -15 -3 -57 48 -201 29 -79 42 -105 52 -99 5 3 6 -3 2 -12 -4 -12 -3 -15 5 -10 8 5 10 2 6 -8 -3 -9 -1 -16 5 -16 6 0 11 -8 11 -19 0 -22 58 -97 72 -93 5 1 7 -2 3 -8 -9 -14 14 -42 28 -33 6 3 7 1 3 -5 -8 -13 52 -84 65 -76 5 3 8 0 7 -8 -2 -7 3 -12 10 -10 8 1 11 -2 8 -7 -7 -11 59 -62 69 -53 5 4 5 1 1 -6 -4 -7 0 -15 11 -19 10 -4 23 -12 29 -17 37 -34 56 -46 66 -40 6 4 8 3 5 -3 -4 -6 5 -15 19 -22 31 -14 37 -14 28 1 -4 7 -3 8 5 4 6 -4 9 -11 6 -16 -7 -11 24 -22 37 -13 6 3 8 2 5 -4 -8 -13 41 -36 55 -27 7 4 8 2 4 -4 -5 -8 2 -13 18 -13 14 -1 32 -2 39 -3 6 -1 18 -7 26 -14 8 -8 22 -11 32 -9 10 3 20 0 22 -6 2 -6 20 -11 40 -11 20 -1 37 -5 37 -10 0 -5 16 -6 35 -3 21 4 35 2 35 -5 0 -14 282 -6 287 8 2 6 15 9 30 6 20 -4 24 -2 18 8 -6 10 -4 12 8 7 19 -7 89 11 83 22 -3 5 6 6 19 3 15 -2 25 0 25 7 0 6 3 10 8 9 16 -4 52 14 46 24 -4 6 -2 8 4 4 19 -12 141 82 141 109 0 5 5 11 12 14 7 2 9 -1 5 -8 -4 -6 -5 -11 -2 -11 10 0 35 58 28 65 -4 5 -2 5 4 2 16 -9 48 29 38 45 -4 7 -3 10 1 5 11 -9 48 70 40 84 -4 5 -1 8 7 7 8 -2 13 6 12 19 0 12 3 20 7 17 10 -6 23 81 14 95 -3 6 -1 11 6 11 7 0 9 10 7 25 -3 14 -2 25 1 25 4 0 7 65 7 145 -1 80 -5 145 -9 145 -4 0 -5 16 -1 35 3 19 2 35 -3 35 -5 0 -7 18 -5 40 l4 40 -591 0 c-498 0 -591 2 -591 14 0 8 -6 16 -14 19 -19 7 -18 67 1 67 11 0 17 29 16 77 -1 7 3 11 7 8 8 -5 24 24 21 38 -1 5 3 6 8 3 13 -8 34 21 25 36 -4 7 -4 10 0 6 5 -4 30 2 57 13 28 10 59 19 69 19 11 0 20 5 20 10 0 12 37 14 42 3 3 -8 125 -55 145 -56 7 0 10 -3 8 -7 -7 -11 50 -61 59 -53 4 5 7 3 6 -2 -7 -35 -5 -35 310 -35 208 0 310 3 310 10 0 18 -40 90 -50 90 -5 0 -7 6 -4 13 2 7 -11 31 -29 52 -18 22 -37 48 -40 59 -4 10 -13 16 -21 13 -8 -3 -20 2 -28 11 -11 13 -11 14 1 7 7 -4 3 6 -10 24 -21 29 -38 44 -24 21 3 -5 1 -10 -4 -10 -6 0 -11 6 -11 13 0 19 -70 78 -83 70 -6 -3 -7 -1 -3 5 4 7 1 12 -8 12 -9 0 -16 5 -16 11 0 6 -7 8 -16 5 -8 -3 -13 -2 -10 2 5 8 -37 31 -134 75 -81 36 -128 50 -156 44 -13 -2 -24 -1 -24 4 0 11 -107 31 -130 24 -11 -3 -20 -2 -20 3 0 5 -69 8 -155 8 -85 0 -155 -4 -155 -8z m640 -1092 c0 -8 6 -17 13 -19 9 -4 9 -8 -2 -15 -9 -7 -11 -19 -7 -37 4 -16 3 -24 -3 -21 -5 3 -12 -5 -15 -19 -3 -13 -25 -44 -48 -67 -23 -24 -41 -45 -41 -48 3 -11 -198 -20 -207 -10 -14 16 -119 68 -125 62 -4 -4 -5 -2 -4 3 4 14 -77 136 -85 127 -4 -3 -4 2 0 12 5 14 4 17 -4 12 -14 -8 -15 -5 -6 18 5 14 39 16 270 16 221 0 264 -2 264 -14z"/>
 <path d="M12660 7650 c0 -4 -14 -4 -31 -2 -20 3 -29 1 -26 -5 4 -6 -4 -8 -20 -5 -15 3 -24 1 -20 -5 4 -5 -7 -10 -25 -10 -18 0 -34 -5 -36 -12 -3 -10 -6 -10 -11 -2 -5 8 -21 5 -54 -9 -29 -13 -45 -26 -41 -32 4 -6 3 -8 -4 -4 -14 8 -98 -39 -94 -54 1 -6 -2 -8 -9 -5 -6 4 -31 -14 -57 -42 -59 -61 -130 -175 -113 -181 8 -3 7 -8 -5 -16 -9 -7 -17 -27 -18 -43 0 -17 -5 -29 -10 -25 -5 3 -7 -5 -4 -16 4 -12 1 -22 -4 -22 -6 0 -8 -12 -4 -30 3 -19 2 -29 -4 -25 -6 4 -10 -36 -10 -110 0 -74 4 -114 10 -110 6 4 7 -6 4 -25 -4 -19 -2 -30 5 -30 7 0 8 -11 4 -32 -3 -18 -2 -29 3 -26 5 4 10 -6 10 -20 3 -51 17 -112 24 -107 5 3 6 -5 2 -17 -4 -16 -2 -19 8 -13 9 5 11 4 6 -4 -10 -16 13 -73 27 -64 5 3 7 2 4 -4 -7 -10 13 -73 29 -94 6 -8 28 -44 49 -82 28 -48 44 -66 54 -62 9 3 12 3 9 -1 -11 -10 18 -59 46 -77 13 -9 27 -25 31 -36 6 -19 40 -38 58 -33 5 1 6 -1 3 -6 -8 -13 33 -54 46 -46 6 4 8 3 5 -3 -8 -12 20 -26 34 -18 5 4 7 0 4 -7 -10 -27 265 -158 301 -144 8 3 14 1 14 -3 0 -14 137 -44 166 -37 17 5 23 3 19 -4 -4 -7 34 -10 116 -10 104 0 124 3 136 18 10 12 16 14 19 5 6 -14 44 -18 44 -5 0 4 19 7 42 8 23 0 43 5 46 12 2 7 7 10 12 7 12 -8 120 27 114 37 -3 4 3 5 12 1 12 -4 15 -3 10 5 -4 7 -2 10 7 7 12 -5 24 2 74 45 7 5 16 10 21 10 11 0 51 42 51 55 1 6 6 10 12 10 15 0 40 36 32 48 -3 6 -1 7 5 3 7 -4 12 -1 12 9 0 9 4 14 9 11 12 -8 43 72 35 86 -4 6 -3 8 2 5 12 -7 38 77 30 98 -3 8 -2 15 3 15 4 0 7 47 7 105 l-1 105 -313 0 -312 0 -11 -27 c-6 -15 -8 -35 -6 -45 3 -10 2 -18 -3 -18 -14 0 -20 -44 -7 -52 8 -5 8 -8 1 -8 -6 0 -28 -16 -48 -35 -27 -26 -46 -35 -71 -35 -18 0 -35 -6 -38 -12 -3 -10 -7 -10 -18 -2 -8 6 -31 14 -53 17 -21 3 -50 14 -65 24 -14 9 -30 16 -34 15 -5 -1 -6 2 -2 8 4 6 -7 16 -23 23 -16 7 -27 18 -24 25 5 17 -27 53 -41 45 -6 -3 -7 -1 -3 5 4 6 2 19 -3 29 -16 27 -57 134 -65 166 -3 15 -11 27 -17 27 -6 0 -7 5 -3 11 3 6 0 15 -7 20 -10 6 -11 9 -1 9 6 0 12 9 12 20 0 11 -4 20 -8 20 -5 0 -6 14 -4 31 3 18 1 29 -4 26 -5 -3 -9 32 -9 78 0 46 3 81 7 79 3 -2 9 15 13 38 9 52 69 113 123 127 80 20 90 21 94 10 2 -7 18 -12 35 -13 17 0 29 -4 27 -7 -1 -3 14 -16 34 -29 44 -28 101 -101 115 -147 6 -18 14 -30 18 -27 5 3 7 -1 4 -8 -4 -11 57 -13 320 -13 248 0 325 3 325 12 0 26 -42 123 -51 118 -5 -4 -6 1 -3 9 6 15 -29 90 -52 114 -8 7 -14 18 -14 23 0 19 -52 79 -63 72 -6 -4 -7 -1 -2 7 9 15 -117 139 -176 172 -22 12 -39 26 -39 31 0 5 -7 6 -16 3 -8 -3 -13 -2 -10 3 8 12 -72 43 -86 35 -6 -4 -8 -2 -5 3 8 13 -70 46 -85 37 -7 -5 -8 -2 -3 6 6 10 4 12 -8 7 -9 -3 -17 -2 -19 3 -2 6 -27 11 -55 12 -29 2 -53 7 -53 12 0 4 -9 6 -20 3 -10 -3 -21 0 -23 6 -4 12 -377 19 -377 7z"/>
 <path d="M14486 7649 c2 -4 -12 -5 -32 -2 -27 5 -35 3 -30 -6 6 -8 1 -10 -18 -5 -14 3 -26 2 -26 -2 0 -5 -15 -10 -34 -11 -36 -2 -133 -39 -154 -60 -7 -7 -20 -13 -27 -13 -8 0 -18 -6 -22 -13 -4 -8 -16 -17 -26 -20 -11 -4 -15 -12 -11 -18 4 -8 3 -9 -4 -5 -15 9 -85 -61 -76 -76 4 -6 3 -8 -3 -5 -14 9 -46 -40 -37 -55 4 -6 3 -8 -3 -5 -13 8 -46 -50 -37 -65 4 -6 3 -8 -3 -5 -14 9 -37 -66 -28 -93 5 -17 4 -20 -5 -15 -9 6 -12 0 -8 -23 2 -17 2 -29 -2 -27 -3 2 -6 -54 -7 -125 0 -71 4 -127 8 -124 5 3 6 -9 3 -26 -4 -16 -2 -30 3 -30 4 0 7 -18 5 -40 -3 -33 -1 -40 13 -40 15 0 15 -2 4 -16 -7 -9 -9 -18 -3 -22 5 -4 10 -16 10 -27 5 -70 141 -350 181 -370 11 -6 18 -16 15 -23 -2 -7 12 -27 30 -45 19 -18 38 -40 41 -49 3 -9 22 -24 41 -33 20 -10 34 -21 31 -25 -3 -5 5 -16 17 -24 17 -12 24 -13 30 -3 5 8 8 7 8 -5 0 -16 90 -87 90 -71 0 4 4 4 8 -2 14 -19 92 -56 104 -49 6 4 8 3 5 -3 -8 -13 66 -35 89 -26 12 4 15 3 10 -5 -7 -12 10 -17 47 -14 11 1 15 -2 11 -9 -5 -8 1 -10 20 -7 14 3 26 1 26 -5 0 -5 9 -7 20 -4 11 3 20 0 20 -5 0 -7 16 -9 40 -5 23 3 38 1 34 -4 -3 -5 48 -9 120 -9 72 0 126 4 126 9 0 6 16 7 35 4 19 -3 35 -2 35 3 0 5 17 9 37 10 20 0 39 6 41 12 2 7 8 10 13 6 13 -8 128 34 174 64 85 56 169 137 159 153 -4 7 -3 9 4 5 11 -7 52 39 52 59 0 7 11 32 23 56 33 61 41 100 25 110 -10 7 -9 9 5 9 20 0 23 26 5 33 -9 4 -9 8 -3 14 13 10 18 313 6 313 -5 0 -7 9 -4 20 3 11 1 20 -5 20 -6 0 -8 10 -4 22 4 15 2 19 -7 13 -10 -5 -11 -2 -6 14 4 13 2 21 -5 21 -6 0 -8 5 -5 11 4 6 0 29 -8 52 -8 23 -20 61 -26 85 -8 27 -16 40 -23 36 -6 -4 -8 -3 -5 3 8 13 -47 126 -58 116 -4 -4 -5 -2 -1 5 5 8 0 22 -12 35 -11 12 -25 32 -31 45 -7 12 -16 20 -22 17 -5 -4 -9 0 -9 8 0 8 -9 25 -21 38 -11 13 -17 17 -13 9 4 -9 3 -12 -2 -7 -5 5 -9 13 -9 18 0 28 -197 192 -232 192 -7 0 -10 4 -8 8 7 10 -74 41 -87 33 -7 -5 -8 -2 -3 6 6 10 4 12 -9 7 -9 -4 -15 -3 -12 2 7 11 -22 23 -36 14 -6 -3 -8 -2 -5 4 3 5 -10 15 -31 21 -23 7 -38 8 -40 2 -2 -5 -11 -3 -19 6 -9 9 -26 14 -40 11 -12 -2 -23 0 -23 5 0 6 -11 7 -26 4 -18 -5 -24 -3 -18 5 5 9 -3 10 -31 5 -20 -4 -35 -3 -32 1 3 5 -64 9 -148 9 -85 0 -152 -3 -149 -7z m276 -453 c-3 -5 5 -7 16 -4 12 4 22 2 22 -4 0 -6 7 -8 15 -4 8 3 14 1 12 -3 -2 -9 81 -75 96 -76 4 0 6 -3 5 -6 -2 -3 3 -13 11 -22 26 -32 92 -173 96 -207 3 -19 9 -36 14 -38 5 -2 6 -12 3 -24 -3 -13 -1 -19 5 -15 6 4 8 -4 5 -20 -3 -18 -1 -24 6 -19 8 5 10 -2 6 -24 -4 -16 -3 -30 2 -30 15 0 11 -173 -4 -189 -8 -8 -11 -22 -9 -33 3 -10 2 -16 -3 -13 -4 3 -11 -6 -14 -19 -8 -32 -71 -86 -101 -86 -14 0 -25 -4 -25 -10 0 -5 -7 -10 -15 -10 -8 0 -15 5 -15 10 0 6 -18 10 -39 10 -22 0 -43 5 -46 11 -4 6 -14 8 -22 5 -8 -3 -12 -2 -9 2 5 9 -54 48 -67 44 -5 -1 -6 2 -3 6 3 5 -5 21 -19 36 -13 14 -22 26 -19 26 3 0 -9 20 -26 44 -16 25 -30 52 -30 60 0 9 -4 16 -10 16 -5 0 -9 3 -8 8 4 11 -36 141 -42 137 -3 -2 -6 20 -7 47 0 30 -7 54 -15 59 -11 7 -11 10 0 18 10 6 13 31 10 94 -2 47 0 83 4 81 7 -5 34 66 30 79 -1 5 2 6 6 3 12 -7 44 28 35 39 -5 4 -3 5 4 1 12 -6 63 12 63 23 0 3 20 6 44 6 24 0 42 -4 38 -9z"/>
 <path d="M4492 7598 c0 -29 21 -139 55 -288 14 -63 32 -149 40 -190 7 -41 27 -130 43 -196 17 -67 30 -130 30 -140 0 -11 15 -86 34 -169 19 -82 51 -222 70 -310 19 -88 49 -223 67 -300 18 -77 36 -165 40 -195 4 -30 17 -91 29 -135 11 -44 29 -123 39 -175 10 -52 30 -149 45 -215 25 -113 47 -211 130 -592 19 -87 49 -221 67 -298 18 -77 34 -156 36 -175 3 -19 20 -99 39 -177 19 -78 34 -150 34 -160 0 -16 25 -128 106 -478 19 -82 34 -159 34 -170 0 -11 13 -73 30 -136 34 -133 60 -311 60 -416 0 -63 -5 -99 -25 -198 -2 -12 -22 -41 -44 -65 l-40 -45 -88 1 c-82 0 -93 3 -163 39 -79 40 -173 100 -227 144 -18 14 -49 40 -69 56 -132 106 -438 405 -399 390 172 -64 181 -67 266 -68 48 -1 85 -5 82 -9 -6 -11 13 -10 104 3 94 14 142 44 193 122 l35 52 3 152 c4 145 2 157 -32 298 -20 80 -36 155 -36 166 0 11 -16 84 -35 162 -19 78 -35 151 -35 162 0 11 -16 84 -35 162 -19 78 -35 150 -35 160 0 10 -15 86 -34 168 -42 184 -73 326 -93 425 -8 41 -31 140 -49 220 -19 80 -34 153 -34 164 0 10 -14 76 -31 147 l-32 129 -338 0 c-187 0 -339 -3 -339 -7 0 -5 11 -55 25 -113 14 -58 25 -116 25 -130 0 -14 13 -90 30 -170 49 -240 80 -409 80 -435 0 -14 5 -25 10 -25 6 0 10 -9 10 -20 0 -11 -4 -20 -10 -20 -5 0 -10 -11 -10 -25 0 -34 -47 -144 -73 -174 -12 -13 -47 -40 -77 -60 -55 -36 -56 -36 -180 -39 -113 -3 -132 -1 -195 22 -133 48 -140 51 -249 113 -56 32 -121 95 -425 410 -17 17 -31 35 -31 40 0 5 -16 24 -35 43 -19 19 -35 40 -35 47 0 8 -6 16 -14 19 -8 3 -47 48 -86 101 -39 52 -80 102 -91 111 -10 9 -19 21 -19 27 0 6 -9 21 -21 34 -24 26 -107 135 -131 171 -8 14 -27 37 -41 53 l-26 27 -1071 0 c-849 0 -1070 -3 -1070 -12 0 -15 170 -206 194 -220 9 -5 16 -15 16 -23 0 -8 16 -26 35 -41 19 -14 35 -31 35 -37 0 -5 17 -27 38 -47 43 -42 146 -155 332 -365 73 -82 147 -165 164 -183 17 -19 47 -51 66 -71 19 -21 64 -71 100 -111 36 -40 78 -87 93 -104 16 -17 43 -47 61 -66 18 -19 88 -98 156 -175 68 -77 138 -156 156 -175 56 -61 87 -95 154 -170 36 -40 82 -89 103 -109 20 -20 37 -41 37 -45 0 -5 13 -21 29 -35 16 -14 91 -96 167 -181 76 -85 156 -175 178 -200 23 -24 57 -62 76 -84 19 -22 52 -56 73 -76 20 -20 37 -41 37 -45 0 -4 17 -25 38 -45 56 -56 157 -168 451 -499 65 -74 117 -131 176 -194 17 -18 62 -68 100 -111 39 -44 82 -91 96 -105 14 -14 79 -87 144 -161 65 -74 135 -153 156 -175 63 -68 92 -99 159 -175 36 -41 82 -90 103 -110 20 -19 37 -39 37 -44 0 -5 15 -23 34 -40 18 -17 105 -112 193 -211 88 -99 198 -214 244 -256 102 -92 221 -189 257 -209 15 -8 29 -18 32 -22 9 -12 134 -87 215 -130 109 -57 277 -126 350 -144 212 -50 258 -56 395 -51 123 4 145 8 245 41 60 21 112 41 115 45 3 3 28 21 57 39 57 37 117 97 159 163 16 24 32 47 37 50 10 8 55 129 79 214 13 48 18 94 16 148 -2 42 0 77 5 77 4 0 7 29 7 65 0 36 -4 65 -8 65 -5 0 -7 37 -4 81 5 88 -6 168 -44 321 -13 53 -24 107 -24 120 0 13 -14 76 -30 141 -16 65 -35 149 -41 185 -5 37 -23 121 -40 186 -16 65 -29 129 -29 141 0 12 -16 86 -35 164 -19 77 -35 151 -35 163 0 13 -14 76 -30 141 -16 65 -35 149 -41 185 -5 37 -23 121 -40 186 -16 65 -29 129 -29 141 0 12 -16 86 -35 164 -19 77 -35 151 -35 163 0 13 -14 76 -30 141 -16 65 -35 149 -41 185 -5 37 -23 121 -40 186 -16 65 -29 129 -29 141 0 12 -16 86 -35 164 -19 77 -35 151 -35 163 0 13 -14 76 -30 141 -16 65 -35 149 -41 185 -5 37 -23 121 -40 186 -16 65 -29 129 -29 141 0 12 -16 86 -35 164 -19 77 -35 151 -35 162 0 12 -13 78 -29 148 -47 198 -102 455 -101 470 0 7 -14 70 -31 140 -17 69 -34 151 -39 181 -5 30 -23 114 -39 185 -51 225 -102 459 -101 474 0 7 -16 80 -36 162 l-36 149 -328 0 -329 0 1 -22z"/>
 <path d="M7267 7613 c-11 -10 -8 -45 3 -38 6 4 7 -6 3 -26 -4 -22 -3 -30 5 -26 6 5 8 0 5 -13 -3 -11 0 -20 6 -20 5 0 8 -7 5 -15 -8 -20 14 -108 29 -117 9 -6 9 -8 0 -8 -7 0 -13 -9 -13 -20 0 -11 4 -20 9 -20 5 0 7 -9 4 -20 -3 -11 -1 -20 4 -20 6 0 8 -12 5 -26 -3 -19 -1 -25 7 -20 8 6 10 0 5 -18 -3 -15 -2 -26 4 -26 6 0 8 -9 5 -20 -3 -12 0 -20 6 -20 7 0 9 -5 6 -10 -8 -14 4 -92 14 -86 4 3 6 -15 4 -40 -2 -27 1 -44 7 -44 6 0 8 -4 5 -10 -10 -16 6 -81 18 -73 7 4 8 0 3 -12 -8 -21 3 -87 14 -80 4 2 5 -7 2 -22 -3 -14 -1 -23 4 -20 5 3 10 -23 10 -56 1 -34 13 -110 28 -170 14 -59 30 -138 36 -175 6 -37 24 -128 40 -202 16 -74 32 -152 35 -172 l6 -38 292 0 293 0 2 36 c2 23 -1 33 -8 29 -7 -5 -9 2 -4 21 5 19 4 25 -5 20 -8 -6 -10 0 -5 18 3 15 2 26 -4 26 -6 0 -8 9 -5 20 7 24 11 25 36 3 12 -11 17 -12 12 -4 -5 10 -4 12 3 7 7 -4 12 -14 12 -21 0 -17 34 -37 45 -27 3 4 5 1 3 -6 -6 -27 255 -164 282 -147 5 3 10 1 10 -5 0 -8 9 -10 26 -6 17 5 23 3 19 -4 -4 -7 26 -10 89 -10 53 0 96 3 96 8 0 4 17 8 38 8 45 2 126 36 115 49 -5 4 -3 5 4 2 15 -9 45 2 37 14 -3 5 1 6 9 3 17 -6 90 74 80 89 -3 6 -1 7 5 3 14 -8 45 50 39 73 -2 9 2 22 8 28 10 9 19 5 40 -17 16 -16 33 -27 38 -23 6 3 7 1 4 -5 -8 -12 51 -65 64 -57 5 4 6 0 3 -8 -6 -16 42 -41 58 -31 6 4 8 2 5 -3 -9 -14 19 -37 34 -27 7 4 9 3 6 -3 -7 -11 13 -23 92 -53 30 -12 60 -19 68 -16 9 4 11 1 7 -6 -5 -8 1 -9 20 -4 16 4 25 3 22 -2 -3 -5 11 -12 32 -16 57 -9 222 -7 222 3 0 5 8 7 19 4 24 -6 101 15 101 28 0 6 5 7 10 4 6 -4 35 5 66 19 42 19 55 30 50 41 -3 9 -2 14 2 11 22 -13 101 92 86 116 -4 6 -3 8 3 5 12 -8 38 66 29 82 -4 6 -2 11 5 11 8 0 10 12 5 40 -4 25 -2 40 4 40 6 0 10 25 10 56 0 42 -4 60 -17 70 -11 8 -13 13 -5 14 14 0 17 60 3 60 -6 0 -7 16 -4 37 4 22 2 34 -4 30 -5 -4 -8 6 -5 25 3 22 1 29 -7 24 -8 -6 -10 0 -5 18 3 15 2 26 -4 26 -5 0 -7 12 -4 26 3 17 1 25 -5 21 -6 -4 -8 3 -5 18 3 17 0 25 -9 25 -11 0 -11 2 -1 8 9 7 10 20 1 65 -7 31 -15 57 -19 57 -5 0 -6 9 -3 20 3 11 1 20 -4 20 -6 0 -8 12 -5 26 3 19 1 25 -7 20 -8 -6 -10 0 -5 18 3 14 2 26 -2 26 -5 0 -10 25 -11 55 -1 29 -16 115 -32 191 -17 75 -38 180 -47 233 -9 52 -20 106 -25 118 l-9 23 -314 0 c-173 0 -317 -4 -320 -9 -8 -12 35 -201 44 -196 4 2 5 -7 2 -20 -5 -29 17 -155 28 -155 4 0 5 -12 2 -26 -3 -18 -1 -25 6 -20 6 3 8 -1 5 -12 -2 -10 3 -46 11 -79 9 -34 16 -75 16 -92 0 -20 6 -34 16 -38 10 -4 12 -8 5 -13 -8 -4 -5 -36 10 -108 12 -56 26 -99 31 -96 5 3 6 -6 2 -20 -3 -15 -2 -26 4 -26 5 0 7 -12 4 -26 -3 -16 1 -30 9 -35 11 -7 11 -9 1 -9 -10 0 -13 -19 -11 -75 1 -41 -2 -79 -6 -83 -5 -4 -4 0 1 8 4 8 -9 -2 -30 -22 -22 -21 -47 -38 -57 -38 -9 0 -19 -6 -22 -12 -3 -10 -8 -10 -21 1 -15 13 -19 13 -27 0 -8 -12 -10 -12 -18 0 -5 8 -16 11 -26 8 -9 -4 -14 -3 -11 2 7 11 -22 23 -36 14 -7 -3 -8 -1 -4 6 4 7 -5 18 -23 29 -19 11 -41 38 -58 74 -16 31 -32 54 -37 51 -5 -4 -6 -1 -3 5 10 15 -3 43 -16 35 -6 -3 -7 -1 -3 5 9 14 -4 63 -14 57 -5 -3 -6 4 -3 15 3 11 1 20 -4 20 -5 0 -7 18 -5 40 3 33 1 40 -13 40 -14 0 -15 3 -6 14 11 13 5 76 -8 76 -3 0 -7 19 -8 42 -1 23 -6 44 -11 46 -5 1 -7 14 -4 29 3 16 1 24 -5 20 -6 -4 -8 4 -5 20 4 19 2 24 -8 18 -9 -5 -10 -2 -5 15 5 15 2 25 -6 31 -10 6 -11 9 -1 9 6 0 12 7 12 15 0 8 -7 15 -15 15 -13 0 -13 3 -3 21 10 16 10 23 2 26 -7 2 -10 13 -7 23 3 11 1 20 -4 20 -6 0 -8 12 -5 26 3 19 1 25 -7 20 -8 -6 -10 0 -5 18 3 15 2 26 -4 26 -5 0 -7 12 -4 26 3 17 1 25 -5 21 -6 -4 -8 3 -5 18 2 14 0 25 -7 25 -5 0 -8 7 -4 16 3 9 0 20 -8 25 -10 6 -10 9 -1 9 6 0 12 7 12 15 0 8 -5 15 -10 15 -6 0 -8 11 -4 25 3 14 2 25 -3 25 -5 0 -9 10 -9 23 l1 22 -314 3 c-173 1 -319 -2 -324 -7 -10 -10 2 -83 13 -76 4 2 5 -7 2 -22 -3 -16 -1 -24 5 -20 6 4 8 -3 5 -18 -2 -14 0 -25 6 -25 6 0 8 -9 5 -20 -3 -11 -1 -20 4 -20 5 0 8 -20 6 -45 -2 -28 1 -45 7 -45 6 0 8 -4 5 -10 -9 -14 6 -81 16 -74 5 3 6 -9 2 -27 -5 -25 -3 -30 7 -24 9 5 11 4 6 -3 -8 -13 7 -99 57 -334 17 -82 34 -148 37 -148 4 0 5 -13 2 -30 -3 -18 0 -30 7 -30 6 0 11 -7 11 -15 0 -8 -5 -15 -10 -15 -6 0 -9 -21 -8 -48 2 -52 -18 -90 -59 -113 -12 -7 -20 -16 -17 -20 3 -5 -2 -6 -11 -2 -10 3 -21 0 -25 -7 -7 -11 -11 -11 -24 -1 -12 10 -19 11 -30 2 -9 -8 -15 -8 -18 -2 -1 6 -15 12 -30 13 -15 1 -24 7 -21 12 4 5 -1 7 -11 3 -9 -4 -15 -3 -12 2 6 9 -44 47 -56 43 -5 -1 -7 1 -6 6 3 15 -15 42 -25 35 -6 -3 -7 -1 -3 5 3 6 -5 35 -19 63 -14 29 -25 59 -25 66 0 8 -5 11 -12 7 -7 -4 -8 -3 -4 4 9 15 -14 92 -28 92 -7 0 -6 3 1 8 18 12 5 82 -16 83 -10 0 -11 2 -3 6 6 2 12 14 12 24 0 11 -3 18 -7 16 -5 -3 -9 14 -10 36 -1 23 -6 43 -11 45 -5 1 -7 14 -4 29 3 18 1 24 -7 19 -8 -6 -10 0 -5 18 4 16 2 26 -5 26 -6 0 -8 7 -4 16 3 9 0 20 -8 25 -10 6 -10 9 -1 9 6 0 12 7 12 15 0 8 -5 15 -10 15 -6 0 -8 11 -4 25 3 14 2 25 -4 25 -5 0 -7 12 -4 26 3 19 1 25 -7 20 -9 -6 -10 0 -5 20 5 19 4 25 -5 20 -8 -6 -10 0 -5 18 3 15 2 26 -4 26 -5 0 -7 12 -4 26 3 19 1 25 -7 20 -8 -6 -10 0 -5 18 4 16 2 26 -5 26 -6 0 -8 7 -4 16 3 9 0 20 -8 25 -10 6 -10 9 -1 9 6 0 12 7 12 15 0 8 -5 15 -10 15 -6 0 -8 11 -4 25 3 14 2 25 -4 25 -6 0 -8 9 -5 21 4 12 0 25 -8 30 -16 10 -622 12 -632 2z"/>
 </g>

</svg>