<!DOCTYPE svg PUBLIC "-//W3C//DTD SVG 20010904//EN" "http://www.w3.org/TR/2001/REC-SVG-20010904/DTD/svg10.dtd">
<svg version="1.0" xmlns="http://www.w3.org/2000/svg" width="1600px" height="636px" viewBox="0 0 16000 6360" preserveAspectRatio="xMidYMid meet">
<g id="layer101" fill="#ffffff" stroke="none">
 <path d="M7516 6318 c-3 -24 -21 -236 -41 -473 -20 -236 -53 -641 -75 -900 -22 -258 -40 -489 -40 -512 l0 -43 64 0 64 0 21 93 c190 830 490 1357 851 1497 354 136 647 -41 794 -480 56 -167 70 -272 70 -525 1 -265 -18 -393 -81 -555 -118 -301 -312 -556 -803 -1055 -241 -245 -269 -274 -374 -405 -237 -291 -378 -619 -432 -1005 -23 -168 -23 -603 0 -770 88 -626 373 -1053 778 -1165 115 -32 256 -28 369 10 110 37 150 57 330 166 201 122 228 131 290 99 52 -28 105 -134 116 -236 l6 -59 63 0 c63 0 64 0 64 28 0 15 11 209 25 432 20 333 78 1288 87 1460 3 43 2 45 -26 48 -17 2 -48 1 -71 -2 l-41 -7 -17 -107 c-78 -487 -240 -911 -449 -1169 -265 -328 -613 -394 -838 -160 -136 143 -210 333 -228 593 -34 458 107 814 489 1240 34 38 175 184 313 324 326 331 460 484 587 670 215 317 344 660 383 1017 29 261 17 616 -29 835 -86 409 -268 758 -492 940 -123 100 -197 141 -348 190 -77 26 -316 36 -408 18 -99 -19 -256 -83 -373 -151 -158 -93 -272 -149 -300 -149 -34 0 -78 24 -103 56 -23 30 -56 132 -66 207 l-6 47 -58 0 -59 0 -6 -42z"/>
 <path d="M13196 6328 c-3 -18 -22 -231 -41 -473 -20 -242 -54 -650 -76 -906 -21 -257 -39 -488 -39 -513 l0 -46 64 0 63 0 18 78 c74 325 201 706 305 912 216 430 473 644 775 644 135 0 251 -49 351 -149 101 -102 173 -229 228 -402 46 -147 61 -268 61 -493 0 -304 -28 -451 -125 -657 -126 -266 -312 -501 -746 -943 -270 -274 -280 -285 -377 -405 -237 -294 -367 -579 -433 -948 -40 -224 -39 -691 1 -922 67 -380 202 -671 402 -867 168 -165 333 -238 539 -238 150 0 283 47 479 169 220 137 274 158 333 127 57 -29 108 -133 119 -243 l6 -53 63 0 64 0 0 33 c0 17 11 214 25 437 67 1089 85 1390 85 1443 l0 57 -68 0 -68 0 -17 -113 c-61 -399 -197 -796 -365 -1061 -51 -80 -146 -190 -219 -252 -232 -200 -517 -212 -698 -29 -137 139 -213 330 -234 593 -32 396 74 728 346 1077 100 128 164 198 442 480 261 265 377 390 480 519 290 366 461 769 506 1193 94 898 -232 1706 -777 1922 -128 50 -211 64 -371 59 -132 -4 -150 -7 -255 -43 -70 -23 -155 -62 -225 -103 -181 -105 -296 -162 -326 -162 -75 0 -142 96 -162 233 l-11 77 -59 0 c-58 0 -58 0 -63 -32z"/>
 <path d="M0 6219 c0 -12 18 -103 41 -203 50 -221 151 -681 239 -1081 23 -104 59 -269 80 -365 22 -96 60 -269 85 -385 52 -236 98 -446 155 -705 57 -259 103 -469 155 -705 25 -115 63 -289 85 -385 21 -96 57 -260 80 -365 23 -104 59 -269 80 -365 22 -96 58 -260 80 -365 23 -104 59 -266 80 -360 21 -93 59 -269 85 -390 26 -121 60 -272 74 -335 l27 -115 581 -3 582 -2 10 37 c6 21 22 92 36 158 26 124 59 275 125 575 22 96 60 270 85 385 52 236 98 446 155 705 46 210 93 423 155 703 25 114 65 300 90 415 26 114 62 279 81 367 19 88 53 241 75 340 22 99 58 263 80 365 40 182 80 362 158 715 22 99 61 275 86 390 25 116 61 278 79 360 19 83 38 170 42 195 5 25 11 -1202 14 -2830 l5 -2875 545 -2 c300 -2 601 0 669 5 l125 7 9 35 c6 19 261 1036 568 2260 l558 2225 0 -2267 1 -2268 353 0 c193 0 389 3 435 7 l82 6 0 3069 0 3068 -662 -2 -663 -3 -101 -405 c-104 -420 -185 -748 -374 -1515 -61 -247 -151 -612 -200 -810 -49 -198 -144 -583 -211 -855 -67 -272 -155 -625 -195 -785 l-72 -290 -1 2333 -1 2332 -934 0 c-882 0 -935 -1 -940 -17 -3 -10 -17 -83 -31 -163 -15 -80 -45 -242 -66 -360 -90 -486 -191 -1032 -239 -1295 -38 -206 -62 -340 -161 -870 -21 -115 -57 -311 -80 -435 -112 -614 -148 -810 -238 -1295 -22 -115 -50 -266 -62 -335 l-23 -125 -17 90 c-22 113 -86 454 -139 735 -52 277 -111 592 -160 850 -21 113 -59 318 -85 455 -25 138 -61 329 -80 425 -18 96 -52 276 -75 400 -23 124 -57 304 -75 400 -19 96 -55 288 -80 425 -73 393 -122 653 -165 875 -22 113 -40 213 -40 223 0 16 -33 17 -480 17 l-480 0 0 -21z"/>
 <path d="M10710 6146 l0 -93 92 -8 c221 -17 350 -102 397 -263 44 -146 44 -148 48 -1222 l4 -1035 -25 -60 c-13 -33 -153 -384 -311 -780 -157 -396 -299 -751 -315 -790 -16 -38 -66 -162 -111 -275 -45 -113 -111 -275 -147 -360 -35 -85 -76 -182 -89 -215 -45 -109 -221 -459 -263 -522 -82 -124 -172 -191 -277 -208 l-43 -7 0 -89 0 -89 760 0 760 0 0 89 0 88 -106 11 c-184 18 -252 70 -274 209 -16 97 28 310 100 487 15 39 49 125 75 191 26 66 62 158 80 205 18 47 58 148 88 225 30 77 86 221 125 320 38 99 114 293 167 430 53 138 116 300 140 360 23 61 55 143 71 183 15 39 31 72 34 72 8 0 54 -120 282 -740 27 -74 62 -169 78 -210 16 -41 61 -163 100 -270 114 -310 162 -440 249 -673 111 -298 135 -391 129 -516 -5 -115 -28 -170 -91 -217 -55 -41 -95 -54 -194 -61 l-83 -6 0 -88 0 -89 595 0 595 0 0 89 0 88 -64 16 c-239 59 -403 316 -708 1112 -44 116 -107 280 -140 365 -32 85 -72 189 -88 230 -16 41 -41 107 -56 145 -15 39 -41 108 -59 155 -74 195 -126 332 -170 445 -26 66 -55 143 -65 170 -10 28 -46 122 -80 210 -34 88 -73 190 -86 228 l-25 67 4 1068 c4 1127 6 1155 51 1282 58 159 176 232 397 247 l99 6 0 94 0 93 -825 0 -825 0 0 -94z"/>
 <path d="M15651 1100 c-179 -42 -303 -374 -247 -662 44 -222 135 -348 268 -373 125 -24 265 123 313 328 20 86 20 301 -1 386 -40 161 -131 287 -227 316 -55 16 -57 17 -106 5z m131 -111 c161 -105 206 -500 83 -714 -77 -134 -189 -161 -282 -69 -85 85 -129 235 -121 413 13 290 169 469 320 370z"/>
 <path d="M15580 579 l0 -311 94 4 c76 3 99 8 116 23 39 35 50 70 50 157 0 90 -18 142 -55 162 -11 6 -22 12 -24 13 -2 1 18 56 43 122 25 67 46 126 46 131 0 7 -15 10 -36 8 -35 -3 -37 -5 -59 -68 -57 -164 -69 -190 -87 -190 -16 0 -18 11 -18 130 l0 130 -35 0 -35 0 0 -311z m154 -49 c32 -12 48 -66 35 -115 -12 -41 -15 -43 -73 -51 l-46 -7 0 92 0 91 29 0 c16 0 41 -4 55 -10z"/>
 </g>

</svg>