<!DOCTYPE svg PUBLIC "-//W3C//DTD SVG 20010904//EN" "http://www.w3.org/TR/2001/REC-SVG-20010904/DTD/svg10.dtd">
<svg version="1.0" xmlns="http://www.w3.org/2000/svg" width="1600px" height="1138px" viewBox="0 0 16000 11380" preserveAspectRatio="xMidYMid meet">
<g id="layer101" fill="#ffffff" stroke="none">
 <path d="M11780 9890 l0 -1470 335 0 335 0 0 193 1 192 21 -40 c67 -130 196 -243 354 -312 201 -89 473 -103 674 -36 218 72 408 254 521 500 168 362 141 865 -65 1213 -126 213 -307 348 -552 411 -124 32 -341 32 -459 0 -131 -35 -239 -94 -321 -175 -39 -39 -80 -84 -92 -101 l-21 -30 -1 563 0 562 -365 0 -365 0 0 -1470z m1264 105 c75 -20 130 -53 187 -112 84 -88 123 -182 140 -340 28 -249 -58 -460 -226 -559 -55 -32 -176 -57 -235 -49 -206 29 -341 169 -391 404 -18 87 -6 262 24 348 43 121 122 216 227 272 97 52 174 62 274 36z"/>
 <path d="M603 10556 c-254 -42 -441 -157 -538 -331 -58 -104 -67 -154 -63 -343 3 -143 7 -175 26 -223 129 -325 517 -487 1112 -465 96 3 194 9 218 12 l42 7 0 -36 c0 -107 -93 -234 -202 -275 -96 -36 -236 -48 -401 -34 -200 17 -345 55 -486 127 l-48 24 -6 -151 c-4 -83 -7 -195 -7 -248 l0 -98 52 -21 c166 -65 379 -107 625 -120 266 -15 452 4 619 64 278 99 442 273 510 543 24 93 24 101 24 571 0 493 10 750 33 884 l14 77 -333 0 -333 0 -5 -32 c-3 -18 -9 -91 -13 -162 l-8 -129 -35 49 c-109 153 -239 248 -402 294 -95 27 -282 34 -395 16z m478 -496 c145 -49 238 -146 295 -308 13 -37 24 -88 24 -113 l0 -46 -97 -6 c-323 -22 -489 12 -579 117 -61 71 -71 166 -27 248 59 109 234 158 384 108z"/>
 <path d="M3148 10559 c-59 -5 -148 -15 -198 -24 -88 -15 -279 -61 -287 -68 -2 -3 6 -114 17 -248 11 -134 20 -253 20 -265 0 -21 2 -20 90 12 202 76 456 121 635 111 117 -6 172 -25 215 -73 26 -30 30 -43 30 -90 0 -50 -3 -58 -41 -99 -48 -52 -126 -85 -314 -135 -349 -92 -492 -168 -587 -315 -59 -91 -82 -178 -81 -310 1 -173 48 -296 161 -417 89 -97 253 -186 416 -228 168 -43 489 -45 732 -4 76 12 310 76 319 86 1 2 -2 37 -7 78 -5 41 -17 153 -27 248 -10 95 -20 175 -23 178 -3 2 -21 -4 -39 -15 -72 -43 -248 -92 -385 -109 -212 -25 -377 -1 -439 65 -37 41 -35 101 6 147 31 36 133 82 234 105 387 89 537 151 655 271 102 104 150 235 150 410 0 242 -105 435 -300 551 -205 121 -539 170 -952 138z"/>
 <path d="M5790 10560 c-267 -34 -443 -140 -531 -323 -69 -143 -71 -173 -76 -774 l-4 -533 -205 0 -204 0 0 -255 0 -255 210 0 210 0 0 -234 0 -235 73 -22 c39 -12 126 -39 192 -60 66 -21 143 -44 170 -53 28 -8 95 -28 150 -45 55 -18 108 -34 118 -37 16 -5 17 16 17 340 l0 346 250 0 250 0 0 255 0 255 -251 0 -250 0 3 473 c4 531 5 534 79 608 67 67 171 84 338 54 47 -8 85 -14 86 -12 4 4 26 469 23 472 -2 2 -59 10 -128 19 -151 21 -417 28 -520 16z"/>
 <path d="M9578 10560 c-334 -53 -547 -241 -628 -555 -33 -128 -40 -282 -40 -952 l0 -633 364 0 364 0 5 588 c4 560 5 591 25 670 12 45 29 97 38 115 70 135 201 190 373 153 121 -26 200 -86 257 -197 76 -151 84 -227 84 -836 l0 -493 365 0 365 0 0 1050 0 1050 -335 0 -335 0 0 -187 0 -186 -41 63 c-145 225 -374 343 -684 355 -66 2 -146 0 -177 -5z"/>
 <path d="M6930 9470 l0 -1050 335 0 335 0 0 187 0 187 47 -79 c91 -152 229 -272 361 -311 83 -25 200 -33 327 -22 66 6 123 13 127 17 7 6 -27 589 -35 597 -2 3 -38 -1 -78 -7 -114 -18 -269 -7 -353 25 -127 48 -202 121 -267 260 -60 127 -62 151 -66 724 l-4 522 -365 0 -364 0 0 -1050z"/>
 <path d="M15029 9041 c-119 -22 -253 -97 -353 -197 -104 -104 -175 -235 -197 -362 -13 -79 -13 -226 1 -303 38 -207 190 -404 387 -500 199 -96 456 -93 658 6 122 60 243 181 305 303 64 128 74 174 75 342 0 138 -3 162 -24 220 -87 243 -231 390 -461 472 -43 16 -88 21 -200 23 -80 2 -166 0 -191 -4z m286 -185 c192 -51 338 -209 379 -408 20 -97 20 -139 0 -235 -28 -135 -89 -234 -196 -316 -284 -215 -693 -81 -800 262 -34 110 -32 257 5 359 60 168 192 291 360 337 67 18 188 19 252 1z"/>
 <path d="M15306 8648 c-8 -18 -19 -59 -26 -91 -17 -85 -50 -119 -123 -125 l-57 -4 0 121 0 121 -105 0 -105 0 0 -334 0 -335 58 -8 c97 -13 392 -10 437 6 101 34 157 120 138 212 -8 42 -63 95 -114 110 l-41 13 34 17 c18 9 43 28 56 41 23 25 62 123 62 156 0 10 9 44 19 75 l20 57 -120 0 -120 0 -13 -32z m-53 -382 c71 -47 18 -136 -82 -136 -57 0 -61 6 -61 87 l0 76 59 -6 c32 -2 70 -12 84 -21z"/>
 <path d="M6880 6753 c-325 -22 -614 -77 -875 -165 -49 -16 -92 -31 -93 -33 -3 -3 1471 -2954 1805 -3615 62 -122 84 -157 104 -164 50 -17 74 -1 122 81 59 104 137 244 137 249 0 2 25 50 56 106 56 102 351 649 434 803 23 44 55 103 70 130 46 84 371 685 413 765 22 41 51 95 64 120 14 25 88 160 163 300 76 140 155 286 175 324 l38 69 -74 71 c-232 221 -410 357 -667 509 -150 89 -386 197 -572 263 -393 140 -911 215 -1300 187z"/>
 <path d="M4663 5754 c-52 -54 -127 -136 -167 -183 -39 -47 -73 -88 -76 -91 -15 -14 -109 -146 -165 -230 -203 -308 -340 -609 -434 -955 -50 -181 -48 -174 -76 -344 -39 -237 -48 -380 -42 -639 5 -223 15 -325 51 -536 59 -334 190 -701 363 -1012 213 -384 475 -695 843 -1001 96 -80 280 -205 424 -287 361 -209 759 -347 1191 -413 167 -25 203 -27 485 -27 284 0 318 2 485 28 253 39 439 85 652 162 474 172 869 422 1224 774 234 233 367 402 538 684 145 240 312 651 367 901 8 38 24 111 35 160 67 312 77 811 23 1165 -15 99 -64 327 -90 418 -13 43 -18 51 -29 42 -8 -7 -17 -21 -21 -32 -3 -11 -39 -81 -78 -156 -40 -76 -112 -213 -161 -307 -132 -256 -329 -635 -400 -770 -119 -228 -203 -391 -269 -521 -55 -110 -115 -219 -207 -373 -31 -54 -203 -308 -247 -365 -121 -160 -330 -335 -478 -402 -265 -119 -625 -140 -894 -52 -241 78 -462 252 -672 529 -194 256 -283 412 -660 1159 -130 256 -362 715 -516 1020 -154 305 -415 823 -580 1150 -165 327 -306 596 -312 598 -7 3 -55 -40 -107 -94z"/>
 </g>

</svg>