<!DOCTYPE svg PUBLIC "-//W3C//DTD SVG 20010904//EN" "http://www.w3.org/TR/2001/REC-SVG-20010904/DTD/svg10.dtd">
<svg version="1.0" xmlns="http://www.w3.org/2000/svg" width="1589px" height="461px" viewBox="0 0 15890 4610" preserveAspectRatio="xMidYMid meet">
<g id="layer101" fill="#ffffff" stroke="none">
 <path d="M15157 4603 c-2 -5 -10 -24 -16 -44 -11 -34 -10 -37 32 -81 25 -25 47 -57 51 -72 4 -18 -12 -96 -49 -239 -30 -117 -58 -220 -61 -229 -5 -16 2 -18 53 -18 l58 0 30 162 30 161 27 -159 c15 -87 27 -160 27 -161 2 -8 101 -1 101 6 0 22 -101 431 -120 485 -27 81 -64 140 -104 171 -34 26 -51 31 -59 18z"/>
 <path d="M7495 4409 c-36 -10 -69 -39 -90 -78 -24 -47 -36 -152 -26 -224 18 -126 71 -187 165 -187 43 0 53 4 86 38 23 23 43 55 50 82 18 66 16 196 -4 257 -18 56 -72 113 -106 113 -10 0 -24 2 -32 4 -7 2 -27 0 -43 -5z m77 -122 c20 -50 18 -216 -5 -250 -39 -60 -78 -13 -85 101 -8 151 49 246 90 149z"/>
 <path d="M12620 4407 c-26 -9 -41 -23 -57 -57 -28 -54 -29 -101 -4 -156 24 -52 58 -79 121 -94 53 -13 62 -29 40 -71 -12 -22 -68 -26 -102 -8 -24 13 -34 5 -43 -39 -6 -30 -4 -33 29 -47 43 -18 132 -19 166 -2 14 6 35 32 47 57 20 41 22 63 25 233 l3 187 -47 0 c-43 0 -48 -2 -48 -22 l0 -21 -22 20 c-31 27 -66 34 -108 20z m95 -97 c22 -25 35 -140 16 -140 -26 0 -72 32 -82 57 -12 33 -3 80 19 93 24 13 27 13 47 -10z"/>
 <path d="M13845 4411 c-61 -19 -85 -58 -85 -139 0 -102 39 -150 140 -174 48 -11 51 -13 45 -37 -11 -43 -25 -53 -69 -49 -23 3 -48 8 -58 12 -11 5 -18 2 -21 -11 -3 -10 -8 -28 -12 -41 -5 -19 -1 -25 29 -37 19 -8 62 -15 95 -15 49 0 65 4 90 26 43 36 50 74 53 282 l3 182 -47 0 c-38 0 -48 -4 -48 -16 0 -15 -2 -15 -22 -2 -30 19 -68 27 -93 19z m71 -89 c22 -14 34 -51 34 -101 0 -29 -5 -51 -10 -51 -20 0 -68 29 -74 45 -11 30 -6 83 10 99 17 18 24 19 40 8z"/>
 <path d="M5670 4130 l0 -280 -55 0 -55 0 0 -55 0 -55 160 0 160 0 0 55 0 55 -50 0 -50 0 0 280 0 280 -55 0 -55 0 0 -280z"/>
 <path d="M5970 4070 l0 -340 50 0 50 0 0 116 0 115 26 -20 c40 -31 108 -29 139 5 35 37 45 105 45 294 l0 170 -55 0 -55 0 0 -178 c0 -194 -6 -217 -51 -210 -38 5 -48 52 -48 231 l-1 157 -50 0 -50 0 0 -340z"/>
 <path d="M6470 4387 c-70 -46 -100 -153 -80 -281 19 -124 73 -186 163 -186 88 0 137 78 137 217 l0 63 -100 0 -100 0 0 26 c0 36 30 84 58 91 13 3 43 3 67 0 47 -7 55 1 55 49 0 31 -32 44 -109 44 -44 0 -66 -6 -91 -23z m120 -300 c0 -74 -60 -104 -86 -42 -26 64 -21 75 36 75 50 0 50 0 50 -33z"/>
 <path d="M6990 4081 l0 -330 46 -7 c66 -10 159 1 196 23 19 10 43 38 56 63 20 39 23 56 19 122 -3 62 -9 85 -30 117 -31 47 -91 81 -142 81 l-35 0 0 130 0 130 -55 0 -55 0 0 -329z m173 -42 c70 -54 45 -199 -35 -199 l-28 0 0 110 c0 101 2 110 19 110 10 0 30 -9 44 -21z"/>
 <path d="M7812 4177 c-28 -128 -52 -238 -52 -245 0 -13 110 -18 110 -4 1 4 11 79 24 167 l22 160 34 -168 33 -168 41 3 41 3 31 165 30 164 24 -167 24 -167 53 0 c29 0 53 2 53 5 0 3 -25 111 -55 240 -30 130 -55 238 -55 241 0 2 -20 4 -44 4 -52 0 -46 12 -77 -150 -13 -63 -25 -118 -29 -122 -3 -4 -19 56 -35 132 l-29 140 -46 0 -46 0 -52 -233z"/>
 <path d="M8444 4401 c-37 -16 -81 -77 -94 -131 -18 -77 -8 -200 22 -258 30 -58 78 -92 130 -92 90 0 134 61 145 199 l6 81 -107 0 -108 0 7 33 c15 72 49 95 129 84 l44 -6 5 37 c4 20 2 41 -4 47 -13 13 -148 17 -175 6z m106 -301 c0 -11 -7 -36 -14 -55 -26 -61 -74 -38 -91 43 l-7 32 56 0 c50 0 56 -2 56 -20z"/>
 <path d="M8750 4165 l0 -245 45 0 c43 0 45 1 45 29 l0 29 29 -29 c20 -19 40 -29 60 -29 31 0 31 0 31 55 0 48 -3 55 -19 55 -11 0 -33 11 -48 24 l-28 24 -3 166 -3 166 -55 0 -54 0 0 -245z"/>
 <path d="M9230 4165 l0 -245 50 0 50 0 0 245 0 245 -50 0 -50 0 0 -245z"/>
 <path d="M9460 4242 c0 -93 -3 -203 -6 -245 l-7 -77 47 0 c39 0 49 4 53 20 5 20 5 20 30 0 32 -25 99 -26 132 -4 44 31 51 69 51 279 l0 195 -50 0 -50 0 0 -169 c0 -93 -4 -181 -9 -194 -13 -33 -36 -40 -63 -17 -22 18 -23 24 -26 199 l-3 181 -50 0 -49 0 0 -168z"/>
 <path d="M10080 4075 l0 -335 130 0 130 0 0 50 0 50 -75 0 -75 0 0 85 0 85 70 0 70 0 0 50 0 50 -70 0 -70 0 0 100 0 100 80 0 80 0 0 50 0 50 -135 0 -135 0 0 -335z"/>
 <path d="M10450 4070 l0 -340 50 0 50 0 0 340 0 340 -50 0 -50 0 0 -340z"/>
 <path d="M10750 4388 c-52 -36 -74 -89 -79 -188 -5 -121 11 -181 63 -236 40 -41 46 -44 95 -44 47 0 57 4 86 33 40 40 55 89 55 180 l0 67 -101 0 -102 0 6 36 c4 20 17 48 29 61 20 22 30 24 83 21 l60 -3 6 38 c5 34 3 40 -18 48 -13 5 -53 9 -87 9 -49 0 -70 -5 -96 -22z m124 -295 c-13 -61 -26 -83 -49 -83 -24 0 -55 50 -55 89 0 19 6 21 55 21 55 0 55 0 49 -27z"/>
 <path d="M11149 4387 c-19 -12 -45 -44 -59 -72 -22 -43 -25 -63 -25 -145 1 -79 5 -103 24 -143 34 -68 79 -100 149 -104 74 -5 85 3 76 56 -7 41 -8 43 -38 37 -65 -12 -106 49 -106 156 0 97 44 155 108 142 29 -6 30 -5 34 37 3 25 0 47 -6 51 -6 4 -36 8 -67 8 -42 0 -65 -6 -90 -23z"/>
 <path d="M11473 4386 l-28 -24 -3 -176 -3 -176 -30 0 c-28 0 -29 -2 -29 -45 0 -43 1 -45 30 -45 28 0 30 -2 30 -39 0 -36 3 -40 40 -55 22 -9 45 -16 50 -16 6 0 10 25 10 55 l0 55 40 0 40 0 0 45 0 45 -40 0 -40 0 0 133 c0 145 11 181 53 175 20 -3 22 2 25 45 l3 47 -60 0 c-49 0 -65 -4 -88 -24z"/>
 <path d="M11720 4196 c0 -117 -3 -228 -6 -245 l-6 -31 51 0 c49 0 51 1 51 27 l0 27 28 -27 c16 -16 39 -27 55 -27 26 0 27 2 27 54 0 51 -1 54 -28 59 -56 11 -67 44 -70 220 l-4 157 -49 0 -49 0 0 -214z"/>
 <path d="M12010 4165 l0 -245 50 0 50 0 0 245 0 245 -50 0 -50 0 0 -245z"/>
 <path d="M12330 4403 c-33 -12 -80 -69 -96 -116 -23 -68 -16 -206 13 -262 38 -73 89 -105 166 -105 58 0 66 8 58 55 -6 36 -9 40 -36 40 -77 1 -110 48 -109 155 1 101 47 163 107 144 24 -8 37 10 37 52 0 20 -6 34 -16 38 -19 7 -103 7 -124 -1z"/>
 <path d="M12960 4070 l0 -340 55 0 55 0 0 340 0 340 -55 0 -55 0 0 -340z"/>
 <path d="M13388 4399 c-23 -9 -27 -15 -23 -35 3 -13 7 -36 10 -50 5 -20 10 -24 23 -19 9 4 38 10 64 12 40 5 50 2 72 -20 19 -19 26 -37 26 -63 0 -33 -9 -45 -84 -118 -67 -65 -87 -91 -96 -126 -24 -90 13 -190 83 -223 40 -19 124 -22 160 -6 22 10 23 14 16 57 -11 55 -12 56 -37 43 -48 -26 -104 -8 -120 37 -15 43 7 83 73 133 77 58 109 114 109 193 0 74 -23 127 -72 164 -29 22 -47 27 -106 29 -39 1 -83 -2 -98 -8z"/>
 <path d="M14190 4210 l0 -200 -25 0 c-23 0 -25 -4 -25 -45 0 -41 2 -45 24 -45 25 0 36 -21 36 -68 0 -39 31 -93 64 -113 29 -18 98 -25 128 -14 11 4 13 17 9 48 -6 38 -9 42 -34 42 -35 0 -67 36 -67 76 0 27 3 29 40 29 l40 0 0 45 0 45 -40 0 -40 0 0 200 0 200 -55 0 -55 0 0 -200z"/>
 <path d="M14520 4388 c-20 -13 -46 -44 -60 -73 -21 -43 -25 -64 -25 -145 0 -84 3 -102 29 -153 34 -70 72 -97 136 -97 87 0 131 63 138 198 l5 82 -102 0 -101 0 0 25 c0 39 27 84 56 91 14 4 45 4 69 1 44 -7 44 -6 51 29 9 49 -4 58 -89 62 -62 3 -77 1 -107 -20z m117 -308 c-6 -47 -22 -70 -48 -70 -22 0 -49 47 -49 85 0 24 3 25 51 25 l52 0 -6 -40z"/>
 <path d="M14905 4388 c-36 -31 -44 -79 -45 -240 l0 -138 -25 0 c-23 0 -25 -4 -25 -45 0 -41 2 -45 25 -45 22 0 25 -4 25 -38 0 -36 2 -39 48 -55 26 -9 50 -17 55 -17 4 0 7 25 7 55 l0 55 40 0 40 0 0 45 0 45 -40 0 -40 0 0 139 c0 116 3 142 16 156 10 9 25 14 35 12 17 -5 19 1 19 44 l0 49 -54 0 c-43 0 -61 -5 -81 -22z"/>
 <path d="M15625 4055 c-162 -57 -161 -282 1 -335 92 -31 213 10 247 83 21 43 22 128 2 166 -43 84 -152 121 -250 86z m142 -46 c137 -66 86 -259 -67 -259 -152 0 -205 189 -73 259 49 26 86 26 140 0z"/>
 <path d="M15654 3990 c-66 -27 -84 -117 -35 -172 27 -31 34 -33 94 -33 71 0 81 4 71 29 -5 12 -14 15 -44 10 -59 -10 -100 18 -100 67 0 41 34 64 93 64 31 0 52 5 54 12 9 26 -85 43 -133 23z"/>
 <path d="M9236 3848 c-22 -31 -20 -64 4 -88 22 -22 42 -25 71 -10 14 8 19 21 19 53 0 24 -5 48 -12 55 -20 20 -65 14 -82 -10z"/>
 <path d="M12016 3848 c-44 -63 26 -145 78 -92 19 18 21 85 4 102 -20 20 -65 14 -82 -10z"/>
 <path d="M265 3520 c-109 -35 -203 -126 -244 -235 l-21 -56 2 -1477 3 -1477 29 -56 c35 -71 114 -149 186 -186 l55 -28 1345 -3 1345 -2 -1375 1375 -1375 1375 555 0 555 0 -195 195 -195 195 830 0 830 0 -200 200 -200 200 -935 -1 c-895 0 -938 -1 -995 -19z"/>
 <path d="M3720 2555 c542 -542 989 -985 994 -985 13 0 -2 206 -24 335 -52 304 -177 596 -361 845 -61 83 -265 296 -344 358 l-40 32 390 0 390 0 -200 200 -200 200 -795 0 -795 0 985 -985z"/>
 <path d="M5715 3140 c-55 -5 -115 -12 -132 -15 l-33 -6 0 -1353 0 -1354 63 -11 c131 -24 208 -31 382 -37 415 -15 657 60 819 256 84 102 128 244 129 415 1 129 -16 205 -70 315 -47 98 -167 220 -266 271 l-68 36 43 12 c146 43 303 174 371 311 59 118 79 212 79 365 0 154 -21 248 -81 370 -114 229 -304 355 -616 411 -107 19 -471 27 -620 14z m533 -355 c84 -20 135 -47 197 -106 100 -95 149 -259 126 -422 -36 -257 -225 -407 -513 -407 l-68 0 0 469 0 470 23 4 c51 10 176 6 235 -8z m-66 -1276 c220 -47 355 -255 320 -493 -7 -44 -23 -104 -37 -133 -32 -65 -110 -136 -173 -158 -59 -20 -171 -30 -246 -21 l-56 7 0 405 0 404 70 0 c38 0 93 -5 122 -11z"/>
 <path d="M11091 3140 c-51 -4 -108 -11 -127 -15 l-34 -6 0 -1353 0 -1353 53 -11 c186 -41 560 -51 718 -19 313 63 509 212 644 491 101 209 144 418 152 747 11 408 -41 723 -157 966 -60 128 -95 179 -184 272 -137 143 -279 216 -506 262 -110 23 -407 33 -559 19z m541 -389 c223 -85 354 -338 399 -768 16 -156 7 -549 -16 -673 -62 -342 -201 -532 -423 -579 -59 -12 -128 -14 -184 -5 l-38 7 0 1017 c0 805 3 1020 13 1024 29 13 193 -2 249 -23z"/>
 <path d="M7390 1750 l0 -1380 570 0 570 0 0 195 0 195 -345 0 -345 0 0 375 0 375 325 0 325 0 0 185 0 185 -325 0 -325 0 0 430 0 430 370 0 370 0 0 195 0 195 -595 0 -595 0 0 -1380z"/>
 <path d="M8920 1750 l0 -1380 207 2 207 3 243 615 c291 733 385 977 469 1210 73 202 71 208 48 -135 -10 -154 -17 -471 -21 -962 l-5 -733 196 0 196 0 0 1380 0 1380 -204 0 -204 0 -290 -727 c-271 -680 -351 -893 -438 -1168 l-35 -110 6 115 c12 250 25 950 25 1408 l0 482 -200 0 -200 0 0 -1380z"/>
 <path d="M12850 1750 l0 -1380 565 0 565 0 0 195 0 195 -345 0 -345 0 0 375 0 375 325 0 325 0 0 185 0 185 -325 0 -325 0 0 430 0 430 370 0 370 0 0 195 0 195 -590 0 -590 0 0 -1380z"/>
 <path d="M14380 1771 l0 -1359 25 -6 c143 -36 515 -56 690 -37 241 26 376 81 503 205 113 110 170 235 192 421 22 187 -6 361 -82 508 -51 99 -171 224 -265 277 -35 19 -63 37 -63 40 0 3 25 18 56 34 104 55 186 179 238 361 14 50 41 178 61 286 40 228 95 468 124 553 12 33 21 63 21 68 0 4 -103 8 -230 8 l-229 0 -20 -65 c-29 -92 -67 -281 -102 -495 -38 -239 -55 -310 -94 -395 -60 -131 -149 -185 -307 -185 l-78 0 0 570 0 570 -220 0 -220 0 0 -1359z m712 -163 c82 -38 122 -72 168 -140 71 -107 100 -250 80 -398 -17 -123 -43 -184 -109 -251 -78 -79 -141 -102 -281 -103 -58 0 -111 3 -117 7 -10 6 -13 110 -13 464 l0 455 108 -4 c90 -3 116 -8 164 -30z"/>
 <path d="M1860 2753 c0 -4 87 -94 192 -200 l193 -193 -548 0 c-301 0 -547 -3 -547 -8 0 -11 2344 -2352 2355 -2352 5 0 135 125 287 277 l278 278 -507 507 -508 508 555 0 555 0 -595 595 -595 595 -557 0 c-307 0 -558 -3 -558 -7z"/>
 </g>

</svg>