<!DOCTYPE svg PUBLIC "-//W3C//DTD SVG 20010904//EN" "http://www.w3.org/TR/2001/REC-SVG-20010904/DTD/svg10.dtd">
<svg version="1.0" xmlns="http://www.w3.org/2000/svg" width="1600px" height="468px" viewBox="0 0 16000 4680" preserveAspectRatio="xMidYMid meet">
<g id="layer101" fill="#ffffff" stroke="none">
 <path d="M12450 4040 l0 -570 75 0 75 0 0 35 0 35 48 -31 c162 -103 352 -70 441 77 46 75 64 152 65 284 2 217 -63 358 -196 424 -94 47 -239 33 -325 -31 l-33 -24 0 185 0 186 -75 0 -75 0 0 -570z m458 113 c75 -61 110 -196 91 -349 -15 -122 -41 -169 -111 -205 -66 -34 -132 -21 -227 42 l-61 41 0 213 0 214 46 27 c108 63 197 69 262 17z"/>
 <path d="M13360 4040 l0 -570 75 0 75 0 0 36 0 35 28 -19 c125 -87 282 -95 388 -20 90 64 136 188 138 368 2 219 -66 364 -199 426 -94 44 -238 29 -322 -33 l-33 -24 0 185 0 186 -75 0 -75 0 0 -570z m458 113 c75 -61 110 -196 91 -349 -15 -122 -41 -169 -111 -205 -66 -34 -132 -21 -227 42 l-61 41 0 212 0 212 54 32 c72 44 101 52 165 47 40 -3 63 -11 89 -32z"/>
 <path d="M5713 4295 c-81 -41 -123 -119 -123 -230 0 -110 45 -191 131 -235 45 -23 176 -48 292 -56 l87 -6 0 -36 c0 -95 -69 -152 -185 -152 -80 0 -140 22 -173 65 -12 15 -25 25 -29 23 -38 -16 -113 -65 -113 -73 0 -17 71 -85 110 -105 57 -29 152 -43 248 -37 151 10 210 39 255 126 l27 55 0 333 0 333 -70 0 -70 0 0 -46 0 -46 -49 36 c-80 59 -127 76 -212 76 -61 0 -85 -5 -126 -25z m265 -137 c20 -12 56 -36 79 -52 l42 -31 1 -93 0 -93 -72 6 c-172 15 -238 40 -268 101 -37 76 -15 158 50 182 47 16 123 8 168 -20z"/>
 <path d="M7465 4307 c-105 -35 -171 -100 -207 -205 -20 -58 -23 -87 -22 -212 0 -189 21 -265 98 -348 124 -134 420 -119 515 26 38 58 52 113 58 230 l6 112 -267 0 -267 0 6 53 c19 164 78 227 217 227 61 0 88 -11 137 -55 22 -20 44 -35 48 -33 32 13 113 64 113 70 0 19 -79 92 -124 116 -45 23 -65 26 -161 29 -71 2 -124 -2 -150 -10z m295 -564 c-8 -62 -32 -106 -74 -138 -29 -22 -45 -26 -100 -26 -39 0 -76 6 -95 15 -38 20 -74 69 -89 122 -23 79 -34 74 176 74 l188 0 -6 -47z"/>
 <path d="M8218 4302 c-61 -22 -135 -75 -150 -108 -13 -29 -3 -41 68 -79 l35 -19 36 37 c45 47 124 72 191 62 89 -13 132 -51 132 -115 0 -63 -23 -79 -176 -126 -136 -41 -185 -64 -224 -104 -74 -76 -72 -236 3 -313 41 -41 69 -57 132 -73 108 -29 232 -11 314 44 29 21 60 49 69 64 15 25 15 28 -8 46 -14 11 -40 28 -58 38 l-33 18 -28 -31 c-43 -47 -82 -63 -153 -63 -91 0 -147 42 -148 111 0 52 33 76 158 115 174 53 199 65 246 115 37 39 44 53 50 103 8 63 1 127 -20 167 -22 43 -88 94 -147 112 -71 22 -224 22 -289 -1z"/>
 <path d="M9840 4301 c-46 -25 -73 -56 -93 -109 -14 -36 -17 -86 -17 -317 l0 -275 -60 0 -60 0 0 -65 0 -65 60 0 60 0 0 -115 0 -115 70 0 70 0 0 115 0 115 105 0 105 0 0 65 0 65 -106 0 -105 0 3 263 c4 297 6 310 70 329 30 9 50 9 89 -1 28 -7 53 -11 56 -7 4 4 38 92 43 112 0 1 -20 7 -44 13 -72 18 -205 13 -246 -8z"/>
 <path d="M11690 4303 c-48 -20 -78 -50 -106 -105 -32 -63 -35 -199 -5 -256 28 -53 60 -86 106 -109 49 -25 169 -53 227 -53 24 0 67 -3 96 -6 l52 -7 0 -44 c0 -95 -62 -143 -185 -143 -72 0 -121 19 -167 65 l-27 27 -55 -34 c-31 -18 -56 -38 -56 -44 0 -19 41 -64 84 -91 77 -49 236 -66 361 -39 69 15 98 29 137 71 53 55 58 97 58 447 l0 318 -75 0 -75 0 0 -46 0 -46 -40 32 c-75 60 -131 80 -217 79 -46 0 -93 -7 -113 -16z m229 -133 c24 -11 65 -36 92 -56 l49 -36 0 -94 0 -95 -72 6 c-116 10 -205 34 -237 64 -54 50 -59 145 -11 196 37 39 112 45 179 15z"/>
 <path d="M14454 4301 c-156 -56 -214 -169 -214 -417 0 -204 40 -309 144 -378 108 -71 292 -76 398 -10 42 27 77 71 101 129 16 38 37 180 37 253 l0 32 -265 0 -265 0 0 39 c0 81 22 144 66 188 36 35 50 42 98 48 90 12 137 0 186 -45 24 -22 47 -40 51 -40 17 0 109 64 109 75 0 27 -88 101 -144 123 -76 29 -226 30 -302 3z m311 -558 c-9 -63 -43 -123 -82 -146 -46 -27 -152 -25 -198 3 -35 22 -78 96 -90 158 l-7 32 192 0 192 0 -7 -47z"/>
 <path d="M4310 3885 l0 -415 70 0 70 0 0 56 0 55 48 -40 c96 -80 187 -107 282 -81 51 14 108 68 117 111 l5 28 56 -49 c70 -63 125 -90 196 -97 111 -11 188 34 220 130 13 40 16 103 16 382 l0 335 -75 0 -75 0 0 -320 c0 -221 -4 -327 -12 -345 -29 -65 -148 -51 -233 28 -11 11 -30 26 -42 34 -23 15 -23 16 -23 309 l0 294 -74 0 -74 0 -4 -312 c-5 -356 -7 -371 -68 -389 -60 -18 -134 14 -227 98 l-33 30 0 286 0 287 -70 0 -70 0 0 -415z"/>
 <path d="M6490 3715 l0 -585 75 0 75 0 0 351 c0 281 2 348 13 337 19 -20 141 -160 168 -192 13 -16 44 -51 69 -79 25 -27 49 -56 53 -63 6 -10 32 -14 97 -14 50 0 90 3 90 6 0 4 -14 23 -32 43 -30 35 -182 203 -203 225 -6 6 -28 29 -48 52 l-37 41 56 74 c30 41 61 81 67 89 75 96 217 288 217 294 0 4 -41 5 -92 4 l-91 -3 -125 -177 -125 -178 -38 43 -39 42 0 138 0 137 -75 0 -75 0 0 -585z"/>
 <path d="M9310 3885 l0 -415 70 0 70 0 0 415 0 415 -70 0 -70 0 0 -415z"/>
 <path d="M10700 3715 l0 -585 70 0 70 0 2 225 3 225 55 -41 c74 -56 132 -81 206 -87 77 -6 151 17 188 59 57 63 60 84 64 452 l3 337 -75 0 -76 0 -1 -302 c-1 -341 -4 -361 -61 -393 -33 -18 -41 -18 -90 -6 -45 12 -133 61 -200 115 -16 12 -18 39 -18 300 l0 286 -70 0 -70 0 0 -585z"/>
 <path d="M15110 3885 l0 -415 75 0 75 0 0 55 0 55 48 -37 c173 -133 365 -122 438 25 17 33 19 70 22 385 l3 347 -69 0 -70 0 -4 -307 c-4 -271 -6 -313 -22 -345 -39 -80 -136 -73 -271 20 l-70 48 -3 292 -2 292 -75 0 -75 0 0 -415z"/>
 <path d="M9332 3353 c-43 -9 -58 -107 -22 -143 27 -27 119 -28 143 -2 22 24 23 114 2 132 -16 14 -86 21 -123 13z"/>
 <path d="M118 2803 l-48 -4 0 -1375 0 -1375 578 3 577 3 57 27 c74 34 157 117 194 193 l29 60 0 350 0 350 -33 68 c-22 45 -51 82 -86 114 l-53 46 57 54 c34 31 69 76 86 110 l29 58 0 520 0 520 -29 59 c-34 67 -109 147 -166 176 -94 48 -122 50 -650 48 -272 -1 -516 -3 -542 -5z m950 -875 l2 -438 -275 0 -275 0 0 440 0 440 273 -2 272 -3 3 -437z m0 -1160 l-3 -273 -272 -3 -273 -2 0 275 0 275 275 0 275 0 -2 -272z"/>
 <path d="M1725 2796 c-65 -28 -60 80 -60 -1361 0 -1415 -2 -1349 52 -1374 17 -8 227 -11 703 -11 l680 0 0 220 0 220 -42 0 c-24 1 -249 1 -500 0 l-458 -1 0 276 0 275 329 0 329 0 7 117 c7 114 1 311 -11 322 -3 3 -152 8 -330 9 l-324 4 0 439 0 439 500 0 500 0 0 214 0 213 -61 7 c-34 3 -337 6 -673 6 -481 -1 -617 -4 -641 -14z"/>
 <path d="M3298 2803 l-48 -4 0 -1207 c0 -1264 0 -1256 43 -1337 43 -82 131 -156 224 -186 51 -17 92 -19 447 -19 424 0 454 3 536 55 95 59 161 157 180 266 12 71 10 2412 -2 2424 -11 11 -237 18 -341 10 l-97 -7 -2 -1151 -3 -1152 -264 -3 c-205 -2 -266 1 -273 10 -4 7 -8 525 -8 1152 1 626 -2 1141 -4 1144 -7 6 -327 11 -388 5z"/>
 <path d="M5389 2803 l-46 -4 -7 -46 c-3 -25 -6 -545 -6 -1155 l0 -1109 -197 1 c-109 1 -219 1 -245 1 l-48 -1 0 -220 0 -220 715 0 715 0 0 220 0 220 -37 1 c-21 0 -131 0 -245 -1 l-208 -2 0 1155 0 1154 -61 7 c-62 6 -244 6 -330 -1z"/>
 <path d="M6505 2803 c-11 -2 -31 -12 -45 -23 l-25 -19 -3 -1325 -2 -1325 24 -28 24 -28 691 -3 691 -2 2 167 c1 167 -1 265 -7 271 -2 2 -224 3 -494 2 l-491 -1 0 276 0 275 330 0 330 0 0 219 0 218 -61 7 c-34 3 -183 6 -330 6 l-269 0 0 440 0 440 494 0 495 0 3 173 c2 94 1 191 0 213 l-4 41 -60 7 c-65 6 -1260 6 -1293 -1z"/>
 <path d="M8073 2794 c-67 -34 -63 51 -63 -1346 0 -694 3 -1293 7 -1330 l6 -68 212 0 212 0 6 68 c4 37 7 559 7 1160 l0 1092 409 0 409 0 7 108 c8 106 0 310 -11 321 -3 3 -267 7 -587 9 -516 2 -586 0 -614 -14z"/>
 <path d="M9504 2796 c-69 -30 -64 80 -64 -1371 0 -1226 2 -1311 18 -1331 9 -12 27 -27 39 -33 15 -8 219 -11 697 -11 l676 0 0 220 0 220 -37 0 c-21 1 -244 1 -495 0 l-458 -1 0 276 0 275 330 0 330 0 0 219 0 218 -52 7 c-29 3 -178 6 -330 6 l-278 0 0 440 0 440 495 0 495 0 0 214 0 213 -52 7 c-29 3 -330 6 -668 6 -496 -1 -621 -3 -646 -14z"/>
 <path d="M11078 2803 l-48 -4 0 -1375 0 -1375 573 3 572 3 57 27 c99 46 188 147 216 244 18 63 16 652 -2 723 -18 65 -55 121 -118 174 l-46 41 39 31 c22 17 55 53 75 80 64 91 63 80 64 782 1 349 -1 637 -3 640 -10 9 -248 15 -339 8 l-98 -7 0 -654 0 -654 -275 0 -275 0 0 654 0 653 -61 7 c-63 6 -244 6 -331 -1z m940 -2035 l-3 -273 -272 -3 -273 -2 0 275 0 275 275 0 275 0 -2 -272z"/>
 <path d="M14347 2778 c-46 -75 -107 -179 -107 -184 0 -2 -11 -21 -23 -42 -13 -20 -36 -59 -52 -87 -15 -27 -70 -124 -123 -215 -52 -91 -103 -178 -112 -195 -9 -16 -61 -106 -115 -200 -54 -93 -106 -183 -115 -200 -9 -16 -61 -106 -115 -200 -54 -93 -109 -190 -123 -215 -13 -25 -28 -49 -32 -55 -4 -5 -20 -32 -35 -60 -15 -27 -70 -124 -123 -215 -52 -91 -104 -181 -115 -200 -11 -19 -62 -109 -115 -200 -52 -91 -104 -181 -115 -200 -11 -19 -46 -81 -78 -137 -33 -56 -59 -107 -59 -112 0 -8 479 -11 1575 -11 1163 0 1575 3 1575 11 0 13 -15 40 -173 314 -61 105 -121 210 -135 235 -49 87 -175 305 -199 342 -12 21 -23 39 -23 41 0 2 -23 44 -51 93 -90 156 -437 759 -457 795 -10 19 -62 108 -114 199 -53 91 -105 181 -115 200 -23 40 -200 348 -231 400 -12 19 -31 54 -43 78 -26 48 -33 51 -52 20z m-69 -1754 c-7 -6 -40 -26 -73 -45 -33 -18 -103 -57 -155 -87 -52 -30 -167 -96 -255 -147 -265 -152 -428 -246 -463 -267 l-33 -20 39 63 c21 35 50 84 64 109 14 25 86 150 161 279 76 128 137 235 137 237 0 2 18 33 40 69 22 36 40 67 40 69 0 2 34 61 75 131 41 69 75 128 75 131 0 2 18 33 40 69 22 36 40 67 40 69 0 2 34 62 76 132 42 71 87 149 101 174 14 25 42 73 62 107 l36 61 3 -561 c2 -441 -1 -564 -10 -573z m223 1044 c30 -51 59 -102 66 -113 7 -11 15 -26 19 -34 8 -15 50 -89 199 -346 54 -93 107 -186 118 -205 33 -59 209 -363 228 -395 11 -16 22 -37 26 -45 4 -8 24 -43 45 -78 21 -34 38 -64 38 -67 0 -2 24 -44 53 -92 29 -48 71 -119 92 -156 l38 -69 -59 33 c-33 18 -76 43 -96 56 -21 13 -40 23 -43 23 -3 0 -22 11 -43 23 -38 25 -260 153 -347 201 -27 16 -102 59 -165 96 -63 36 -141 81 -172 99 l-58 32 0 565 c0 310 2 564 4 564 2 0 28 -42 57 -92z m44 -1283 c94 -54 190 -109 215 -123 25 -14 62 -36 82 -49 21 -12 40 -23 42 -23 3 0 73 -40 157 -90 83 -49 153 -90 155 -90 2 0 33 -18 69 -40 36 -22 70 -40 75 -40 5 0 12 -4 15 -10 4 -7 -327 -10 -986 -10 -571 0 -989 4 -984 9 6 5 37 23 70 41 33 18 76 43 95 55 19 12 42 25 50 28 8 4 31 17 50 28 125 75 367 216 620 362 52 30 97 53 100 52 3 -1 82 -47 175 -100z"/>
 </g>

</svg>