<!DOCTYPE svg PUBLIC "-//W3C//DTD SVG 20010904//EN" "http://www.w3.org/TR/2001/REC-SVG-20010904/DTD/svg10.dtd">
<svg version="1.0" xmlns="http://www.w3.org/2000/svg" width="755px" height="347px" viewBox="0 0 7550 3470" preserveAspectRatio="xMidYMid meet">
<g id="layer101" fill="#ffffff" stroke="none">
 <path d="M110 3448 c-49 -25 -84 -70 -100 -127 -6 -22 -10 -219 -10 -497 0 -393 2 -468 16 -514 19 -65 64 -114 119 -129 55 -15 532 -15 592 0 54 14 103 60 122 115 8 23 15 103 18 197 l5 157 -195 0 -194 0 -5 -76 c-6 -82 -21 -111 -56 -100 -11 4 -23 17 -26 29 -10 37 -7 614 4 641 6 15 17 26 29 26 35 0 45 -28 49 -136 l4 -104 194 0 194 0 0 173 c0 239 -22 306 -114 348 -37 17 -70 19 -321 19 -272 0 -282 -1 -325 -22z"/>
 <path d="M1045 3447 c-49 -28 -80 -73 -94 -138 -7 -31 -11 -216 -11 -498 0 -499 3 -523 64 -584 51 -52 85 -57 365 -57 281 0 325 6 376 54 64 61 66 85 63 618 -3 457 -4 474 -24 518 -25 53 -56 83 -103 99 -22 7 -131 11 -315 11 -273 0 -282 -1 -321 -23z m359 -299 c14 -19 16 -67 16 -323 0 -316 -5 -350 -45 -350 -40 0 -45 35 -45 341 0 186 4 302 11 323 13 37 41 41 63 9z"/>
 <path d="M1890 2825 l0 -645 190 0 189 0 16 53 c8 28 39 138 69 242 l54 190 1 -242 1 -243 175 0 175 0 0 645 0 645 -182 -2 -183 -3 -75 -273 -75 -273 -3 275 -2 276 -175 0 -175 0 0 -645z"/>
 <path d="M3000 2975 l0 -495 -95 0 -95 0 0 -150 0 -150 385 0 385 0 0 150 0 150 -95 0 -95 0 0 495 0 495 -195 0 -195 0 0 -495z"/>
 <path d="M3582 3458 c3 -7 43 -298 89 -645 l84 -633 303 0 c166 0 302 4 302 9 0 10 157 1189 166 1244 l6 37 -200 0 c-183 0 -201 -2 -206 -17 -3 -10 -8 -73 -12 -140 l-7 -123 -47 0 c-57 0 -56 -4 -66 168 l-7 112 -204 0 c-160 0 -204 -3 -201 -12z m508 -564 c0 -18 -32 -339 -34 -341 -1 -2 -8 64 -15 145 -6 81 -14 159 -17 175 -5 25 -3 27 30 27 20 0 36 -3 36 -6z"/>
 <path d="M4560 2825 l0 -645 195 0 195 0 0 645 0 645 -195 0 -195 0 0 -645z"/>
 <path d="M5030 2825 l0 -645 193 0 192 0 65 232 65 232 3 -232 2 -232 180 0 180 0 0 645 0 645 -184 0 -183 0 -36 -127 c-20 -71 -53 -191 -74 -268 l-38 -139 -3 267 -2 267 -180 0 -180 0 0 -645z"/>
 <path d="M5990 2825 l0 -645 310 0 310 0 0 150 0 150 -120 0 -120 0 0 65 0 65 120 0 120 0 0 150 0 150 -120 0 -120 0 0 125 0 125 120 0 120 0 0 155 0 155 -310 0 -310 0 0 -645z"/>
 <path d="M6680 2825 l0 -645 343 0 c208 0 357 4 380 11 56 15 103 62 124 122 14 39 18 82 18 177 0 114 -2 130 -26 181 -25 53 -72 99 -100 99 -8 0 3 11 23 25 88 60 108 141 108 448 l0 227 -195 0 -195 0 0 -237 c0 -267 -4 -286 -58 -291 l-32 -3 0 265 0 266 -195 0 -195 0 0 -645z m461 -191 c17 -21 18 -116 0 -137 -7 -10 -26 -17 -42 -17 l-29 0 0 85 0 85 29 0 c16 0 34 -7 42 -16z"/>
 <path d="M1925 1964 c-38 -31 -69 -61 -67 -67 2 -5 32 -43 68 -83 l66 -73 -16 -48 c-9 -26 -20 -82 -26 -123 -13 -104 -13 -1038 1 -1136 20 -143 90 -232 217 -276 67 -23 69 -23 607 -23 297 0 559 3 582 8 l42 7 63 -74 c35 -41 68 -75 74 -75 7 -1 44 24 83 55 82 64 83 48 -12 157 l-47 54 27 59 28 59 0 625 0 625 -24 59 c-43 107 -120 169 -246 197 -94 22 -1079 19 -1153 -2 l-52 -16 -63 73 c-34 40 -66 73 -72 73 -5 0 -41 -25 -80 -55z m912 -498 l28 -24 3 -405 c2 -342 1 -411 -12 -441 -17 -41 -54 -60 -98 -51 -58 13 -58 10 -58 473 l0 423 25 24 c31 32 75 32 112 1z"/>
 <path d="M0 1020 l0 -890 644 0 c704 0 749 3 847 56 66 36 111 88 140 160 21 52 23 76 24 209 0 145 -1 152 -29 213 -16 35 -46 78 -69 98 -39 36 -129 84 -157 84 -8 0 17 16 57 35 87 43 135 97 171 193 21 57 25 89 30 219 6 178 -5 251 -51 337 -52 98 -143 147 -305 166 -49 5 -355 10 -694 10 l-608 0 0 -890z m888 447 c14 -15 17 -37 17 -133 0 -110 -1 -117 -24 -135 -17 -14 -39 -19 -82 -19 l-59 0 0 156 0 156 65 -4 c44 -3 71 -10 83 -21z m-30 -693 c32 -9 52 -54 52 -118 0 -80 -26 -108 -108 -114 l-62 -4 0 121 0 121 48 0 c26 0 57 -3 70 -6z"/>
 <path d="M3920 1020 l0 -890 370 0 370 0 0 300 0 300 85 0 85 0 0 -300 0 -300 370 0 370 0 0 890 0 890 -370 0 -370 0 0 -385 0 -385 -85 0 -85 0 0 385 0 385 -370 0 -370 0 0 -890z"/>
 <path d="M5880 1020 l0 -890 364 0 364 0 87 223 c48 122 109 276 136 342 l48 120 1 -342 0 -343 335 0 335 0 0 890 0 890 -344 0 -344 0 -46 -117 c-25 -65 -95 -246 -155 -403 l-110 -285 -1 403 0 402 -335 0 -335 0 0 -890z"/>
 </g>

</svg>