<!DOCTYPE svg PUBLIC "-//W3C//DTD SVG 20010904//EN" "http://www.w3.org/TR/2001/REC-SVG-20010904/DTD/svg10.dtd">
<svg version="1.0" xmlns="http://www.w3.org/2000/svg" width="1000px" height="362px" viewBox="0 0 10000 3620" preserveAspectRatio="xMidYMid meet">
<g id="layer101" fill="#ffffff" stroke="none">
 <path d="M3606 3609 c-61 -14 -103 -46 -126 -94 -32 -65 -25 -79 36 -83 49 -3 52 -2 64 28 18 42 62 64 119 57 75 -8 110 -69 63 -110 -10 -8 -63 -31 -119 -52 -111 -40 -155 -75 -168 -134 -11 -50 4 -109 38 -147 47 -54 82 -68 167 -68 112 0 176 40 200 124 l8 28 -59 4 c-41 2 -59 -1 -59 -9 0 -21 -52 -53 -87 -53 -45 0 -89 24 -97 52 -11 42 23 70 130 108 123 45 140 55 164 106 25 50 25 87 1 139 -41 92 -150 133 -275 104z"/>
 <path d="M4733 3611 c-69 -18 -120 -58 -150 -118 -27 -57 -28 -61 -32 -270 l-3 -213 60 0 61 0 3 214 c3 245 8 259 86 284 54 18 116 0 146 -41 20 -26 21 -44 24 -243 l3 -214 61 0 60 0 -4 213 c-3 191 -6 217 -25 259 -25 55 -63 94 -113 114 -42 18 -134 26 -177 15z"/>
 <path d="M0 2080 l0 -1530 290 0 290 0 0 125 0 125 -162 2 -163 3 0 1275 0 1275 1275 0 1275 0 3 -1278 2 -1277 -835 0 -835 0 0 -125 0 -125 960 0 960 0 0 1530 0 1530 -1530 0 -1530 0 0 -1530z"/>
 <path d="M4020 3310 l0 -300 55 0 55 0 0 140 c0 77 3 140 8 140 4 0 50 -63 101 -140 l95 -140 69 0 c54 0 67 3 60 13 -38 47 -193 269 -193 275 0 4 45 75 100 157 55 81 100 150 100 152 0 1 -31 3 -69 3 l-69 0 -93 -145 c-51 -80 -96 -145 -101 -145 -4 0 -8 65 -8 145 l0 145 -55 0 -55 0 0 -300z"/>
 <path d="M5190 3310 l0 -300 55 0 55 0 0 245 0 245 115 0 115 0 0 55 0 55 -170 0 -170 0 0 -300z"/>
 <path d="M5640 3310 l0 -300 185 0 185 0 0 50 0 49 -127 3 -128 3 -3 73 -3 72 126 0 125 0 0 50 0 50 -125 0 -126 0 3 73 3 72 128 3 127 3 0 49 0 50 -185 0 -185 0 0 -300z"/>
 <path d="M740 1550 l0 -1550 125 0 125 0 0 640 0 640 670 0 670 0 0 795 0 795 -670 0 -670 0 0 115 0 115 -125 0 -125 0 0 -1550z m1338 528 l-3 -543 -542 -3 -543 -2 0 545 0 545 545 0 545 0 -2 -542z"/>
 <path d="M6709 2736 c-62 -22 -108 -56 -141 -103 -110 -161 -59 -387 107 -469 50 -24 63 -26 143 -22 109 5 167 34 213 106 41 66 39 72 -27 72 -48 0 -59 -4 -76 -25 -29 -38 -71 -55 -130 -55 -68 0 -117 32 -148 95 -32 67 -26 175 13 234 31 46 91 80 141 81 52 0 112 -37 135 -83 l21 -42 -75 -3 -75 -3 0 -49 0 -50 136 0 137 0 -6 59 c-10 118 -77 215 -174 251 -61 23 -141 25 -194 6z"/>
 <path d="M3615 2728 c-16 -44 -185 -568 -185 -573 0 -3 28 -5 62 -3 l62 3 60 207 c34 114 64 209 67 213 4 3 33 -90 66 -207 l60 -213 62 -3 c33 -2 61 -1 61 0 0 2 -42 134 -94 293 l-93 290 -62 3 c-43 2 -63 -1 -66 -10z"/>
 <path d="M4030 2445 l0 -295 55 0 55 0 0 295 0 295 -55 0 -55 0 0 -295z"/>
 <path d="M4290 2445 l0 -295 149 0 c161 0 207 10 267 55 77 59 115 218 80 339 -13 44 -29 70 -69 111 -70 71 -117 85 -294 85 l-133 0 0 -295z m295 181 c49 -21 86 -82 92 -155 14 -152 -60 -231 -214 -231 l-53 0 0 200 0 200 70 0 c39 0 86 -6 105 -14z"/>
 <path d="M4969 2448 l106 -293 65 0 64 0 102 285 c57 157 103 289 104 293 0 4 -28 7 -61 5 l-62 -3 -21 -60 -21 -60 -109 0 -110 0 -20 63 -20 62 -62 0 -61 0 106 -292z m241 64 c0 -16 -62 -207 -70 -216 -5 -5 -23 38 -41 95 -17 57 -34 110 -36 117 -4 9 14 12 71 12 42 0 76 -4 76 -8z"/>
 <path d="M5500 2445 l0 -295 139 0 c77 0 152 5 168 11 78 29 126 124 103 208 -12 45 -63 111 -86 111 -23 0 -17 14 51 136 36 64 65 118 65 120 0 2 -31 4 -68 4 l-68 0 -57 -120 -56 -120 -35 0 -36 0 0 120 0 120 -60 0 -60 0 0 -295z m275 -60 c27 -26 33 -72 15 -105 -12 -22 -68 -40 -127 -40 l-43 0 0 85 0 85 65 0 c57 0 69 -3 90 -25z"/>
 <path d="M6040 2445 l0 -295 190 0 190 0 0 50 0 50 -135 0 -135 0 0 70 0 70 130 0 130 0 0 50 0 50 -130 0 -131 0 3 73 3 72 133 3 132 3 0 49 0 50 -190 0 -190 0 0 -295z"/>
 <path d="M7150 2736 c0 -2 43 -122 96 -267 53 -145 101 -276 106 -291 9 -27 13 -28 72 -28 l63 0 83 233 c45 127 93 260 106 295 l23 62 -64 0 -63 0 -22 -65 -22 -65 -108 0 -108 0 -22 65 -22 65 -59 0 c-32 0 -59 -2 -59 -4z m346 -234 c-42 -130 -75 -214 -80 -202 -3 8 -21 61 -40 118 l-35 102 80 0 c73 0 80 -2 75 -18z"/>
 <path d="M7735 2723 c4 -10 52 -143 107 -295 l101 -278 63 0 c59 0 63 1 72 28 29 78 167 464 182 510 l19 52 -63 0 -62 0 -20 -62 -20 -63 -104 -3 c-62 -2 -107 1 -114 8 -5 5 -17 34 -26 63 l-16 52 -63 3 c-58 3 -63 1 -56 -15z m341 -218 c-3 -9 -20 -61 -37 -116 -17 -56 -35 -97 -39 -92 -8 9 -70 196 -70 213 0 6 33 10 76 10 64 0 75 -2 70 -15z"/>
 <path d="M8370 2445 l0 -295 63 0 62 0 114 190 c63 105 118 193 123 196 4 3 8 -83 8 -190 l0 -196 55 0 55 0 0 295 0 296 -62 -3 -61 -3 -121 -200 -121 -200 -3 203 -2 202 -55 0 -55 0 0 -295z"/>
 <path d="M9000 2446 l0 -296 144 0 c202 0 268 27 323 133 24 46 27 63 28 152 0 114 -17 166 -76 224 -62 62 -106 75 -271 79 l-148 4 0 -296z m301 171 c105 -69 107 -283 3 -348 -25 -15 -57 -22 -114 -26 l-80 -6 0 202 0 201 79 0 c64 0 84 -4 112 -23z"/>
 <path d="M9620 2445 l0 -295 190 0 190 0 0 50 0 49 -132 3 -133 3 0 65 0 65 128 3 127 3 0 49 0 49 -127 3 -128 3 0 70 0 70 133 3 132 3 0 49 0 50 -190 0 -190 0 0 -295z"/>
 <path d="M7382 2113 c-21 -8 -44 -62 -36 -86 11 -39 35 -57 74 -57 69 0 103 69 59 124 -20 25 -61 34 -97 19z m78 -67 c0 -49 -61 -60 -76 -14 -9 30 29 62 57 48 10 -6 19 -21 19 -34z"/>
 <path d="M3480 1574 l0 -295 143 3 c120 2 148 6 181 24 49 25 76 74 76 136 0 40 -5 54 -34 86 l-34 38 28 16 c43 25 63 71 58 135 -6 66 -29 100 -88 131 -40 20 -59 22 -187 22 l-143 0 0 -296z m242 196 c42 -12 58 -34 58 -79 0 -47 -39 -71 -116 -71 l-64 0 0 80 0 80 43 0 c23 0 59 -5 79 -10z m24 -271 c30 -28 31 -66 2 -96 -18 -19 -32 -23 -85 -23 l-63 0 0 76 0 77 61 -6 c44 -4 67 -11 85 -28z"/>
 <path d="M4020 1575 l0 -295 128 0 c70 0 145 5 167 11 77 22 136 116 119 192 -11 54 -43 106 -74 122 -17 9 -30 18 -30 22 0 5 52 102 127 236 2 4 -27 7 -64 7 l-68 0 -58 -115 -57 -115 -40 0 -40 0 0 115 0 115 -55 0 -55 0 0 -295z m269 -53 c19 -14 27 -30 29 -59 5 -60 -28 -83 -119 -83 l-69 0 0 78 c0 43 3 82 8 86 13 15 124 -2 151 -22z"/>
 <path d="M4660 1751 l0 -118 -84 -174 -83 -174 55 -3 c30 -2 60 -1 67 1 6 3 31 53 56 111 24 58 47 106 51 106 3 0 28 -49 54 -110 l48 -110 62 0 63 0 -58 123 c-32 67 -70 145 -85 174 -24 48 -26 62 -26 173 l0 120 -60 0 -60 0 0 -119z"/>
 <path d="M5040 1575 l0 -295 63 0 62 1 120 200 120 199 3 -200 2 -200 55 0 55 0 0 295 0 296 -62 -3 -62 -3 -120 -199 -121 -199 -3 202 -2 201 -55 0 -55 0 0 -295z"/>
 <path d="M5670 1575 l0 -295 185 0 185 0 0 50 0 50 -130 0 -130 0 0 70 0 70 125 0 125 0 0 50 0 50 -125 0 -125 0 0 75 0 75 130 0 130 0 0 50 0 50 -185 0 -185 0 0 -295z"/>
 </g>

</svg>