<!DOCTYPE svg PUBLIC "-//W3C//DTD SVG 20010904//EN" "http://www.w3.org/TR/2001/REC-SVG-20010904/DTD/svg10.dtd">
<svg version="1.0" xmlns="http://www.w3.org/2000/svg" width="1600px" height="567px" viewBox="0 0 16000 5670" preserveAspectRatio="xMidYMid meet">
<g id="layer101" fill="#ffffff" stroke="none">
 <path d="M8675 5645 c-131 -33 -210 -59 -320 -105 -604 -255 -1040 -842 -1125 -1515 -18 -140 -16 -462 4 -578 96 -575 384 -1035 830 -1330 332 -217 745 -320 1157 -288 173 14 271 31 416 72 95 28 340 126 368 148 5 5 20 12 33 15 22 7 22 6 22 -73 l0 -81 635 0 635 0 0 1850 0 1850 -635 0 -635 0 0 -90 0 -90 -58 29 c-97 49 -262 116 -356 145 -182 56 -200 58 -546 62 -320 4 -327 3 -425 -21z m825 -920 c189 -41 326 -117 480 -267 238 -231 330 -456 317 -771 -11 -273 -111 -477 -335 -688 -167 -157 -306 -225 -542 -264 -343 -58 -724 103 -953 402 -58 76 -137 232 -169 333 -21 68 -23 93 -23 275 0 195 1 202 29 280 101 283 282 493 532 618 96 47 145 65 249 87 107 24 294 21 415 -5z"/>
 <path d="M13785 5655 c-174 -30 -406 -110 -553 -191 -34 -19 -67 -34 -72 -34 -6 0 -10 39 -10 90 l0 90 -625 0 -625 0 0 -2198 0 -2197 608 -608 c334 -334 613 -607 620 -607 14 0 12 -91 21 1137 3 507 9 924 12 927 3 3 59 -19 125 -50 445 -210 966 -249 1419 -105 111 35 251 94 327 138 31 18 59 33 62 33 10 0 181 122 236 169 308 261 513 595 614 1001 47 185 60 329 53 555 -7 221 -20 326 -58 474 -124 482 -443 906 -871 1157 -167 98 -270 140 -478 197 l-115 31 -305 2 c-224 2 -326 -1 -385 -11z m300 -920 c109 -18 174 -36 261 -76 211 -94 402 -278 504 -483 79 -160 93 -227 94 -446 l1 -185 -37 -110 c-116 -343 -433 -625 -778 -691 -90 -17 -275 -19 -362 -4 -334 59 -610 272 -759 585 -68 144 -84 224 -84 425 0 143 3 175 23 245 147 503 637 822 1137 740z"/>
 <path d="M35 5601 l-30 -7 40 -18 c38 -17 201 -74 530 -185 854 -288 1564 -588 2412 -1017 407 -206 570 -295 1033 -562 124 -71 429 -259 550 -338 208 -136 305 -194 315 -191 23 9 -10 252 -65 474 -133 537 -384 960 -753 1270 -278 234 -624 398 -1037 494 -211 48 -282 59 -470 69 -214 12 -2483 22 -2525 11z"/>
 <path d="M5510 4216 l0 -1393 144 -106 c118 -88 256 -194 336 -260 8 -6 76 -61 150 -122 74 -60 169 -139 210 -175 42 -36 100 -85 130 -110 30 -25 61 -52 70 -60 8 -8 60 -53 115 -100 l100 -84 6 359 c4 198 7 1054 8 1903 l1 1542 -635 0 -635 0 0 -1394z"/>
 <path d="M0 2425 l0 -2385 78 0 c708 3 2153 22 2297 30 663 37 1299 249 1700 569 215 170 427 437 555 696 98 198 233 632 247 790 l6 70 -54 52 c-104 99 -267 218 -624 454 -453 300 -492 325 -502 315 -3 -3 -10 -114 -14 -246 -13 -378 -56 -587 -172 -842 -63 -137 -116 -217 -215 -319 -175 -183 -326 -276 -549 -339 -199 -57 -263 -62 -900 -67 l-583 -5 0 1556 0 1557 -53 23 c-28 13 -110 47 -182 76 -71 29 -177 72 -235 95 -58 24 -204 82 -325 130 -121 47 -242 96 -270 107 -59 24 -185 68 -197 68 -4 0 -8 -1073 -8 -2385z"/>
 <path d="M5510 1177 l0 -637 635 0 c349 0 635 3 635 8 0 7 -1152 1158 -1232 1232 l-38 34 0 -637z"/>
 </g>

</svg>