<!DOCTYPE svg PUBLIC "-//W3C//DTD SVG 20010904//EN" "http://www.w3.org/TR/2001/REC-SVG-20010904/DTD/svg10.dtd">
<svg version="1.0" xmlns="http://www.w3.org/2000/svg" width="1600px" height="566px" viewBox="0 0 16000 5660" preserveAspectRatio="xMidYMid meet">
<g id="layer101" fill="#b3b3b3" stroke="none">
 <path d="M2418 5624 c-651 -102 -1273 -444 -1705 -939 -323 -371 -577 -897 -653 -1355 -21 -131 -53 -445 -52 -515 1 -22 3 -62 6 -90 3 -27 11 -111 17 -185 20 -251 91 -541 193 -790 86 -208 228 -463 343 -617 78 -104 298 -347 379 -419 87 -77 273 -224 310 -246 16 -9 56 -33 89 -54 222 -138 601 -302 804 -348 89 -20 92 -18 136 79 54 118 55 116 -23 154 -241 119 -459 387 -521 641 -76 312 -36 559 140 867 l24 41 -28 22 c-54 43 -221 236 -274 317 -104 158 -181 346 -218 531 -23 112 -17 495 9 587 97 346 232 573 461 775 215 189 461 299 741 331 54 6 109 13 122 15 l22 4 0 454 0 453 -39 94 c-21 52 -50 120 -64 152 l-26 57 -53 -1 c-29 -1 -92 -7 -140 -15z"/>
 <path d="M3047 5633 c-9 -16 -77 -183 -97 -240 -19 -54 -20 -80 -20 -498 0 -242 4 -446 8 -452 4 -7 41 -17 82 -23 185 -26 399 -109 585 -225 57 -36 106 -65 110 -65 4 0 28 15 54 33 52 38 148 80 236 102 341 89 733 -92 890 -410 68 -136 80 -194 80 -370 -1 -168 -12 -219 -72 -339 -46 -92 -104 -167 -196 -252 -104 -97 -223 -153 -397 -185 -36 -6 -70 -17 -76 -23 -6 -6 -28 -65 -49 -131 -91 -290 -266 -541 -519 -741 l-38 -30 30 -60 c98 -191 122 -289 122 -500 0 -169 -12 -254 -49 -349 -41 -107 -91 -205 -129 -257 -77 -103 -243 -256 -337 -309 -30 -17 -55 -35 -55 -40 0 -5 16 -51 36 -101 20 -51 41 -106 47 -121 10 -28 11 -29 66 -22 131 16 459 117 649 199 389 168 790 483 1085 851 286 357 519 910 572 1360 22 183 20 623 -4 795 -31 221 -107 491 -192 681 -22 48 -39 89 -39 92 0 3 -34 70 -77 149 -138 260 -268 439 -459 634 -165 168 -281 266 -450 379 -300 200 -606 335 -944 416 -191 46 -440 74 -453 52z"/>
 <path d="M7600 4801 l0 -178 86 -11 c107 -14 333 -89 430 -142 80 -45 177 -114 236 -168 l38 -35 0 -1093 0 -1092 26 -31 c14 -17 46 -43 71 -57 82 -49 183 -16 238 77 20 33 20 55 23 1029 2 579 -1 1049 -6 1123 -9 118 -13 135 -47 203 -88 180 -315 350 -602 453 -118 42 -380 101 -451 101 l-42 0 0 -179z"/>
 <path d="M2675 4364 c-328 -26 -623 -161 -855 -394 -148 -147 -257 -331 -334 -562 -52 -156 -59 -225 -53 -475 6 -234 8 -250 71 -418 52 -140 171 -345 242 -420 16 -17 45 -49 65 -70 20 -22 57 -60 82 -84 l46 -45 90 87 c184 178 372 263 624 283 l87 6 0 1049 c0 833 -3 1049 -12 1047 -7 -1 -31 -3 -53 -4z"/>
 <path d="M2936 4333 c-3 -21 -6 -500 -6 -1064 l0 -1026 48 -12 c169 -42 328 -109 405 -173 66 -55 118 -100 128 -113 96 -117 90 -118 254 48 179 180 273 323 344 525 21 59 41 124 45 144 6 36 6 37 -26 42 -122 20 -160 28 -216 45 -160 49 -323 192 -444 391 -53 87 -82 242 -75 398 7 186 70 327 211 478 31 32 56 62 56 66 0 16 -150 107 -255 155 -122 56 -231 93 -347 117 -111 23 -114 22 -122 -21z"/>
 <path d="M4060 4234 c-54 -9 -100 -25 -100 -34 0 -6 7 -10 15 -10 28 0 179 -73 241 -116 199 -139 302 -375 273 -624 -18 -156 -69 -266 -178 -382 -108 -115 -246 -187 -407 -212 l-79 -12 60 -28 c106 -48 207 -69 335 -69 126 0 174 12 312 78 84 39 148 90 213 166 55 65 126 185 150 254 9 28 21 59 26 70 30 70 37 190 15 301 -15 78 -108 282 -153 336 -73 86 -156 156 -234 198 -139 74 -167 81 -324 85 -77 2 -151 2 -165 -1z"/>
 <path d="M6965 4121 c-124 -21 -297 -77 -403 -130 -123 -63 -213 -150 -275 -266 -22 -40 -22 -44 -22 -675 l0 -635 34 -64 c89 -172 236 -271 510 -344 112 -30 123 -32 316 -31 215 0 310 14 489 70 43 13 81 22 85 19 3 -4 7 -215 9 -469 l4 -463 67 -7 c36 -3 117 -6 179 -6 l112 0 0 1261 0 1261 -39 82 c-42 90 -87 147 -161 201 -100 73 -274 145 -440 181 -85 18 -385 28 -465 15z m397 -365 c109 -24 237 -89 321 -165 l27 -25 0 -520 0 -521 -64 -44 c-75 -50 -156 -90 -246 -121 -82 -28 -335 -39 -447 -20 -87 14 -198 68 -281 136 l-61 49 0 521 -1 522 33 29 c86 76 217 139 342 166 50 11 314 6 377 -7z"/>
 <path d="M9800 4124 c-144 -25 -328 -81 -425 -130 -84 -43 -157 -101 -211 -169 -55 -68 -81 -127 -93 -210 -7 -42 -11 -374 -11 -836 l0 -766 46 -7 c26 -3 107 -6 180 -6 l133 0 3 784 3 784 24 26 c31 33 144 101 212 128 109 41 174 50 349 45 142 -4 174 -8 230 -28 84 -31 191 -90 246 -137 l44 -36 0 -783 0 -783 175 0 176 0 -3 828 -3 827 -37 78 c-66 138 -195 240 -398 315 -158 59 -238 73 -435 77 -99 2 -191 2 -205 -1z"/>
 <path d="M12012 4114 c-19 -10 -45 -35 -59 -57 -32 -51 -113 -217 -113 -232 0 -6 -11 -35 -26 -64 -26 -55 -169 -383 -209 -481 -12 -30 -32 -75 -43 -100 -35 -80 -162 -371 -223 -515 -33 -77 -80 -185 -104 -240 -102 -233 -175 -408 -175 -416 0 -5 83 -9 188 -9 l189 0 35 78 c35 76 60 133 194 442 37 85 105 243 151 350 47 107 96 220 108 250 29 69 128 296 145 333 7 15 16 27 20 27 9 0 65 -122 165 -355 109 -257 118 -277 173 -405 285 -657 302 -697 302 -710 0 -12 373 -11 385 1 3 4 -8 38 -26 75 -17 38 -42 94 -54 124 -62 148 -248 582 -290 675 -41 91 -51 114 -148 340 -49 116 -105 245 -123 288 -19 42 -49 112 -67 155 -152 353 -181 411 -221 437 -38 25 -133 30 -174 9z"/>
 <path d="M13291 3248 c1 -889 7 -1144 29 -1190 7 -15 31 -40 53 -55 33 -23 51 -28 97 -28 65 0 112 26 148 82 l23 34 6 1004 6 1005 -181 0 -182 0 1 -852z"/>
 <path d="M13971 3013 c1 -1315 9 -1795 29 -1838 19 -38 90 -75 145 -75 50 0 122 35 149 73 20 27 21 46 27 420 4 216 7 559 8 763 0 204 4 412 7 462 l7 91 51 -42 c28 -23 83 -69 122 -102 39 -33 113 -96 165 -140 52 -44 183 -159 293 -255 261 -230 406 -352 449 -379 66 -41 135 -24 200 48 41 46 52 77 43 124 -10 52 -38 89 -137 177 -52 46 -117 104 -145 129 -70 63 -121 108 -184 161 -30 25 -64 54 -76 65 -12 11 -63 56 -113 99 -50 43 -91 81 -91 83 0 7 117 150 190 233 95 107 616 707 670 770 132 158 170 204 170 212 0 4 -102 8 -228 8 l-227 0 -155 -181 c-85 -100 -163 -191 -173 -203 -24 -28 -119 -136 -132 -150 -6 -6 -58 -65 -115 -131 -58 -66 -109 -125 -115 -131 -5 -7 -37 -43 -70 -81 -33 -38 -70 -77 -81 -86 -20 -15 -23 -15 -54 8 -18 14 -74 62 -124 108 -50 46 -104 95 -119 108 l-28 24 -6 358 -6 357 -174 0 -173 0 1 -1087z"/>
 <path d="M2322 2114 c-136 -64 -323 -230 -421 -373 -40 -58 -61 -106 -97 -215 l-46 -139 4 -186 4 -186 42 -119 c58 -168 105 -241 236 -371 101 -100 199 -171 277 -200 24 -9 41 57 135 519 24 121 41 222 36 225 -4 3 -28 20 -53 38 -72 50 -185 177 -214 240 -49 108 -57 154 -53 301 3 132 5 140 38 212 39 84 127 211 164 235 31 21 41 45 18 44 -9 0 -41 -11 -70 -25z"/>
 <path d="M3360 1975 c0 -3 16 -37 35 -75 63 -125 85 -285 56 -410 -20 -84 -88 -217 -139 -272 -47 -50 -153 -122 -233 -157 l-46 -21 8 -47 c5 -27 25 -106 44 -178 19 -71 46 -188 60 -260 40 -204 44 -217 69 -209 11 4 32 13 46 20 24 13 38 24 142 102 70 54 164 178 223 297 79 160 95 228 102 420 5 151 4 167 -22 270 -28 117 -91 262 -143 334 -73 100 -202 219 -202 186z"/>
 <path d="M8462 1564 c-65 -32 -108 -83 -128 -152 -26 -87 0 -167 75 -235 91 -82 221 -84 308 -4 62 57 84 104 84 181 2 176 -181 289 -339 210z"/>
 <path d="M13405 1583 c-37 -9 -101 -56 -125 -90 -31 -46 -51 -125 -43 -178 13 -95 88 -174 188 -196 49 -11 63 -10 111 5 108 34 167 118 168 240 0 103 -52 175 -153 211 -42 14 -104 18 -146 8z"/>
 </g>
<g id="layer102" fill="#ffffff" stroke="none">
 <path d="M2475 5629 c-22 -4 -65 -10 -95 -14 -138 -17 -471 -114 -610 -177 -36 -16 -66 -28 -68 -28 -12 6 -324 -168 -437 -243 -107 -71 -114 -76 -200 -146 -141 -115 -212 -182 -310 -292 -28 -31 -65 -73 -82 -93 -18 -20 -33 -39 -33 -42 0 -3 -9 -15 -21 -27 -18 -19 -76 -100 -104 -145 -5 -9 -13 -21 -18 -26 -66 -93 -223 -388 -279 -526 -16 -41 -34 -84 -38 -95 -5 -11 -20 -58 -33 -105 -13 -47 -30 -105 -37 -130 -8 -25 -15 -49 -16 -55 -14 -50 -42 -207 -49 -270 -2 -27 -7 -68 -9 -90 -3 -22 -8 -83 -11 -135 -6 -103 -7 -114 -19 -147 -4 -12 -3 -39 3 -60 5 -21 12 -85 16 -143 3 -58 8 -118 10 -135 3 -16 7 -57 10 -90 6 -63 45 -252 72 -345 31 -109 45 -155 53 -175 4 -11 22 -56 40 -100 53 -131 120 -273 176 -373 30 -52 54 -96 54 -97 0 -1 30 -47 68 -102 77 -116 96 -140 230 -292 105 -119 282 -286 378 -356 15 -11 32 -25 38 -30 13 -13 195 -135 200 -135 2 0 33 -17 67 -39 61 -36 311 -161 324 -161 3 0 25 -8 48 -19 98 -43 295 -110 385 -130 58 -13 76 5 122 124 4 11 12 32 18 47 10 24 9 29 -11 39 -109 58 -138 76 -182 109 -56 43 -183 173 -230 235 -168 221 -228 515 -170 828 17 91 76 235 134 331 l42 68 -83 87 c-46 47 -90 93 -98 101 -106 106 -229 323 -289 512 -48 149 -51 166 -61 308 -35 468 105 858 419 1168 122 121 239 205 374 270 85 42 227 95 227 86 0 -2 8 0 18 5 9 5 33 12 52 15 19 3 44 8 55 10 12 2 48 7 80 10 33 4 79 9 103 12 l42 5 0 449 0 449 -36 88 c-20 48 -47 115 -60 147 -13 33 -30 63 -37 68 -13 9 -71 8 -132 -3z"/>
 <path d="M3013 5544 c-92 -225 -83 -155 -83 -629 0 -232 3 -436 6 -453 6 -29 10 -31 63 -37 69 -8 111 -18 221 -52 168 -51 261 -96 449 -214 l44 -28 41 28 c57 39 144 78 234 103 103 30 283 32 392 4 75 -19 219 -83 250 -111 9 -8 21 -15 26 -15 10 0 104 -89 149 -140 67 -78 124 -189 154 -302 17 -60 19 -99 17 -223 -3 -164 -6 -180 -40 -264 -55 -135 -160 -275 -268 -356 -69 -52 -182 -109 -248 -125 -25 -6 -52 -12 -60 -14 -8 -2 -38 -7 -67 -11 -29 -4 -57 -12 -62 -19 -5 -6 -19 -48 -30 -94 -37 -150 -125 -326 -239 -481 -63 -84 -217 -242 -286 -291 l-45 -33 25 -51 c14 -28 29 -59 34 -69 20 -34 61 -152 76 -216 15 -66 22 -368 9 -436 -12 -62 -85 -259 -118 -319 -61 -108 -219 -272 -351 -365 -33 -22 -65 -41 -72 -41 -24 0 -23 -17 2 -86 14 -38 34 -90 43 -117 10 -26 20 -50 24 -53 7 -7 63 -7 97 1 14 3 39 8 55 11 78 14 282 76 451 138 82 30 240 103 277 128 15 11 27 17 27 14 0 -6 45 21 194 120 89 59 105 71 185 131 135 102 404 366 476 467 11 16 39 51 61 78 39 45 125 178 167 258 11 19 28 50 39 68 26 43 99 191 133 272 15 36 31 74 36 85 34 79 118 364 134 454 3 19 7 37 9 40 2 3 7 29 10 56 3 28 9 77 13 110 10 76 10 633 1 700 -4 28 -10 67 -13 88 -3 20 -7 52 -10 70 -4 32 -41 184 -69 287 -16 61 -69 207 -91 257 -8 17 -15 33 -15 36 0 14 -114 244 -165 332 -123 214 -216 342 -350 485 -117 125 -281 279 -365 342 -69 52 -260 178 -270 178 -4 0 -10 3 -12 8 -1 4 -23 18 -48 31 -125 66 -263 134 -330 162 -72 31 -314 113 -362 123 -13 3 -63 14 -112 26 -50 11 -108 22 -130 25 -23 3 -57 8 -76 11 -19 2 -71 7 -116 10 l-81 7 -40 -99z"/>
 <path d="M7607 4973 c-4 -3 -7 -84 -7 -178 0 -131 3 -172 13 -172 22 0 112 -14 152 -23 234 -54 436 -156 583 -294 l42 -40 0 -1092 0 -1092 38 -39 c50 -51 105 -77 149 -70 56 10 106 41 137 86 l28 42 2 1092 c1 1198 3 1149 -58 1250 -15 23 -32 51 -39 62 -16 27 -123 133 -173 171 -165 129 -408 227 -701 284 -108 21 -155 25 -166 13z"/>
 <path d="M2937 4274 c-4 -55 -7 -533 -7 -1064 l0 -966 45 -12 c25 -7 54 -12 65 -12 21 0 138 -45 234 -89 59 -28 239 -172 261 -209 22 -37 50 -62 73 -62 16 0 59 36 146 123 104 104 226 250 226 271 0 3 15 29 33 58 41 64 109 229 131 317 9 35 15 65 14 67 -2 1 -23 5 -48 9 -56 8 -88 13 -120 20 -14 3 -36 8 -50 11 -125 25 -323 178 -426 330 -99 144 -126 245 -123 458 1 102 5 137 24 191 34 97 100 206 171 283 35 37 63 74 63 82 1 19 -98 84 -214 141 -116 57 -198 87 -310 115 -16 4 -34 8 -40 10 -18 4 -69 14 -106 20 l-36 6 -6 -98z"/>
 <path d="M2586 4353 c-1 -1 -27 -5 -57 -9 -54 -7 -221 -54 -256 -73 -10 -5 -50 -26 -90 -45 -274 -135 -461 -319 -601 -592 -44 -86 -103 -240 -118 -306 -2 -10 -7 -28 -10 -40 -20 -78 -25 -155 -21 -338 3 -113 7 -216 11 -230 3 -14 8 -37 11 -52 11 -57 84 -243 123 -312 13 -23 25 -49 29 -58 3 -10 9 -18 14 -18 5 0 9 -5 9 -10 0 -32 149 -219 251 -314 l63 -59 55 59 c174 186 388 291 633 309 40 4 81 8 91 11 16 5 17 63 17 1045 l0 1040 -75 -2 c-42 -2 -77 -4 -79 -6z"/>
 <path d="M4075 4233 c-45 -5 -115 -25 -115 -33 0 -4 14 -10 32 -14 49 -10 212 -92 254 -129 86 -74 105 -96 153 -175 72 -121 90 -182 96 -327 5 -126 -30 -282 -77 -344 -10 -13 -18 -28 -18 -33 0 -5 -17 -30 -37 -56 -128 -158 -280 -244 -478 -270 l-60 -8 40 -18 c119 -52 319 -94 381 -81 11 2 39 6 64 9 60 5 159 39 245 84 129 66 277 241 332 391 14 36 29 75 34 86 21 47 30 196 16 275 -4 19 -8 49 -11 65 -4 29 -78 191 -113 249 -20 33 -43 59 -116 134 -69 70 -197 145 -308 181 -34 11 -246 20 -314 14z"/>
 <path d="M7030 4127 c-3 -2 -27 -7 -55 -10 -27 -3 -57 -8 -65 -11 -8 -3 -26 -8 -40 -10 -46 -9 -134 -35 -202 -59 -154 -57 -285 -156 -353 -269 l-39 -63 -8 -195 c-5 -107 -8 -395 -6 -640 l3 -445 34 -70 c50 -102 150 -199 261 -253 127 -61 145 -68 265 -98 102 -26 124 -28 300 -28 187 1 216 4 419 49 11 3 48 14 83 26 36 11 67 18 71 14 4 -4 8 -174 9 -378 2 -205 6 -413 9 -463 l6 -91 126 -6 c70 -4 148 -7 174 -7 l47 0 -1 1261 c-1 1398 5 1255 -61 1387 -44 87 -138 169 -267 231 -74 36 -256 97 -315 105 -23 4 -52 9 -65 12 -34 7 -324 18 -330 11z m380 -380 c25 -10 52 -19 60 -21 42 -10 139 -70 208 -128 l32 -27 0 -525 0 -525 -68 -45 c-37 -25 -73 -46 -79 -46 -6 0 -13 -4 -15 -8 -4 -12 -149 -66 -218 -83 -60 -14 -263 -18 -350 -7 -120 15 -213 62 -352 178 -17 14 -18 48 -18 540 l1 525 52 41 c75 59 141 95 232 126 77 26 86 27 275 24 157 -2 204 -5 240 -19z"/>
 <path d="M9830 4127 c-3 -2 -25 -7 -50 -10 -25 -4 -56 -9 -70 -12 -14 -3 -36 -8 -50 -11 -59 -12 -220 -71 -286 -103 -176 -89 -284 -227 -305 -389 -4 -37 -8 -409 -9 -828 l0 -761 121 -6 c67 -4 148 -7 181 -7 l58 0 0 758 c0 416 4 774 9 795 8 34 33 63 82 92 53 33 159 84 159 78 0 -5 4 -2 8 5 32 49 450 58 567 12 110 -43 191 -89 256 -148 l29 -25 0 -784 0 -783 176 0 176 0 -5 813 c-2 446 -6 821 -10 832 -24 88 -71 171 -127 226 -97 95 -289 187 -470 225 -14 3 -43 10 -65 15 -43 10 -367 25 -375 16z"/>
 <path d="M12012 4108 c-38 -19 -49 -35 -97 -128 -29 -58 -62 -128 -73 -156 -24 -59 -117 -277 -137 -319 -7 -16 -28 -64 -45 -105 -18 -41 -43 -98 -56 -127 -13 -28 -24 -54 -24 -57 0 -3 -16 -39 -35 -80 -19 -41 -35 -78 -35 -81 0 -4 -11 -30 -24 -58 -13 -29 -41 -90 -61 -137 -21 -47 -44 -98 -51 -115 -30 -66 -74 -174 -74 -179 0 -3 -15 -37 -34 -76 -19 -38 -32 -70 -30 -70 3 0 -2 -12 -10 -27 -8 -16 -43 -93 -77 -173 -33 -80 -67 -158 -75 -174 -8 -16 -14 -33 -14 -38 0 -4 85 -8 189 -8 l189 0 32 78 c18 42 36 82 40 87 4 6 14 28 23 50 8 22 26 63 38 90 13 28 23 52 24 55 1 7 65 160 75 179 5 9 22 48 39 86 16 39 45 106 65 150 19 44 51 120 71 169 20 49 41 96 46 105 5 9 27 60 49 113 22 53 47 110 55 125 8 15 15 31 15 35 0 17 74 158 82 158 5 0 21 -26 35 -57 14 -32 36 -80 48 -108 24 -54 60 -138 120 -280 37 -89 99 -231 136 -312 10 -24 19 -45 19 -47 0 -3 13 -33 29 -68 15 -35 45 -103 66 -153 21 -49 41 -94 44 -100 4 -5 21 -44 38 -85 17 -41 50 -119 74 -173 l42 -99 176 4 c97 1 182 7 188 11 9 5 10 13 3 25 -11 19 -42 91 -106 242 -24 58 -51 119 -58 135 -8 17 -29 64 -46 105 -17 41 -38 89 -45 105 -8 17 -28 64 -46 105 -17 41 -41 98 -54 125 -12 28 -64 147 -114 265 -51 118 -99 229 -106 245 -16 34 -100 228 -165 380 -95 225 -153 335 -186 356 -51 31 -121 34 -172 7z"/>
 <path d="M13293 3143 c4 -527 9 -982 12 -1012 3 -30 13 -66 21 -80 22 -38 79 -71 129 -78 58 -7 131 32 161 85 21 37 22 42 29 1040 l7 1002 -182 0 -183 0 6 -957z"/>
 <path d="M13980 2703 c0 -876 4 -1424 10 -1467 11 -76 34 -106 99 -127 63 -21 165 10 203 61 25 35 26 55 33 880 3 399 8 755 11 793 l6 67 47 -37 c26 -21 71 -58 100 -83 76 -65 83 -71 137 -115 26 -22 52 -45 58 -50 6 -6 38 -33 71 -60 33 -28 65 -54 71 -60 6 -5 41 -37 79 -70 37 -33 91 -80 118 -105 27 -25 59 -53 71 -63 11 -10 44 -38 71 -62 80 -69 94 -81 137 -117 23 -18 48 -39 55 -47 34 -34 88 -62 128 -68 54 -7 100 19 150 84 39 51 42 70 19 136 -16 46 -59 93 -184 197 -30 25 -73 63 -97 85 -40 37 -70 64 -168 146 -22 19 -53 46 -70 61 -16 14 -39 35 -51 45 -151 131 -181 164 -156 175 4 2 39 41 78 88 39 47 80 95 90 106 11 12 37 43 59 70 22 26 58 68 80 93 22 24 49 54 60 67 11 12 40 46 65 75 25 29 56 65 70 79 24 25 47 52 143 163 23 27 54 62 68 77 14 16 44 50 65 76 55 66 158 188 164 194 25 23 78 98 73 103 -3 4 -105 7 -226 7 -202 0 -221 -1 -236 -19 -9 -10 -32 -38 -53 -62 -20 -24 -46 -55 -58 -69 -67 -76 -130 -150 -164 -192 -19 -22 -141 -162 -161 -184 -6 -6 -35 -39 -65 -74 -30 -34 -59 -68 -65 -74 -5 -6 -50 -58 -100 -116 -49 -58 -109 -124 -133 -148 -38 -38 -45 -41 -65 -31 -19 10 -103 83 -254 223 l-43 39 0 354 0 353 -170 0 -170 0 0 -1397z"/>
 <path d="M2317 2110 c-126 -62 -334 -244 -404 -352 -59 -91 -53 -80 -86 -173 -62 -172 -65 -191 -65 -360 -1 -126 3 -175 18 -231 33 -123 78 -233 126 -305 58 -90 190 -224 274 -281 72 -48 147 -84 156 -75 11 10 77 294 99 422 7 45 14 75 19 93 3 9 8 31 11 47 10 57 16 90 25 130 5 22 8 40 7 41 -1 1 -18 11 -37 23 -19 11 -72 58 -118 103 -85 84 -134 164 -161 263 -17 61 -14 293 4 346 37 108 95 201 172 277 29 29 53 55 53 57 0 12 -40 1 -93 -25z"/>
 <path d="M3400 1897 c21 -45 42 -98 45 -117 3 -19 10 -49 14 -67 15 -53 6 -193 -17 -258 -67 -197 -131 -272 -315 -370 l-88 -47 5 -37 c3 -20 23 -107 46 -194 39 -151 64 -267 76 -352 11 -74 28 -110 49 -107 24 4 145 85 176 118 12 13 28 24 35 24 6 0 31 26 54 57 24 32 53 69 65 83 40 44 122 218 155 325 27 91 36 344 15 450 -31 161 -121 358 -200 441 -5 6 -26 28 -45 50 -39 43 -88 84 -101 84 -4 0 10 -37 31 -83z"/>
 <path d="M8478 1571 c-97 -48 -150 -124 -152 -216 -2 -181 215 -299 366 -200 152 100 143 325 -17 407 -54 28 -149 32 -197 9z"/>
 <path d="M13373 1565 c-54 -27 -104 -80 -123 -129 -14 -39 -12 -141 3 -179 19 -44 78 -103 124 -123 99 -43 230 -3 285 86 102 165 11 349 -180 366 -48 5 -65 1 -109 -21z"/>
 </g>

</svg>