<!DOCTYPE svg PUBLIC "-//W3C//DTD SVG 20010904//EN" "http://www.w3.org/TR/2001/REC-SVG-20010904/DTD/svg10.dtd">
<svg version="1.0" xmlns="http://www.w3.org/2000/svg" width="1600px" height="612px" viewBox="0 0 16000 6120" preserveAspectRatio="xMidYMid meet">
<g id="layer101" fill="#7c7c7c" stroke="none">
 <path d="M1570 6109 c-778 -7 -1248 -21 -1292 -38 -37 -14 -143 -133 -171 -193 -19 -40 -28 -82 -37 -173 -20 -204 -29 -1286 -30 -3389 l0 -2019 73 -66 c39 -36 111 -103 158 -148 l85 -83 6665 0 c7427 1 8424 6 8674 51 75 13 106 30 167 87 83 77 96 108 108 257 21 263 30 1242 30 3325 l0 2135 -133 133 -132 132 -6695 -2 c-3682 -1 -7044 -5 -7470 -9z m10475 -260 c1650 -5 3081 -13 3181 -17 l181 -7 77 -39 c44 -23 114 -71 162 -113 l84 -74 0 -2517 0 -2517 -127 -127 -128 -128 -5405 0 c-5328 0 -8496 11 -9148 30 l-333 9 -52 30 c-121 70 -147 185 -168 742 -14 375 -6 3964 10 4214 15 255 17 261 65 313 45 49 122 109 174 136 88 45 445 57 1937 65 2073 11 6241 11 9490 0z"/>
 <path d="M6598 5306 c-89 -20 -162 -61 -218 -123 -34 -37 -48 -59 -41 -67 5 -6 34 -24 63 -40 l55 -29 42 46 c58 63 113 88 210 94 127 9 224 -26 256 -94 33 -69 9 -137 -63 -176 -46 -25 -79 -35 -257 -78 -123 -30 -210 -72 -245 -121 -77 -105 -57 -256 45 -346 62 -54 123 -73 260 -79 129 -6 213 11 287 58 45 29 118 101 118 117 0 4 -27 23 -59 43 l-59 37 -54 -52 c-63 -61 -112 -79 -216 -78 -127 1 -205 57 -205 146 0 77 45 108 209 146 176 40 280 79 329 122 68 60 79 87 79 194 1 84 -2 95 -30 140 -34 56 -103 107 -177 130 -69 21 -254 27 -329 10z"/>
 <path d="M9076 5304 c-91 -22 -159 -60 -216 -120 -59 -62 -59 -64 22 -108 l55 -29 41 44 c22 25 62 56 89 69 42 22 61 25 153 25 92 0 111 -3 154 -25 59 -30 86 -70 86 -127 0 -30 -7 -50 -26 -73 -42 -49 -87 -68 -269 -110 -248 -58 -325 -123 -325 -271 0 -97 15 -135 73 -193 67 -67 126 -87 272 -93 121 -6 211 11 275 50 45 28 130 106 130 121 0 6 -27 27 -59 47 l-59 37 -43 -44 c-63 -65 -116 -86 -214 -86 -128 0 -205 44 -220 126 -16 83 55 136 232 172 229 46 347 114 378 217 41 140 -9 273 -126 333 -104 52 -277 69 -403 38z"/>
 <path d="M1520 4804 l0 -496 253 4 c281 5 329 14 394 71 46 41 63 82 63 157 0 79 -28 138 -85 179 -24 17 -49 31 -57 32 -7 0 1 5 17 11 107 36 154 75 179 151 46 137 -13 284 -135 336 -91 40 -185 51 -415 51 l-214 0 0 -496z m518 341 c23 -9 53 -31 67 -47 21 -25 25 -40 25 -98 0 -65 -2 -71 -33 -103 -43 -42 -117 -57 -291 -57 l-126 0 0 166 0 166 158 -4 c119 -4 167 -9 200 -23z m-53 -454 c53 -24 76 -51 82 -99 7 -55 -11 -104 -48 -126 -31 -18 -161 -35 -276 -36 l-63 0 0 140 0 140 133 0 c107 0 140 -4 172 -19z"/>
 <path d="M2520 4805 l0 -495 213 0 c241 0 321 10 390 48 62 33 91 71 112 146 47 163 -34 330 -176 361 -20 5 -29 12 -25 21 5 14 158 235 233 338 24 32 43 62 43 67 0 5 -40 9 -88 9 l-88 0 -64 -92 c-35 -51 -97 -141 -137 -200 l-74 -108 -90 0 -89 0 0 200 0 200 -80 0 -80 0 0 -495z m462 -47 c21 -6 52 -27 68 -45 27 -30 30 -40 30 -104 0 -139 -39 -165 -258 -175 l-142 -7 0 171 0 172 131 0 c73 0 149 -5 171 -12z"/>
 <path d="M3390 5293 c0 -5 21 -62 46 -128 25 -66 61 -160 79 -210 19 -49 55 -144 80 -210 55 -144 62 -163 107 -285 62 -165 46 -150 159 -150 l97 0 15 38 c8 20 56 147 107 282 79 211 127 338 185 490 8 19 25 65 39 102 14 36 26 69 26 73 0 3 -37 5 -81 3 l-82 -3 -47 -125 -47 -125 -216 -3 -215 -2 -18 47 c-9 27 -27 75 -40 108 -12 33 -25 70 -29 83 -6 20 -12 22 -86 22 -43 0 -79 -3 -79 -7z m630 -380 c0 -9 -22 -68 -106 -296 -42 -114 -61 -153 -66 -140 -4 10 -43 114 -86 231 l-79 212 169 0 c92 0 168 -3 168 -7z"/>
 <path d="M4500 4805 l0 -495 80 0 80 0 0 233 1 232 91 -95 c50 -52 151 -157 224 -233 l132 -138 96 3 95 3 -207 210 c-114 116 -213 217 -219 226 -11 13 -9 20 10 42 12 14 112 127 222 252 110 124 203 233 208 241 7 12 -7 14 -90 13 l-98 0 -87 -102 c-48 -56 -97 -113 -109 -127 -12 -14 -55 -65 -97 -113 l-75 -88 -49 48 -48 47 0 168 0 168 -80 0 -80 0 0 -495z"/>
 <path d="M5500 4805 l0 -495 335 0 335 0 0 65 0 65 -260 0 -260 0 0 135 0 135 220 0 220 0 0 65 0 65 -220 0 -220 0 0 165 0 165 260 0 260 0 0 65 0 65 -335 0 -335 0 0 -495z"/>
 <path d="M9985 5288 c-14 -46 -29 -102 -65 -243 -23 -88 -54 -209 -70 -270 -16 -60 -36 -137 -45 -170 -25 -93 -75 -285 -75 -290 0 -3 35 -5 78 -5 l77 0 68 268 c103 407 119 466 127 475 5 5 11 -6 15 -25 3 -18 12 -53 20 -78 7 -25 32 -119 55 -210 23 -91 48 -187 56 -215 8 -27 23 -87 35 -132 l21 -83 88 0 c83 0 88 1 92 23 3 12 20 76 37 142 38 138 89 333 128 488 15 59 30 107 34 107 4 0 9 -12 12 -27 2 -16 25 -107 50 -203 25 -96 64 -245 86 -330 22 -85 43 -165 47 -177 6 -21 12 -23 81 -23 l74 0 -7 38 c-4 20 -13 55 -21 77 -8 22 -21 69 -29 105 -8 36 -20 88 -28 115 -8 28 -31 113 -51 190 -20 77 -45 169 -55 205 -10 36 -26 94 -35 130 -10 36 -22 80 -27 98 l-10 33 -91 -3 -92 -3 -11 -50 c-7 -27 -19 -77 -28 -110 -18 -64 -64 -239 -119 -453 -19 -73 -37 -135 -39 -138 -5 -4 -26 71 -54 191 -8 33 -23 92 -34 130 -20 72 -99 373 -107 413 -5 21 -10 22 -94 22 -63 0 -91 -4 -94 -12z"/>
 <path d="M11200 4805 l0 -495 335 0 335 0 0 65 0 65 -255 0 -255 0 0 135 0 135 220 0 220 0 0 65 0 65 -220 0 -220 0 0 165 0 165 255 0 255 0 0 65 0 65 -335 0 -335 0 0 -495z"/>
 <path d="M12090 4805 l0 -495 184 0 c227 0 321 12 404 51 160 76 219 213 209 484 -5 148 -19 208 -63 275 -35 53 -45 64 -93 98 -81 59 -211 82 -458 82 l-183 0 0 -495z m457 340 c64 -22 114 -63 142 -115 47 -90 48 -359 1 -449 -51 -101 -120 -132 -312 -139 l-128 -4 0 367 0 367 123 -4 c78 -4 140 -12 174 -23z"/>
 <path d="M13120 4805 l0 -495 335 0 335 0 0 65 0 65 -260 0 -260 0 0 135 0 135 225 0 225 0 0 65 0 65 -225 0 -225 0 0 165 0 165 260 0 260 0 0 65 0 65 -335 0 -335 0 0 -495z"/>
 <path d="M14020 4805 l0 -495 113 0 112 0 49 83 c27 45 120 205 207 355 88 151 166 283 174 295 13 19 15 -17 15 -356 l0 -377 70 0 70 0 0 495 0 495 -87 0 -88 0 -80 -137 c-44 -75 -96 -164 -116 -197 -19 -34 -91 -157 -160 -274 l-124 -213 -3 411 -2 410 -75 0 -75 0 0 -495z"/>
 <path d="M7740 4925 l0 -65 245 0 245 0 0 65 0 65 -245 0 -245 0 0 -65z"/>
 <path d="M6470 3845 c-177 -15 -370 -43 -515 -74 -203 -45 -481 -138 -617 -207 l-48 -24 -107 105 -108 105 -250 -2 -250 -3 -3 -577 -2 -578 395 0 395 0 0 48 c0 64 21 137 61 213 42 81 194 236 304 309 161 108 409 210 638 264 214 51 308 61 542 60 291 0 429 -24 568 -97 111 -58 197 -185 197 -290 0 -173 -266 -274 -990 -377 -470 -67 -562 -82 -739 -116 -602 -117 -926 -247 -1156 -466 -135 -127 -204 -246 -231 -398 -101 -566 361 -873 1451 -962 244 -20 940 -17 1185 5 197 18 479 62 625 97 67 16 283 83 336 104 11 5 35 -20 90 -94 l74 -100 253 0 252 0 0 580 0 580 -389 0 -390 0 -6 -47 c-12 -101 -46 -218 -77 -271 -47 -79 -151 -187 -235 -244 -219 -147 -508 -222 -965 -249 -508 -30 -872 94 -895 305 -20 169 152 290 556 390 166 42 264 59 951 171 826 134 1190 243 1430 428 117 90 171 161 210 277 20 58 22 79 17 200 -6 162 -31 270 -88 386 -159 324 -583 493 -1367 545 -262 17 -919 20 -1102 4z"/>
 <path d="M13255 3784 c-129 -19 -209 -40 -309 -79 -204 -80 -336 -193 -406 -349 -41 -90 -50 -148 -58 -387 -8 -211 -9 -216 -37 -268 -69 -127 -232 -203 -495 -231 -52 -5 -229 -13 -392 -17 l-298 -6 0 304 c0 192 4 319 11 344 15 54 61 109 124 150 100 64 127 69 368 73 l217 3 0 215 0 214 -1315 0 -1315 0 2 -212 3 -213 220 -6 c241 -6 258 -9 365 -74 56 -34 99 -83 119 -138 8 -19 11 -294 11 -840 0 -780 -1 -814 -20 -852 -24 -52 -44 -73 -103 -113 -94 -65 -139 -75 -377 -81 l-215 -6 -3 -213 -2 -213 1522 4 c1561 4 1616 6 2022 48 232 23 313 37 493 85 318 83 514 213 603 398 48 102 63 174 63 301 -1 117 -21 211 -65 304 -46 97 -164 211 -285 274 -96 50 -333 133 -409 144 -41 5 -63 23 -29 23 26 0 198 73 280 119 142 80 247 208 284 346 6 22 11 110 11 195 0 168 8 215 44 257 22 25 32 28 104 31 89 4 129 -10 159 -55 15 -22 19 -55 22 -190 l3 -163 299 0 c257 0 300 2 305 15 9 22 -15 300 -30 365 -19 78 -39 121 -84 182 -91 122 -188 185 -384 252 -173 59 -319 76 -653 75 -181 -1 -312 -6 -370 -15z m-1070 -1774 c198 -27 294 -59 384 -125 45 -33 66 -57 87 -102 26 -53 29 -68 29 -163 0 -95 -3 -110 -27 -156 -50 -96 -181 -173 -353 -209 -125 -26 -291 -34 -682 -35 l-363 0 0 406 0 406 423 -5 c232 -3 458 -11 502 -17z"/>
 <path d="M1552 3538 l3 -213 220 -6 c147 -4 232 -10 255 -19 106 -40 210 -126 227 -187 4 -15 8 -399 8 -853 0 -924 6 -851 -74 -923 -22 -20 -63 -48 -90 -62 -92 -46 -150 -55 -358 -55 l-193 0 0 -215 0 -215 1320 0 1320 0 0 215 0 215 -193 0 c-215 0 -270 9 -369 62 -84 44 -132 102 -152 183 -14 56 -16 155 -16 807 0 698 1 748 19 811 21 77 48 112 126 162 95 62 129 69 365 75 l215 5 3 213 2 212 -1320 0 -1320 0 2 -212z"/>
 </g>
<g id="layer102" fill="#b4b4b4" stroke="none">
 <path d="M1710 6110 c-753 -7 -1171 -15 -1310 -26 -135 -10 -135 -10 -205 -86 -92 -100 -111 -145 -125 -303 -18 -205 -29 -1460 -29 -3506 l-1 -1886 68 -65 c37 -35 108 -103 158 -152 l92 -87 7233 4 c7101 5 7677 7 7999 37 144 13 186 28 258 88 97 82 114 125 127 337 16 266 25 1408 25 3302 l0 2081 -135 136 -135 136 -6617 -2 c-3640 -1 -6971 -5 -7403 -8z m12840 -269 c811 -8 826 -9 881 -30 76 -29 163 -86 238 -156 l61 -58 0 -2516 0 -2516 -127 -127 -128 -128 -5570 0 c-5430 0 -8393 10 -9018 30 l-309 9 -46 30 c-79 51 -120 139 -137 292 -4 35 -9 78 -11 94 -27 254 -27 4431 1 4702 13 132 14 134 83 205 36 38 69 68 73 68 5 0 25 11 45 25 20 14 53 29 73 34 119 31 493 43 1646 51 1333 10 11088 2 12245 -9z"/>
 <path d="M6598 5306 c-89 -20 -162 -61 -218 -123 -34 -37 -48 -59 -41 -67 5 -6 34 -24 63 -40 l55 -29 42 46 c58 63 113 88 210 94 127 9 224 -26 256 -94 33 -69 9 -137 -63 -176 -46 -25 -79 -35 -257 -78 -123 -30 -210 -72 -245 -121 -77 -105 -57 -256 45 -346 62 -54 123 -73 260 -79 129 -6 213 11 287 58 45 29 118 101 118 117 0 4 -27 23 -59 43 l-59 37 -54 -52 c-63 -61 -112 -79 -216 -78 -127 1 -205 57 -205 146 0 77 45 108 209 146 176 40 280 79 329 122 68 60 79 87 79 194 1 84 -2 95 -30 140 -34 56 -103 107 -177 130 -69 21 -254 27 -329 10z"/>
 <path d="M9076 5304 c-91 -22 -159 -60 -216 -120 -59 -62 -59 -64 22 -108 l55 -29 41 44 c22 25 62 56 89 69 42 22 61 25 153 25 92 0 111 -3 154 -25 59 -30 86 -70 86 -127 0 -30 -7 -50 -26 -73 -42 -49 -87 -68 -269 -110 -248 -58 -325 -123 -325 -271 0 -97 15 -135 73 -193 67 -67 126 -87 272 -93 121 -6 211 11 275 50 45 28 130 106 130 121 0 6 -27 27 -59 47 l-59 37 -43 -44 c-63 -65 -116 -86 -214 -86 -128 0 -205 44 -220 126 -16 83 55 136 232 172 229 46 347 114 378 217 41 140 -9 273 -126 333 -104 52 -277 69 -403 38z"/>
 <path d="M1520 4804 l0 -496 253 4 c281 5 329 14 394 71 46 41 63 82 63 157 0 79 -28 138 -85 179 -24 17 -49 31 -57 32 -7 0 1 5 17 11 107 36 154 75 179 151 46 137 -13 284 -135 336 -91 40 -185 51 -415 51 l-214 0 0 -496z m518 341 c23 -9 53 -31 67 -47 21 -25 25 -40 25 -98 0 -65 -2 -71 -33 -103 -43 -42 -117 -57 -291 -57 l-126 0 0 166 0 166 158 -4 c119 -4 167 -9 200 -23z m-53 -454 c53 -24 76 -51 82 -99 7 -55 -11 -104 -48 -126 -31 -18 -161 -35 -276 -36 l-63 0 0 140 0 140 133 0 c107 0 140 -4 172 -19z"/>
 <path d="M2520 4805 l0 -495 213 0 c241 0 321 10 390 48 62 33 91 71 112 146 47 163 -34 330 -176 361 -20 5 -29 12 -25 21 5 14 158 235 233 338 24 32 43 62 43 67 0 5 -40 9 -88 9 l-88 0 -64 -92 c-35 -51 -97 -141 -137 -200 l-74 -108 -90 0 -89 0 0 200 0 200 -80 0 -80 0 0 -495z m462 -47 c21 -6 52 -27 68 -45 27 -30 30 -40 30 -104 0 -139 -39 -165 -258 -175 l-142 -7 0 171 0 172 131 0 c73 0 149 -5 171 -12z"/>
 <path d="M3390 5293 c0 -5 21 -62 46 -128 25 -66 61 -160 79 -210 19 -49 55 -144 80 -210 55 -144 62 -163 107 -285 62 -165 46 -150 159 -150 l97 0 15 38 c8 20 56 147 107 282 79 211 127 338 185 490 8 19 25 65 39 102 14 36 26 69 26 73 0 3 -37 5 -81 3 l-82 -3 -47 -125 -47 -125 -216 -3 -215 -2 -18 47 c-9 27 -27 75 -40 108 -12 33 -25 70 -29 83 -6 20 -12 22 -86 22 -43 0 -79 -3 -79 -7z m630 -380 c0 -9 -22 -68 -106 -296 -42 -114 -61 -153 -66 -140 -4 10 -43 114 -86 231 l-79 212 169 0 c92 0 168 -3 168 -7z"/>
 <path d="M4500 4805 l0 -495 80 0 80 0 0 233 1 232 91 -95 c50 -52 151 -157 224 -233 l132 -138 96 3 95 3 -207 210 c-114 116 -213 217 -219 226 -11 13 -9 20 10 42 12 14 112 127 222 252 110 124 203 233 208 241 7 12 -7 14 -90 13 l-98 0 -87 -102 c-48 -56 -97 -113 -109 -127 -12 -14 -55 -65 -97 -113 l-75 -88 -49 48 -48 47 0 168 0 168 -80 0 -80 0 0 -495z"/>
 <path d="M5500 4805 l0 -495 335 0 335 0 0 65 0 65 -260 0 -260 0 0 135 0 135 220 0 220 0 0 65 0 65 -220 0 -220 0 0 165 0 165 260 0 260 0 0 65 0 65 -335 0 -335 0 0 -495z"/>
 <path d="M9985 5288 c-14 -46 -29 -102 -65 -243 -23 -88 -54 -209 -70 -270 -16 -60 -36 -137 -45 -170 -25 -93 -75 -285 -75 -290 0 -3 35 -5 78 -5 l77 0 68 268 c103 407 119 466 127 475 5 5 11 -6 15 -25 3 -18 12 -53 20 -78 7 -25 32 -119 55 -210 23 -91 48 -187 56 -215 8 -27 23 -87 35 -132 l21 -83 88 0 c83 0 88 1 92 23 3 12 20 76 37 142 38 138 89 333 128 488 15 59 30 107 34 107 4 0 9 -12 12 -27 2 -16 25 -107 50 -203 25 -96 64 -245 86 -330 22 -85 43 -165 47 -177 6 -21 12 -23 81 -23 l74 0 -7 38 c-4 20 -13 55 -21 77 -8 22 -21 69 -29 105 -8 36 -20 88 -28 115 -8 28 -31 113 -51 190 -20 77 -45 169 -55 205 -10 36 -26 94 -35 130 -10 36 -22 80 -27 98 l-10 33 -91 -3 -92 -3 -11 -50 c-7 -27 -19 -77 -28 -110 -18 -64 -64 -239 -119 -453 -19 -73 -37 -135 -39 -138 -5 -4 -26 71 -54 191 -8 33 -23 92 -34 130 -20 72 -99 373 -107 413 -5 21 -10 22 -94 22 -63 0 -91 -4 -94 -12z"/>
 <path d="M11200 4805 l0 -495 335 0 335 0 0 65 0 65 -255 0 -255 0 0 135 0 135 220 0 220 0 0 65 0 65 -220 0 -220 0 0 165 0 165 255 0 255 0 0 65 0 65 -335 0 -335 0 0 -495z"/>
 <path d="M12090 4805 l0 -495 184 0 c227 0 321 12 404 51 160 76 219 213 209 484 -5 148 -19 208 -63 275 -35 53 -45 64 -93 98 -81 59 -211 82 -458 82 l-183 0 0 -495z m457 340 c64 -22 114 -63 142 -115 47 -90 48 -359 1 -449 -51 -101 -120 -132 -312 -139 l-128 -4 0 367 0 367 123 -4 c78 -4 140 -12 174 -23z"/>
 <path d="M13120 4805 l0 -495 335 0 335 0 0 65 0 65 -260 0 -260 0 0 135 0 135 225 0 225 0 0 65 0 65 -225 0 -225 0 0 165 0 165 260 0 260 0 0 65 0 65 -335 0 -335 0 0 -495z"/>
 <path d="M14020 4805 l0 -495 113 0 112 0 49 83 c27 45 120 205 207 355 88 151 166 283 174 295 13 19 15 -17 15 -356 l0 -377 70 0 70 0 0 495 0 495 -87 0 -88 0 -80 -137 c-44 -75 -96 -164 -116 -197 -19 -34 -91 -157 -160 -274 l-124 -213 -3 411 -2 410 -75 0 -75 0 0 -495z"/>
 <path d="M7740 4925 l0 -65 245 0 245 0 0 65 0 65 -245 0 -245 0 0 -65z"/>
 <path d="M6470 3845 c-177 -15 -370 -43 -515 -74 -203 -45 -481 -138 -617 -207 l-48 -24 -107 105 -108 105 -250 -2 -250 -3 -3 -577 -2 -578 395 0 395 0 0 48 c0 64 21 137 61 213 42 81 194 236 304 309 161 108 409 210 638 264 214 51 308 61 542 60 291 0 429 -24 568 -97 111 -58 197 -185 197 -290 0 -173 -266 -274 -990 -377 -470 -67 -562 -82 -739 -116 -602 -117 -926 -247 -1156 -466 -135 -127 -204 -246 -231 -398 -101 -566 361 -873 1451 -962 244 -20 940 -17 1185 5 197 18 479 62 625 97 67 16 283 83 336 104 11 5 35 -20 90 -94 l74 -100 253 0 252 0 0 580 0 580 -389 0 -390 0 -6 -47 c-12 -101 -46 -218 -77 -271 -47 -79 -151 -187 -235 -244 -219 -147 -508 -222 -965 -249 -508 -30 -872 94 -895 305 -20 169 152 290 556 390 166 42 264 59 951 171 826 134 1190 243 1430 428 117 90 171 161 210 277 20 58 22 79 17 200 -6 162 -31 270 -88 386 -159 324 -583 493 -1367 545 -262 17 -919 20 -1102 4z"/>
 <path d="M13255 3784 c-129 -19 -209 -40 -309 -79 -204 -80 -336 -193 -406 -349 -41 -90 -50 -148 -58 -387 -8 -211 -9 -216 -37 -268 -69 -127 -232 -203 -495 -231 -52 -5 -229 -13 -392 -17 l-298 -6 0 304 c0 192 4 319 11 344 15 54 61 109 124 150 100 64 127 69 368 73 l217 3 0 215 0 214 -1315 0 -1315 0 2 -212 3 -213 220 -6 c241 -6 258 -9 365 -74 56 -34 99 -83 119 -138 8 -19 11 -294 11 -840 0 -780 -1 -814 -20 -852 -24 -52 -44 -73 -103 -113 -94 -65 -139 -75 -377 -81 l-215 -6 -3 -213 -2 -213 1522 4 c1561 4 1616 6 2022 48 232 23 313 37 493 85 318 83 514 213 603 398 48 102 63 174 63 301 -1 117 -21 211 -65 304 -46 97 -164 211 -285 274 -96 50 -333 133 -409 144 -41 5 -63 23 -29 23 26 0 198 73 280 119 142 80 247 208 284 346 6 22 11 110 11 195 0 168 8 215 44 257 22 25 32 28 104 31 89 4 129 -10 159 -55 15 -22 19 -55 22 -190 l3 -163 299 0 c257 0 300 2 305 15 9 22 -15 300 -30 365 -19 78 -39 121 -84 182 -91 122 -188 185 -384 252 -173 59 -319 76 -653 75 -181 -1 -312 -6 -370 -15z m-1070 -1774 c198 -27 294 -59 384 -125 45 -33 66 -57 87 -102 26 -53 29 -68 29 -163 0 -95 -3 -110 -27 -156 -50 -96 -181 -173 -353 -209 -125 -26 -291 -34 -682 -35 l-363 0 0 406 0 406 423 -5 c232 -3 458 -11 502 -17z"/>
 <path d="M1552 3538 l3 -213 220 -6 c147 -4 232 -10 255 -19 106 -40 210 -126 227 -187 4 -15 8 -399 8 -853 0 -924 6 -851 -74 -923 -22 -20 -63 -48 -90 -62 -92 -46 -150 -55 -358 -55 l-193 0 0 -215 0 -215 1320 0 1320 0 0 215 0 215 -193 0 c-215 0 -270 9 -369 62 -84 44 -132 102 -152 183 -14 56 -16 155 -16 807 0 698 1 748 19 811 21 77 48 112 126 162 95 62 129 69 365 75 l215 5 3 213 2 212 -1320 0 -1320 0 2 -212z"/>
 </g>
<g id="layer103" fill="#ffffff" stroke="none">
 <path d="M2858 6115 c-2 -1 -433 -6 -958 -9 -525 -4 -1016 -9 -1090 -11 -514 -16 -516 -16 -559 -44 -46 -29 -140 -159 -156 -214 -37 -132 -38 -214 -42 -2912 -3 -2511 -2 -2631 15 -2651 10 -11 23 -23 29 -25 6 -2 69 -60 139 -128 l129 -123 7065 7 c3886 4 7151 8 7255 10 298 4 721 15 820 21 227 13 277 29 367 120 88 88 94 114 104 479 10 350 10 352 19 2818 l8 2389 -139 139 -139 140 -6432 -2 c-3538 -1 -6433 -2 -6435 -4z m11432 -270 c1057 -6 1060 -6 1130 -30 100 -35 150 -66 233 -144 26 -25 54 -49 62 -54 13 -7 15 -328 15 -2530 l0 -2522 -127 -127 -128 -128 -5725 0 c-6210 0 -8582 10 -9075 36 -82 4 -107 9 -142 30 -104 60 -139 172 -158 504 -26 447 -26 3859 0 4430 10 224 17 271 41 308 24 36 115 122 129 122 7 0 20 9 30 20 39 43 151 61 455 75 41 2 363 7 715 11 352 3 642 9 645 11 4 3 11188 -8 11900 -12z"/>
 <path d="M6598 5306 c-89 -20 -162 -61 -218 -123 -34 -37 -48 -59 -41 -67 5 -6 34 -24 63 -40 l55 -29 42 46 c58 63 113 88 210 94 127 9 224 -26 256 -94 33 -69 9 -137 -63 -176 -46 -25 -79 -35 -257 -78 -123 -30 -210 -72 -245 -121 -77 -105 -57 -256 45 -346 62 -54 123 -73 260 -79 129 -6 213 11 287 58 45 29 118 101 118 117 0 4 -27 23 -59 43 l-59 37 -54 -52 c-63 -61 -112 -79 -216 -78 -127 1 -205 57 -205 146 0 77 45 108 209 146 176 40 280 79 329 122 68 60 79 87 79 194 1 84 -2 95 -30 140 -34 56 -103 107 -177 130 -69 21 -254 27 -329 10z"/>
 <path d="M9076 5304 c-91 -22 -159 -60 -216 -120 -59 -62 -59 -64 22 -108 l55 -29 41 44 c22 25 62 56 89 69 42 22 61 25 153 25 92 0 111 -3 154 -25 59 -30 86 -70 86 -127 0 -30 -7 -50 -26 -73 -42 -49 -87 -68 -269 -110 -248 -58 -325 -123 -325 -271 0 -97 15 -135 73 -193 67 -67 126 -87 272 -93 121 -6 211 11 275 50 45 28 130 106 130 121 0 6 -27 27 -59 47 l-59 37 -43 -44 c-63 -65 -116 -86 -214 -86 -128 0 -205 44 -220 126 -16 83 55 136 232 172 229 46 347 114 378 217 41 140 -9 273 -126 333 -104 52 -277 69 -403 38z"/>
 <path d="M1520 4804 l0 -496 253 4 c281 5 329 14 394 71 46 41 63 82 63 157 0 79 -28 138 -85 179 -24 17 -49 31 -57 32 -7 0 1 5 17 11 107 36 154 75 179 151 46 137 -13 284 -135 336 -91 40 -185 51 -415 51 l-214 0 0 -496z m518 341 c23 -9 53 -31 67 -47 21 -25 25 -40 25 -98 0 -65 -2 -71 -33 -103 -43 -42 -117 -57 -291 -57 l-126 0 0 166 0 166 158 -4 c119 -4 167 -9 200 -23z m-53 -454 c53 -24 76 -51 82 -99 7 -55 -11 -104 -48 -126 -31 -18 -161 -35 -276 -36 l-63 0 0 140 0 140 133 0 c107 0 140 -4 172 -19z"/>
 <path d="M2520 4805 l0 -495 213 0 c241 0 321 10 390 48 62 33 91 71 112 146 47 163 -34 330 -176 361 -20 5 -29 12 -25 21 5 14 158 235 233 338 24 32 43 62 43 67 0 5 -40 9 -88 9 l-88 0 -64 -92 c-35 -51 -97 -141 -137 -200 l-74 -108 -90 0 -89 0 0 200 0 200 -80 0 -80 0 0 -495z m462 -47 c21 -6 52 -27 68 -45 27 -30 30 -40 30 -104 0 -139 -39 -165 -258 -175 l-142 -7 0 171 0 172 131 0 c73 0 149 -5 171 -12z"/>
 <path d="M3390 5293 c0 -5 21 -62 46 -128 25 -66 61 -160 79 -210 19 -49 55 -144 80 -210 55 -144 62 -163 107 -285 62 -165 46 -150 159 -150 l97 0 15 38 c8 20 56 147 107 282 79 211 127 338 185 490 8 19 25 65 39 102 14 36 26 69 26 73 0 3 -37 5 -81 3 l-82 -3 -47 -125 -47 -125 -216 -3 -215 -2 -18 47 c-9 27 -27 75 -40 108 -12 33 -25 70 -29 83 -6 20 -12 22 -86 22 -43 0 -79 -3 -79 -7z m630 -380 c0 -9 -22 -68 -106 -296 -42 -114 -61 -153 -66 -140 -4 10 -43 114 -86 231 l-79 212 169 0 c92 0 168 -3 168 -7z"/>
 <path d="M4500 4805 l0 -495 80 0 80 0 0 233 1 232 91 -95 c50 -52 151 -157 224 -233 l132 -138 96 3 95 3 -207 210 c-114 116 -213 217 -219 226 -11 13 -9 20 10 42 12 14 112 127 222 252 110 124 203 233 208 241 7 12 -7 14 -90 13 l-98 0 -87 -102 c-48 -56 -97 -113 -109 -127 -12 -14 -55 -65 -97 -113 l-75 -88 -49 48 -48 47 0 168 0 168 -80 0 -80 0 0 -495z"/>
 <path d="M5500 4805 l0 -495 335 0 335 0 0 65 0 65 -260 0 -260 0 0 135 0 135 220 0 220 0 0 65 0 65 -220 0 -220 0 0 165 0 165 260 0 260 0 0 65 0 65 -335 0 -335 0 0 -495z"/>
 <path d="M9985 5288 c-14 -46 -29 -102 -65 -243 -23 -88 -54 -209 -70 -270 -16 -60 -36 -137 -45 -170 -25 -93 -75 -285 -75 -290 0 -3 35 -5 78 -5 l77 0 68 268 c103 407 119 466 127 475 5 5 11 -6 15 -25 3 -18 12 -53 20 -78 7 -25 32 -119 55 -210 23 -91 48 -187 56 -215 8 -27 23 -87 35 -132 l21 -83 88 0 c83 0 88 1 92 23 3 12 20 76 37 142 38 138 89 333 128 488 15 59 30 107 34 107 4 0 9 -12 12 -27 2 -16 25 -107 50 -203 25 -96 64 -245 86 -330 22 -85 43 -165 47 -177 6 -21 12 -23 81 -23 l74 0 -7 38 c-4 20 -13 55 -21 77 -8 22 -21 69 -29 105 -8 36 -20 88 -28 115 -8 28 -31 113 -51 190 -20 77 -45 169 -55 205 -10 36 -26 94 -35 130 -10 36 -22 80 -27 98 l-10 33 -91 -3 -92 -3 -11 -50 c-7 -27 -19 -77 -28 -110 -18 -64 -64 -239 -119 -453 -19 -73 -37 -135 -39 -138 -5 -4 -26 71 -54 191 -8 33 -23 92 -34 130 -20 72 -99 373 -107 413 -5 21 -10 22 -94 22 -63 0 -91 -4 -94 -12z"/>
 <path d="M11200 4805 l0 -495 335 0 335 0 0 65 0 65 -255 0 -255 0 0 135 0 135 220 0 220 0 0 65 0 65 -220 0 -220 0 0 165 0 165 255 0 255 0 0 65 0 65 -335 0 -335 0 0 -495z"/>
 <path d="M12090 4805 l0 -495 184 0 c227 0 321 12 404 51 160 76 219 213 209 484 -5 148 -19 208 -63 275 -35 53 -45 64 -93 98 -81 59 -211 82 -458 82 l-183 0 0 -495z m457 340 c64 -22 114 -63 142 -115 47 -90 48 -359 1 -449 -51 -101 -120 -132 -312 -139 l-128 -4 0 367 0 367 123 -4 c78 -4 140 -12 174 -23z"/>
 <path d="M13120 4805 l0 -495 335 0 335 0 0 65 0 65 -260 0 -260 0 0 135 0 135 225 0 225 0 0 65 0 65 -225 0 -225 0 0 165 0 165 260 0 260 0 0 65 0 65 -335 0 -335 0 0 -495z"/>
 <path d="M14020 4805 l0 -495 113 0 112 0 49 83 c27 45 120 205 207 355 88 151 166 283 174 295 13 19 15 -17 15 -356 l0 -377 70 0 70 0 0 495 0 495 -87 0 -88 0 -80 -137 c-44 -75 -96 -164 -116 -197 -19 -34 -91 -157 -160 -274 l-124 -213 -3 411 -2 410 -75 0 -75 0 0 -495z"/>
 <path d="M7740 4925 l0 -65 245 0 245 0 0 65 0 65 -245 0 -245 0 0 -65z"/>
 <path d="M6470 3845 c-177 -15 -370 -43 -515 -74 -203 -45 -481 -138 -617 -207 l-48 -24 -107 105 -108 105 -250 -2 -250 -3 -3 -577 -2 -578 395 0 395 0 0 48 c0 64 21 137 61 213 42 81 194 236 304 309 161 108 409 210 638 264 214 51 308 61 542 60 291 0 429 -24 568 -97 111 -58 197 -185 197 -290 0 -173 -266 -274 -990 -377 -470 -67 -562 -82 -739 -116 -602 -117 -926 -247 -1156 -466 -135 -127 -204 -246 -231 -398 -101 -566 361 -873 1451 -962 244 -20 940 -17 1185 5 197 18 479 62 625 97 67 16 283 83 336 104 11 5 35 -20 90 -94 l74 -100 253 0 252 0 0 580 0 580 -389 0 -390 0 -6 -47 c-12 -101 -46 -218 -77 -271 -47 -79 -151 -187 -235 -244 -219 -147 -508 -222 -965 -249 -508 -30 -872 94 -895 305 -20 169 152 290 556 390 166 42 264 59 951 171 826 134 1190 243 1430 428 117 90 171 161 210 277 20 58 22 79 17 200 -6 162 -31 270 -88 386 -159 324 -583 493 -1367 545 -262 17 -919 20 -1102 4z"/>
 <path d="M13255 3784 c-129 -19 -209 -40 -309 -79 -204 -80 -336 -193 -406 -349 -41 -90 -50 -148 -58 -387 -8 -211 -9 -216 -37 -268 -69 -127 -232 -203 -495 -231 -52 -5 -229 -13 -392 -17 l-298 -6 0 304 c0 192 4 319 11 344 15 54 61 109 124 150 100 64 127 69 368 73 l217 3 0 215 0 214 -1315 0 -1315 0 2 -212 3 -213 220 -6 c241 -6 258 -9 365 -74 56 -34 99 -83 119 -138 8 -19 11 -294 11 -840 0 -780 -1 -814 -20 -852 -24 -52 -44 -73 -103 -113 -94 -65 -139 -75 -377 -81 l-215 -6 -3 -213 -2 -213 1522 4 c1561 4 1616 6 2022 48 232 23 313 37 493 85 318 83 514 213 603 398 48 102 63 174 63 301 -1 117 -21 211 -65 304 -46 97 -164 211 -285 274 -96 50 -333 133 -409 144 -41 5 -63 23 -29 23 26 0 198 73 280 119 142 80 247 208 284 346 6 22 11 110 11 195 0 168 8 215 44 257 22 25 32 28 104 31 89 4 129 -10 159 -55 15 -22 19 -55 22 -190 l3 -163 299 0 c257 0 300 2 305 15 9 22 -15 300 -30 365 -19 78 -39 121 -84 182 -91 122 -188 185 -384 252 -173 59 -319 76 -653 75 -181 -1 -312 -6 -370 -15z m-1070 -1774 c198 -27 294 -59 384 -125 45 -33 66 -57 87 -102 26 -53 29 -68 29 -163 0 -95 -3 -110 -27 -156 -50 -96 -181 -173 -353 -209 -125 -26 -291 -34 -682 -35 l-363 0 0 406 0 406 423 -5 c232 -3 458 -11 502 -17z"/>
 <path d="M1552 3538 l3 -213 220 -6 c147 -4 232 -10 255 -19 106 -40 210 -126 227 -187 4 -15 8 -399 8 -853 0 -924 6 -851 -74 -923 -22 -20 -63 -48 -90 -62 -92 -46 -150 -55 -358 -55 l-193 0 0 -215 0 -215 1320 0 1320 0 0 215 0 215 -193 0 c-215 0 -270 9 -369 62 -84 44 -132 102 -152 183 -14 56 -16 155 -16 807 0 698 1 748 19 811 21 77 48 112 126 162 95 62 129 69 365 75 l215 5 3 213 2 212 -1320 0 -1320 0 2 -212z"/>
 </g>

</svg>