<!DOCTYPE svg PUBLIC "-//W3C//DTD SVG 20010904//EN" "http://www.w3.org/TR/2001/REC-SVG-20010904/DTD/svg10.dtd">
<svg version="1.0" xmlns="http://www.w3.org/2000/svg" width="1036px" height="333px" viewBox="0 0 10360 3330" preserveAspectRatio="xMidYMid meet">
<g id="layer101" fill="#ffffff" stroke="none">
 <path d="M2015 3286 c-799 -205 -1417 -580 -1711 -1038 -174 -270 -249 -592 -215 -922 7 -65 15 -125 18 -132 4 -12 164 -14 954 -14 522 0 949 3 949 8 0 4 -31 30 -68 59 -90 69 -245 230 -311 323 -386 547 -213 1107 512 1661 64 50 117 92 117 95 0 14 -96 -2 -245 -40z"/>
 <path d="M4860 2390 l0 -550 90 0 90 0 0 47 0 47 28 -26 c71 -67 188 -98 303 -81 183 29 316 163 350 353 29 165 -52 345 -198 438 -141 89 -351 82 -455 -16 l-28 -26 0 182 0 182 -90 0 -90 0 0 -550z m540 84 c85 -46 130 -123 130 -221 -1 -142 -110 -253 -247 -253 -73 0 -127 25 -176 80 -77 85 -92 184 -43 284 65 133 208 180 336 110z"/>
 <path d="M5880 2390 l0 -550 90 0 90 0 0 47 0 47 28 -26 c99 -94 285 -113 428 -43 114 56 203 182 226 319 27 164 -55 342 -199 434 -141 89 -351 82 -455 -16 l-28 -26 0 182 0 182 -90 0 -90 0 0 -550z m526 94 c125 -59 179 -212 120 -339 -42 -92 -125 -145 -225 -145 -71 0 -125 25 -174 80 -77 85 -92 184 -43 284 61 125 201 177 322 120z"/>
 <path d="M3609 2636 c-86 -51 -140 -107 -157 -165 -8 -26 -12 -168 -12 -455 l0 -416 90 0 90 0 0 390 c0 315 3 397 14 425 14 32 58 70 125 107 l31 17 -39 68 c-21 37 -45 69 -52 71 -8 1 -48 -18 -90 -42z"/>
 <path d="M4115 2660 c-166 -53 -279 -198 -292 -376 -18 -229 137 -419 371 -456 263 -41 495 160 496 430 l0 62 -330 0 c-368 0 -348 -4 -310 69 42 82 149 139 242 128 59 -7 140 -50 176 -93 l27 -31 77 41 c43 22 78 44 78 49 0 14 -89 97 -137 128 -109 68 -273 89 -398 49z m355 -513 c0 -16 -48 -84 -76 -109 -56 -50 -174 -63 -243 -29 -53 28 -121 109 -121 147 0 2 99 4 220 4 178 0 220 -3 220 -13z"/>
 <path d="M8916 2669 c-110 -27 -235 -130 -281 -232 -14 -29 -29 -83 -34 -120 -34 -240 121 -449 365 -489 176 -30 370 66 449 222 29 58 55 162 55 228 l0 42 -336 0 -336 0 6 28 c11 46 61 104 113 134 104 59 212 44 305 -41 l53 -49 73 40 c39 22 72 46 72 53 0 25 -115 118 -190 154 -69 33 -83 36 -175 38 -55 1 -117 -2 -139 -8z m324 -535 c-59 -155 -283 -195 -388 -68 -17 21 -36 50 -41 66 l-10 28 224 0 225 0 -10 -26z"/>
 <path d="M2630 2490 l0 -170 -60 0 -60 0 0 -85 0 -85 60 0 60 0 0 -275 0 -275 90 0 90 0 0 275 0 275 39 0 40 0 106 -155 107 -155 109 0 c60 0 109 3 109 7 0 3 -61 91 -135 195 l-136 189 136 200 c75 110 139 206 142 214 4 13 -13 15 -103 15 l-109 -1 -105 -169 -105 -169 -47 -1 -48 0 0 170 0 170 -90 0 -90 0 0 -170z"/>
 <path d="M7342 2363 c4 -280 5 -301 26 -355 47 -119 143 -182 277 -183 68 0 89 4 138 28 35 17 67 42 81 63 l23 34 31 -39 c48 -60 110 -85 207 -86 133 0 225 58 279 174 20 43 21 64 24 354 l3 307 -90 0 -91 0 0 -267 c0 -242 -2 -272 -19 -310 -45 -99 -187 -99 -232 0 -17 38 -19 68 -19 310 l0 267 -89 0 -90 0 -3 -272 c-3 -297 -6 -311 -64 -357 -36 -29 -112 -29 -148 0 -54 42 -56 55 -56 354 l0 275 -96 0 -96 0 4 -297z"/>
 <path d="M9660 2490 l0 -170 -60 0 -60 0 0 -85 0 -85 60 0 60 0 0 -275 0 -275 90 0 90 0 0 276 0 275 42 -3 42 -3 105 -152 105 -153 109 0 c90 0 108 3 104 14 -3 8 -64 95 -135 194 l-130 180 139 209 c76 114 139 212 139 216 0 4 -48 6 -107 5 l-107 -3 -106 -167 -105 -168 -47 0 -48 0 0 170 0 170 -90 0 -90 0 0 -170z"/>
 <path d="M120 840 l0 -220 -60 0 -60 0 0 -95 0 -95 60 0 60 0 0 -205 0 -205 100 0 100 0 0 205 0 205 30 0 c26 0 49 -23 201 -205 l172 -205 124 0 c67 0 123 3 123 6 0 5 -301 354 -362 420 l-28 30 205 288 c113 158 205 289 205 291 0 3 -57 5 -127 5 l-128 -1 -150 -219 -149 -220 -58 0 -58 0 0 220 0 220 -100 0 -100 0 0 -220z"/>
 <path d="M1090 530 c0 -292 3 -530 7 -530 5 0 110 102 235 227 l228 228 221 -228 c121 -125 225 -227 230 -227 5 0 9 215 9 530 l0 530 -100 0 -100 0 0 -312 -1 -313 -131 135 -131 135 -129 -135 -128 -135 0 313 0 312 -105 0 -105 0 0 -530z"/>
 </g>

</svg>