<!DOCTYPE svg PUBLIC "-//W3C//DTD SVG 20010904//EN" "http://www.w3.org/TR/2001/REC-SVG-20010904/DTD/svg10.dtd">
<svg version="1.0" xmlns="http://www.w3.org/2000/svg" width="1600px" height="375px" viewBox="0 0 16000 3750" preserveAspectRatio="xMidYMid meet">
<g id="layer101" fill="#ffffff" stroke="none">
 <path d="M10605 3739 c-138 -18 -242 -92 -281 -202 -17 -48 -18 -106 -24 -787 -4 -514 -9 -743 -17 -761 -6 -15 -24 -36 -39 -48 l-27 -21 247 0 246 0 -31 28 c-21 19 -34 42 -39 72 -5 25 -6 346 -3 714 l6 668 25 29 c43 51 128 33 151 -33 16 -44 15 -1363 0 -1407 -7 -18 -26 -41 -43 -52 -31 -19 -31 -19 220 -19 l252 0 -39 39 c-34 34 -39 45 -40 87 0 27 -1 362 -2 744 -2 782 1 744 -79 835 -92 104 -254 142 -483 114z"/>
 <path d="M11622 3740 c-65 -14 -144 -53 -189 -94 -60 -54 -77 -122 -79 -311 -1 -82 -2 -158 -3 -168 0 -10 -14 -32 -30 -48 l-29 -29 183 0 183 0 6 33 c3 17 11 90 16 162 7 81 16 138 26 152 29 45 101 42 131 -4 15 -23 18 -50 18 -163 0 -132 -1 -137 -32 -201 -28 -57 -49 -80 -164 -179 -234 -202 -312 -324 -325 -510 -6 -81 16 -246 41 -306 59 -143 221 -200 494 -174 103 9 135 16 175 38 91 50 112 106 122 332 5 111 9 140 25 163 l20 27 -165 0 -164 0 -11 -31 c-6 -18 -11 -67 -11 -109 0 -98 -13 -134 -52 -151 -41 -17 -77 -3 -102 41 -17 27 -21 52 -21 115 0 118 28 169 158 287 247 225 306 304 338 453 19 89 17 325 -4 402 -55 206 -148 272 -392 279 -66 2 -139 -1 -163 -6z"/>
 <path d="M12629 3741 c-109 -20 -224 -107 -250 -188 -6 -21 -14 -120 -18 -220 l-6 -182 -30 -31 -29 -30 184 2 184 3 7 30 c4 17 12 88 18 159 7 84 15 136 26 152 29 45 102 44 132 -3 14 -21 17 -50 17 -152 0 -198 -21 -242 -184 -379 -175 -147 -269 -260 -312 -377 -39 -109 -35 -303 9 -439 24 -74 93 -139 174 -164 90 -28 206 -35 334 -22 126 13 177 32 222 83 43 49 51 85 65 272 9 136 14 163 31 183 l20 22 -165 0 -165 0 -11 -25 c-7 -14 -12 -61 -13 -103 0 -94 -15 -142 -51 -161 -34 -19 -73 -7 -102 32 -18 24 -21 43 -21 120 0 80 4 99 27 142 31 59 90 122 216 229 201 171 262 302 262 566 0 142 -16 234 -56 313 -59 121 -152 167 -349 173 -66 1 -141 -1 -166 -5z"/>
 <path d="M15560 3730 c-54 -11 -83 -26 -110 -55 -22 -24 -25 -36 -28 -123 -3 -71 -8 -102 -20 -115 -15 -17 -12 -18 79 -15 l94 3 7 74 c4 40 13 80 19 87 16 20 47 17 59 -5 13 -26 13 -112 -1 -148 -6 -15 -59 -75 -118 -133 -125 -121 -138 -150 -128 -270 11 -135 56 -169 217 -170 105 0 156 17 176 59 7 13 15 60 19 105 4 44 12 87 17 94 8 9 -8 12 -76 12 -96 0 -92 3 -98 -84 -5 -68 -62 -76 -79 -11 -16 58 -1 86 107 190 132 129 139 142 139 275 0 88 -4 111 -22 146 -28 53 -38 60 -108 79 -63 16 -90 17 -145 5z"/>
 <path d="M7780 3719 c-94 -13 -169 -47 -220 -98 -67 -67 -81 -114 -87 -298 l-6 -153 162 0 161 0 1 93 c0 107 13 152 51 180 22 16 33 18 60 11 53 -15 68 -57 68 -195 0 -147 9 -175 58 -183 48 -8 197 -8 254 0 44 6 45 7 28 24 -14 14 -19 43 -24 151 -10 180 -24 296 -41 329 -19 38 -80 88 -131 110 -79 34 -219 46 -334 29z"/>
 <path d="M8410 3691 l45 -39 3 -803 c3 -904 6 -871 -66 -909 l-37 -19 268 -1 c147 0 267 2 267 6 0 3 -14 10 -30 16 -67 23 -65 -8 -68 822 l-3 749 66 -6 c36 -4 93 -18 128 -32 107 -45 97 -56 97 102 l0 140 -127 6 c-71 4 -231 7 -358 7 l-230 0 45 -39z"/>
 <path d="M9153 3700 c37 -43 63 -134 92 -320 14 -91 59 -345 100 -565 86 -464 126 -701 128 -766 2 -35 -5 -55 -26 -87 l-27 -42 286 0 286 0 -31 35 c-17 20 -34 47 -37 62 -9 35 33 293 121 743 85 432 98 506 125 698 21 153 37 202 77 245 l27 27 -224 0 -224 0 32 -31 c19 -18 32 -42 32 -56 0 -31 -47 -324 -56 -346 -5 -15 -24 -17 -134 -17 l-128 0 -11 51 c-25 114 -52 305 -46 327 3 13 21 32 40 44 19 11 35 22 35 24 0 2 -104 4 -231 4 l-231 0 25 -30z m605 -687 c-3 -16 -18 -104 -33 -198 -16 -93 -31 -174 -35 -178 -6 -7 -60 341 -60 386 0 14 10 17 66 17 l66 0 -4 -27z"/>
 <path d="M13260 3726 c0 -2 16 -14 35 -26 23 -14 38 -33 45 -58 6 -24 10 -318 10 -825 0 -880 3 -839 -69 -877 l-36 -19 361 -1 362 0 6 22 c3 13 6 69 6 124 l0 102 -62 -25 c-41 -17 -90 -27 -144 -31 l-81 -5 -6 69 c-4 38 -7 165 -7 283 l0 214 89 -7 c49 -4 112 -13 140 -20 l51 -13 0 147 0 148 -44 -13 c-25 -8 -88 -17 -140 -21 l-96 -7 0 312 0 311 38 0 c51 0 180 -33 231 -59 22 -12 43 -21 46 -21 7 0 6 183 -1 248 l-7 52 -363 0 c-200 0 -364 -2 -364 -4z"/>
 <path d="M14141 3686 c11 -20 23 -63 27 -103 4 -37 5 -394 2 -793 -5 -679 -6 -728 -24 -768 -10 -23 -32 -53 -48 -67 l-30 -25 201 0 c111 0 201 2 201 4 0 16 113 424 178 640 l77 259 3 -224 c4 -320 -11 -579 -37 -632 -11 -23 -19 -42 -18 -43 1 0 94 -4 205 -8 l204 -6 -31 36 -31 35 2 834 3 833 23 31 23 31 -190 0 -190 0 -21 -67 c-11 -38 -45 -169 -76 -293 -31 -124 -72 -281 -92 -350 l-37 -125 -5 370 c-3 204 -1 382 3 397 5 15 23 36 40 47 l32 21 -207 0 -207 0 20 -34z"/>
 <path d="M5340 1860 l0 -1850 60 0 60 0 0 1850 0 1850 -60 0 -60 0 0 -1850z"/>
 <path d="M1410 3690 c-347 -27 -674 -174 -929 -416 -234 -222 -381 -485 -453 -806 -20 -90 -23 -130 -22 -313 0 -178 3 -225 22 -312 74 -341 265 -658 527 -872 117 -96 208 -153 221 -138 16 17 58 96 53 100 -316 202 -516 444 -628 760 -57 162 -75 272 -75 462 0 246 39 415 145 628 72 146 140 239 269 368 206 207 431 330 713 391 136 29 407 32 540 5 274 -55 515 -180 712 -369 52 -49 119 -123 151 -164 31 -41 59 -74 61 -74 13 0 93 63 93 72 0 23 -114 159 -214 255 -316 305 -744 458 -1186 423z"/>
 <path d="M5710 2785 l0 -345 1045 0 1045 0 0 345 0 345 -1045 0 -1045 0 0 -345z m1698 274 c55 -19 79 -86 63 -172 -7 -39 -20 -59 -79 -121 -86 -91 -107 -160 -59 -190 28 -18 51 5 57 55 5 43 6 44 45 47 l41 3 -6 -67 c-7 -87 -34 -114 -115 -114 -70 0 -101 12 -120 49 -21 41 -19 127 4 176 10 22 44 66 74 98 71 73 89 143 45 171 -30 19 -53 -4 -56 -58 l-3 -46 -42 0 -42 0 3 48 c4 70 10 89 34 112 25 23 103 28 156 9z m-1248 -119 l0 -120 46 0 45 0 -3 120 -3 120 55 0 55 0 -3 -260 c-2 -173 1 -266 8 -280 10 -19 8 -20 -61 -20 -64 0 -70 2 -63 18 4 9 10 63 12 120 l4 102 -46 0 -46 0 0 -101 c0 -55 5 -109 10 -120 10 -18 7 -19 -57 -19 l-68 0 3 280 3 280 54 0 55 0 0 -120z m374 90 c-4 -16 -3 -50 0 -75 l7 -45 53 0 53 0 7 65 c4 36 4 70 1 75 -4 6 16 10 48 10 l54 0 -9 -37 c-4 -21 -24 -141 -43 -267 -25 -168 -31 -233 -23 -243 8 -11 -7 -13 -84 -13 l-95 0 5 28 c3 25 -60 470 -74 515 -5 15 2 17 50 17 l56 0 -6 -30z m388 -112 c-2 -90 0 -139 6 -133 5 6 29 70 53 143 l43 132 56 0 55 0 0 -280 0 -280 -57 0 -57 0 10 28 c5 16 8 84 7 153 l-3 124 -50 -152 -49 -153 -62 0 -62 0 14 30 c12 24 14 75 12 280 l-3 250 45 0 45 0 -3 -142z"/>
 <path d="M6567 2738 c7 -50 15 -93 17 -95 2 -2 8 29 15 69 7 40 14 83 18 96 5 20 1 22 -29 22 l-35 0 14 -92z"/>
 <path d="M1890 2705 l0 -164 28 4 c80 12 129 14 195 5 115 -14 179 -43 250 -112 48 -45 56 -57 37 -52 -54 16 -223 7 -291 -15 -298 -95 -424 -431 -277 -740 22 -46 54 -89 107 -142 116 -115 222 -159 387 -159 297 0 486 195 525 542 35 322 -82 648 -295 820 -151 121 -331 178 -563 178 l-103 0 0 -165z m530 -646 c26 -11 62 -35 80 -54 32 -33 33 -35 28 -109 -7 -107 -51 -195 -116 -233 -90 -53 -212 -27 -268 56 -29 45 -54 120 -54 165 0 87 61 173 136 194 52 15 135 6 194 -19z"/>
 <path d="M1098 2301 l-3 -549 -78 45 c-43 25 -80 43 -83 41 -6 -6 -95 -291 -91 -293 1 -1 77 -46 169 -99 l167 -96 120 0 121 0 0 750 0 750 -160 0 -160 0 -2 -549z"/>
 <path d="M3330 2305 c0 -300 -3 -545 -6 -545 -4 0 -38 18 -76 40 -39 22 -73 40 -77 40 -6 0 -91 -266 -91 -287 0 -6 75 -54 166 -107 l166 -96 119 0 119 0 0 750 0 750 -160 0 -160 0 0 -545z"/>
 <path d="M4580 2660 l0 -190 -335 0 -335 0 0 -108 0 -108 208 -250 c114 -138 281 -342 372 -453 l164 -201 123 0 123 0 0 410 0 410 105 0 105 0 0 150 0 150 -105 0 -105 0 0 190 0 190 -160 0 -160 0 0 -190z m0 -610 c0 -66 -2 -120 -4 -120 -5 0 -177 207 -190 228 -5 9 16 12 93 12 l101 0 0 -120z"/>
 <path d="M15260 2805 l0 -25 350 0 350 0 0 25 0 25 -350 0 -350 0 0 -25z"/>
 <path d="M15344 2711 c11 -13 38 -122 81 -337 83 -418 80 -400 61 -429 l-16 -25 145 0 146 0 -21 22 c-23 25 -24 17 22 238 40 198 86 428 93 471 3 19 14 45 26 57 l20 22 -116 0 -116 0 15 -22 c19 -27 20 -59 4 -127 l-11 -51 -63 0 c-71 0 -71 1 -81 91 -4 45 -2 64 11 84 l16 25 -116 0 c-114 0 -117 0 -100 -19z m296 -293 c0 -2 -7 -38 -15 -81 -8 -43 -16 -82 -16 -85 -2 -10 -28 129 -28 151 -1 12 7 17 29 17 17 0 30 -1 30 -2z"/>
 <path d="M7986 2448 c-12 -16 -16 -47 -16 -113 0 -133 -37 -190 -112 -172 -46 12 -63 52 -63 149 l0 88 -164 0 -164 0 5 -133 c4 -115 8 -140 30 -188 33 -72 87 -123 157 -150 104 -40 399 -36 483 7 48 24 96 73 107 108 16 51 31 182 31 275 0 73 3 93 20 113 10 14 16 28 13 32 -3 3 -75 6 -159 6 -147 0 -154 -1 -168 -22z"/>
 <path d="M5740 950 l0 -690 5120 0 5120 0 0 690 0 690 -5120 0 -5120 0 0 -690z m1259 445 c142 -50 227 -179 238 -360 17 -278 -164 -476 -394 -434 -138 25 -242 139 -274 298 -14 75 -7 207 16 271 35 100 122 191 212 225 50 18 151 19 202 0z m2096 -6 c64 -24 142 -94 174 -157 47 -93 65 -245 40 -352 -53 -230 -275 -346 -476 -249 -169 82 -241 369 -146 581 34 75 124 162 191 182 69 21 152 19 217 -5z m585 -17 c41 -21 62 -39 85 -76 27 -45 30 -57 30 -137 0 -81 -2 -90 -30 -130 -23 -33 -52 -55 -120 -91 -49 -25 -95 -55 -102 -64 -7 -10 -13 -37 -13 -61 0 -48 22 -78 66 -89 28 -7 128 0 157 11 15 6 17 0 17 -58 l0 -64 -37 -7 c-73 -12 -167 -6 -208 13 -57 26 -103 77 -120 135 -18 59 -18 70 -4 136 14 68 52 109 141 155 40 21 83 47 95 58 49 44 37 133 -21 161 -38 18 -119 21 -181 6 -22 -5 -40 -8 -41 -7 -1 1 9 32 23 69 23 61 28 67 56 71 66 10 152 -3 207 -31z m2638 18 c53 -17 116 -70 145 -124 21 -39 22 -53 25 -353 l3 -313 -65 0 -65 0 -3 298 c-3 325 -4 329 -64 369 -35 23 -133 22 -169 -1 -51 -34 -55 -60 -55 -376 l0 -290 -85 0 -86 0 13 22 c9 17 14 102 18 308 l5 285 30 60 c35 69 86 110 155 125 55 11 140 7 198 -10z m525 -2 c114 -34 180 -173 143 -301 -19 -66 -65 -111 -158 -156 -78 -37 -98 -58 -105 -108 -4 -32 0 -45 20 -69 23 -27 30 -29 94 -29 37 0 83 4 101 8 l32 9 0 -65 0 -64 -37 -7 c-61 -10 -153 -7 -197 6 -56 17 -121 84 -136 140 -7 23 -10 71 -7 106 7 93 35 128 146 186 50 26 97 56 106 69 17 25 20 89 4 119 -23 42 -114 59 -216 39 -24 -5 -43 -5 -43 -1 0 3 11 33 24 66 20 48 29 60 53 66 34 8 125 1 176 -14z m2715 -7 c112 -57 182 -164 201 -304 37 -265 -113 -480 -334 -480 -219 0 -363 203 -334 471 17 161 101 278 238 329 54 20 175 12 229 -16z m-9408 -157 l0 -175 23 3 c18 2 39 37 110 176 l87 172 75 0 75 0 -24 -48 c-13 -26 -65 -124 -115 -216 -50 -92 -88 -173 -84 -179 3 -7 53 -87 110 -179 57 -91 103 -169 103 -172 0 -3 -33 -6 -73 -6 l-72 0 -105 178 -105 177 -3 -177 -2 -178 -80 0 -79 0 14 41 c21 58 21 665 1 722 l-14 37 79 0 79 0 0 -176z m1320 -94 l0 -270 64 123 c112 214 107 207 141 207 29 0 34 -8 117 -163 l88 -162 0 268 0 267 65 0 65 0 0 -400 0 -400 -63 0 -62 0 -105 199 -105 198 -104 -198 -104 -199 -79 0 c-43 0 -78 1 -78 3 0 1 7 20 15 42 11 32 14 106 14 355 0 249 -3 323 -14 355 -8 22 -15 41 -15 43 0 1 36 2 80 2 l80 0 0 -270z m810 131 l0 -138 65 -5 c109 -9 199 -81 226 -182 15 -56 7 -163 -16 -210 -21 -43 -80 -91 -134 -106 -20 -6 -98 -14 -174 -17 l-137 -6 15 36 c22 52 22 680 1 732 l-15 35 85 0 84 0 0 -139z m1760 -261 l0 -400 -84 0 -84 0 16 33 c15 28 17 80 20 400 l3 367 65 0 64 0 0 -400z m390 65 l0 -334 81 -3 81 -3 24 -62 23 -63 -259 0 -260 0 0 65 0 65 90 0 90 0 0 335 0 335 65 0 65 0 0 -335z m550 0 l0 -334 82 -3 81 -3 23 -62 24 -63 -260 0 -260 0 0 65 0 65 90 0 90 0 0 335 0 335 65 0 65 0 0 -335z m420 160 l0 -175 140 0 140 0 0 175 0 175 65 0 65 0 0 -400 0 -400 -65 0 -65 0 0 160 0 160 -140 0 -140 0 0 -160 0 -160 -80 0 c-44 0 -80 2 -80 4 0 2 7 20 15 39 12 30 15 95 15 357 0 262 -3 327 -15 357 -8 19 -15 37 -15 39 0 2 36 4 80 4 l80 0 0 -175z m2054 123 c10 -29 21 -59 23 -65 4 -10 -24 -13 -121 -13 l-126 0 0 -110 0 -110 105 0 105 0 0 -60 0 -60 -105 0 -105 0 0 -100 0 -100 120 0 120 0 0 -65 0 -65 -199 0 -199 0 14 38 c20 56 20 663 -1 721 l-14 41 182 0 182 0 19 -52z m376 -283 l0 -334 81 -3 81 -3 24 -62 23 -63 -259 0 -260 0 0 65 0 65 90 0 90 0 0 335 0 335 65 0 65 0 0 -335z m430 265 l0 -70 -60 0 -60 0 0 70 0 70 60 0 60 0 0 -70z m287 -227 l-6 -298 32 80 c18 44 80 178 137 298 l105 217 87 0 88 0 0 -400 0 -400 -65 0 -65 0 0 288 -1 287 -64 -135 c-36 -74 -98 -203 -137 -287 l-73 -152 -102 -1 -102 0 15 35 c21 50 21 697 0 738 l-15 27 86 0 86 0 -6 -297z"/>
 <path d="M6825 1265 c-44 -24 -59 -40 -90 -97 -22 -41 -29 -67 -33 -137 -6 -118 14 -190 72 -247 80 -81 175 -80 253 2 57 59 77 128 71 245 -6 100 -38 173 -96 217 -43 33 -132 41 -177 17z"/>
 <path d="M8898 1258 c-84 -52 -124 -150 -116 -282 9 -134 66 -221 160 -247 87 -23 180 36 219 139 17 47 20 73 17 153 -4 112 -29 172 -91 222 -52 42 -135 49 -189 15z"/>
 <path d="M15345 1261 c-80 -50 -119 -130 -119 -251 0 -108 22 -178 75 -231 117 -117 281 -43 319 145 29 141 -25 291 -122 342 -39 20 -117 18 -153 -5z"/>
 <path d="M8280 866 l0 -136 40 0 c49 0 95 22 111 52 7 12 12 46 12 75 0 81 -42 129 -123 140 l-40 6 0 -137z"/>
 <path d="M997 993 c16 -24 18 -56 18 -308 0 -252 -2 -284 -18 -308 l-17 -27 195 0 195 0 0 55 0 55 -110 0 -110 0 0 80 0 80 95 0 95 0 0 55 0 55 -95 0 -95 0 0 90 0 90 115 0 c63 0 115 4 115 9 0 5 -9 29 -20 55 l-21 46 -180 0 -179 0 17 -27z"/>
 <path d="M1590 740 l0 -280 -80 0 -80 0 0 -55 0 -55 244 0 245 0 -23 53 -23 52 -77 3 -76 3 0 279 0 280 -65 0 -65 0 0 -280z"/>
 <path d="M1965 990 c9 -17 62 -167 119 -333 l103 -302 70 -3 70 -3 103 303 c56 167 111 318 121 336 l18 32 -77 0 -78 0 -20 -62 -20 -63 -115 -3 -115 -3 -20 63 -20 63 -78 3 -77 3 16 -31z m344 -297 c-16 -49 -34 -106 -40 -127 l-11 -40 -39 120 c-21 65 -39 122 -39 127 0 4 36 7 79 7 l80 0 -30 -87z"/>
 <path d="M2635 986 c22 -51 22 -550 1 -601 l-15 -35 167 0 c154 0 171 2 212 22 58 30 90 78 90 135 0 52 -30 116 -65 139 l-26 17 31 18 c105 64 91 232 -25 304 -48 30 -50 30 -217 33 l-168 4 15 -36z m270 -90 c56 -24 74 -91 36 -137 -16 -19 -30 -24 -90 -27 l-71 -4 0 91 0 91 45 0 c25 0 61 -6 80 -14z m-6 -287 c36 -13 51 -35 51 -77 0 -45 -31 -65 -106 -70 l-64 -4 0 81 0 81 44 0 c23 0 57 -5 75 -11z"/>
 <path d="M3175 1003 c22 -55 26 -107 23 -341 -3 -227 -5 -261 -21 -285 l-17 -27 85 0 85 0 0 280 0 280 110 0 c61 0 110 4 110 9 0 5 -9 30 -20 55 l-19 46 -172 0 c-159 0 -171 -1 -164 -17z"/>
 <path d="M3600 1016 c0 -2 7 -20 15 -39 12 -29 15 -88 15 -295 0 -233 -2 -261 -19 -295 l-19 -37 194 0 194 0 0 55 0 55 -110 0 -110 0 0 80 0 80 95 0 95 0 0 55 0 55 -95 0 -95 0 0 90 0 90 115 0 c63 0 115 4 115 9 0 5 -9 30 -20 55 l-19 46 -176 0 c-96 0 -175 -2 -175 -4z"/>
 <path d="M4066 985 c11 -27 14 -91 14 -300 0 -209 -3 -273 -14 -300 l-15 -35 143 0 c154 0 210 11 255 53 75 69 66 219 -18 290 -18 15 -37 27 -43 27 -6 0 -4 8 4 18 16 18 148 263 148 275 0 4 -36 7 -79 7 l-80 0 -65 -135 c-52 -109 -69 -135 -85 -135 -20 0 -21 5 -21 135 l0 135 -79 0 -80 0 15 -35z m227 -344 c55 -21 82 -81 61 -136 -9 -24 -58 -45 -104 -45 l-40 0 0 95 0 95 29 0 c16 0 41 -4 54 -9z"/>
 <path d="M4740 740 l0 -280 -80 0 -80 0 0 -55 0 -55 244 0 244 0 -21 55 -22 55 -72 0 -73 0 0 280 0 280 -70 0 -70 0 0 -280z"/>
 </g>

</svg>