<!DOCTYPE svg PUBLIC "-//W3C//DTD SVG 20010904//EN" "http://www.w3.org/TR/2001/REC-SVG-20010904/DTD/svg10.dtd">
<svg version="1.0" xmlns="http://www.w3.org/2000/svg" width="1600px" height="284px" viewBox="0 0 16000 2840" preserveAspectRatio="xMidYMid meet">
<g id="layer101" fill="#7e7e7e" stroke="none">
 <path d="M1575 2766 c-274 -59 -520 -192 -715 -386 -201 -200 -344 -452 -386 -680 -31 -170 -16 -605 26 -749 5 -19 7 -37 5 -40 -3 -2 -83 -8 -178 -13 -194 -9 -231 -18 -251 -57 -44 -83 -72 -320 -62 -506 9 -152 29 -274 47 -286 28 -18 1514 -1 1863 21 292 19 458 56 582 131 115 70 364 304 448 422 222 312 298 611 252 990 -24 190 -100 389 -214 562 -61 92 -256 286 -357 356 -136 94 -271 161 -430 211 -75 23 -203 39 -355 43 -147 5 -177 3 -275 -19z m380 -474 c215 -79 419 -281 500 -497 25 -66 45 -245 27 -245 -6 0 -14 15 -17 33 -11 52 -69 168 -111 222 -88 114 -224 207 -344 236 -76 18 -249 16 -335 -5 -180 -43 -367 -183 -441 -328 -55 -108 -72 -317 -40 -468 19 -87 71 -199 133 -287 l44 -62 -38 5 c-114 17 -193 66 -271 170 -65 86 -113 176 -148 279 -24 69 -28 96 -28 195 -1 127 14 193 69 315 47 104 94 172 175 252 108 108 197 157 365 204 60 17 93 19 225 15 141 -4 163 -7 235 -34z m-77 -359 c-39 -75 -41 -90 -42 -230 -1 -159 5 -178 48 -149 34 22 36 21 36 -19 0 -42 11 -44 95 -15 32 11 60 18 62 16 2 -2 -15 -20 -38 -40 -22 -21 -39 -40 -36 -42 3 -3 30 -8 60 -11 74 -8 215 15 238 38 17 17 18 14 24 -56 15 -157 -12 -237 -121 -355 -75 -80 -127 -115 -202 -134 -70 -19 -248 -26 -245 -11 1 6 10 30 19 55 18 51 15 222 -6 275 -18 46 -60 85 -92 85 -21 0 -31 6 -38 25 -13 34 -42 39 -190 31 -149 -8 -160 -4 -160 69 0 55 11 62 37 27 27 -36 81 -52 175 -52 108 0 159 20 203 81 19 27 42 49 50 49 22 0 35 65 35 183 0 128 -7 147 -55 147 -70 0 -151 -47 -265 -154 -72 -67 -140 -119 -140 -107 0 34 103 152 175 200 50 34 159 82 205 92 48 9 173 11 168 2z m235 -92 c6 -26 -19 -61 -44 -61 -23 0 -23 1 -5 45 16 38 41 46 49 16z m-93 -139 c0 -12 -49 -56 -55 -50 -7 7 34 58 46 58 5 0 9 -4 9 -8z m271 -71 c-13 -23 -66 -54 -83 -49 -6 2 8 24 31 48 29 31 44 41 52 33 8 -8 8 -17 0 -32z m407 -58 c40 -80 53 -331 27 -524 -25 -193 -104 -347 -247 -485 -127 -123 -299 -221 -438 -249 -124 -26 -406 -34 -1177 -35 l-731 0 -13 38 c-18 49 -18 274 -1 378 l14 81 813 6 c1023 9 1116 15 1280 91 171 79 272 196 352 407 26 70 83 293 83 326 0 2 4 3 10 3 5 0 18 -17 28 -37z m-1905 -288 c32 -94 96 -214 159 -302 28 -40 49 -76 45 -79 -21 -21 -164 120 -219 214 -47 83 -58 139 -57 302 l1 145 23 -105 c13 -58 34 -136 48 -175z m654 -41 c-20 -17 -40 -24 -69 -24 -23 0 -39 2 -36 5 10 10 123 53 128 48 3 -2 -8 -16 -23 -29z m263 -6 c0 -16 -31 -48 -47 -48 -10 0 -7 9 9 30 23 31 38 38 38 18z m-91 -135 c-21 -58 -71 -114 -86 -99 -11 10 70 126 88 126 4 0 4 -12 -2 -27z"/>
 <path d="M2035 1393 c-71 -17 -110 -59 -129 -135 -4 -20 -13 -28 -34 -30 -26 -3 -27 -6 -36 -76 -10 -87 -1 -176 20 -197 9 -8 33 -15 56 -15 33 0 46 6 72 35 24 26 41 35 65 35 58 0 96 24 144 91 60 86 96 160 103 213 6 43 5 46 -27 65 -28 17 -49 21 -124 20 -49 -1 -99 -3 -110 -6z"/>
 <path d="M15309 2719 c-221 -32 -394 -180 -443 -380 -67 -272 102 -537 386 -604 82 -19 238 -19 313 0 85 22 176 67 245 120 l59 46 -40 36 -40 36 -70 -48 c-40 -27 -107 -60 -156 -77 -78 -27 -96 -30 -182 -26 -118 6 -186 32 -275 104 -49 40 -70 67 -101 129 -37 73 -40 84 -40 164 0 76 4 94 31 152 59 125 157 205 291 239 162 42 319 10 423 -86 37 -34 83 -115 96 -166 l6 -28 -161 0 -161 0 0 -45 0 -45 219 0 219 0 -5 48 c-18 202 -124 344 -303 406 -94 33 -202 41 -311 25z"/>
 <path d="M10130 2265 l0 -435 -105 0 -105 0 0 -45 0 -45 275 0 275 0 0 45 0 45 -110 0 -110 0 0 435 0 435 -60 0 -60 0 0 -435z"/>
 <path d="M10610 2219 l0 -482 215 5 215 5 64 32 c137 67 181 210 108 346 -32 60 -110 111 -181 120 -25 3 -63 9 -83 13 l-37 7 125 155 c145 179 214 268 214 275 0 3 -27 5 -59 5 l-59 0 -98 -122 c-156 -191 -264 -318 -274 -318 -5 0 -15 -3 -24 -6 -14 -5 -16 18 -16 220 l0 226 -55 0 -55 0 0 -481z m437 -82 c40 -21 80 -69 88 -106 8 -37 -9 -100 -36 -134 -29 -37 -97 -54 -249 -63 l-130 -7 0 168 0 168 148 -5 c107 -4 157 -10 179 -21z"/>
 <path d="M11380 2692 c0 -17 460 -929 474 -941 13 -11 46 50 228 416 117 235 223 452 235 481 l22 52 -54 0 -54 0 -78 -159 -78 -160 -212 0 -213 -1 -80 160 -80 160 -55 0 c-30 0 -55 -4 -55 -8z m640 -408 c0 -12 -154 -324 -160 -324 -4 0 -142 277 -157 316 -4 11 25 14 156 14 89 0 161 -3 161 -6z"/>
 <path d="M12490 2220 l0 -480 128 0 c290 1 432 25 525 88 135 94 202 230 200 412 -1 180 -83 328 -223 404 -82 45 -161 56 -407 56 l-223 0 0 -480z m505 364 c70 -24 117 -56 161 -108 60 -72 77 -125 77 -241 1 -129 -22 -193 -97 -269 -61 -63 -109 -89 -191 -104 -57 -11 -89 -14 -267 -27 l-78 -6 0 392 0 392 173 -6 c121 -5 187 -11 222 -23z"/>
 <path d="M13520 2220 l0 -480 55 0 55 0 0 480 0 480 -55 0 -55 0 0 -480z"/>
 <path d="M13852 2226 c2 -261 7 -478 12 -483 4 -4 31 17 60 48 28 31 125 136 216 234 91 98 207 226 259 284 52 58 107 119 123 135 l28 30 0 -367 0 -367 45 0 45 0 0 480 c0 264 -4 480 -8 480 -8 0 -261 -271 -599 -644 l-63 -69 0 357 0 356 -60 0 -61 0 3 -474z"/>
 <path d="M3575 2683 c-16 -2 -48 -8 -69 -14 l-39 -11 6 -76 c10 -114 68 -404 162 -802 19 -80 45 -194 59 -255 14 -60 59 -252 100 -425 180 -760 198 -835 205 -842 12 -13 284 -21 329 -9 38 11 42 15 42 44 0 46 -55 351 -95 530 -69 306 -95 436 -95 472 l0 37 42 -34 c121 -94 670 -602 1058 -977 l95 -92 150 6 c151 6 219 17 230 36 4 5 0 20 -8 32 -28 41 -241 251 -597 586 -195 184 -410 388 -476 454 -139 137 -135 120 -68 249 32 62 252 436 458 776 32 53 81 139 109 191 47 87 49 95 33 107 -39 28 -307 30 -409 3 -45 -12 -62 -33 -206 -267 -57 -92 -123 -197 -147 -234 -24 -37 -44 -70 -44 -72 0 -10 -193 -304 -235 -358 -25 -33 -51 -58 -58 -55 -23 7 -74 189 -191 677 -38 159 -70 255 -95 284 -35 41 -121 54 -246 39z"/>
 <path d="M5473 2681 c-57 -10 -83 -35 -83 -81 0 -41 44 -269 96 -500 64 -282 114 -503 154 -672 22 -93 58 -243 79 -335 85 -357 131 -554 166 -699 l37 -152 86 -7 c100 -8 666 1 922 16 320 18 479 81 554 220 77 140 74 404 -5 594 -63 153 -205 332 -330 416 -66 45 -168 95 -240 118 -51 16 -262 51 -310 51 -5 0 -9 8 -9 18 0 17 90 200 215 437 135 258 225 436 250 494 26 63 26 65 8 79 -24 19 -275 10 -350 -13 -67 -20 -61 -11 -265 -380 -31 -55 -77 -140 -103 -190 -143 -273 -271 -482 -301 -492 -6 -2 -16 9 -23 24 -13 33 -82 315 -141 573 -74 329 -108 440 -146 471 -19 16 -192 22 -261 10z m991 -1327 c212 -11 337 -41 415 -98 161 -118 261 -322 230 -468 -30 -139 -179 -188 -577 -188 -195 0 -240 8 -261 49 -40 75 -194 623 -189 673 3 32 4 33 63 39 60 6 109 5 319 -7z"/>
 <path d="M7410 2667 c-34 -12 -35 -13 -34 -67 2 -60 55 -342 109 -570 18 -80 54 -235 80 -345 43 -183 103 -437 170 -720 40 -171 101 -425 138 -585 l35 -145 208 -3 c257 -4 1038 16 1117 28 134 20 276 119 331 231 128 263 -58 686 -371 842 -49 25 -105 50 -125 56 -21 7 -38 16 -38 20 0 5 29 27 65 50 261 169 330 417 199 723 -111 259 -342 440 -611 479 -120 17 -1228 23 -1273 6z m975 -348 c161 -12 298 -35 341 -55 47 -22 118 -99 153 -163 42 -80 61 -154 61 -235 -1 -126 -48 -188 -172 -228 -51 -16 -101 -21 -268 -25 -113 -3 -270 -2 -350 2 l-146 7 -42 161 c-63 245 -132 527 -132 545 0 13 25 14 213 8 116 -3 271 -11 342 -17z m235 -1089 c233 -10 236 -11 298 -41 72 -35 113 -72 163 -150 88 -135 115 -263 68 -323 -65 -82 -283 -120 -651 -114 -161 2 -198 6 -220 20 -32 21 -82 159 -138 381 -47 187 -49 215 -17 222 75 16 201 18 497 5z"/>
 </g>
<g id="layer102" fill="#a9a9a9" stroke="none">
 <path d="M1670 2784 c-14 -3 -65 -14 -115 -23 -159 -32 -353 -118 -510 -225 -103 -70 -270 -231 -336 -326 -122 -172 -210 -366 -235 -517 -29 -173 -18 -541 22 -718 7 -32 11 -61 8 -64 -3 -3 -70 -8 -150 -12 -164 -8 -229 -16 -254 -29 -48 -26 -83 -210 -84 -440 -1 -157 16 -342 35 -371 12 -20 212 -22 1014 -10 851 14 1049 25 1237 72 145 36 226 82 368 210 139 124 189 175 271 276 131 161 238 415 265 630 20 164 17 277 -12 448 -27 161 -117 372 -218 512 -73 100 -232 256 -348 339 -133 97 -349 191 -513 225 -89 18 -390 34 -445 23z m180 -464 c244 -35 529 -288 615 -545 16 -48 34 -245 22 -245 -3 0 -15 30 -28 68 -56 170 -158 297 -304 381 -94 54 -176 74 -305 73 -204 -1 -365 -66 -506 -207 -121 -120 -164 -232 -164 -422 0 -186 43 -324 148 -471 l44 -63 -43 7 c-130 20 -230 97 -319 244 -152 249 -168 472 -55 717 108 234 291 391 530 453 79 21 257 26 365 10z m30 -385 c0 -3 -7 -16 -15 -29 -21 -32 -30 -101 -30 -233 1 -130 8 -146 53 -114 40 28 42 27 37 -14 -6 -47 6 -50 85 -26 35 11 66 19 68 17 2 -2 -16 -22 -39 -44 l-43 -40 53 -7 c86 -12 235 12 258 41 15 21 28 -94 20 -183 -9 -88 -44 -150 -147 -254 -93 -95 -123 -110 -255 -129 -76 -11 -175 -13 -175 -5 0 4 7 20 16 38 25 47 30 187 10 267 -18 73 -58 120 -101 120 -17 0 -29 8 -37 25 -16 35 -39 39 -187 30 -152 -8 -161 -4 -161 76 0 27 3 49 8 49 4 0 19 -13 33 -29 34 -39 95 -54 194 -49 99 6 145 27 180 83 15 22 36 45 48 50 29 13 35 41 36 176 1 143 -5 155 -74 146 -63 -9 -126 -45 -205 -117 -145 -132 -206 -171 -167 -104 63 107 225 223 354 253 42 10 183 14 183 6z m236 -97 c5 -17 0 -28 -21 -46 -36 -31 -52 -17 -34 32 15 41 44 48 55 14z m-113 -160 c-18 -18 -36 -29 -39 -25 -10 10 36 57 55 57 11 0 6 -10 -16 -32z m294 -25 c8 -20 -48 -73 -78 -73 -24 0 -20 7 30 63 29 31 39 34 48 10z m402 -81 c25 -50 30 -82 38 -244 18 -405 -85 -647 -365 -855 -92 -69 -237 -138 -327 -158 -127 -27 -442 -36 -1190 -33 l-730 3 -13 60 c-15 70 -10 276 9 373 l13 62 400 1 c555 0 1365 16 1460 28 178 23 356 112 444 224 90 113 158 268 193 437 28 139 29 140 39 140 5 0 18 -17 29 -38z m-1964 -58 c28 -179 109 -383 204 -509 72 -95 77 -123 17 -85 -59 36 -155 150 -192 225 -40 83 -50 152 -46 309 3 113 7 128 17 60z m735 -241 c0 -4 -10 -17 -22 -30 -17 -18 -32 -23 -67 -22 l-46 1 60 28 c64 31 75 34 75 23z m240 -35 c0 -16 -31 -48 -47 -48 -10 0 -7 9 9 30 23 31 38 38 38 18z m-91 -135 c-11 -29 -48 -93 -54 -93 -2 0 -11 -3 -20 -7 -26 -9 -10 33 32 85 39 48 57 55 42 15z"/>
 <path d="M2021 1385 c-57 -18 -89 -49 -105 -105 -11 -38 -18 -46 -42 -50 -27 -5 -29 -9 -37 -70 -8 -68 -1 -177 12 -199 5 -7 27 -15 49 -18 47 -6 86 13 97 47 5 16 15 20 47 20 61 0 100 24 150 93 61 85 101 171 102 221 1 37 -2 43 -34 58 -43 22 -174 23 -239 3z"/>
 <path d="M15350 2724 c-246 -27 -426 -169 -480 -381 -24 -91 -25 -146 -5 -231 24 -103 70 -179 155 -259 185 -173 559 -178 775 -9 80 62 77 54 34 93 l-38 35 -70 -46 c-185 -123 -373 -143 -541 -56 -61 32 -137 112 -177 185 -36 66 -38 75 -38 160 0 81 3 97 33 160 93 197 314 295 541 239 84 -21 113 -36 168 -87 42 -39 84 -111 98 -169 l7 -28 -161 0 -161 0 0 -45 0 -45 220 0 c171 0 218 3 215 13 -2 6 -6 37 -9 67 -16 158 -106 288 -244 351 -92 41 -225 63 -322 53z"/>
 <path d="M10140 2265 l0 -435 -110 0 -110 0 0 -45 0 -45 275 0 275 0 0 45 0 45 -110 0 -110 0 0 435 0 435 -55 0 -55 0 0 -435z"/>
 <path d="M10620 2218 l0 -481 211 6 c199 5 213 7 263 31 62 30 114 79 133 125 41 97 1 247 -79 297 -55 35 -113 54 -163 54 -72 0 -78 6 -47 49 28 38 232 292 241 301 12 11 71 89 71 94 0 3 -27 6 -59 6 l-59 0 -78 -97 c-44 -53 -107 -131 -140 -172 -91 -113 -158 -181 -177 -181 -15 0 -17 20 -17 225 l0 225 -50 0 -50 0 0 -482z m433 -83 c43 -20 87 -86 87 -131 0 -39 -38 -113 -70 -135 -27 -20 -171 -39 -285 -39 l-65 0 0 166 0 167 148 -5 c113 -4 156 -9 185 -23z"/>
 <path d="M11380 2694 c0 -8 398 -809 439 -883 17 -30 34 -58 39 -63 10 -10 453 868 467 925 7 27 7 27 -43 27 l-51 0 -78 -160 -78 -159 -215 2 -215 2 -79 158 -78 157 -54 0 c-30 0 -54 -3 -54 -6z m640 -411 c0 -12 -154 -323 -160 -323 -4 0 -142 278 -157 316 -4 11 25 14 156 14 89 0 161 -3 161 -7z"/>
 <path d="M12500 2218 l0 -481 208 7 c312 10 389 32 503 145 50 51 71 81 92 134 82 206 40 430 -106 564 -101 93 -187 113 -488 113 l-209 0 0 -482z m495 368 c191 -58 289 -270 225 -480 -38 -122 -135 -213 -259 -242 -49 -11 -277 -33 -348 -34 -10 0 -13 85 -13 391 l0 392 173 -6 c111 -4 190 -11 222 -21z"/>
 <path d="M13520 2220 l0 -480 50 0 50 0 0 480 0 480 -50 0 -50 0 0 -480z"/>
 <path d="M13850 2278 c1 -458 5 -542 25 -530 12 7 147 149 264 278 30 32 84 91 120 129 36 39 100 109 141 155 41 47 92 103 112 125 l37 40 1 -367 0 -368 45 0 45 0 0 481 0 481 -29 -24 c-16 -14 -57 -56 -92 -94 -35 -38 -69 -73 -75 -79 -6 -5 -39 -41 -74 -80 -78 -86 -139 -153 -256 -281 -50 -54 -103 -112 -117 -129 l-26 -30 -1 358 0 357 -60 0 -61 0 1 -422z"/>
 <path d="M3575 2683 c-16 -2 -48 -9 -69 -14 l-39 -11 6 -72 c4 -39 16 -121 28 -181 11 -61 23 -121 26 -135 8 -48 114 -515 133 -590 10 -41 22 -91 25 -110 6 -34 25 -114 114 -480 22 -91 43 -181 46 -200 3 -19 21 -96 40 -170 32 -126 38 -156 51 -220 3 -14 17 -74 32 -135 26 -101 30 -110 53 -112 125 -9 281 -10 313 -1 l39 9 -7 62 c-8 86 -41 263 -81 447 -19 85 -50 229 -69 320 -52 255 -52 260 -8 223 11 -10 31 -27 44 -37 31 -26 148 -127 168 -146 9 -8 70 -64 136 -125 65 -60 150 -139 188 -175 38 -36 79 -74 90 -85 123 -115 350 -330 435 -413 l106 -103 135 6 c203 10 250 18 250 46 0 8 -102 120 -171 188 -123 122 -357 345 -573 546 -347 323 -467 446 -460 470 20 61 120 244 261 473 34 57 63 105 63 108 0 2 12 23 27 47 42 67 213 348 213 351 0 2 22 43 50 92 27 49 50 92 50 95 0 4 -15 13 -32 20 -24 10 -75 14 -178 12 -80 0 -152 -3 -160 -5 -8 -3 -32 -8 -53 -13 -49 -10 -51 -12 -232 -304 -57 -91 -150 -242 -160 -260 -5 -9 -25 -41 -44 -71 -181 -288 -236 -361 -261 -345 -21 13 -121 384 -206 765 -14 66 -58 177 -76 198 -36 37 -128 51 -243 35z"/>
 <path d="M5471 2680 c-56 -12 -81 -35 -81 -74 0 -61 75 -427 170 -826 16 -69 73 -309 126 -535 116 -499 185 -790 215 -911 l22 -91 130 -7 c118 -7 230 -5 717 9 243 8 316 14 407 35 162 38 263 103 313 199 75 149 64 431 -26 617 -147 305 -397 495 -704 533 -170 21 -170 21 -170 42 0 16 169 357 255 514 63 114 187 360 212 419 24 57 24 61 7 73 -32 24 -283 11 -372 -18 -42 -14 -60 -41 -210 -314 -30 -55 -67 -122 -82 -150 -15 -27 -48 -89 -73 -137 -66 -125 -175 -314 -218 -378 -44 -67 -66 -87 -79 -74 -13 13 -160 608 -206 834 -14 66 -68 211 -86 227 -16 14 -40 18 -121 20 -56 1 -122 -2 -146 -7z m1076 -1331 c160 -15 254 -39 318 -83 170 -117 276 -325 244 -475 -15 -70 -68 -131 -127 -147 -122 -31 -164 -36 -374 -41 -250 -6 -290 -2 -323 31 -39 39 -198 573 -199 671 l-1 50 45 7 c54 7 263 1 417 -13z"/>
 <path d="M7422 2670 c-18 -4 -35 -10 -38 -13 -11 -10 -12 -74 -4 -118 5 -24 19 -93 31 -154 12 -60 25 -128 29 -150 5 -22 11 -51 14 -65 3 -14 19 -86 36 -160 17 -74 49 -209 71 -300 22 -91 42 -176 44 -190 4 -25 37 -164 121 -510 25 -102 47 -196 49 -209 5 -29 124 -529 132 -555 5 -19 18 -19 487 -12 561 8 723 13 826 26 146 19 283 112 345 235 29 58 30 65 30 195 -1 128 -2 139 -33 215 -50 125 -100 203 -192 296 -86 86 -165 136 -292 184 -27 10 -48 21 -48 26 0 4 17 18 38 30 56 34 154 118 193 166 33 41 71 122 85 180 13 55 13 171 -1 236 -57 271 -266 515 -515 600 -72 25 -101 30 -220 43 -87 10 -1151 14 -1188 4z m978 -351 c161 -13 278 -32 323 -54 79 -37 167 -156 202 -272 8 -26 15 -83 15 -125 0 -132 -41 -186 -172 -231 -60 -21 -81 -22 -410 -22 -190 0 -350 3 -353 7 -4 4 -11 24 -15 45 -9 43 -159 641 -166 662 -4 12 29 13 223 7 125 -3 284 -11 353 -17z m389 -1095 c119 -10 211 -65 284 -172 68 -98 96 -172 97 -253 0 -58 -3 -68 -27 -91 -84 -79 -247 -108 -606 -108 -245 0 -267 5 -296 72 -48 114 -141 452 -141 515 0 26 5 34 23 37 12 3 31 7 42 10 22 6 535 -2 624 -10z"/>
 </g>
<g id="layer103" fill="#ffffff" stroke="none">
 <path d="M1605 2770 c-370 -74 -675 -269 -910 -582 -19 -26 -35 -49 -35 -52 0 -3 -19 -36 -41 -73 -56 -91 -117 -236 -134 -318 -40 -194 -33 -586 13 -770 18 -72 23 -69 -140 -77 -246 -11 -270 -18 -293 -88 -9 -26 -18 -59 -20 -72 -3 -12 -7 -34 -10 -47 -19 -96 -25 -310 -13 -436 19 -186 23 -202 52 -209 26 -6 949 0 1381 9 313 7 633 24 710 39 11 2 40 7 65 11 71 12 200 55 244 82 75 46 121 78 151 105 16 14 41 36 55 48 38 33 171 164 205 201 140 157 257 386 301 584 46 212 41 457 -13 645 -44 156 -92 262 -178 390 -96 144 -293 333 -440 423 -91 55 -307 149 -375 162 -8 2 -34 8 -56 14 -51 14 -255 31 -354 30 -41 -1 -115 -9 -165 -19z m320 -460 c158 -67 232 -115 330 -215 84 -85 97 -101 146 -180 55 -89 81 -173 87 -287 2 -54 2 -98 0 -98 -3 0 -13 21 -22 48 -20 54 -68 165 -76 172 -3 3 -23 30 -45 60 -22 30 -50 64 -63 74 -13 11 -32 26 -41 35 -9 9 -34 28 -56 41 -114 70 -187 90 -329 90 -166 -1 -234 -20 -401 -112 -60 -33 -178 -156 -209 -216 -58 -115 -85 -324 -56 -447 5 -22 12 -55 15 -73 3 -18 9 -41 14 -50 4 -9 18 -39 31 -65 13 -27 45 -81 71 -120 26 -40 46 -74 44 -75 -8 -8 -124 22 -166 44 -42 21 -169 147 -169 167 0 5 -11 23 -24 40 -37 48 -95 189 -113 270 -18 86 -12 231 12 322 22 79 79 197 128 265 42 59 165 182 202 203 197 111 266 128 490 123 107 -2 181 -8 200 -16z m-45 -385 c0 -8 -4 -15 -9 -15 -31 0 -51 -318 -22 -354 12 -14 15 -14 38 4 35 28 41 25 41 -16 0 -19 2 -37 4 -40 3 -2 35 5 72 17 38 11 71 18 74 14 3 -3 -14 -23 -38 -44 l-45 -38 53 -8 c85 -11 262 21 262 48 0 8 3 8 9 -2 5 -7 9 -64 9 -126 1 -132 -12 -169 -97 -269 -117 -138 -187 -171 -384 -183 -96 -6 -100 -5 -92 13 41 96 44 254 6 339 -22 49 -61 80 -92 72 -15 -4 -23 1 -32 21 -6 15 -16 31 -22 35 -5 4 -73 5 -151 2 -166 -8 -174 -4 -174 76 0 27 4 49 8 49 5 0 21 -13 35 -30 35 -39 93 -53 192 -47 99 6 152 30 179 82 11 20 32 43 47 50 32 17 39 50 39 192 0 79 -3 105 -16 117 -49 50 -186 -25 -384 -212 -65 -61 -79 -45 -28 33 35 53 152 151 219 183 68 33 147 51 227 51 58 1 72 -2 72 -14z m240 -101 c0 -27 -54 -62 -65 -43 -10 14 2 55 21 74 20 20 44 4 44 -31z m-90 -123 c0 -13 -60 -55 -67 -47 -9 8 37 56 54 56 7 0 13 -4 13 -9z m267 -52 c4 -22 -20 -47 -61 -64 -48 -20 -48 -3 1 47 37 38 56 44 60 17z m398 -63 c32 -49 43 -143 40 -346 -3 -209 -5 -230 -36 -330 -41 -134 -107 -240 -214 -345 -107 -105 -318 -229 -430 -250 -22 -5 -47 -10 -55 -11 -88 -18 -282 -23 -1100 -25 l-775 -3 -13 60 c-15 69 -10 285 8 380 l12 61 781 7 c704 6 1014 15 1117 32 95 15 226 66 290 112 84 61 128 112 203 234 30 48 85 206 103 293 2 11 6 34 10 50 22 109 32 123 59 81z m-1915 -255 c12 -36 25 -75 30 -86 54 -124 76 -165 142 -255 64 -86 65 -110 3 -71 -59 38 -132 118 -182 201 -37 62 -53 138 -59 287 -8 180 2 212 27 84 10 -51 28 -123 39 -160z m694 -63 c-14 -35 -94 -67 -122 -49 -13 8 -11 10 78 49 34 15 50 15 44 0z m236 -33 c0 -15 -38 -55 -52 -55 -13 0 -10 9 14 40 24 33 38 38 38 15z m-80 -110 c0 -13 -37 -83 -54 -102 -22 -26 -46 -30 -46 -9 0 17 77 116 90 116 6 0 10 -2 10 -5z"/>
 <path d="M2020 1385 c-56 -18 -83 -46 -103 -105 -9 -28 -22 -46 -33 -49 -35 -6 -42 -21 -48 -104 -6 -81 3 -150 22 -169 6 -6 29 -11 53 -12 42 -2 59 7 84 47 6 9 31 18 65 21 61 7 84 24 133 96 17 25 33 47 37 50 10 8 61 129 66 155 3 15 -4 34 -20 52 -23 27 -29 28 -118 30 -59 2 -109 -3 -138 -12z"/>
 <path d="M15324 2718 c-164 -17 -302 -99 -391 -233 -177 -267 -38 -644 272 -734 74 -22 99 -25 200 -25 138 0 189 11 293 62 68 34 82 43 132 86 l34 28 -37 33 -37 33 -53 -35 c-174 -118 -346 -149 -496 -89 -106 42 -161 87 -221 179 -71 108 -79 239 -23 359 75 160 234 250 432 244 53 -2 109 -6 126 -10 48 -12 125 -58 164 -99 42 -45 91 -133 91 -164 0 -23 -1 -23 -155 -23 l-155 0 0 -45 0 -45 211 0 211 0 -5 63 c-23 286 -257 449 -593 415z"/>
 <path d="M10140 2265 l0 -435 -110 0 -110 0 0 -45 0 -45 270 0 270 0 0 45 0 45 -105 0 -105 0 0 435 0 435 -55 0 -55 0 0 -435z"/>
 <path d="M10620 2219 l0 -480 203 5 c246 7 273 14 350 85 100 91 88 292 -21 363 -50 33 -126 57 -189 59 -29 2 -53 4 -53 6 0 5 45 66 80 109 34 42 49 62 90 114 19 24 46 57 60 73 13 15 43 54 67 85 l43 57 -57 3 c-60 3 -56 5 -113 -65 -8 -10 -35 -43 -60 -73 -25 -30 -48 -59 -52 -65 -20 -29 -128 -156 -167 -197 -28 -31 -53 -48 -68 -48 l-23 0 0 225 0 225 -45 0 -45 0 0 -481z m409 -73 c41 -13 98 -66 107 -101 11 -46 -6 -114 -37 -150 -40 -46 -77 -55 -246 -62 l-143 -6 0 167 0 167 142 -2 c78 -1 158 -7 177 -13z"/>
 <path d="M11390 2674 c10 -25 413 -833 441 -884 31 -54 31 -55 49 -19 324 642 450 900 450 918 0 6 -21 11 -48 11 l-48 0 -79 -160 -80 -159 -215 -1 -216 0 -78 160 -79 160 -53 0 -54 0 10 -26z m609 -446 c-62 -131 -134 -268 -139 -268 -9 0 -42 60 -33 60 4 0 4 4 -2 8 -12 8 -125 237 -125 252 0 6 63 10 164 10 l164 0 -29 -62z"/>
 <path d="M12500 2219 l0 -480 188 6 c280 9 296 11 415 65 94 42 203 179 222 276 16 89 25 154 21 166 -3 7 -7 38 -11 68 -9 86 -68 202 -133 261 -110 100 -185 118 -494 119 l-208 0 0 -481z m456 375 c79 -16 135 -45 184 -94 36 -36 53 -65 88 -152 7 -16 10 -72 9 -130 -2 -90 -6 -111 -30 -160 -36 -73 -129 -160 -194 -182 -78 -25 -126 -32 -292 -41 l-121 -7 0 392 0 391 148 -2 c81 -1 175 -8 208 -15z"/>
 <path d="M13530 2220 l0 -480 45 0 45 0 0 480 0 480 -45 0 -45 0 0 -480z"/>
 <path d="M13858 2308 c-3 -412 -1 -548 8 -557 6 -6 162 153 289 294 44 49 98 108 120 131 22 23 67 72 100 109 33 37 65 73 71 79 5 6 31 35 57 64 l47 53 0 -371 0 -370 45 0 45 0 0 475 c0 261 -4 475 -8 475 -12 0 -65 -52 -162 -159 -47 -51 -101 -110 -120 -131 -19 -20 -69 -75 -110 -121 -41 -46 -98 -108 -127 -139 -28 -30 -71 -77 -96 -104 l-44 -49 -5 154 c-4 85 -4 229 -1 320 3 91 3 182 -1 202 -7 37 -7 37 -56 37 l-50 0 -2 -392z"/>
 <path d="M3609 2686 c-2 -2 -28 -7 -58 -10 -30 -4 -61 -12 -69 -18 -18 -16 -13 -84 23 -268 8 -41 17 -91 20 -110 3 -19 9 -48 14 -65 5 -16 14 -57 21 -90 7 -33 19 -85 26 -115 7 -30 15 -66 17 -80 3 -14 12 -52 20 -85 9 -33 19 -76 22 -95 3 -19 15 -69 25 -110 10 -41 22 -88 25 -105 3 -16 8 -41 11 -55 3 -14 16 -68 29 -120 13 -52 26 -106 29 -120 3 -14 8 -36 11 -50 3 -14 8 -36 11 -50 3 -14 20 -86 39 -160 19 -74 36 -146 39 -160 3 -14 7 -36 10 -50 3 -14 25 -108 50 -210 25 -102 51 -212 58 -245 16 -69 -5 -62 203 -65 72 -1 139 1 150 4 11 2 23 5 28 5 13 2 -19 233 -58 411 -3 14 -10 45 -15 70 -5 25 -17 77 -25 115 -16 72 -33 151 -41 195 -3 14 -7 33 -10 42 -7 24 -44 220 -44 234 0 19 55 -20 156 -111 6 -5 44 -39 85 -75 40 -36 100 -90 134 -122 33 -31 74 -68 90 -83 57 -52 269 -250 325 -305 152 -148 395 -376 412 -388 28 -20 331 -3 369 21 17 10 17 13 1 39 -17 29 -345 355 -536 533 -60 55 -130 120 -156 145 -26 25 -121 114 -211 199 -192 181 -289 279 -289 291 0 13 85 188 120 245 16 28 33 56 36 63 4 7 56 95 117 195 61 100 123 205 139 232 16 28 34 59 41 69 7 11 31 51 55 88 23 38 42 73 42 78 0 6 4 10 8 10 4 0 13 12 20 28 6 15 29 61 51 102 44 82 44 85 -22 98 -40 9 -248 7 -305 -1 -93 -14 -101 -22 -242 -247 -29 -47 -65 -103 -79 -125 -14 -22 -29 -47 -33 -56 -3 -9 -23 -42 -45 -74 -21 -32 -51 -81 -67 -109 -15 -28 -32 -52 -37 -54 -5 -2 -9 -8 -9 -13 0 -5 -30 -55 -67 -110 -38 -56 -72 -109 -78 -118 -19 -32 -77 -101 -85 -101 -15 0 -50 98 -91 256 -22 88 -43 170 -45 183 -11 55 -94 381 -113 441 -22 69 -55 111 -104 129 -27 10 -139 16 -148 7z"/>
 <path d="M5475 2679 c-74 -15 -88 -32 -81 -99 3 -30 8 -68 12 -85 3 -16 7 -39 9 -50 1 -11 7 -40 13 -65 6 -25 13 -56 16 -70 21 -109 26 -132 30 -138 2 -4 7 -24 10 -45 6 -40 27 -134 51 -227 8 -30 17 -71 20 -90 3 -19 15 -69 25 -110 10 -41 22 -91 25 -110 3 -19 21 -96 39 -170 19 -74 52 -216 75 -315 23 -99 60 -254 82 -345 22 -91 42 -175 44 -187 3 -13 7 -33 10 -45 2 -13 19 -82 37 -154 l32 -131 158 -7 c87 -4 198 -4 246 -1 48 2 202 7 342 11 392 9 450 14 579 55 165 52 244 135 276 289 23 108 20 203 -9 355 -10 53 -84 227 -98 233 -5 2 -8 8 -8 14 0 11 -54 92 -79 118 -9 9 -28 30 -42 46 -32 35 -108 104 -115 104 -3 0 -20 11 -37 24 -47 35 -134 80 -202 104 -63 22 -216 52 -269 52 -53 0 -76 10 -76 34 0 21 52 130 147 306 22 41 78 149 124 239 46 90 112 218 146 285 34 66 63 133 63 148 0 23 -5 28 -37 34 -35 7 -213 -1 -263 -11 -14 -3 -38 -8 -54 -10 -16 -3 -36 -10 -45 -14 -15 -8 -67 -91 -135 -213 -14 -27 -37 -67 -50 -90 -40 -74 -92 -170 -146 -273 -29 -55 -61 -112 -72 -127 -10 -14 -18 -29 -18 -33 0 -16 -155 -267 -183 -296 l-31 -33 -14 34 c-13 32 -95 353 -106 415 -3 17 -12 57 -20 90 -9 33 -31 130 -51 215 -48 209 -80 300 -113 325 -21 15 -45 20 -117 22 -49 1 -112 -3 -140 -8z m945 -1319 c339 -23 406 -42 521 -152 114 -109 173 -231 173 -363 1 -189 -116 -241 -547 -244 -283 -2 -283 -2 -320 102 -54 151 -83 250 -140 482 -39 159 -38 173 11 178 73 7 159 7 302 -3z"/>
 <path d="M7418 2667 c-34 -10 -38 -14 -39 -46 -1 -20 -1 -38 -1 -41 1 -18 14 -96 17 -100 1 -3 6 -27 9 -54 4 -27 13 -76 21 -110 8 -34 17 -76 20 -95 3 -19 7 -37 9 -40 2 -3 7 -22 10 -41 6 -41 50 -231 71 -310 8 -30 17 -71 20 -90 3 -19 17 -78 30 -130 13 -52 26 -107 29 -122 3 -16 9 -40 12 -55 3 -16 23 -98 44 -183 21 -85 41 -166 44 -180 3 -14 8 -37 11 -51 3 -15 27 -118 54 -230 27 -112 65 -276 86 -364 20 -88 39 -169 42 -179 5 -19 19 -19 477 -12 464 7 558 10 746 21 116 7 136 10 203 35 101 38 176 106 227 205 35 66 38 78 39 166 2 118 -18 209 -70 313 -105 210 -219 313 -456 411 -24 10 -43 21 -43 26 0 4 22 21 49 38 27 16 82 60 121 97 80 76 121 145 143 243 14 60 15 179 2 231 -3 14 -8 35 -11 48 -8 38 -56 156 -71 173 -7 8 -13 19 -13 23 0 4 -18 33 -39 64 -86 126 -199 216 -356 284 -66 29 -123 41 -265 54 -119 11 -1135 12 -1172 1z m937 -342 c17 -2 62 -6 100 -9 39 -3 84 -8 100 -11 17 -2 44 -7 62 -9 18 -2 55 -12 83 -21 92 -31 197 -165 230 -294 17 -66 15 -179 -5 -228 -29 -71 -127 -123 -265 -139 -113 -12 -643 -4 -658 11 -2 2 -7 18 -12 37 -5 18 -23 89 -40 158 -17 69 -33 133 -36 143 -2 9 -6 25 -9 35 -3 9 -20 80 -39 157 -18 78 -37 152 -41 165 l-7 23 253 -7 c140 -4 268 -9 284 -11z m437 -1099 c69 -8 103 -18 153 -46 76 -44 126 -103 189 -227 32 -62 36 -79 36 -146 0 -73 -1 -76 -35 -106 -39 -34 -90 -58 -139 -66 -17 -3 -38 -8 -46 -10 -53 -15 -104 -18 -356 -22 -308 -4 -323 -2 -348 51 -13 28 -73 210 -91 276 -35 132 -47 183 -52 230 -5 52 -4 57 18 68 17 8 109 10 329 7 168 -3 322 -7 342 -9z"/>
 </g>

</svg>