<!DOCTYPE svg PUBLIC "-//W3C//DTD SVG 20010904//EN" "http://www.w3.org/TR/2001/REC-SVG-20010904/DTD/svg10.dtd">
<svg version="1.0" xmlns="http://www.w3.org/2000/svg" width="1600px" height="1148px" viewBox="0 0 16000 11480" preserveAspectRatio="xMidYMid meet">
<g id="layer101" fill="#ffffff" stroke="none">
 <path d="M0 5740 l0 -5740 5740 0 5740 0 0 915 0 915 53 0 c78 1 312 26 393 44 118 25 257 78 392 148 399 207 701 587 820 1030 26 101 27 108 27 403 0 220 -4 315 -14 355 -71 287 -232 581 -432 791 -268 280 -659 456 -1074 484 -49 3 -107 8 -127 11 l-38 6 0 3189 0 3189 -5740 0 -5740 0 0 -5740z m5802 5452 c60 -26 114 -80 140 -139 20 -44 21 -69 26 -413 l5 -367 -164 -6 c-223 -9 -256 0 -346 96 -69 73 -87 134 -80 266 8 164 54 244 166 294 76 33 143 28 242 -20 46 -23 87 -38 92 -34 11 10 -11 106 -38 167 -17 39 -31 55 -61 69 -51 25 -159 31 -246 15 -37 -7 -71 -10 -75 -7 -10 11 -5 67 7 82 16 19 57 24 181 20 79 -2 117 -7 151 -23z m-2932 -265 c82 -43 90 -44 90 -17 0 12 10 25 26 32 60 27 67 -40 62 -547 -3 -375 -7 -410 -46 -403 -32 6 -42 49 -42 176 0 67 -2 122 -4 122 -2 0 -33 -7 -68 -16 -81 -21 -198 -14 -255 14 -53 28 -99 82 -137 162 -40 85 -49 225 -20 316 60 191 215 254 394 161z m857 15 c174 -89 225 -431 91 -604 -36 -46 -118 -88 -174 -88 -38 0 -114 26 -193 67 -14 6 -28 10 -33 7 -4 -3 -8 -68 -8 -144 0 -176 -5 -190 -65 -190 l-45 0 0 479 0 479 75 -5 c46 -4 85 -2 98 5 42 20 52 22 132 18 57 -2 93 -10 122 -24z m843 3 c61 -22 90 -51 90 -91 0 -33 0 -33 -32 -22 -18 6 -37 14 -43 19 -5 4 -45 15 -89 23 -111 23 -201 6 -260 -50 -33 -32 -54 -78 -71 -156 l-13 -58 260 0 260 0 -6 -67 c-11 -107 -33 -161 -86 -214 -142 -142 -384 -82 -486 119 -26 52 -29 66 -29 162 0 88 4 113 23 154 66 144 185 211 357 202 44 -3 100 -12 125 -21z m2501 -8 c24 -14 69 -48 100 -76 l56 -50 49 50 c59 60 120 91 169 87 l35 -3 -97 -99 -96 -99 11 -46 c6 -25 20 -82 31 -126 22 -84 26 -141 12 -163 -5 -8 -23 -12 -47 -10 -30 2 -39 7 -41 23 -1 11 -5 59 -8 107 -4 47 -12 94 -20 104 -12 17 -14 17 -41 -1 -35 -22 -151 -138 -182 -182 l-22 -31 33 -11 c38 -13 97 -70 121 -118 25 -49 21 -142 -6 -183 -34 -50 -108 -83 -198 -88 -68 -3 -80 -1 -130 25 -75 40 -112 94 -118 173 -5 66 6 90 82 175 l35 39 -60 62 c-94 99 -122 182 -94 279 21 75 88 148 153 169 76 24 84 25 158 22 56 -2 82 -9 115 -29z m2084 -12 c83 -41 95 -43 95 -11 0 25 21 36 73 36 l27 0 0 -340 0 -340 -49 0 -49 0 -4 253 c-3 287 -3 286 -82 326 -94 46 -217 36 -260 -22 -20 -27 -21 -43 -24 -293 l-4 -264 -49 0 -49 0 0 222 c0 282 18 391 74 437 63 52 192 51 301 -4z m1619 1 c79 -43 96 -45 96 -12 0 32 35 45 59 22 14 -15 16 -63 16 -466 0 -416 -1 -451 -18 -467 -13 -14 -21 -15 -35 -7 -15 10 -17 31 -20 153 -1 77 -7 141 -12 141 -5 0 -35 -7 -67 -15 -73 -19 -156 -19 -219 0 -189 58 -278 369 -161 568 56 95 121 130 229 124 53 -3 79 -11 132 -41z m-9629 16 c36 -7 40 -10 40 -37 0 -30 -1 -30 -65 -36 -36 -4 -140 -7 -232 -8 l-168 -1 0 -415 0 -415 -50 0 -50 0 0 460 0 460 243 -1 c133 0 260 -3 282 -7z m266 -9 c11 -13 14 -76 14 -312 0 -163 -3 -308 -8 -323 -5 -21 -14 -28 -31 -28 -13 0 -27 7 -30 16 -3 9 -6 156 -6 328 0 314 2 336 36 336 6 0 18 -7 25 -17z m381 -250 l3 -268 41 -22 c97 -54 233 -52 285 3 24 25 24 27 27 290 l3 264 56 0 56 0 -8 -222 c-8 -255 -15 -313 -47 -377 -27 -54 -90 -91 -167 -99 -41 -4 -61 2 -142 41 -52 25 -97 43 -101 40 -5 -2 -8 -12 -8 -22 0 -28 -21 -41 -67 -41 l-43 0 0 340 0 340 55 0 55 0 2 -267z m3156 255 c9 -9 12 -77 12 -244 l0 -232 48 -30 c63 -38 109 -53 196 -61 l71 -6 3 -43 c4 -53 -10 -60 -92 -43 -56 11 -82 23 -173 77 -38 22 -45 17 -52 -39 -5 -37 -10 -42 -33 -45 -24 -3 -28 1 -38 38 -17 63 -9 602 9 623 16 20 32 22 49 5z m3657 4 c33 -6 40 -11 43 -33 2 -18 -3 -29 -15 -34 -10 -4 -116 -10 -235 -13 l-218 -5 0 -413 0 -414 -50 0 -50 0 0 460 0 460 243 -1 c133 0 260 -3 282 -7z m1085 -256 l0 -263 65 -33 c83 -42 189 -52 245 -23 46 24 48 39 56 341 l7 242 51 0 51 0 -2 -132 c-2 -73 -6 -205 -9 -293 l-6 -160 -54 -45 c-101 -83 -155 -89 -286 -27 -103 48 -111 49 -118 12 -5 -28 -9 -30 -53 -33 l-47 -3 0 340 0 341 50 0 50 0 0 -264z m-8252 -558 c20 -20 15 -76 -7 -88 -23 -12 -71 -13 -88 -2 -18 11 -26 58 -13 81 8 16 20 21 53 21 24 0 48 -5 55 -12z m8002 -1563 l0 -365 -1770 0 -1770 0 0 -2875 0 -2875 -445 0 -445 0 0 3240 0 3240 2215 0 2215 0 0 -365z m-4480 -2185 l0 -370 -595 0 -595 0 0 -2885 0 -2885 -480 0 -480 0 0 3255 0 3255 1075 0 1075 0 0 -370z m2350 0 l0 -370 -685 0 -685 0 0 370 0 370 685 0 685 0 0 -370z"/>
 <path d="M5560 10821 c-58 -31 -65 -55 -65 -217 l0 -142 31 -39 c63 -79 148 -99 285 -66 l69 16 0 204 0 204 -57 27 c-77 36 -209 42 -263 13z"/>
 <path d="M2686 10870 c-37 -12 -73 -45 -99 -95 -19 -34 -22 -56 -21 -150 0 -118 11 -156 59 -213 40 -48 99 -65 201 -60 80 4 89 7 111 32 22 26 23 33 23 206 0 104 -4 189 -10 202 -30 65 -170 106 -264 78z"/>
 <path d="M3450 10871 c-35 -10 -41 -52 -38 -270 l3 -186 59 -30 c49 -24 72 -29 130 -29 80 -1 118 14 150 57 18 25 21 45 24 168 2 77 1 156 -2 175 -9 46 -66 99 -121 113 -48 12 -165 13 -205 2z"/>
 <path d="M4166 10532 c-7 -12 10 -79 28 -107 43 -65 146 -105 238 -91 60 9 95 37 124 100 28 59 30 91 8 100 -24 9 -392 7 -398 -2z"/>
 <path d="M6844 10866 c-57 -25 -104 -111 -104 -192 0 -86 69 -204 120 -204 16 0 61 39 154 133 72 73 138 145 146 161 14 28 14 29 -24 62 -23 20 -57 37 -87 43 -68 15 -167 13 -205 -3z"/>
 <path d="M6850 10350 c-69 -69 -88 -146 -50 -207 50 -83 180 -83 235 1 21 32 22 124 1 165 -22 42 -77 81 -114 81 -24 0 -42 -10 -72 -40z"/>
 <path d="M10585 10869 c-50 -19 -81 -57 -104 -125 -47 -144 -6 -312 91 -369 45 -26 188 -34 240 -12 33 14 37 20 48 73 18 85 9 333 -13 367 -36 56 -187 93 -262 66z"/>
 <path d="M13819 8080 c-67 -8 -222 -48 -294 -75 -22 -9 -49 -19 -60 -22 -40 -12 -241 -120 -305 -163 -297 -199 -526 -496 -634 -820 -59 -176 -80 -316 -79 -530 0 -298 41 -479 168 -735 203 -407 546 -694 990 -826 404 -120 817 -80 1203 117 410 209 718 593 831 1039 40 157 52 477 25 662 -50 349 -228 687 -492 934 -251 235 -583 388 -907 419 -124 11 -347 11 -446 0z"/>
 </g>

</svg>