<!DOCTYPE svg PUBLIC "-//W3C//DTD SVG 20010904//EN" "http://www.w3.org/TR/2001/REC-SVG-20010904/DTD/svg10.dtd">
<svg version="1.0" xmlns="http://www.w3.org/2000/svg" width="1600px" height="320px" viewBox="0 0 16000 3200" preserveAspectRatio="xMidYMid meet">
<g id="layer101" fill="#bbbbbb" stroke="none">
 <path d="M1513 3184 c-3 -11 -31 -75 -61 -144 -30 -69 -82 -190 -116 -270 -79 -187 -124 -266 -192 -339 -72 -78 -123 -103 -214 -103 -38 0 -70 -1 -70 -2 0 -1 39 -36 87 -77 537 -456 896 -954 1062 -1470 29 -93 61 -209 61 -225 0 -5 -24 44 -54 108 -74 161 -125 252 -222 398 -76 115 -251 337 -383 487 l-54 61 -99 -76 c-55 -43 -128 -98 -161 -124 -34 -26 -63 -51 -65 -56 -4 -13 149 -192 226 -263 70 -65 107 -85 245 -134 64 -23 192 -120 254 -192 119 -141 214 -277 344 -492 119 -199 182 -258 266 -248 85 9 166 99 267 297 83 161 151 335 274 700 55 162 118 345 140 405 21 61 74 206 116 322 95 265 225 595 304 776 37 84 56 137 48 137 -7 0 -90 -70 -186 -156 -220 -198 -255 -225 -347 -271 -69 -34 -84 -38 -152 -37 -83 1 -130 17 -223 77 -103 65 -182 148 -445 462 -220 263 -438 429 -605 460 -32 6 -39 4 -45 -11z"/>
 <path d="M6460 2358 c-71 -28 -149 -105 -173 -173 -21 -60 -23 -172 -3 -219 19 -46 82 -113 125 -135 20 -10 117 -51 216 -90 99 -40 200 -84 224 -98 l44 -25 -6 -90 c-7 -115 -32 -169 -95 -209 -38 -24 -57 -29 -106 -29 -101 0 -161 53 -206 182 -21 58 -31 75 -52 82 -57 20 -138 -32 -138 -89 0 -46 34 -83 135 -150 133 -88 283 -145 378 -145 118 0 224 64 268 162 24 52 24 59 29 443 4 352 7 394 23 418 20 32 57 35 114 12 47 -20 47 -20 60 15 l11 31 -129 64 c-71 36 -137 65 -147 65 -35 0 -87 -45 -118 -103 l-30 -57 -80 51 c-181 115 -234 129 -344 87z m270 -143 c23 -8 69 -31 101 -51 l59 -35 0 -205 c0 -157 -3 -204 -12 -204 -7 0 -83 35 -168 78 -167 83 -188 102 -211 186 -23 86 28 198 106 232 40 17 73 17 125 -1z"/>
 <path d="M7660 2364 c-53 -23 -108 -82 -132 -144 -22 -53 -22 -69 -26 -482 l-4 -428 -93 0 c-114 0 -126 -13 -68 -72 35 -36 40 -38 100 -38 l63 0 0 -82 0 -83 87 -87 c59 -59 95 -88 110 -88 l23 0 0 170 0 170 155 0 155 0 0 38 c0 66 -16 72 -173 72 l-137 0 0 383 c0 248 4 396 11 422 15 53 74 111 123 120 34 7 97 -8 168 -39 12 -6 21 0 32 23 l16 31 -130 65 c-116 58 -136 65 -187 65 -32 -1 -74 -8 -93 -16z"/>
 <path d="M11755 2361 c-203 -58 -354 -215 -407 -422 -38 -153 -10 -339 73 -480 131 -224 391 -334 647 -274 176 42 331 183 393 360 40 115 42 308 3 430 -60 186 -222 341 -410 390 -77 20 -222 18 -299 -4z m281 -82 c148 -45 236 -288 204 -564 -20 -175 -71 -296 -161 -380 -64 -59 -108 -78 -189 -79 -112 -1 -192 56 -254 181 -44 87 -59 173 -53 313 8 204 60 353 158 451 87 88 179 113 295 78z"/>
 <path d="M14964 2351 c-120 -41 -141 -59 -151 -129 -4 -31 -8 -97 -8 -146 l0 -89 28 -8 c22 -6 29 -4 34 9 36 115 131 241 212 282 162 81 320 -55 270 -234 -18 -66 -90 -126 -232 -195 -201 -98 -277 -187 -277 -326 0 -152 104 -284 259 -329 97 -28 311 -13 358 26 19 16 69 253 55 261 -4 3 -19 7 -33 10 -24 6 -30 1 -65 -59 -90 -155 -213 -210 -321 -144 -45 27 -77 99 -71 160 9 87 77 151 232 218 141 60 235 133 280 217 18 34 21 57 21 145 0 97 -2 109 -29 158 -96 173 -344 249 -562 173z"/>
 <path d="M9798 2222 c-462 -1446 -460 -1441 -520 -1484 -16 -11 -56 -25 -88 -31 -59 -11 -60 -12 -60 -44 l0 -33 325 0 325 0 0 34 0 34 -62 7 c-78 9 -124 27 -132 53 -7 20 55 223 353 1162 l18 55 37 -120 c21 -66 62 -194 91 -285 29 -91 99 -309 155 -485 56 -176 109 -345 119 -375 17 -52 20 -55 53 -58 l35 -3 71 198 c39 109 107 299 152 423 45 124 117 326 162 450 74 209 97 266 98 248 0 -4 40 -143 89 -310 100 -339 195 -689 215 -798 23 -118 6 -140 -121 -156 -52 -6 -53 -7 -53 -40 l0 -34 280 0 280 0 0 35 c0 30 -3 35 -23 35 -49 0 -123 30 -155 62 -55 58 -87 152 -439 1288 -47 151 -88 285 -90 298 -5 20 -11 23 -45 20 -39 -3 -41 -5 -60 -58 -11 -30 -42 -113 -69 -185 -26 -71 -105 -285 -174 -475 -70 -190 -145 -395 -169 -457 l-42 -111 -214 644 -215 644 -40 0 -40 0 -47 -148z"/>
 <path d="M3940 2315 c0 -30 3 -35 25 -35 50 0 126 -23 154 -45 36 -31 49 -76 66 -242 21 -202 57 -939 53 -1075 -2 -99 -6 -121 -24 -145 -29 -39 -81 -63 -158 -70 l-66 -6 0 -33 0 -34 223 0 224 0 61 133 c33 72 107 229 163 347 56 118 129 276 164 350 63 137 155 332 211 450 l32 65 45 -95 c24 -52 88 -189 141 -305 54 -115 119 -257 146 -315 27 -58 103 -222 169 -365 l119 -260 221 -3 221 -2 0 33 0 34 -65 7 c-74 8 -125 28 -144 59 -7 11 -17 45 -21 76 -9 70 16 1212 29 1292 17 105 53 134 177 146 l64 6 0 33 0 34 -355 0 -355 0 0 -34 0 -33 69 -7 c47 -5 81 -14 103 -29 59 -40 59 -50 52 -732 l-7 -610 -45 95 c-25 52 -77 167 -117 255 -65 144 -385 848 -456 1003 -28 60 -30 62 -67 62 l-37 0 -84 -193 c-47 -105 -148 -336 -226 -512 -78 -176 -175 -395 -215 -487 -40 -92 -75 -166 -77 -164 -8 8 -34 849 -31 1021 3 165 6 195 21 219 24 36 86 63 165 72 l62 7 0 33 0 34 -315 0 -315 0 0 -35z"/>
 <path d="M8150 2316 c0 -33 1 -33 55 -40 69 -8 100 -22 114 -53 8 -17 11 -248 11 -783 0 -739 -1 -761 -19 -779 -11 -11 -36 -22 -55 -25 -20 -3 -52 -8 -71 -11 -31 -5 -35 -9 -35 -35 0 -27 4 -29 58 -40 31 -7 119 -27 194 -46 76 -19 140 -34 143 -34 3 0 6 194 7 432 l3 432 35 -31 c57 -49 115 -81 197 -109 67 -23 90 -26 168 -22 145 7 229 61 290 183 l30 60 6 395 c3 217 9 403 13 413 12 25 52 43 114 52 51 7 52 7 52 41 l0 34 -285 0 -285 0 0 -34 c0 -32 1 -33 50 -39 65 -8 101 -26 117 -57 17 -33 18 -624 2 -702 -16 -78 -52 -133 -107 -165 -42 -25 -57 -28 -132 -28 -97 1 -171 25 -232 76 l-38 30 0 389 c0 214 3 396 6 405 9 23 53 43 112 51 51 6 52 7 52 40 l0 34 -285 0 -285 0 0 -34z"/>
 <path d="M12600 2315 c0 -31 3 -35 26 -35 51 0 115 -23 134 -48 19 -24 20 -42 20 -431 0 -350 -2 -410 -15 -428 -15 -22 -49 -34 -128 -48 -34 -5 -38 -9 -35 -32 3 -25 10 -28 113 -53 96 -23 231 -61 271 -77 11 -4 14 21 16 123 l3 128 26 -40 c44 -66 144 -163 190 -184 166 -75 315 84 193 205 -41 42 -99 49 -129 15 -9 -10 -33 -24 -52 -31 -71 -23 -133 10 -195 105 l-38 59 0 333 c0 333 0 333 23 360 19 22 36 28 105 37 l82 11 0 33 0 33 -305 0 -305 0 0 -35z"/>
 <path d="M13470 2317 l0 -33 71 -11 c55 -8 78 -17 98 -37 l26 -26 0 -758 c0 -699 -1 -760 -17 -784 -17 -26 -31 -31 -120 -43 -45 -6 -48 -8 -48 -35 0 -27 4 -29 58 -40 31 -7 119 -27 194 -46 76 -19 140 -34 143 -34 3 0 5 279 5 621 l0 620 23 -6 c61 -18 115 -55 160 -111 50 -61 162 -220 185 -262 16 -29 1 -52 -33 -52 -40 0 -55 -11 -55 -40 0 -19 6 -30 18 -34 9 -2 98 -7 197 -10 99 -4 204 -9 233 -12 l52 -6 0 35 0 35 -71 16 c-96 22 -129 39 -207 109 -65 59 -235 246 -252 278 -11 19 29 70 244 312 78 88 153 174 168 192 48 56 130 112 176 120 40 6 42 8 42 41 l0 34 -169 0 -169 0 -95 -119 c-199 -247 -369 -441 -393 -447 -54 -14 -54 -12 -54 215 0 204 1 211 23 236 18 21 37 29 95 38 l72 11 0 33 0 33 -300 0 -300 0 0 -33z"/>
 <path d="M530 2179 c-52 -39 -193 -141 -312 -226 -120 -86 -218 -159 -218 -162 0 -7 46 -26 355 -143 132 -50 300 -115 373 -144 l132 -52 180 134 c99 74 180 139 180 144 0 14 -192 207 -295 297 -105 92 -276 223 -289 223 -6 -1 -54 -33 -106 -71z"/>
 <path d="M15709 1507 c-41 -27 -79 -98 -79 -148 0 -139 157 -223 272 -145 57 39 73 70 73 146 0 76 -16 107 -75 148 -47 31 -143 31 -191 -1z m179 -35 c83 -60 78 -178 -11 -232 -84 -52 -193 1 -212 100 -8 48 28 117 75 142 44 24 106 19 148 -10z"/>
 <path d="M15740 1360 l0 -100 56 0 c74 0 94 12 94 56 0 27 -5 37 -24 46 l-25 11 25 36 c29 42 30 51 7 51 -10 0 -30 -20 -46 -45 -38 -59 -57 -59 -57 0 0 33 -4 45 -15 45 -12 0 -15 -18 -15 -100z m106 -35 c16 -13 17 -16 4 -25 -8 -5 -30 -10 -47 -10 -29 0 -33 3 -33 25 0 21 5 25 28 25 16 0 37 -7 48 -15z"/>
 </g>
<g id="layer102" fill="#ffffff" stroke="none">
 <path d="M1513 3182 c-6 -19 -26 -68 -53 -127 -41 -90 -65 -147 -124 -285 -79 -187 -124 -266 -192 -339 -69 -75 -121 -101 -208 -104 -36 -1 -65 -5 -64 -8 2 -4 59 -56 128 -117 127 -111 329 -307 368 -356 11 -15 46 -55 76 -89 62 -70 123 -146 181 -227 22 -30 43 -56 47 -58 5 -2 8 -8 8 -13 0 -6 17 -36 39 -67 21 -31 46 -73 56 -92 10 -19 21 -37 24 -40 6 -5 144 -292 161 -335 15 -37 44 -120 46 -130 1 -5 13 -48 27 -95 41 -141 42 -164 3 -78 -70 154 -157 312 -241 439 -48 71 -91 129 -96 129 -5 0 -9 5 -9 11 0 9 -126 169 -196 249 -8 8 -39 44 -70 80 -31 36 -62 65 -69 65 -13 0 -27 -10 -128 -87 -34 -27 -92 -71 -129 -99 -38 -29 -68 -55 -68 -58 0 -15 128 -163 210 -242 90 -87 114 -101 263 -154 105 -37 224 -146 368 -335 35 -47 67 -86 72 -88 4 -2 7 -8 7 -13 0 -6 17 -36 38 -67 21 -31 58 -88 81 -127 23 -38 47 -79 54 -90 70 -115 123 -177 174 -202 30 -14 45 -14 107 -1 32 7 104 78 150 147 96 145 201 389 316 728 34 101 63 192 65 203 2 11 7 24 10 30 3 5 32 85 65 177 32 93 74 211 93 263 19 52 55 151 80 220 50 139 102 279 121 325 7 17 19 46 26 65 16 46 24 66 49 122 12 26 21 54 21 61 0 7 4 17 9 22 21 23 119 265 107 265 -10 0 -256 -213 -276 -239 -3 -3 -34 -31 -70 -61 -36 -30 -70 -60 -76 -66 -7 -6 -51 -30 -99 -55 -81 -41 -93 -44 -165 -44 -71 0 -85 4 -154 39 -89 46 -199 133 -269 213 -104 121 -147 172 -245 288 -222 266 -443 433 -605 458 -30 5 -39 2 -44 -11z"/>
 <path d="M6461 2357 c-70 -26 -150 -105 -174 -172 -21 -60 -23 -172 -3 -219 19 -46 82 -113 125 -135 20 -10 117 -51 216 -90 99 -40 200 -84 224 -98 l43 -25 -5 -94 c-6 -114 -32 -169 -102 -209 -53 -32 -133 -37 -181 -12 -52 27 -100 92 -124 168 -24 75 -43 93 -87 85 -16 -2 -31 -5 -35 -5 -3 -1 -20 -13 -37 -27 -46 -39 -43 -84 9 -135 81 -78 223 -157 357 -199 190 -58 373 32 398 197 4 21 7 198 8 393 3 424 6 440 87 439 19 0 46 -6 60 -14 36 -21 44 -19 57 15 l11 30 -132 66 c-99 50 -138 66 -157 61 -36 -9 -83 -56 -110 -110 l-24 -47 -80 51 c-182 115 -233 128 -344 86z m269 -142 c23 -8 69 -31 101 -51 l59 -35 0 -205 c0 -136 -3 -204 -11 -204 -16 0 -275 126 -309 150 -45 32 -78 104 -76 167 0 28 4 55 9 59 4 4 7 15 7 24 0 20 66 85 100 99 36 14 72 13 120 -4z"/>
 <path d="M7655 2361 c-69 -32 -119 -98 -141 -187 -4 -16 -9 -217 -11 -446 l-4 -418 -94 0 c-111 0 -120 -9 -68 -69 35 -40 38 -41 100 -41 l63 0 0 -81 0 -80 87 -90 c60 -62 93 -89 110 -89 l23 0 0 170 0 170 155 0 155 0 0 38 c0 66 -16 72 -173 72 l-137 0 -1 358 c-1 196 0 368 1 382 6 93 64 172 134 185 34 7 99 -9 166 -39 11 -4 21 3 33 24 l18 29 -134 66 c-151 73 -205 82 -282 46z"/>
 <path d="M11785 2369 c-16 -6 -41 -12 -55 -15 -75 -16 -219 -119 -286 -206 -18 -22 -66 -111 -70 -128 -2 -8 -11 -35 -20 -60 -18 -49 -25 -210 -11 -291 11 -70 49 -168 90 -232 74 -115 182 -197 319 -242 134 -43 309 -30 430 31 63 32 66 34 147 114 63 62 125 161 136 218 2 12 6 26 9 31 3 5 10 45 15 90 10 92 -1 219 -25 296 -60 186 -222 341 -410 390 -64 17 -221 19 -269 4z m269 -98 c91 -41 146 -130 183 -296 18 -80 7 -289 -22 -410 -16 -69 -78 -175 -132 -226 -67 -63 -111 -82 -193 -83 -187 -1 -314 190 -312 469 2 109 2 111 32 227 50 195 158 320 290 338 61 9 105 3 154 -19z"/>
 <path d="M14959 2349 c-81 -27 -135 -60 -137 -81 0 -7 -5 -40 -10 -73 -15 -93 -10 -208 8 -210 8 -2 21 -4 29 -6 9 -3 18 9 25 31 15 48 67 137 109 185 70 81 181 119 257 88 146 -59 160 -263 24 -361 -22 -16 -92 -54 -156 -86 -204 -99 -277 -194 -266 -345 6 -79 33 -141 85 -197 81 -87 163 -120 304 -123 84 -2 199 19 226 41 19 15 59 203 54 254 -1 7 -13 14 -27 17 -29 5 -51 -13 -60 -49 -3 -13 -9 -24 -14 -24 -4 0 -15 -15 -25 -32 -25 -47 -99 -105 -146 -118 -46 -13 -112 -5 -145 17 -20 13 -80 93 -70 93 3 0 1 14 -4 30 -25 87 72 194 234 259 133 53 234 132 279 216 18 33 22 57 22 140 0 84 -4 108 -24 150 -85 180 -343 263 -572 184z"/>
 <path d="M9805 2243 c-22 -70 -41 -132 -42 -137 -3 -10 -61 -190 -155 -475 -22 -69 -41 -130 -43 -135 -1 -6 -7 -24 -13 -39 -7 -16 -12 -31 -12 -35 0 -3 -30 -98 -66 -210 -36 -112 -67 -211 -69 -220 -2 -9 -4 -18 -5 -19 -2 -2 -3 -6 -5 -10 -1 -5 -5 -15 -8 -23 -3 -8 -15 -41 -26 -72 -35 -105 -88 -151 -185 -164 -44 -6 -46 -8 -46 -40 l0 -34 325 0 325 0 0 34 0 34 -62 7 c-104 12 -144 37 -134 85 3 15 17 61 177 570 50 157 104 330 121 385 16 55 34 109 39 120 5 11 15 40 22 65 l13 45 44 -135 c24 -74 44 -140 46 -147 4 -20 26 -87 33 -98 3 -5 6 -14 7 -20 5 -32 138 -442 146 -452 6 -7 8 -13 5 -13 -2 0 28 -102 67 -227 l72 -228 36 -3 35 -3 43 123 c23 68 46 132 51 143 13 30 78 210 105 290 12 39 35 102 50 140 27 71 61 166 151 420 28 77 57 155 65 174 l14 35 57 -195 c32 -107 61 -201 64 -209 3 -8 8 -24 10 -35 2 -11 15 -56 28 -100 40 -129 146 -537 151 -580 3 -22 7 -45 9 -52 2 -7 -1 -26 -6 -42 -12 -33 -40 -46 -126 -57 -52 -6 -53 -7 -53 -40 l0 -34 280 0 280 0 0 35 c0 30 -3 35 -23 35 -49 0 -123 30 -155 63 -21 22 -48 73 -76 145 -24 62 -43 112 -41 112 2 0 -19 66 -47 148 -27 81 -51 156 -54 167 -2 11 -22 76 -43 145 -22 69 -63 199 -91 290 -28 91 -60 192 -70 225 -34 103 -102 329 -107 353 -5 20 -11 23 -46 20 -35 -3 -42 -7 -49 -33 -5 -16 -13 -39 -18 -50 -12 -26 -95 -251 -125 -335 -28 -79 -89 -245 -102 -280 -6 -14 -27 -72 -48 -130 -20 -58 -41 -114 -46 -125 -15 -34 -70 -189 -74 -206 -2 -9 -13 -37 -24 -62 -12 -25 -21 -52 -22 -59 0 -7 -95 268 -210 612 -115 344 -212 632 -216 640 -3 8 -5 18 -5 23 1 4 -17 7 -40 7 l-43 0 -40 -127z"/>
 <path d="M3940 2315 c0 -30 3 -35 25 -35 50 0 127 -23 154 -46 55 -46 71 -154 96 -664 9 -171 14 -268 21 -390 8 -145 8 -315 -1 -360 -14 -75 -83 -114 -220 -124 -15 -1 -21 -9 -23 -33 l-3 -33 224 0 224 0 66 143 c112 242 217 468 258 552 21 44 52 109 68 145 39 86 115 247 184 390 l55 115 47 -100 c26 -55 60 -127 75 -160 16 -33 51 -108 79 -168 28 -59 51 -109 51 -112 0 -2 34 -77 76 -167 42 -90 89 -192 106 -228 16 -36 46 -101 67 -145 21 -44 56 -120 79 -170 l41 -90 220 -3 221 -2 0 35 c0 34 -2 35 -37 37 -80 3 -94 6 -128 24 -58 31 -69 68 -69 229 1 268 19 1025 29 1166 6 104 74 156 203 158 41 1 42 2 42 36 l0 35 -350 0 -350 0 0 -35 c0 -31 3 -35 28 -35 102 -2 160 -33 180 -96 9 -29 11 -149 8 -479 -3 -242 -5 -521 -6 -620 l-1 -180 -56 115 c-65 136 -81 171 -123 270 -18 41 -44 100 -59 130 -32 64 -60 125 -91 195 -38 86 -70 157 -104 230 -18 39 -58 126 -89 195 -30 69 -72 160 -92 203 l-36 77 -39 0 c-22 0 -40 -5 -40 -11 0 -5 -14 -40 -31 -77 -58 -124 -188 -417 -193 -437 -2 -5 -15 -37 -31 -70 -75 -163 -155 -344 -200 -450 -20 -49 -53 -124 -72 -165 -19 -41 -42 -92 -50 -113 -9 -21 -17 -36 -19 -34 -6 5 -12 125 -19 372 -3 116 -8 245 -11 289 -6 112 -6 506 0 535 15 66 75 104 184 117 l62 7 0 33 0 34 -315 0 -315 0 0 -35z"/>
 <path d="M8150 2315 c0 -33 2 -35 33 -36 72 -1 120 -21 136 -56 15 -33 17 -1524 1 -1552 -14 -26 -61 -41 -157 -50 -7 0 -13 -14 -13 -30 0 -31 2 -32 89 -46 19 -3 38 -8 42 -11 5 -3 21 -7 36 -9 16 -2 71 -15 123 -29 52 -14 98 -26 102 -26 4 0 9 194 10 431 l3 431 50 -41 c27 -22 55 -41 61 -41 6 0 17 -6 23 -14 6 -8 50 -26 96 -41 74 -24 95 -27 172 -23 166 10 267 91 314 251 4 16 9 191 10 390 1 199 6 377 11 394 10 39 42 58 116 68 51 7 52 7 52 41 l0 34 -285 0 -285 0 0 -35 c0 -33 2 -35 33 -36 67 -1 116 -23 134 -59 21 -40 17 -658 -4 -730 -28 -96 -78 -142 -180 -166 -49 -11 -64 -10 -131 7 -77 19 -177 71 -186 96 -8 20 -8 776 0 796 9 25 52 45 112 53 51 6 52 7 52 40 l0 34 -285 0 -285 0 0 -35z"/>
 <path d="M12600 2316 c0 -33 1 -33 53 -40 28 -4 58 -8 65 -8 32 -3 60 -57 67 -130 12 -129 2 -730 -13 -755 -21 -37 -67 -55 -159 -62 -7 -1 -13 -12 -13 -26 0 -26 6 -31 50 -39 50 -9 187 -45 265 -70 44 -14 81 -26 83 -26 1 0 2 57 2 128 1 115 2 125 16 107 117 -159 202 -224 287 -225 110 0 183 97 141 186 -36 76 -113 95 -173 44 -28 -24 -41 -28 -80 -26 -60 2 -103 33 -153 110 l-38 59 0 333 c0 333 0 333 23 360 19 22 36 28 105 37 l82 11 0 33 0 33 -305 0 -305 0 0 -34z"/>
 <path d="M13470 2315 c0 -33 2 -35 35 -36 19 -1 38 -2 43 -3 4 -1 21 -5 38 -10 17 -4 42 -18 55 -32 l24 -26 0 -741 c0 -408 -4 -759 -8 -779 -6 -29 -14 -39 -40 -47 -29 -10 -71 -17 -119 -20 -13 -1 -18 -9 -18 -30 0 -31 2 -32 89 -46 19 -3 38 -8 43 -11 4 -3 29 -9 56 -14 26 -5 81 -18 122 -29 41 -11 78 -21 83 -21 4 0 7 279 7 621 l0 620 23 -6 c61 -18 115 -55 160 -111 50 -62 162 -221 185 -262 20 -36 -1 -52 -80 -61 -5 -1 -8 -14 -8 -31 0 -29 17 -40 60 -38 39 2 367 -14 383 -18 33 -10 57 6 57 37 0 16 -6 29 -12 30 -49 3 -158 38 -194 63 -56 38 -165 145 -252 249 l-82 97 17 28 c10 15 23 32 28 37 6 6 36 39 66 75 89 106 93 111 119 139 14 15 50 56 80 91 81 94 203 213 231 226 13 6 38 15 54 20 24 8 31 16 33 42 l3 32 -165 0 -165 0 -28 -37 c-15 -21 -38 -49 -50 -63 -11 -14 -46 -56 -77 -95 -32 -38 -65 -79 -74 -90 -9 -11 -45 -54 -80 -95 -145 -173 -151 -179 -179 -186 -52 -14 -53 -11 -53 219 0 212 0 214 24 236 16 15 47 26 90 34 66 11 66 11 66 44 l0 33 -295 0 -295 0 0 -35z"/>
 <path d="M459 2127 c-92 -67 -177 -130 -190 -140 -13 -9 -79 -56 -146 -103 -116 -81 -140 -104 -110 -104 7 0 35 -10 63 -23 27 -13 114 -47 194 -77 80 -29 160 -59 179 -67 18 -8 45 -19 60 -23 14 -5 99 -38 189 -73 l163 -65 122 91 c67 50 127 96 133 102 6 5 22 17 34 25 12 8 33 25 47 37 l26 21 -31 39 c-74 93 -355 344 -471 423 -13 8 -34 25 -47 38 -14 12 -30 22 -37 22 -7 -1 -87 -56 -178 -123z"/>
 <path d="M15709 1507 c-93 -61 -103 -210 -19 -280 104 -88 266 -32 286 98 9 61 -1 105 -33 144 -38 46 -73 61 -141 61 -45 0 -67 -6 -93 -23z m145 -17 c105 -39 125 -168 38 -240 -30 -25 -45 -30 -89 -30 -48 0 -57 4 -92 39 -52 52 -60 97 -29 159 35 69 104 98 172 72z"/>
 <path d="M15740 1355 l0 -95 56 0 c74 0 94 12 94 56 0 27 -5 37 -25 46 -24 11 -24 11 -6 37 32 47 33 51 12 51 -13 0 -31 -15 -47 -40 -15 -22 -33 -40 -40 -40 -10 0 -14 13 -14 40 0 29 -4 40 -15 40 -12 0 -15 -17 -15 -95z m106 -30 c16 -13 17 -16 4 -25 -8 -5 -30 -10 -47 -10 -29 0 -33 3 -33 25 0 21 5 25 28 25 16 0 37 -7 48 -15z"/>
 </g>

</svg>