<!DOCTYPE svg PUBLIC "-//W3C//DTD SVG 20010904//EN" "http://www.w3.org/TR/2001/REC-SVG-20010904/DTD/svg10.dtd">
<svg version="1.0" xmlns="http://www.w3.org/2000/svg" width="808px" height="276px" viewBox="0 0 8080 2760" preserveAspectRatio="xMidYMid meet">
<g id="layer101" fill="#ffffff" stroke="none">
 <path d="M347 1923 c-4 -3 -7 -251 -7 -550 l0 -543 260 0 c258 0 260 0 273 23 8 12 38 67 67 122 51 97 94 176 172 320 21 39 56 105 79 149 22 43 42 76 43 75 2 -2 24 -42 48 -89 25 -47 61 -114 81 -150 20 -36 57 -106 84 -155 26 -50 73 -137 103 -193 l54 -102 258 0 258 0 0 550 0 550 -165 0 -165 0 -2 -380 -3 -381 -105 187 c-58 103 -119 212 -135 243 -17 31 -66 118 -109 194 l-77 137 -127 0 -127 0 -52 -94 c-29 -52 -69 -125 -90 -162 -20 -38 -56 -102 -80 -142 -24 -41 -43 -76 -43 -79 0 -3 -24 -46 -54 -96 -29 -51 -65 -114 -80 -142 l-26 -50 0 383 0 382 -163 0 c-90 0 -167 -3 -170 -7z"/>
 <path d="M2670 1795 l0 -135 595 0 595 0 0 135 0 135 -595 0 -595 0 0 -135z"/>
 <path d="M4630 1911 c-161 -37 -235 -112 -260 -262 -13 -83 -13 -455 0 -538 25 -153 104 -231 271 -266 106 -22 693 -22 829 0 198 32 262 102 276 299 l7 96 -172 0 -171 0 0 -31 c0 -86 -28 -94 -330 -94 -225 0 -248 2 -284 20 -76 38 -81 54 -81 249 0 258 0 258 305 264 251 5 345 -6 378 -43 15 -18 22 -39 22 -66 l0 -39 170 0 170 0 0 85 c0 204 -61 290 -233 329 -104 24 -790 22 -897 -3z"/>
 <path d="M6120 1919 c0 -6 15 -39 34 -72 18 -34 51 -96 73 -137 103 -191 365 -674 415 -765 21 -38 44 -80 50 -92 11 -23 13 -23 229 -23 l217 0 20 32 c11 18 84 150 162 293 78 143 166 303 195 355 28 52 71 131 95 175 23 44 46 85 50 90 4 6 24 40 44 78 27 49 33 69 23 72 -7 3 -93 4 -191 3 l-177 -3 -52 -97 -52 -98 -330 0 -331 0 -49 100 -49 100 -188 0 c-130 0 -188 -3 -188 -11z m1000 -435 c0 -3 -31 -65 -69 -137 -124 -234 -126 -238 -139 -225 -7 7 -12 15 -12 19 0 3 -40 83 -89 178 l-88 171 198 0 c110 0 199 -3 199 -6z"/>
 <path d="M2670 1370 l0 -120 595 0 595 0 0 120 0 120 -595 0 -595 0 0 -120z"/>
 <path d="M2670 960 l0 -130 595 0 595 0 0 130 0 130 -595 0 -595 0 0 -130z"/>
 </g>

</svg>