<!DOCTYPE svg PUBLIC "-//W3C//DTD SVG 20010904//EN" "http://www.w3.org/TR/2001/REC-SVG-20010904/DTD/svg10.dtd">
<svg version="1.0" xmlns="http://www.w3.org/2000/svg" width="488px" height="147px" viewBox="0 0 4880 1470" preserveAspectRatio="xMidYMid meet">
<g id="layer101" fill="#ffffff" stroke="none">
 <path d="M2391 1398 c-26 -88 -26 -88 -2 -88 14 0 21 9 26 38 10 63 20 66 34 12 10 -38 17 -50 32 -50 14 0 22 11 30 45 13 51 25 51 35 -1 6 -34 27 -54 41 -40 4 3 -4 40 -17 81 -18 57 -28 75 -42 75 -13 0 -21 -12 -29 -45 -6 -25 -14 -45 -18 -45 -4 0 -12 20 -19 45 -9 33 -17 45 -31 45 -14 0 -23 -16 -40 -72z"/>
 <path d="M2645 1458 c-35 -104 -42 -143 -28 -146 20 -5 23 -1 37 55 l13 48 17 -53 c23 -69 44 -67 66 6 l16 54 13 -56 c10 -45 16 -56 32 -56 15 0 19 5 15 18 -3 9 -14 44 -24 77 -23 78 -48 82 -72 11 l-16 -48 -15 48 c-15 48 -44 71 -54 42z"/>
 <path d="M2862 1396 c-26 -90 -26 -86 -3 -86 13 0 22 13 33 53 l14 52 13 -52 c10 -41 17 -53 32 -53 14 0 22 12 31 45 7 25 15 45 19 45 3 0 10 -19 15 -42 7 -33 14 -44 31 -46 22 -3 22 -3 8 38 -8 23 -19 59 -25 81 -15 56 -43 53 -60 -7 -14 -50 -22 -48 -40 9 -20 62 -43 50 -68 -37z"/>
 <path d="M3077 1463 c-16 -15 -6 -33 18 -33 18 0 25 5 25 20 0 20 -28 28 -43 13z"/>
 <path d="M3188 1390 c-3 -76 -2 -81 17 -79 11 2 30 -1 42 -5 12 -4 31 -2 43 4 14 8 26 8 41 0 53 -29 89 16 89 111 0 42 -3 49 -20 49 -17 0 -20 -7 -20 -52 0 -61 -10 -81 -36 -76 -16 3 -20 14 -22 66 -3 54 -6 62 -22 62 -18 0 -20 -7 -20 -60 0 -45 -4 -62 -15 -66 -28 -11 -45 16 -45 72 0 40 -4 54 -14 54 -11 0 -15 -19 -18 -80z"/>
 <path d="M3465 1450 c-25 -28 -24 -96 3 -123 30 -30 88 -29 113 2 26 32 25 95 -1 121 -27 27 -90 27 -115 0z m83 -22 c17 -17 15 -64 -4 -82 -33 -34 -79 27 -54 73 12 23 40 27 58 9z"/>
 <path d="M3630 1350 c0 -113 1 -120 20 -120 19 0 20 7 20 120 0 113 -1 120 -20 120 -19 0 -20 -7 -20 -120z"/>
 <path d="M3700 1452 c0 -15 6 -18 29 -14 43 6 47 -15 7 -39 -25 -15 -36 -28 -36 -45 0 -31 39 -57 74 -48 32 8 29 29 -4 29 -35 0 -35 22 -1 40 23 12 31 22 31 43 0 38 -17 52 -62 52 -30 0 -38 -4 -38 -18z"/>
 <path d="M3846 1454 c-3 -9 -6 -38 -6 -65 0 -27 -4 -49 -10 -49 -5 0 -10 -7 -10 -15 0 -8 4 -15 9 -15 5 0 11 -9 14 -20 3 -11 10 -20 16 -20 6 0 11 9 11 20 0 13 7 20 20 20 11 0 20 7 20 15 0 8 -9 15 -20 15 -16 0 -20 7 -20 34 0 44 9 66 26 66 8 0 14 7 14 15 0 21 -56 20 -64 -1z"/>
 <path d="M3934 1446 c-11 -44 -1 -60 44 -75 34 -10 40 -16 31 -27 -7 -8 -21 -11 -40 -7 -22 4 -29 2 -29 -10 0 -24 56 -32 85 -13 22 14 25 24 25 70 0 30 3 61 6 69 4 12 -6 15 -55 16 -56 0 -61 -1 -67 -23z m80 -22 c9 -25 7 -34 -8 -34 -19 0 -48 29 -41 41 10 15 42 10 49 -7z"/>
 <path d="M4106 1454 c-58 -58 4 -181 73 -144 20 10 21 8 21 -35 0 -33 4 -45 15 -45 12 0 15 20 15 119 l0 118 -54 2 c-38 0 -60 -4 -70 -15z m85 -41 c19 -51 -24 -96 -59 -61 -7 7 -12 24 -12 38 0 53 53 70 71 23z"/>
 <path d="M4260 1450 c0 -16 5 -21 23 -18 12 2 22 10 22 18 0 8 -10 16 -22 18 -18 3 -23 -2 -23 -18z"/>
 <path d="M4330 1390 l0 -80 28 0 c15 0 37 -3 49 -6 40 -11 63 27 63 101 0 58 -2 65 -20 65 -16 0 -19 -8 -22 -62 -2 -52 -6 -63 -22 -66 -26 -5 -36 15 -36 76 0 45 -3 52 -20 52 -18 0 -20 -7 -20 -80z"/>
 <path d="M4526 1455 c-22 -22 -29 -52 -21 -91 13 -74 120 -82 144 -12 12 35 5 75 -17 101 -19 21 -85 23 -106 2z m86 -41 c10 -21 9 -31 -2 -52 -8 -14 -20 -27 -26 -29 -19 -6 -44 26 -44 56 0 53 51 71 72 25z"/>
 <path d="M630 1392 c-54 -54 -50 -151 10 -296 69 -166 136 -195 330 -145 51 14 96 20 112 16 15 -4 55 -27 90 -52 155 -111 192 -126 274 -111 105 20 204 208 207 391 1 128 -45 195 -137 195 -34 0 -45 -7 -90 -53 -28 -30 -68 -75 -89 -100 -45 -55 -79 -61 -124 -23 -74 61 -123 69 -205 31 -59 -27 -96 -31 -120 -12 -8 6 -36 44 -61 83 -26 40 -58 79 -72 88 -39 26 -92 21 -125 -12z m794 -438 c29 -29 12 -64 -31 -64 -19 0 -43 25 -43 44 0 10 32 36 45 36 7 0 21 -7 29 -16z"/>
 <path d="M2745 1112 c-59 -20 -95 -76 -95 -147 0 -61 30 -118 74 -139 99 -47 186 16 186 136 0 66 -17 107 -53 131 -29 19 -84 28 -112 19z m91 -41 c80 -49 66 -190 -22 -227 -31 -13 -39 -13 -70 2 -80 38 -93 159 -23 218 36 31 73 33 115 7z"/>
 <path d="M3001 1103 c-65 -32 -89 -137 -52 -220 21 -46 62 -73 111 -73 35 0 86 23 93 42 3 7 6 -22 6 -64 1 -62 4 -78 16 -78 13 0 15 29 15 200 0 171 -2 200 -15 200 -8 0 -15 -9 -15 -20 l0 -21 -28 21 c-39 29 -90 34 -131 13z m107 -29 c69 -48 69 -188 0 -221 -41 -20 -54 -21 -85 -8 -40 17 -63 61 -63 119 0 56 14 88 48 109 34 21 71 21 100 1z"/>
 <path d="M3300 1107 c-69 -24 -100 -137 -61 -223 32 -71 137 -97 193 -47 25 22 48 73 48 108 l0 25 -115 0 c-107 0 -115 1 -115 20 0 107 168 138 194 35 4 -14 13 -25 21 -25 18 0 18 2 1 45 -25 59 -98 86 -166 62z m150 -181 c0 -28 -50 -85 -77 -87 -53 -4 -88 14 -108 56 -8 18 -15 38 -15 44 0 7 34 11 100 11 99 0 100 0 100 -24z"/>
 <path d="M3702 1105 c-71 -32 -73 -124 -3 -185 l40 -35 -25 -40 c-30 -51 -30 -80 1 -110 18 -18 35 -25 65 -25 53 0 80 27 80 79 0 31 -7 45 -36 74 l-37 35 38 46 c41 50 55 57 55 26 0 -11 7 -20 15 -20 15 0 14 18 0 67 -2 6 10 29 27 50 25 31 27 39 14 41 -9 2 -26 -8 -38 -23 l-21 -26 -27 26 c-35 33 -100 42 -148 20z m137 -48 l21 -23 -51 -62 c-55 -68 -51 -67 -106 -19 -50 44 -34 118 30 135 39 10 77 -1 106 -31z m-29 -223 c36 -41 36 -59 -1 -87 -24 -17 -30 -18 -55 -6 -38 18 -42 51 -12 95 13 18 26 34 29 34 4 0 21 -16 39 -36z"/>
 <path d="M4155 1112 c-84 -29 -121 -142 -75 -231 39 -77 147 -94 202 -32 63 70 55 200 -16 246 -28 19 -83 27 -111 17z m92 -42 c79 -48 63 -198 -24 -227 -113 -38 -186 136 -93 220 36 32 73 35 117 7z"/>
 <path d="M2240 965 c0 -90 4 -145 10 -145 6 0 10 9 10 20 0 17 2 17 28 -6 23 -22 34 -25 71 -21 30 3 50 12 61 27 l16 22 15 -22 c10 -15 28 -23 60 -27 38 -4 50 -1 75 20 29 25 29 26 32 151 3 110 2 126 -12 126 -14 0 -16 -17 -16 -113 0 -131 -11 -157 -63 -157 -67 1 -87 41 -87 176 0 56 -4 94 -10 94 -6 0 -10 -38 -10 -92 0 -118 -13 -166 -45 -174 -76 -19 -107 28 -113 169 -2 53 -8 97 -13 97 -5 0 -9 -65 -9 -145z"/>
 <path d="M3510 910 c0 -127 4 -200 10 -200 6 0 10 73 10 200 0 127 -4 200 -10 200 -6 0 -10 -73 -10 -200z"/>
 <path d="M3580 910 c0 -127 4 -200 10 -200 6 0 10 73 10 200 0 127 -4 200 -10 200 -6 0 -10 -73 -10 -200z"/>
 <path d="M3980 975 l0 -135 -25 0 c-14 0 -25 -4 -25 -10 0 -5 11 -10 25 -10 23 0 25 -4 25 -43 0 -24 5 -48 12 -55 17 -17 78 -16 78 2 0 8 -7 12 -17 10 -28 -7 -43 9 -50 49 -5 36 -5 37 26 37 17 0 31 5 31 10 0 6 -13 10 -30 10 l-30 0 0 135 c0 83 -4 135 -10 135 -6 0 -10 -52 -10 -135z"/>
 <path d="M4360 965 c0 -90 4 -145 10 -145 6 0 10 7 10 15 0 12 6 11 33 -5 38 -24 77 -26 77 -5 0 8 -9 15 -21 15 -63 0 -89 52 -89 180 0 53 -4 90 -10 90 -6 0 -10 -55 -10 -145z"/>
 <path d="M4500 965 c0 -90 4 -145 10 -145 6 0 10 7 10 15 0 13 6 11 29 -6 36 -27 97 -21 124 12 l17 21 18 -22 c12 -15 33 -24 64 -27 40 -5 50 -2 72 20 25 25 26 30 26 152 0 77 -4 125 -10 125 -6 0 -10 -44 -10 -113 0 -135 -10 -157 -70 -157 -30 0 -43 6 -59 26 -18 23 -21 41 -21 135 0 90 -3 109 -15 109 -12 0 -15 -19 -15 -113 0 -135 -11 -160 -67 -155 -60 5 -77 39 -81 164 -6 156 -22 125 -22 -41z"/>
 <path d="M1801 1064 c-29 -25 -46 -53 -61 -99 -31 -92 -88 -175 -205 -296 -122 -127 -176 -221 -183 -320 -8 -108 31 -170 140 -225 112 -57 199 -35 225 56 12 39 11 56 -3 122 -16 72 -16 79 0 103 22 33 64 33 134 0 66 -30 115 -32 142 -5 45 45 39 113 -20 209 -22 37 -40 78 -40 90 0 13 18 68 40 122 43 108 51 170 25 219 -22 43 -53 60 -107 60 -41 0 -54 -5 -87 -36z m113 -80 c9 -8 16 -22 16 -29 0 -13 -26 -45 -36 -45 -39 0 -59 60 -26 79 23 14 28 14 46 -5z m-326 -666 c28 -28 7 -78 -33 -78 -27 0 -45 18 -45 45 0 27 18 45 45 45 12 0 26 -5 33 -12z"/>
 <path d="M509 817 c-13 -13 -41 -42 -62 -65 -64 -69 -98 -65 -197 23 -57 51 -82 60 -148 52 -67 -7 -102 -48 -102 -121 0 -98 48 -187 164 -302 87 -86 131 -109 211 -109 61 0 100 14 190 70 59 36 88 32 185 -26 105 -64 147 -79 217 -79 70 0 109 17 157 70 70 78 116 225 102 324 -11 68 -56 116 -117 123 -49 6 -81 -6 -151 -57 -82 -60 -134 -52 -226 35 -81 76 -98 85 -155 85 -33 0 -50 -6 -68 -23z m-328 -127 c23 -13 25 -47 2 -72 -20 -22 -31 -23 -55 -1 -22 20 -23 46 -2 67 18 19 28 20 55 6z"/>
 <path d="M3001 550 c-102 -24 -159 -134 -133 -259 21 -100 84 -151 185 -151 93 0 143 30 178 105 21 45 25 130 8 187 -14 51 -69 103 -124 117 -49 12 -65 12 -114 1z m107 -74 c90 -49 82 -220 -13 -265 -25 -12 -35 -12 -69 0 -21 8 -48 26 -59 41 -25 33 -34 117 -17 158 28 67 101 98 158 66z"/>
 <path d="M3575 551 c-64 -16 -96 -46 -109 -103 -6 -27 -5 -28 31 -28 30 0 40 5 48 22 21 49 127 66 165 28 43 -43 16 -70 -94 -99 -96 -24 -128 -46 -140 -95 -21 -81 41 -136 154 -136 77 0 123 21 144 65 25 52 21 65 -19 65 -28 0 -38 -5 -47 -25 -22 -49 -124 -57 -152 -12 -17 27 20 53 107 75 90 23 124 43 138 80 42 107 -83 197 -226 163z"/>
 <path d="M4163 549 c-44 -13 -73 -53 -73 -100 0 -79 30 -109 125 -128 127 -26 135 -29 135 -60 0 -40 -24 -56 -81 -55 -53 1 -89 23 -89 56 0 14 -8 18 -40 18 -39 0 -40 -1 -34 -27 21 -88 71 -117 188 -111 67 3 79 7 103 31 28 27 28 29 31 172 3 135 5 145 23 145 14 0 19 7 19 29 0 25 -5 31 -30 36 -31 7 -80 -15 -80 -35 0 -5 -15 -1 -32 10 -40 23 -121 33 -165 19z m148 -82 c29 -19 34 -29 37 -68 l3 -46 -72 14 c-77 14 -109 34 -109 66 0 57 79 76 141 34z"/>
 <path d="M4634 551 c-88 -22 -129 -87 -129 -206 0 -93 19 -142 69 -178 26 -18 44 -22 108 -22 67 0 80 3 102 24 l26 24 0 -96 0 -97 35 0 35 0 0 275 0 275 -35 0 c-29 0 -35 -4 -35 -20 0 -21 0 -21 -27 -1 -32 23 -104 33 -149 22z m125 -87 c55 -46 65 -152 20 -215 -46 -66 -154 -57 -184 15 -19 46 -19 129 0 166 32 61 112 78 164 34z"/>
 <path d="M2230 350 l0 -200 35 0 c28 0 35 4 35 20 0 18 2 18 36 -5 51 -35 131 -35 171 -1 l27 24 38 -25 c33 -22 46 -25 104 -21 58 4 70 8 90 32 23 26 24 33 24 202 l0 174 -35 0 -35 0 0 -150 c0 -147 -1 -152 -25 -175 -13 -14 -31 -25 -40 -25 -34 0 -85 30 -95 55 -6 15 -10 87 -10 161 l0 134 -34 0 -34 0 -4 -156 c-3 -152 -4 -156 -28 -176 -32 -26 -76 -18 -112 22 -28 30 -28 32 -28 170 l0 140 -40 0 -40 0 0 -200z"/>
 <path d="M3320 275 l0 -275 40 0 40 0 0 275 0 275 -40 0 -40 0 0 -275z"/>
 <path d="M3930 537 c-25 -13 -25 -13 -28 -170 l-3 -157 -34 0 c-32 0 -35 -2 -35 -30 0 -28 3 -30 35 -30 l35 0 0 -60 0 -60 35 0 35 0 0 60 0 60 40 0 c38 0 40 2 40 30 0 28 -2 30 -40 30 l-41 0 3 133 3 132 38 3 c35 3 37 5 37 38 0 34 0 34 -47 34 -27 0 -59 -6 -73 -13z"/>
 </g>

</svg>