<!DOCTYPE svg PUBLIC "-//W3C//DTD SVG 20010904//EN" "http://www.w3.org/TR/2001/REC-SVG-20010904/DTD/svg10.dtd">
<svg version="1.0" xmlns="http://www.w3.org/2000/svg" width="1033px" height="369px" viewBox="0 0 10330 3690" preserveAspectRatio="xMidYMid meet">
<g id="layer101" fill="#ffffff" stroke="none">
 <path d="M8295 3683 c-120 -26 -261 -92 -349 -163 -72 -57 -274 -262 -335 -339 -53 -69 -94 -149 -118 -232 -17 -60 -18 -128 -18 -1104 0 -976 1 -1044 18 -1104 39 -138 93 -216 276 -405 180 -184 268 -245 441 -307 65 -24 65 -24 669 -27 l605 -3 88 25 c172 50 291 128 463 307 187 193 248 286 280 420 22 96 22 2092 0 2188 -32 134 -93 227 -280 420 -172 178 -290 256 -461 306 l-86 25 -587 -1 c-322 -1 -595 -3 -606 -6z m1112 -752 c49 -40 109 -100 156 -159 l27 -34 0 -890 0 -891 -41 -53 c-23 -30 -72 -83 -110 -119 l-69 -65 -459 0 -458 0 -39 28 c-21 16 -74 66 -116 111 l-78 83 0 898 0 898 39 49 c21 26 70 78 109 116 l70 67 460 0 460 0 49 -39z"/>
 <path d="M0 1835 l0 -1825 383 0 383 0 584 1084 585 1085 3 -1085 2 -1084 370 0 370 0 0 1825 0 1825 -382 0 -383 -1 -590 -1070 -590 -1070 -3 1071 -2 1070 -365 0 -365 0 0 -1825z"/>
 <path d="M3360 1835 l0 -1825 375 0 375 0 0 1825 0 1825 -375 0 -375 0 0 -1825z"/>
 <path d="M5500 2190 l0 -1470 -495 0 -495 0 0 -355 0 -355 1365 0 1365 0 0 355 0 355 -500 0 -500 0 0 1470 0 1470 -370 0 -370 0 0 -1470z"/>
 </g>

</svg>