<!DOCTYPE svg PUBLIC "-//W3C//DTD SVG 20010904//EN" "http://www.w3.org/TR/2001/REC-SVG-20010904/DTD/svg10.dtd">
<svg version="1.0" xmlns="http://www.w3.org/2000/svg" width="1600px" height="229px" viewBox="0 0 16000 2290" preserveAspectRatio="xMidYMid meet">
<g id="layer101" fill="#b4b4b4" stroke="none">
 <path d="M3940 2253 c0 -16 12 -76 77 -382 l16 -73 50 6 c28 3 68 1 88 -6 47 -14 103 -3 129 24 16 18 20 35 20 92 -1 103 -42 185 -112 222 -31 16 -124 19 -133 4 -14 -22 -24 -7 -40 60 l-17 70 -39 0 c-30 0 -39 -4 -39 -17z m230 -193 c48 -34 78 -148 48 -178 -17 -17 -69 -15 -95 3 -42 30 -62 156 -28 181 26 19 42 18 75 -6z"/>
 <path d="M6224 2256 c-18 -14 -18 -17 -3 -43 11 -21 22 -27 40 -25 13 1 47 5 76 8 48 6 54 4 83 -24 36 -37 40 -57 8 -45 -13 4 -49 8 -81 8 -81 0 -97 -20 -97 -119 0 -84 21 -135 73 -185 33 -31 42 -34 89 -33 198 3 188 2 188 22 0 19 -24 134 -61 291 -31 131 -69 159 -213 159 -56 0 -88 -5 -102 -14z m218 -208 c26 -13 37 -39 44 -103 8 -63 0 -75 -49 -75 -42 0 -63 15 -81 60 -22 55 -21 116 2 129 17 10 53 6 84 -11z"/>
 <path d="M4400 2125 c-49 -52 -32 -202 32 -279 35 -43 92 -61 157 -50 25 4 68 6 94 5 l48 -3 -6 39 c-6 34 -46 220 -60 281 -4 17 -12 22 -39 22 -19 0 -36 -6 -39 -12 -3 -10 -13 -9 -41 5 -55 26 -117 23 -146 -8z m166 -72 c26 -17 58 -106 52 -145 -4 -29 -48 -45 -85 -32 -52 18 -89 133 -58 180 18 28 45 28 91 -3z"/>
 <path d="M5078 2136 c-27 -20 -31 -63 -14 -146 20 -95 20 -117 0 -128 -24 -13 -11 -60 18 -64 17 -2 25 -13 33 -48 11 -44 12 -45 53 -48 l41 -3 -6 50 -6 51 37 0 c24 0 36 5 36 14 0 31 -13 46 -40 46 -16 0 -35 6 -43 14 -16 16 -51 170 -43 191 2 7 20 15 38 17 36 3 49 28 28 53 -16 19 -108 19 -132 1z"/>
 <path d="M5523 2140 c-84 -34 -81 -209 5 -299 33 -34 44 -39 99 -46 86 -10 116 -1 147 44 59 85 13 246 -86 297 -30 16 -130 18 -165 4z m127 -82 c52 -36 78 -138 44 -172 -21 -21 -68 -20 -90 1 -24 24 -54 93 -54 125 0 27 33 68 55 68 7 0 27 -10 45 -22z"/>
 <path d="M6971 2137 c-40 -20 -64 -62 -64 -110 0 -74 23 -136 67 -183 36 -37 48 -43 96 -48 72 -8 119 4 143 36 23 31 33 107 18 137 -11 19 -19 21 -121 21 l-110 0 0 28 c0 16 9 37 20 47 18 16 26 17 58 8 20 -5 44 -13 53 -17 20 -9 49 18 49 45 0 41 -149 67 -209 36z m179 -231 c0 -34 -23 -49 -64 -42 -36 7 -72 39 -61 55 3 6 33 11 66 11 55 0 59 -1 59 -24z"/>
 <path d="M7309 2131 c-19 -15 -24 -30 -27 -84 -8 -129 56 -238 150 -252 26 -4 60 -3 76 3 16 5 50 8 75 5 l47 -6 -1 39 c0 22 -13 98 -27 169 l-28 130 -33 3 c-18 2 -38 -1 -44 -7 -7 -7 -21 -5 -45 4 -49 21 -115 19 -143 -4z m152 -71 c44 -23 55 -43 65 -121 8 -58 0 -69 -54 -69 -40 0 -74 33 -90 88 -16 52 -15 73 4 100 19 27 25 27 75 2z"/>
 <path d="M7701 2124 c-26 -32 -26 -36 -1 -153 20 -98 19 -111 -6 -111 -25 0 -12 -43 17 -57 19 -9 30 -25 38 -58 11 -44 12 -45 52 -45 l41 0 -7 50 -7 50 36 0 c28 0 36 4 36 18 0 27 -20 42 -56 42 -32 0 -33 1 -48 69 -9 39 -16 88 -16 110 0 39 1 41 31 41 28 0 30 2 27 33 -3 32 -4 32 -59 35 -51 3 -59 0 -78 -24z"/>
 <path d="M8113 2135 c-41 -17 -43 -45 -5 -67 24 -14 30 -14 52 -2 34 18 85 18 104 -2 22 -22 14 -30 -59 -63 -100 -46 -119 -102 -57 -169 45 -48 177 -55 232 -11 l25 19 -24 20 c-20 17 -32 19 -91 14 -42 -4 -70 -3 -74 4 -12 21 7 41 53 57 81 27 113 78 87 139 -22 53 -67 76 -146 76 -36 -1 -80 -7 -97 -15z"/>
 <path d="M8468 2121 c-27 -24 -32 -36 -36 -87 -8 -115 53 -218 140 -235 86 -16 115 -12 156 25 37 34 37 35 36 110 0 65 -4 81 -30 123 -44 72 -82 93 -165 93 -61 0 -72 -3 -101 -29z m142 -56 c54 -28 90 -144 55 -178 -37 -38 -98 -15 -126 46 -26 59 -25 112 3 131 28 20 32 20 68 1z"/>
 <path d="M9028 2137 c-29 -22 -30 -61 -8 -184 28 -146 31 -153 75 -153 41 0 43 7 20 115 -17 81 -19 151 -5 160 14 9 97 -30 108 -52 5 -10 18 -56 27 -103 22 -110 28 -120 70 -120 18 0 36 3 38 8 4 7 -54 283 -66 316 -7 18 -83 23 -89 6 -2 -7 -16 -5 -40 5 -45 18 -107 19 -130 2z"/>
 <path d="M9428 2133 c-28 -32 -29 -59 -8 -159 25 -119 25 -114 -1 -114 -28 0 -22 -41 8 -55 23 -10 43 -51 43 -86 0 -16 8 -19 46 -19 l46 0 -7 50 -7 50 36 0 c37 0 43 10 30 44 -4 11 -19 16 -45 16 -32 0 -39 4 -43 23 -19 89 -26 133 -26 162 0 32 3 35 29 35 29 0 41 14 41 51 0 17 -8 19 -63 19 -48 0 -68 -4 -79 -17z"/>
 <path d="M9855 2128 c-68 -59 -45 -239 39 -303 67 -51 200 -41 236 18 37 60 24 162 -31 243 -22 33 -38 44 -73 53 -75 19 -141 14 -171 -11z m144 -64 c50 -35 78 -146 45 -179 -25 -25 -83 -16 -106 16 -25 33 -37 142 -18 164 16 20 50 19 79 -1z"/>
 <path d="M10606 2129 c-33 -26 -33 -42 -1 -59 21 -11 32 -11 59 -2 43 16 78 15 101 -1 25 -19 14 -32 -56 -63 -33 -15 -67 -37 -75 -48 -32 -47 -1 -138 53 -153 55 -16 150 -9 179 12 34 26 33 36 -3 58 -27 15 -34 16 -64 4 -42 -17 -84 -8 -84 18 0 14 16 25 60 42 71 27 85 43 85 98 0 79 -50 115 -158 115 -55 0 -75 -4 -96 -21z"/>
 <path d="M4760 2123 c0 -10 9 -61 20 -113 11 -52 25 -121 31 -152 l10 -58 46 0 c37 0 44 3 39 16 -5 13 -2 15 11 9 49 -21 90 -34 106 -35 20 0 23 27 5 65 -9 20 -18 25 -46 25 -38 0 -90 27 -96 50 -3 8 -12 53 -22 100 -9 47 -21 91 -27 98 -5 6 -25 12 -43 12 -26 0 -34 -4 -34 -17z"/>
 <path d="M5847 2133 c-2 -5 6 -53 19 -108 28 -120 29 -151 8 -163 -24 -13 -11 -60 18 -64 15 -2 24 -14 32 -41 6 -20 24 -53 39 -72 27 -34 29 -35 103 -35 l76 0 -19 33 c-13 22 -28 33 -48 35 -38 5 -65 29 -65 59 0 19 5 23 31 23 28 0 31 3 25 23 -3 12 -6 25 -6 30 0 4 -10 7 -23 7 -41 0 -54 21 -77 135 -28 138 -32 145 -75 145 -18 0 -36 -3 -38 -7z"/>
 <path d="M6630 2129 c0 -11 57 -281 66 -311 7 -24 84 -26 84 -2 0 9 3 14 8 12 78 -41 124 -47 130 -17 5 27 -36 69 -68 69 -16 0 -36 3 -45 6 -25 10 -52 73 -72 168 l-18 86 -42 0 c-24 0 -43 -5 -43 -11z"/>
 <path d="M8805 2118 c15 -65 75 -342 86 -400 l13 -68 43 0 c24 0 43 3 43 6 0 9 -38 194 -71 343 -16 74 -29 136 -29 138 0 2 -20 3 -45 3 -42 0 -45 -2 -40 -22z"/>
 <path d="M9623 2118 c3 -13 17 -81 32 -153 15 -71 30 -137 34 -145 5 -8 25 -16 46 -18 l38 -3 -7 51 c-8 57 -54 269 -62 282 -3 4 -23 8 -46 8 -37 0 -40 -2 -35 -22z"/>
 <path d="M10210 2018 c15 -68 32 -143 36 -168 9 -44 10 -45 52 -48 34 -3 42 0 42 14 0 15 2 15 28 -2 38 -25 123 -25 151 0 27 25 27 73 1 196 -30 138 -25 130 -74 130 l-43 0 24 -102 c13 -57 22 -116 21 -133 -3 -28 -6 -30 -42 -29 -61 2 -82 32 -109 154 l-22 105 -46 3 -47 3 28 -123z"/>
 <path d="M9710 1717 c0 -53 81 -79 88 -29 5 33 -15 52 -54 52 -29 0 -34 -3 -34 -23z"/>
 <path d="M110 1250 l0 -140 1010 0 1010 0 0 140 0 140 -1010 0 -1010 0 0 -140z"/>
 <path d="M4548 1365 c-185 -47 -307 -166 -374 -365 -27 -81 -27 -449 0 -530 84 -250 236 -365 501 -377 135 -6 229 11 332 62 202 100 291 333 263 696 -19 256 -134 424 -339 495 -93 33 -292 42 -383 19z m273 -227 c123 -42 172 -159 171 -408 0 -235 -38 -332 -148 -386 -50 -25 -62 -26 -147 -22 -55 3 -104 11 -122 21 -65 34 -113 107 -135 207 -15 72 -12 301 6 380 23 104 88 188 163 210 40 13 174 11 212 -2z"/>
 <path d="M9189 1366 c-249 -53 -393 -219 -430 -495 -13 -98 -6 -260 16 -366 34 -162 145 -304 280 -359 182 -73 404 -75 590 -3 64 24 91 42 142 91 35 34 63 66 63 72 0 8 -136 115 -188 147 -9 6 -33 -11 -77 -51 -71 -67 -113 -82 -231 -82 -194 0 -292 98 -315 314 -21 194 13 356 92 435 60 60 109 76 234 76 130 0 161 -12 244 -92 l54 -52 86 60 c137 95 127 82 96 123 -55 72 -168 144 -272 172 -81 21 -301 27 -384 10z"/>
 <path d="M10800 1364 c-84 -18 -166 -50 -210 -83 -63 -47 -132 -119 -125 -131 4 -6 50 -43 102 -81 l95 -70 43 43 c23 24 67 57 96 73 52 29 59 30 180 30 122 0 127 -1 162 -28 46 -35 59 -60 59 -108 -1 -85 -49 -111 -372 -197 -166 -45 -268 -113 -322 -214 -19 -36 -23 -58 -23 -133 1 -77 5 -99 29 -153 71 -156 250 -233 506 -219 117 7 188 25 270 68 75 40 152 113 148 141 -2 13 -31 43 -71 73 -114 87 -105 86 -182 22 -80 -66 -137 -82 -256 -74 -104 7 -149 34 -164 100 -12 49 11 84 78 117 33 16 66 30 74 30 32 0 329 91 380 117 71 36 129 92 156 151 18 40 22 65 22 162 0 105 -3 119 -27 165 -36 70 -111 137 -184 165 -128 48 -330 63 -464 34z"/>
 <path d="M6720 733 l0 -623 143 0 c332 1 518 23 626 73 65 30 161 129 195 201 51 111 58 160 54 380 -4 199 -5 202 -36 281 -41 102 -84 160 -155 209 -113 78 -209 94 -580 98 l-247 3 0 -622z m567 362 c96 -29 142 -86 167 -207 20 -98 20 -208 0 -306 -36 -176 -102 -218 -371 -237 l-93 -7 0 392 0 393 123 -6 c67 -3 145 -13 174 -22z"/>
 <path d="M2860 730 l0 -620 149 0 c82 0 162 3 178 6 31 6 56 48 323 553 25 47 66 124 90 169 l45 84 6 -159 c4 -87 7 -269 8 -405 l1 -248 130 0 130 0 0 620 0 620 -161 -2 -162 -3 -64 -120 c-35 -66 -93 -172 -128 -235 -35 -63 -82 -151 -105 -195 -24 -44 -70 -131 -104 -193 l-61 -113 -3 431 -2 430 -135 0 -135 0 0 -620z"/>
 <path d="M5510 728 l0 -621 296 6 c163 4 326 12 362 18 132 23 221 80 266 171 24 48 26 62 26 188 0 126 -2 140 -26 188 -32 65 -111 137 -175 159 -27 10 -49 21 -49 25 0 4 20 36 45 70 25 35 65 92 90 128 24 36 80 115 124 175 l79 110 -150 3 c-95 2 -155 -1 -163 -8 -7 -6 -64 -83 -126 -171 -63 -88 -136 -189 -162 -225 l-48 -64 -65 0 -64 0 0 235 0 235 -130 0 -130 0 0 -622z m618 -92 c48 -25 65 -66 60 -152 -6 -122 -37 -139 -277 -150 l-141 -7 0 168 0 168 163 -5 c123 -5 172 -10 195 -22z"/>
 <path d="M8110 730 l0 -620 140 0 140 0 0 620 0 620 -140 0 -140 0 0 -620z"/>
 <path d="M11960 845 l0 -505 -200 0 -200 0 0 -115 0 -115 540 0 540 0 0 115 0 115 -205 0 -205 0 0 505 0 505 -135 0 -135 0 0 -505z"/>
 <path d="M12810 730 l0 -620 430 0 430 0 0 115 0 115 -295 0 -295 0 0 130 0 130 245 0 245 0 0 110 0 110 -245 0 -245 0 0 150 0 150 295 0 295 0 0 115 0 115 -430 0 -430 0 0 -620z"/>
 <path d="M13900 736 l0 -613 68 -6 c37 -4 230 -7 430 -7 l362 0 0 115 0 115 -295 0 -295 0 0 130 0 130 250 0 250 0 0 110 0 110 -250 0 -250 0 0 150 0 150 295 0 295 0 0 115 0 115 -430 0 -430 0 0 -614z"/>
 <path d="M15000 730 l0 -620 135 0 135 0 0 505 0 505 275 0 275 0 0 115 0 115 -410 0 -410 0 0 -620z"/>
 <path d="M110 730 l0 -140 1010 0 1010 0 0 140 0 140 -1010 0 -1010 0 0 -140z"/>
 <path d="M110 220 l0 -140 1010 0 1010 0 0 140 0 140 -1010 0 -1010 0 0 -140z"/>
 </g>
<g id="layer102" fill="#ffffff" stroke="none">
 <path d="M3944 2238 c8 -46 12 -66 42 -208 32 -157 33 -158 40 -197 5 -29 10 -33 38 -33 18 0 37 5 42 10 7 7 26 5 58 -6 39 -14 54 -14 90 -4 35 9 45 18 55 46 14 38 13 124 -1 164 -15 42 -59 99 -93 120 -36 22 -104 27 -137 9 -26 -14 -32 -5 -48 72 l-13 59 -39 0 c-39 0 -39 0 -34 -32z m238 -185 c25 -28 41 -63 52 -116 13 -57 -64 -94 -113 -54 -20 17 -39 66 -46 119 -6 40 -4 48 17 62 33 23 61 20 90 -11z"/>
 <path d="M6233 2257 c-28 -12 -29 -28 -5 -57 17 -21 22 -22 52 -12 56 20 105 15 139 -14 17 -14 31 -35 31 -46 0 -18 -2 -19 -16 -7 -10 8 -42 14 -79 14 -87 0 -103 -18 -103 -118 0 -147 89 -242 206 -221 20 4 42 10 47 15 6 4 17 4 25 -1 22 -14 60 -12 66 3 3 8 -4 55 -16 106 -11 50 -23 109 -26 129 -3 20 -10 45 -15 55 -5 9 -8 17 -5 17 3 0 -2 16 -10 35 -8 19 -11 35 -7 35 15 0 -52 60 -77 68 -36 13 -179 12 -207 -1z m187 -198 c20 -6 42 -19 48 -29 10 -16 23 -80 26 -124 1 -27 -37 -45 -77 -37 -61 13 -108 153 -62 187 23 17 19 17 65 3z"/>
 <path d="M4417 2139 c-24 -14 -47 -69 -47 -113 0 -36 28 -132 45 -154 53 -70 109 -91 192 -72 29 6 58 8 63 5 14 -8 62 3 56 13 -2 4 -7 29 -10 56 -4 27 -9 52 -11 56 -2 4 -6 19 -9 35 -15 82 -29 142 -37 158 -12 21 -64 23 -72 3 -5 -12 -12 -11 -44 5 -41 21 -98 24 -126 8z m144 -83 c27 -19 39 -36 48 -70 19 -79 15 -103 -20 -115 -24 -8 -38 -8 -57 2 -56 28 -97 172 -55 196 28 16 45 13 84 -13z"/>
 <path d="M5079 2132 c-24 -20 -29 -58 -16 -122 4 -19 10 -53 13 -75 3 -22 7 -46 10 -53 2 -8 -4 -16 -15 -19 -16 -4 -19 -17 -12 -55 0 -4 11 -8 23 -10 16 -2 26 -13 33 -38 15 -52 23 -60 60 -60 37 0 37 -1 20 83 -2 14 4 17 36 17 41 0 42 2 33 38 -5 18 -13 22 -45 22 -42 0 -45 5 -70 132 -13 67 -8 88 23 88 39 0 50 13 39 43 -9 24 -16 27 -60 27 -33 0 -56 -6 -72 -18z"/>
 <path d="M5514 2131 c-37 -23 -52 -59 -49 -121 4 -116 57 -191 150 -210 77 -16 123 -8 152 27 68 83 21 258 -82 307 -46 22 -132 21 -171 -3z m130 -62 c50 -23 88 -142 57 -180 -48 -59 -137 1 -148 99 -4 42 -2 53 16 71 24 24 39 26 75 10z"/>
 <path d="M6983 2143 c-12 -2 -34 -18 -49 -36 -24 -29 -26 -37 -22 -104 8 -128 75 -204 180 -206 79 -1 98 5 120 36 26 36 31 133 8 147 -8 5 -61 10 -117 10 l-103 0 0 35 c0 51 33 64 101 43 49 -16 50 -16 65 6 8 13 12 30 9 38 -11 29 -116 46 -192 31z m167 -242 c0 -50 -70 -58 -114 -12 -33 34 -26 39 57 40 56 1 57 1 57 -28z"/>
 <path d="M7308 2118 c-29 -32 -30 -35 -25 -103 10 -141 93 -234 196 -221 24 3 50 11 57 16 7 6 15 7 17 3 3 -5 19 -10 36 -11 22 -2 33 3 38 15 5 13 -9 106 -31 198 -2 6 -6 28 -10 50 -14 73 -15 75 -51 75 -18 0 -35 -6 -38 -12 -3 -10 -13 -9 -41 5 -20 9 -55 17 -77 17 -33 0 -47 -6 -71 -32z m145 -51 c45 -19 57 -37 71 -106 14 -68 12 -75 -28 -90 -40 -16 -76 5 -103 59 -27 52 -30 106 -6 132 19 22 24 22 66 5z"/>
 <path d="M7719 2137 c-23 -18 -41 -55 -35 -75 3 -9 8 -30 11 -47 2 -16 7 -41 10 -55 17 -82 18 -100 2 -100 -8 0 -17 -6 -20 -13 -6 -15 15 -47 32 -47 12 0 26 -28 36 -73 5 -26 9 -28 43 -25 39 3 43 14 31 73 -3 16 2 21 29 23 63 6 46 62 -19 62 -18 0 -30 6 -33 18 -11 36 -34 187 -30 194 3 4 19 8 35 8 28 0 30 2 27 33 -3 31 -4 32 -53 34 -28 2 -57 -2 -66 -10z"/>
 <path d="M8113 2130 c-18 -11 -33 -23 -33 -27 0 -4 12 -18 26 -30 24 -20 28 -21 47 -8 40 28 127 13 127 -21 0 -8 -12 -19 -27 -25 -118 -44 -154 -83 -129 -141 23 -55 49 -75 108 -82 64 -7 124 6 151 32 20 20 19 20 -12 36 -24 13 -42 15 -85 8 -30 -5 -60 -6 -66 -2 -25 16 -4 44 48 65 29 12 62 31 73 42 45 44 13 137 -55 162 -48 18 -137 13 -173 -9z"/>
 <path d="M8493 2140 c-34 -14 -63 -69 -63 -116 0 -60 28 -139 64 -180 27 -31 39 -37 102 -46 81 -13 113 -3 148 45 32 44 28 137 -9 206 -40 73 -74 95 -155 98 -36 2 -75 -2 -87 -7z m140 -94 c70 -70 59 -189 -18 -181 -99 11 -136 215 -39 215 13 0 38 -15 57 -34z"/>
 <path d="M9029 2131 c-19 -16 -23 -27 -22 -72 1 -30 9 -83 17 -119 8 -36 17 -78 20 -94 6 -35 21 -46 59 -44 34 3 33 -3 1 158 -9 40 -9 94 0 108 12 20 40 14 83 -17 38 -27 41 -34 57 -116 25 -125 30 -135 65 -135 16 0 33 4 36 10 3 5 1 36 -5 67 -6 32 -13 69 -16 83 -2 14 -12 59 -22 100 l-17 75 -39 3 c-23 2 -42 -2 -47 -9 -5 -9 -15 -8 -42 4 -46 22 -99 21 -128 -2z"/>
 <path d="M9437 2138 c-9 -7 -20 -24 -25 -38 -8 -23 -6 -43 24 -202 5 -31 4 -38 -9 -38 -9 0 -19 -4 -22 -10 -8 -14 13 -50 30 -50 18 0 28 -16 35 -60 5 -33 7 -35 45 -35 l40 0 -3 48 c-4 46 -3 47 27 47 35 0 42 8 34 38 -4 16 -14 22 -46 24 l-41 3 -13 70 c-8 39 -15 87 -17 107 -3 35 -1 37 28 40 27 3 31 7 34 36 l3 32 -53 0 c-30 0 -62 -6 -71 -12z"/>
 <path d="M9873 2140 c-59 -25 -73 -153 -28 -245 35 -73 79 -100 161 -100 34 0 73 6 87 14 57 30 73 130 35 220 -20 47 -47 86 -63 90 -5 1 -16 7 -23 13 -17 14 -141 20 -169 8z m121 -72 c33 -14 66 -83 66 -136 0 -35 -4 -44 -28 -56 -33 -17 -53 -16 -77 4 -43 36 -66 136 -40 176 17 26 41 30 79 12z"/>
 <path d="M10630 2143 c-23 -9 -50 -35 -50 -48 0 -21 55 -38 78 -26 45 24 136 2 118 -28 -4 -6 -37 -26 -73 -42 -39 -19 -69 -40 -75 -54 -15 -33 -2 -88 26 -114 47 -44 170 -50 219 -11 19 15 20 20 7 34 -26 32 -47 37 -82 20 -26 -12 -39 -13 -61 -5 -45 17 -31 42 38 70 70 28 84 43 85 94 0 45 -22 82 -61 103 -27 14 -138 18 -169 7z"/>
 <path d="M4760 2127 c0 -7 11 -66 25 -132 14 -66 28 -133 31 -149 7 -42 9 -43 54 -43 31 0 40 3 36 13 -7 18 4 18 42 -2 46 -22 85 -23 90 -1 6 31 -25 67 -59 67 -16 0 -43 7 -59 15 -27 14 -35 27 -45 74 -3 12 -7 31 -10 44 -3 12 -8 38 -11 57 -10 57 -21 70 -59 70 -22 0 -35 -5 -35 -13z"/>
 <path d="M5853 2103 c6 -39 7 -46 32 -162 13 -62 12 -67 -6 -84 -28 -26 -21 -51 16 -58 13 -3 25 -21 38 -54 27 -75 51 -91 135 -94 l71 -2 -14 27 c-16 32 -33 44 -62 44 -29 0 -53 26 -53 56 0 20 5 24 31 24 24 0 30 3 25 16 -3 9 -6 22 -6 30 0 9 -11 14 -29 14 -40 0 -52 20 -68 112 -2 15 -12 58 -21 95 l-17 68 -39 3 -39 3 6 -38z"/>
 <path d="M6634 2113 c4 -16 9 -41 12 -58 2 -16 7 -38 10 -47 3 -9 7 -27 9 -40 3 -13 12 -56 21 -96 l16 -73 36 3 c27 2 37 7 36 19 -1 14 6 13 52 -8 63 -29 99 -24 88 10 -11 38 -35 57 -71 57 -36 0 -68 25 -83 66 -12 29 -43 163 -43 182 0 8 -16 12 -44 12 -43 0 -44 -1 -39 -27z"/>
 <path d="M8805 2123 c4 -10 9 -29 11 -43 3 -14 18 -85 35 -158 16 -73 32 -149 35 -169 3 -20 10 -48 16 -62 5 -14 9 -28 9 -31 -1 -3 17 -6 39 -8 22 -2 40 -1 40 1 0 2 -9 48 -21 103 -11 54 -23 110 -25 124 -3 14 -7 33 -10 42 -3 10 -7 30 -10 45 -2 16 -12 61 -20 101 l-16 72 -45 0 c-39 0 -44 -2 -38 -17z"/>
 <path d="M9623 2123 c3 -10 17 -76 32 -148 36 -173 37 -175 80 -175 39 0 40 2 24 81 -6 30 -12 65 -15 79 -2 14 -7 31 -10 39 -2 8 -7 28 -10 45 -13 84 -17 91 -63 94 -37 3 -42 1 -38 -15z"/>
 <path d="M10194 2108 c4 -18 9 -40 11 -48 1 -8 13 -64 25 -125 12 -60 27 -116 32 -122 14 -18 67 -16 74 1 5 12 12 11 47 -5 51 -23 79 -24 117 -4 49 25 50 62 9 243 l-21 92 -39 0 c-43 0 -43 1 -26 -75 19 -81 28 -145 25 -170 -3 -27 -6 -30 -33 -26 -71 8 -102 49 -120 156 -3 22 -11 57 -16 78 -9 35 -12 37 -51 37 -40 0 -40 0 -34 -32z"/>
 <path d="M9717 1733 c-12 -11 -8 -40 7 -52 8 -7 27 -13 42 -14 23 -2 30 3 32 21 2 13 -2 30 -8 38 -13 14 -61 19 -73 7z"/>
 <path d="M110 1250 l0 -140 1010 0 1010 0 0 140 0 140 -1010 0 -1010 0 0 -140z"/>
 <path d="M4542 1360 c-143 -38 -257 -123 -310 -233 -71 -145 -76 -168 -76 -392 0 -222 12 -285 85 -412 30 -53 121 -143 168 -167 25 -13 109 -40 162 -52 44 -10 211 -13 258 -4 91 16 107 21 171 52 66 31 180 134 180 162 0 8 4 16 8 18 13 5 51 101 66 169 20 85 20 383 0 468 -45 193 -173 335 -344 381 -74 20 -81 21 -190 25 -81 3 -122 -1 -178 -15z m293 -224 c55 -23 112 -90 131 -154 25 -86 28 -116 28 -252 0 -135 -9 -217 -26 -237 -6 -7 -8 -13 -4 -13 4 0 -1 -15 -10 -33 -24 -47 -93 -106 -137 -118 -46 -12 -180 -10 -222 4 -49 16 -111 84 -134 146 -51 135 -44 440 12 541 25 46 100 117 129 123 56 11 200 6 233 -7z"/>
 <path d="M9220 1370 c-175 -29 -328 -135 -394 -273 -50 -104 -68 -185 -70 -312 -3 -294 53 -459 196 -575 90 -73 210 -110 368 -115 159 -5 313 29 411 91 35 22 119 110 119 124 0 5 -15 17 -32 29 -18 11 -46 31 -63 43 -16 13 -47 36 -67 51 l-37 28 -53 -51 c-84 -81 -95 -85 -238 -85 -118 0 -127 1 -170 27 -124 74 -162 174 -155 413 4 146 19 203 73 280 58 82 198 123 346 101 50 -8 138 -63 180 -113 l27 -32 102 71 c56 40 104 73 107 75 4 4 -109 115 -141 138 -42 30 -142 68 -209 80 -57 10 -251 13 -300 5z"/>
 <path d="M10869 1376 c-2 -2 -17 -6 -34 -9 -57 -10 -120 -27 -170 -46 -50 -19 -164 -108 -191 -148 -16 -25 -15 -26 135 -134 l54 -39 33 38 c17 20 58 53 90 72 l58 35 126 0 c105 0 133 -3 161 -19 50 -27 82 -76 76 -119 -10 -78 -34 -95 -210 -148 -73 -22 -169 -51 -214 -65 -158 -49 -263 -136 -290 -244 -7 -25 -7 -133 0 -170 15 -84 85 -178 162 -218 101 -52 169 -66 315 -67 132 0 205 14 299 57 63 29 171 122 171 147 0 7 -14 26 -30 41 -35 33 -146 110 -157 110 -5 0 -30 -21 -56 -45 -75 -70 -98 -79 -215 -82 -117 -3 -162 10 -199 55 -16 18 -23 40 -23 69 0 52 31 80 116 107 32 10 68 22 79 27 18 7 61 18 93 25 7 1 46 12 85 24 40 12 79 24 87 25 46 10 141 69 181 112 62 66 74 105 74 238 -1 99 -3 115 -27 161 -48 93 -138 155 -272 190 -54 14 -297 30 -307 20z"/>
 <path d="M2860 733 l0 -618 88 -2 c48 -2 128 0 178 3 l91 6 31 61 c18 34 50 96 73 137 108 199 182 338 241 450 12 25 25 47 28 50 3 3 16 28 30 55 l24 50 7 -90 c4 -49 7 -233 8 -407 l1 -318 130 0 130 0 0 620 0 620 -161 -2 -160 -3 -46 -85 c-25 -47 -62 -116 -83 -155 -21 -38 -63 -117 -94 -175 -30 -58 -60 -112 -65 -120 -6 -8 -23 -40 -39 -70 -16 -30 -48 -91 -72 -135 -24 -44 -49 -91 -57 -105 -11 -21 -13 44 -13 413 l0 437 -135 0 -135 0 0 -617z"/>
 <path d="M5510 729 l0 -620 288 6 c158 3 317 10 353 15 98 14 172 46 224 98 73 71 84 105 84 258 0 116 -3 136 -23 180 -44 92 -102 143 -214 185 l-23 9 23 32 c69 94 122 168 153 213 46 67 125 177 153 214 l23 31 -155 0 -155 0 -33 -44 c-18 -25 -49 -67 -68 -95 -19 -28 -58 -81 -85 -118 -52 -70 -96 -134 -128 -184 -18 -27 -23 -29 -88 -29 l-69 0 0 235 0 235 -130 0 -130 0 0 -621z m518 -75 c83 -5 97 -9 124 -33 26 -23 31 -36 37 -91 8 -87 4 -114 -23 -143 -33 -36 -81 -46 -248 -54 l-148 -6 0 170 0 170 83 -4 c45 -2 124 -6 175 -9z"/>
 <path d="M6720 730 l0 -622 253 7 c249 6 358 15 427 36 98 29 201 101 241 167 13 20 26 39 29 42 11 8 42 92 56 150 18 76 13 426 -8 490 -42 129 -118 229 -207 275 -25 12 -77 33 -116 45 -65 21 -93 23 -372 28 l-303 4 0 -622z m542 375 c36 -8 105 -41 123 -59 55 -54 84 -162 84 -309 0 -194 -41 -300 -130 -344 -56 -28 -113 -39 -246 -48 l-103 -7 0 393 0 394 119 -7 c66 -3 134 -9 153 -13z"/>
 <path d="M8110 730 l0 -620 140 0 140 0 0 620 0 620 -140 0 -140 0 0 -620z"/>
 <path d="M11960 845 l0 -505 -200 0 -200 0 0 -115 0 -115 540 0 540 0 0 115 0 115 -205 0 -205 0 0 505 0 505 -135 0 -135 0 0 -505z"/>
 <path d="M12810 730 l0 -620 430 0 430 0 0 115 0 115 -295 0 -295 0 0 130 0 130 245 0 245 0 0 110 0 110 -245 0 -245 0 0 150 0 150 295 0 295 0 0 115 0 115 -430 0 -430 0 0 -620z"/>
 <path d="M13902 741 c2 -335 7 -613 11 -617 4 -5 197 -9 427 -10 l420 -1 0 113 0 114 -295 0 -295 0 0 130 0 130 250 0 250 0 0 110 0 110 -250 0 -250 0 0 150 0 150 295 0 295 0 0 115 0 115 -430 0 -431 0 3 -609z"/>
 <path d="M15000 730 l0 -620 135 0 135 0 0 505 0 505 275 0 275 0 0 115 0 115 -410 0 -410 0 0 -620z"/>
 <path d="M110 730 l0 -140 1010 0 1010 0 0 140 0 140 -1010 0 -1010 0 0 -140z"/>
 <path d="M110 220 l0 -140 1010 0 1010 0 0 140 0 140 -1010 0 -1010 0 0 -140z"/>
 </g>

</svg>