<!DOCTYPE svg PUBLIC "-//W3C//DTD SVG 20010904//EN" "http://www.w3.org/TR/2001/REC-SVG-20010904/DTD/svg10.dtd">
<svg version="1.0" xmlns="http://www.w3.org/2000/svg" width="1600px" height="791px" viewBox="0 0 16000 7910" preserveAspectRatio="xMidYMid meet">
<g id="layer101" fill="#ffffff" stroke="none">
 <path d="M1124 7876 c-218 -53 -339 -308 -293 -619 27 -186 123 -319 264 -365 82 -28 137 -28 219 -1 169 56 276 245 276 489 0 259 -117 451 -302 495 -74 17 -96 17 -164 1z m159 -122 c33 -11 62 -32 97 -71 66 -72 93 -157 94 -293 2 -240 -95 -388 -258 -398 -52 -3 -69 1 -116 25 -96 49 -141 132 -160 296 -17 140 10 271 71 351 74 96 165 126 272 90z"/>
 <path d="M2741 7879 c-133 -22 -230 -131 -247 -275 -6 -48 -5 -54 12 -54 11 0 36 -3 57 -6 36 -6 37 -6 37 23 0 16 12 54 28 84 22 45 36 58 82 82 49 26 63 28 131 25 60 -2 83 -8 111 -28 44 -30 68 -77 68 -133 -1 -86 -31 -110 -224 -175 -169 -58 -208 -83 -249 -163 -26 -48 -28 -62 -24 -129 4 -83 26 -138 74 -181 126 -118 362 -98 457 39 23 34 65 167 55 176 -2 2 -27 6 -56 10 l-51 6 -7 -40 c-24 -141 -215 -201 -327 -102 -39 36 -50 108 -24 157 21 38 57 57 196 100 125 38 177 63 219 106 55 55 66 84 66 189 0 87 -2 99 -29 145 -55 93 -109 130 -212 145 -77 11 -70 11 -143 -1z"/>
 <path d="M4600 7876 c-70 -15 -117 -44 -174 -107 -87 -97 -125 -212 -126 -381 0 -246 82 -414 239 -486 82 -38 203 -38 283 0 109 51 190 159 225 303 21 82 21 262 0 348 -43 175 -150 294 -291 324 -72 15 -84 15 -156 -1z m145 -117 c132 -33 213 -195 203 -406 -8 -165 -50 -260 -146 -327 -32 -23 -56 -31 -101 -34 -73 -5 -116 8 -170 54 -56 49 -87 105 -105 196 -40 196 0 382 102 467 66 56 132 71 217 50z"/>
 <path d="M40 7380 l0 -490 58 0 c56 0 59 1 75 33 9 17 40 75 69 127 29 53 114 207 188 343 l135 248 3 -376 2 -375 55 0 55 0 0 490 0 490 -59 0 -59 0 -48 -87 c-75 -140 -104 -193 -149 -273 -23 -41 -61 -111 -85 -155 -24 -44 -53 -98 -65 -120 -13 -22 -33 -58 -44 -80 l-21 -40 0 378 0 377 -55 0 -55 0 0 -490z"/>
 <path d="M1720 7380 l0 -490 210 0 c240 0 296 9 347 53 104 91 114 305 20 405 -25 28 -108 72 -134 72 -12 0 -8 9 18 33 49 45 85 100 173 270 l78 148 -73 -3 -72 -3 -71 -135 c-94 -180 -118 -219 -156 -255 -30 -29 -36 -30 -131 -33 l-99 -4 0 216 0 216 -55 0 -55 0 0 -490z m456 -86 c52 -39 69 -70 69 -133 0 -45 -6 -66 -25 -94 -38 -55 -58 -61 -232 -65 l-158 -4 0 162 0 162 159 -3 c142 -4 163 -6 187 -25z"/>
 <path d="M3270 7380 l0 -490 55 0 55 0 2 234 3 234 112 -136 c61 -75 146 -181 190 -234 l78 -97 78 0 78 -1 -28 34 c-61 73 -181 215 -240 283 -35 40 -63 76 -63 81 0 4 43 79 96 167 53 88 104 172 113 187 9 15 42 71 74 123 31 52 57 97 57 100 0 3 -33 5 -72 5 l-73 -1 -65 -116 c-36 -64 -95 -166 -131 -227 -36 -61 -68 -120 -72 -130 -5 -11 -11 -15 -16 -10 -5 5 -34 39 -65 76 l-56 67 0 171 0 170 -55 0 -55 0 0 -490z"/>
 <path d="M5420 7865 c0 -3 -25 -86 -56 -183 -31 -97 -76 -238 -99 -312 -24 -74 -67 -213 -98 -307 l-54 -173 61 0 62 0 26 93 c14 50 49 171 78 267 28 96 70 238 92 315 21 77 42 147 45 155 3 8 18 -30 34 -85 15 -55 73 -244 127 -420 l99 -320 56 -3 c32 -2 57 0 57 3 0 4 -11 39 -24 78 -13 40 -52 160 -86 267 -34 107 -73 227 -85 265 -13 39 -44 136 -70 218 l-47 147 -59 0 c-32 0 -59 -2 -59 -5z"/>
 <path d="M5940 7380 l0 -490 290 0 290 0 0 60 0 60 -235 0 -235 0 0 145 0 145 220 0 220 0 0 60 0 60 -220 0 -220 0 0 165 0 165 245 0 245 0 0 60 0 60 -300 0 -300 0 0 -490z"/>
 <path d="M6680 7380 l0 -490 215 0 c250 0 299 8 350 55 57 54 79 115 79 215 0 74 -4 92 -28 135 -32 59 -85 102 -142 117 l-41 11 38 34 c46 42 76 88 172 271 l75 142 -72 0 -71 0 -30 -58 c-189 -364 -197 -372 -337 -372 l-88 0 0 215 0 215 -60 0 -60 0 0 -490z m459 -85 c52 -31 73 -78 69 -154 -4 -57 -8 -67 -36 -92 -44 -40 -89 -49 -239 -49 l-133 0 0 161 0 161 153 -3 c130 -4 157 -7 186 -24z"/>
 <path d="M7500 7380 l0 -490 270 0 270 0 0 60 0 60 -215 0 -215 0 0 150 0 150 185 0 185 0 0 60 0 60 -185 0 -185 0 0 220 0 220 -55 0 -55 0 0 -490z"/>
 <path d="M8160 7380 l0 -490 60 0 60 0 0 430 0 430 195 0 195 0 0 60 0 60 -255 0 -255 0 0 -490z"/>
 <path d="M8714 7843 c4 -16 34 -113 67 -218 34 -104 82 -257 109 -340 26 -82 65 -205 85 -273 l39 -123 60 3 61 3 162 480 c89 264 162 483 162 488 1 4 -27 7 -62 7 l-64 0 -47 -150 -47 -150 -164 0 -164 0 -11 40 c-6 22 -24 84 -40 136 -17 53 -30 103 -30 110 0 10 -16 14 -61 14 l-61 0 6 -27z m486 -394 c0 -6 -27 -97 -59 -202 -33 -106 -61 -201 -63 -212 -3 -12 -9 2 -17 35 -8 30 -36 126 -62 214 -27 87 -49 162 -49 167 0 5 56 9 125 9 84 0 125 -4 125 -11z"/>
 <path d="M9740 7440 l0 -430 -130 0 -130 0 0 -60 0 -60 320 0 320 0 0 60 0 60 -135 0 -135 0 0 430 0 430 -55 0 -55 0 0 -430z"/>
 <path d="M10220 7380 l0 -490 295 0 295 0 0 60 0 60 -240 0 -240 0 0 145 0 145 225 0 225 0 0 60 0 60 -225 0 -225 0 0 165 0 165 250 0 250 0 0 60 0 60 -305 0 -305 0 0 -490z"/>
 <path d="M11480 7440 l0 -430 -130 0 -130 0 0 -60 0 -60 320 0 320 0 0 60 0 60 -135 0 -135 0 0 430 0 430 -55 0 -55 0 0 -430z"/>
 <path d="M11960 7380 l0 -490 290 0 290 0 0 60 0 60 -235 0 -235 0 0 145 0 145 225 0 225 0 0 60 0 60 -225 0 -225 0 0 165 0 165 245 0 245 0 0 60 0 60 -300 0 -300 0 0 -490z"/>
 <path d="M12700 7380 l0 -490 55 0 55 0 2 235 3 235 110 -132 c61 -73 147 -179 193 -235 l83 -103 76 0 c70 0 75 1 62 18 -13 16 -119 142 -224 266 -28 32 -60 71 -73 87 l-23 28 102 168 c56 92 109 182 119 198 20 36 97 161 118 193 l14 22 -75 0 -76 0 -72 -127 c-40 -71 -80 -139 -89 -153 -9 -14 -31 -50 -47 -80 -53 -96 -68 -120 -75 -120 -4 0 -35 33 -68 73 l-60 72 0 168 0 167 -55 0 -55 0 0 -490z"/>
 <path d="M13440 7380 l0 -490 60 0 59 0 37 68 c20 37 58 105 84 152 27 47 68 121 92 165 23 44 77 142 118 218 l75 138 3 -370 2 -371 55 0 55 0 0 490 0 490 -57 0 -58 0 -52 -98 c-63 -116 -122 -225 -167 -307 -19 -33 -48 -87 -66 -120 -18 -33 -45 -82 -60 -110 -15 -27 -37 -68 -49 -90 l-21 -40 0 383 0 382 -55 0 -55 0 0 -490z"/>
 <path d="M14280 7380 l0 -490 55 0 55 0 0 490 0 490 -55 0 -55 0 0 -490z"/>
 <path d="M14560 7380 l0 -490 55 0 55 0 2 237 3 237 85 -105 c47 -57 134 -164 195 -236 l110 -133 72 0 c40 0 73 2 73 5 0 3 -28 38 -62 78 -35 40 -87 101 -115 135 -29 34 -76 88 -103 121 l-51 59 112 183 c61 101 119 198 129 214 9 17 36 62 60 100 23 39 44 73 47 78 2 4 -29 7 -70 7 l-74 0 -37 -64 c-20 -35 -45 -77 -54 -94 -83 -148 -187 -322 -192 -322 -4 0 -35 33 -69 74 l-61 74 0 166 0 166 -55 0 -55 0 0 -490z"/>
 <path d="M15310 7380 l0 -490 55 0 55 0 2 234 3 234 112 -136 c61 -75 146 -181 190 -234 l78 -97 79 0 79 -1 -19 23 c-11 12 -55 63 -96 112 -42 50 -108 127 -147 173 -39 45 -71 86 -71 90 0 4 43 79 96 167 53 88 130 215 170 282 41 68 74 125 74 128 0 3 -33 5 -72 5 l-73 -1 -120 -210 c-66 -116 -128 -225 -138 -243 -9 -17 -21 -29 -25 -27 -4 2 -33 35 -64 72 l-58 69 0 170 0 170 -55 0 -55 0 0 -490z"/>
 <path d="M7290 6349 c-412 -81 -829 -256 -1140 -478 -25 -17 -69 -48 -99 -69 l-54 -37 6 -1175 c8 -1437 26 -3363 35 -3714 l7 -259 150 -109 c251 -182 610 -344 972 -439 l113 -29 732 0 c1251 0 1369 13 1866 206 174 67 350 159 449 233 97 72 279 251 371 364 225 276 428 614 597 997 75 168 120 387 157 764 19 187 22 282 22 621 0 357 -2 419 -22 574 -38 294 -78 477 -157 715 -149 454 -353 794 -660 1101 -249 249 -512 425 -875 585 -194 86 -318 122 -493 145 -91 12 -274 15 -1021 14 -501 -1 -931 -5 -956 -10z m3551 -1489 c71 -140 140 -284 155 -320 53 -131 104 -265 104 -272 0 -11 -1199 -9 -1373 2 -225 15 -256 27 -281 110 -8 26 -21 61 -29 77 -66 127 -315 333 -561 463 -198 106 -348 136 -636 127 -360 -11 -587 -81 -811 -253 -104 -79 -179 -161 -263 -289 -90 -136 -141 -187 -214 -217 -54 -22 -72 -23 -369 -26 l-313 -3 0 430 0 431 2231 -2 2232 -3 128 -255z m-2311 -113 c179 -46 323 -129 450 -258 269 -272 373 -628 374 -1279 0 -433 -57 -736 -190 -1003 -55 -111 -91 -162 -171 -247 -147 -157 -313 -248 -535 -295 -115 -25 -354 -22 -465 5 -291 71 -579 310 -697 579 -145 328 -180 1175 -70 1675 53 239 125 378 273 527 166 165 324 252 561 305 140 32 327 28 470 -9z m-1808 -2437 c193 -15 221 -35 362 -272 93 -156 161 -239 270 -327 204 -164 394 -261 631 -321 77 -20 114 -23 265 -23 163 1 183 3 285 31 143 39 177 52 310 119 280 143 457 306 589 546 21 37 59 109 86 160 l48 92 443 3 c436 3 827 -9 962 -28 37 -6 86 -19 108 -31 39 -20 41 -22 34 -57 -21 -115 -192 -497 -323 -723 -90 -156 -262 -406 -324 -470 -7 -8 -48 -56 -91 -107 l-78 -92 -2025 0 -2024 0 0 755 0 755 178 0 c97 0 230 -5 294 -10z"/>
 <path d="M0 3212 l0 -3132 963 0 962 0 32 48 c17 26 84 124 148 217 64 94 177 260 251 370 75 110 177 261 228 335 138 202 316 465 619 913 57 83 137 202 178 262 88 128 274 402 403 594 l91 133 7 -248 c3 -137 14 -494 22 -794 9 -300 23 -770 31 -1045 8 -275 18 -566 21 -648 l7 -147 983 0 984 0 0 3129 0 3128 -57 6 c-67 7 -1792 -1 -1870 -9 l-51 -5 -189 -282 c-104 -155 -277 -412 -384 -572 -108 -159 -321 -477 -474 -705 -153 -228 -311 -462 -350 -520 -39 -58 -185 -275 -324 -483 -139 -208 -255 -376 -258 -373 -3 2 -9 316 -13 698 -12 887 -32 2243 -33 2245 -1 1 -435 5 -964 9 l-963 7 0 -3131z m1680 1478 l0 -430 -715 0 -715 0 0 430 0 430 715 0 715 0 0 -430z m4000 -1 l0 -431 -1277 6 c-1180 5 -1400 10 -1418 28 -13 13 67 146 397 658 30 47 67 104 81 128 l27 42 1095 0 1095 0 0 -431z m-2910 -2389 c124 -6 233 -13 242 -16 15 -4 16 -9 7 -27 -44 -84 -236 -381 -561 -868 l-378 -566 -233 -6 c-127 -4 -539 -7 -914 -7 l-683 0 0 757 0 756 1148 -6 c631 -4 1248 -12 1372 -17z m2910 -735 l0 -755 -715 0 -715 0 0 755 0 755 715 0 715 0 0 -755z"/>
 <path d="M12080 4055 l0 -2285 -361 0 -360 0 -37 -83 c-107 -244 -231 -454 -403 -682 -97 -130 -136 -173 -298 -336 -180 -180 -358 -324 -513 -413 l-48 -28 0 -74 0 -74 2970 0 2970 0 0 845 0 845 -915 0 -915 0 0 2278 0 2279 -682 6 c-376 4 -846 7 -1045 7 l-363 0 0 -2285z m1840 635 l0 -430 -795 0 -795 0 0 430 0 430 795 0 795 0 0 -430z m0 -2770 l0 -400 920 0 920 0 0 -355 0 -355 -1777 1 c-978 1 -2042 5 -2365 8 l-587 6 59 92 c71 111 156 258 235 408 101 189 113 209 132 216 10 4 142 8 294 8 152 1 344 4 427 8 l152 6 0 379 0 378 795 0 795 0 0 -400z"/>
 </g>

</svg>