<!DOCTYPE svg PUBLIC "-//W3C//DTD SVG 20010904//EN" "http://www.w3.org/TR/2001/REC-SVG-20010904/DTD/svg10.dtd">
<svg version="1.0" xmlns="http://www.w3.org/2000/svg" width="673px" height="320px" viewBox="0 0 6730 3200" preserveAspectRatio="xMidYMid meet">
<g id="layer101" fill="#ffffff" stroke="none">
 <path d="M0 2940 l0 -260 3365 0 3365 0 0 260 0 260 -3365 0 -3365 0 0 -260z"/>
 <path d="M0 2310 l0 -260 3365 0 3365 0 0 260 0 260 -3365 0 -3365 0 0 -260z"/>
 <path d="M305 1859 c-112 -17 -260 -74 -272 -104 -6 -17 46 -305 57 -318 4 -5 39 7 77 27 124 62 279 85 356 52 95 -41 134 -154 86 -254 -26 -53 -72 -88 -199 -152 -225 -113 -326 -235 -361 -436 -23 -131 9 -291 79 -400 91 -141 239 -214 430 -214 139 0 332 59 332 101 0 21 -59 301 -64 307 -2 2 -27 -8 -55 -22 -120 -61 -268 -71 -340 -23 -92 61 -94 192 -4 266 18 15 89 58 157 95 155 85 222 138 275 216 61 92 85 181 86 315 0 61 -6 135 -14 165 -45 185 -173 320 -344 364 -76 20 -208 27 -282 15z"/>
 <path d="M1330 1857 c-144 -40 -227 -166 -237 -357 -6 -113 7 -187 48 -269 71 -141 256 -240 452 -241 l57 0 0 -34 c0 -43 -36 -96 -80 -118 -68 -34 -204 -13 -309 47 -24 14 -45 24 -47 23 -4 -5 -54 -229 -54 -244 0 -21 66 -60 150 -91 67 -24 89 -26 215 -27 131 -1 144 1 196 25 75 36 130 86 167 156 63 121 64 128 72 598 5 237 11 449 15 473 l8 42 -141 0 c-136 0 -140 -1 -146 -22 -3 -13 -6 -35 -6 -50 0 -42 -13 -41 -60 7 -24 24 -64 53 -89 64 -61 26 -154 34 -211 18z m228 -291 c34 -18 65 -51 86 -93 12 -23 16 -60 16 -134 l0 -101 -47 6 c-84 12 -140 36 -172 72 -106 120 -14 318 117 250z"/>
 <path d="M3020 1859 c-98 -19 -182 -102 -215 -212 -23 -76 -35 -259 -35 -539 l0 -248 -60 0 -60 0 0 -145 0 -145 60 0 59 0 3 -121 3 -121 150 -54 c82 -30 151 -54 152 -54 2 0 3 79 3 175 l0 175 105 0 105 0 0 145 0 145 -106 0 -105 0 3 293 c3 260 5 296 21 325 24 44 70 63 136 55 l51 -6 0 151 c0 176 7 164 -113 181 -88 12 -94 12 -157 0z"/>
 <path d="M5187 1856 c-145 -40 -237 -189 -237 -385 0 -153 44 -266 135 -349 88 -79 233 -131 368 -132 l57 0 0 -34 c0 -43 -36 -96 -80 -118 -68 -34 -204 -13 -309 47 -24 14 -45 24 -47 22 -6 -6 -54 -224 -54 -245 0 -14 19 -29 73 -55 109 -52 156 -62 302 -62 120 0 135 2 186 26 75 36 130 86 167 156 63 121 64 127 72 608 5 242 11 455 15 473 l8 32 -141 0 c-136 0 -140 -1 -146 -22 -3 -13 -6 -35 -6 -50 0 -42 -13 -41 -60 7 -75 77 -200 110 -303 81z m231 -290 c74 -39 102 -102 102 -232 l0 -96 -47 6 c-84 12 -140 36 -172 72 -106 121 -14 318 117 250z"/>
 <path d="M6224 1860 c-102 -15 -224 -68 -224 -98 0 -24 47 -263 53 -269 3 -2 29 9 59 26 161 91 323 73 323 -37 0 -59 -25 -85 -127 -137 -51 -26 -114 -62 -139 -81 -89 -65 -149 -186 -149 -299 0 -181 84 -326 228 -393 52 -25 67 -27 177 -27 99 1 130 5 176 23 101 40 97 30 69 178 -13 71 -26 132 -29 136 -4 4 -29 -4 -56 -17 -62 -31 -152 -50 -189 -41 -69 17 -98 95 -55 150 11 14 69 51 129 82 138 70 207 138 240 239 19 57 22 83 18 178 -3 100 -7 119 -34 178 -39 82 -90 133 -168 170 -92 43 -190 55 -302 39z"/>
 <path d="M3761 1844 c-168 -45 -286 -180 -342 -389 -18 -65 -22 -108 -22 -235 0 -135 4 -168 26 -252 80 -303 275 -461 525 -427 216 30 350 235 369 564 3 61 3 136 -1 168 l-7 57 -310 0 c-224 0 -309 3 -309 11 0 62 64 155 134 192 58 31 242 30 330 -2 33 -11 62 -21 66 -21 4 0 15 53 25 118 9 64 19 125 22 135 6 22 -76 62 -174 82 -87 19 -262 18 -332 -1z m269 -822 c0 -58 -31 -136 -70 -174 -33 -34 -43 -38 -86 -38 -79 0 -130 45 -165 145 -35 101 -44 95 151 95 l170 0 0 -28z"/>
 <path d="M2190 920 l0 -920 155 0 155 0 0 920 0 920 -155 0 -155 0 0 -920z"/>
 </g>

</svg>