<!DOCTYPE svg PUBLIC "-//W3C//DTD SVG 20010904//EN" "http://www.w3.org/TR/2001/REC-SVG-20010904/DTD/svg10.dtd">
<svg version="1.0" xmlns="http://www.w3.org/2000/svg" width="1600px" height="1600px" viewBox="0 0 16000 16000" preserveAspectRatio="xMidYMid meet">
<g id="layer101" fill="#ffffff" stroke="none">
 <path d="M4549 11920 c-287 -22 -545 -106 -714 -232 -110 -82 -208 -190 -301 -331 l-32 -49 -40 86 c-147 314 -436 462 -1005 517 -170 16 -710 6 -847 -15 -379 -60 -632 -174 -775 -347 -76 -92 -116 -197 -129 -341 l-7 -68 494 0 494 0 6 45 c13 93 69 166 161 209 80 38 146 50 281 50 114 1 123 -1 185 -30 155 -73 211 -176 155 -284 -8 -15 -31 -38 -53 -53 -77 -54 -153 -65 -534 -77 -422 -13 -557 -37 -757 -132 -65 -31 -101 -57 -161 -116 -120 -120 -170 -245 -170 -433 0 -370 236 -598 725 -698 298 -62 870 -64 1160 -5 442 90 692 308 712 622 l6 82 -475 0 -474 0 -11 -70 c-16 -99 -47 -158 -106 -197 -68 -45 -114 -56 -247 -56 -133 0 -204 16 -266 63 -57 42 -77 87 -72 163 4 54 8 63 44 97 22 20 67 47 100 60 55 21 81 23 394 31 371 9 616 29 730 60 111 30 294 136 349 203 22 27 28 19 35 -48 30 -298 148 -570 318 -732 114 -109 210 -169 355 -223 194 -71 322 -91 634 -98 335 -7 520 15 761 93 181 58 330 142 447 249 143 132 240 342 241 523 l0 62 -454 0 -453 0 -13 -47 c-34 -124 -116 -235 -208 -282 -64 -33 -158 -51 -262 -51 -246 0 -397 109 -471 340 -53 163 -63 401 -24 529 44 141 126 251 238 317 91 53 160 67 303 62 116 -5 125 -7 198 -43 115 -56 195 -164 235 -312 l12 -43 397 0 397 -1 262 -657 262 -657 643 0 642 0 34 80 c36 87 58 139 157 378 36 86 94 228 130 315 36 86 79 189 95 227 16 39 49 117 73 175 24 58 75 180 113 272 l69 166 3 -814 2 -814 553 0 552 1 77 102 c42 56 94 125 115 152 21 28 139 183 262 345 123 162 274 361 335 442 l111 147 3 -590 2 -589 420 0 420 0 0 1120 0 1120 -509 0 -510 0 -114 -147 c-62 -82 -150 -195 -194 -253 -44 -58 -97 -128 -119 -156 -51 -67 -227 -296 -395 -515 -73 -96 -146 -191 -161 -210 l-28 -34 0 653 0 652 -722 -2 -722 -3 -32 -75 c-18 -41 -50 -115 -72 -165 l-38 -90 -546 -3 -545 -2 -28 62 c-15 35 -42 97 -60 138 -18 41 -40 92 -49 113 l-15 37 -420 0 c-289 0 -421 -3 -421 -11 0 -5 16 -48 35 -95 19 -46 35 -89 35 -95 0 -5 -19 3 -42 19 -140 95 -327 168 -498 197 -113 19 -513 28 -671 15z m2965 -997 c-15 -32 -43 -96 -64 -143 -20 -47 -46 -105 -57 -130 -12 -25 -42 -92 -68 -150 -26 -58 -63 -140 -83 -183 l-35 -77 -38 92 c-78 194 -249 636 -249 643 0 3 139 5 310 5 l310 0 -26 -57z"/>
 <path d="M11560 10765 l0 -1125 440 0 440 0 2 815 3 814 107 -267 c59 -147 144 -357 189 -467 117 -290 265 -654 314 -775 l42 -105 650 -3 650 -2 21 52 c11 29 77 193 147 363 135 332 286 704 420 1035 190 471 254 628 278 685 13 33 28 70 32 83 l6 22 -427 -2 -428 -3 -75 -168 -76 -167 -538 2 -538 3 -66 168 -67 167 -763 0 -763 0 0 -1125z m2327 206 l182 -6 -81 -175 c-44 -96 -116 -254 -160 -350 -44 -96 -81 -176 -82 -178 -2 -1 -12 21 -24 50 -41 104 -160 405 -211 531 -28 70 -51 129 -51 132 0 6 186 4 427 -4z"/>
 <path d="M7855 8864 c-268 -27 -428 -55 -605 -106 l-115 -33 -18 -60 c-11 -33 -45 -143 -78 -245 l-59 -185 -77 -40 c-424 -219 -780 -559 -1025 -980 -134 -231 -244 -541 -289 -820 -16 -98 -22 -189 -26 -374 l-4 -245 -57 -65 c-31 -36 -108 -119 -169 -185 -69 -74 -113 -129 -113 -141 0 -31 83 -319 114 -394 14 -36 26 -68 26 -72 0 -17 121 -263 180 -366 51 -87 163 -258 210 -316 45 -57 241 -275 293 -326 l65 -63 118 30 c66 17 180 43 254 58 l135 27 85 -57 c116 -77 360 -196 505 -246 137 -47 317 -92 461 -115 137 -22 453 -31 595 -16 405 42 785 176 1134 399 l60 38 155 -32 c85 -18 192 -42 237 -53 45 -12 90 -21 101 -21 19 0 189 168 283 280 280 334 480 729 584 1148 l27 112 -68 73 c-38 40 -116 125 -174 190 l-104 118 2 167 c7 432 -80 807 -272 1177 -121 232 -219 371 -391 554 -113 122 -201 199 -385 339 -44 33 -182 117 -277 168 l-93 49 -59 185 c-33 102 -67 213 -76 247 l-17 61 -107 31 c-118 34 -272 65 -431 87 -103 14 -456 26 -535 18z m525 -189 c131 -19 289 -50 357 -70 49 -15 53 -18 63 -58 6 -23 24 -82 40 -131 17 -49 28 -91 27 -93 -2 -1 -43 10 -91 27 -104 35 -288 75 -441 95 -128 17 -448 20 -580 5 -133 -16 -368 -65 -469 -100 -49 -16 -91 -29 -92 -27 -2 1 15 62 38 134 l41 131 96 25 c112 30 309 64 442 77 126 12 439 4 569 -15z m-100 -396 c143 -16 321 -54 455 -98 168 -54 212 -75 220 -103 10 -31 105 -271 153 -388 49 -116 196 -431 244 -520 20 -36 55 -101 78 -145 24 -44 54 -97 67 -117 12 -21 23 -40 23 -43 0 -20 275 -451 393 -615 39 -56 79 -111 87 -124 8 -12 60 -79 115 -150 55 -70 113 -144 128 -164 16 -20 39 -48 53 -62 l24 -26 -16 -89 c-98 -577 -391 -1078 -837 -1439 -49 -39 -63 -46 -90 -41 -492 80 -847 110 -1342 110 -440 0 -811 -27 -1155 -84 -63 -11 -141 -23 -172 -26 l-58 -7 -68 56 c-156 127 -319 303 -438 471 -196 276 -339 629 -387 955 -13 86 -13 97 2 116 9 12 61 77 116 145 232 287 488 664 685 1009 176 308 394 772 516 1098 44 119 35 112 205 170 318 110 665 148 999 111z m-1406 -326 c-9 -21 -37 -90 -64 -153 -234 -561 -563 -1134 -929 -1619 -47 -62 -99 -132 -116 -155 l-30 -41 -3 60 c-7 132 30 386 84 575 140 485 426 902 826 1206 81 61 233 162 246 164 1 0 -5 -17 -14 -37z m2430 -48 c131 -88 283 -214 382 -316 382 -398 614 -931 640 -1469 7 -157 15 -156 -99 -5 -42 55 -91 120 -110 145 -106 140 -355 527 -468 725 -139 245 -299 574 -417 855 -46 110 -56 140 -47 140 4 0 57 -34 119 -75z m-3643 -2625 c122 -406 346 -772 650 -1064 108 -103 118 -116 97 -120 -13 -3 -72 -16 -133 -30 l-110 -24 -31 27 c-84 69 -298 332 -392 481 -131 209 -255 487 -314 706 l-25 91 96 102 95 103 18 -84 c10 -46 32 -130 49 -188z m4983 35 c-3 -22 -24 -94 -46 -160 -130 -389 -309 -695 -592 -1007 l-95 -106 -73 18 c-40 10 -102 24 -138 30 l-65 13 140 141 c334 336 550 720 656 1164 l34 143 92 -98 c91 -96 93 -99 87 -138z m-2064 -1235 c164 -11 561 -57 595 -70 15 -5 -15 -24 -135 -83 -323 -158 -659 -237 -1015 -237 -313 0 -646 72 -940 203 -84 37 -217 108 -212 113 3 3 276 41 392 55 316 37 921 45 1315 19z"/>
 <path d="M7780 7834 c0 -3 11 -25 25 -49 52 -88 70 -302 40 -494 -7 -51 -16 -95 -18 -97 -6 -7 -35 73 -52 146 -8 36 -18 127 -22 203 -4 98 -10 137 -18 137 -23 0 -220 -204 -253 -262 -19 -31 -45 -89 -60 -130 -23 -63 -26 -88 -26 -183 1 -84 6 -125 22 -175 12 -35 19 -66 17 -68 -2 -3 -34 26 -69 63 l-65 69 -11 -30 c-74 -189 -58 -348 45 -475 l44 -53 -67 -17 c-37 -10 -71 -18 -75 -18 -4 -1 -30 -22 -57 -47 -37 -35 -54 -60 -65 -97 -14 -47 -21 -147 -10 -147 3 0 46 14 97 31 133 45 202 45 291 0 38 -19 70 -38 72 -42 3 -3 -23 -17 -58 -30 -96 -37 -177 -32 -372 22 -137 38 -173 44 -255 44 -86 0 -101 -3 -163 -32 -91 -43 -164 -117 -209 -213 -62 -132 -82 -180 -75 -186 4 -4 23 6 44 22 121 92 227 142 344 159 l47 7 11 -66 c26 -150 93 -311 161 -389 23 -26 65 -58 98 -74 50 -25 67 -28 147 -27 64 1 106 7 146 21 l55 21 23 -34 23 -33 -77 -178 c-43 -98 -85 -198 -95 -223 -10 -25 -41 -99 -69 -164 -32 -73 -48 -123 -43 -128 16 -16 91 11 132 49 40 36 68 101 54 126 -4 6 2 4 13 -5 67 -59 213 33 213 134 0 84 -50 138 -125 138 l-36 0 20 28 c27 38 110 82 169 89 48 5 98 -12 142 -49 24 -21 90 -101 90 -110 0 -4 -17 -6 -37 -3 -76 12 -153 -58 -153 -137 0 -87 57 -148 137 -148 41 0 42 -1 33 -26 -34 -89 24 -183 119 -192 58 -5 112 22 136 68 17 34 20 103 5 131 -10 17 -7 19 33 19 50 0 104 31 124 70 18 36 16 117 -4 151 -10 16 -37 39 -62 51 -37 18 -50 20 -82 11 l-38 -10 32 45 c60 83 132 132 195 132 52 0 120 -31 163 -73 35 -35 39 -42 23 -45 -53 -8 -94 -36 -114 -77 -36 -75 -18 -156 45 -195 35 -22 104 -27 136 -10 17 10 19 7 19 -30 0 -64 23 -106 76 -140 50 -32 114 -41 114 -17 0 13 -31 91 -199 501 -33 82 -59 151 -57 153 2 2 32 -6 67 -18 48 -16 88 -21 162 -21 54 0 100 2 103 5 20 19 -76 250 -131 315 l-26 31 48 32 c96 64 201 197 241 304 24 64 42 154 48 248 7 104 1 118 -31 65 -42 -73 -91 -129 -129 -148 -49 -24 -57 -18 -24 18 71 75 139 212 162 325 28 134 13 302 -38 421 -25 59 -87 157 -96 151 -4 -3 -16 -36 -25 -75 -9 -38 -30 -87 -45 -107 -59 -80 -97 -106 -67 -46 51 103 66 286 32 401 -33 114 -126 237 -235 312 -51 35 -133 80 -144 80 -3 0 -3 -51 0 -112 6 -99 4 -120 -15 -168 -11 -30 -31 -68 -43 -83 l-23 -28 3 124 c6 199 -36 317 -147 424 -53 51 -155 106 -237 127 -59 15 -194 22 -194 10z m255 -133 c201 -95 274 -299 215 -601 -11 -56 -20 -105 -20 -110 0 -11 60 9 116 38 94 49 170 169 183 290 l6 63 54 -53 c132 -129 177 -275 140 -450 -12 -54 -70 -180 -116 -250 -14 -21 -23 -41 -20 -44 3 -3 40 -1 82 4 101 14 178 52 224 114 20 26 39 47 42 47 11 1 31 -91 36 -169 13 -190 -72 -373 -250 -540 -37 -35 -64 -66 -60 -70 13 -12 99 -30 140 -30 21 0 63 6 93 14 30 8 56 13 58 12 1 -2 -16 -39 -38 -82 -41 -80 -95 -145 -167 -201 -63 -49 -82 -57 -101 -40 -38 33 -197 105 -209 94 -1 -2 -6 -25 -9 -50 -6 -40 -4 -47 10 -47 32 0 115 -50 175 -106 60 -55 140 -164 160 -217 10 -25 9 -27 -12 -23 -12 3 -40 8 -62 11 -67 11 -195 79 -260 139 -32 31 -62 56 -65 56 -10 -1 -60 -49 -60 -59 0 -5 28 -35 62 -65 l62 -56 -399 2 -398 3 -40 48 c-22 26 -37 50 -33 54 9 9 61 8 152 -2 84 -9 165 10 214 52 l31 26 -32 30 c-27 24 -36 27 -51 18 -24 -15 -24 -15 -38 22 -47 118 -195 161 -300 87 -31 -22 -67 -91 -76 -147 -6 -38 -10 -44 -48 -58 -182 -68 -322 -3 -396 184 -11 28 -18 51 -17 51 1 0 30 -10 62 -21 75 -27 167 -35 223 -20 28 8 64 31 101 65 71 66 131 101 196 117 73 17 151 56 169 84 8 13 18 41 22 62 6 37 3 43 -45 95 -27 30 -86 78 -129 107 -134 87 -224 108 -342 76 -30 -8 -56 -12 -59 -10 -2 3 12 20 32 39 63 59 131 65 482 40 l80 -5 -142 64 c-147 66 -199 100 -257 169 -51 59 -85 174 -69 230 l8 28 45 -36 c61 -49 124 -79 211 -104 41 -11 77 -20 81 -20 17 0 6 19 -48 81 -71 82 -120 183 -141 288 -16 78 -16 90 -1 163 9 43 27 102 41 130 28 62 115 180 127 173 4 -2 10 -36 14 -75 15 -153 75 -300 146 -363 24 -20 46 -37 51 -37 8 0 17 28 39 120 4 19 16 88 25 153 19 127 17 359 -4 425 -10 33 -10 34 17 27 15 -3 54 -19 87 -34z m-376 -1675 c22 -22 31 -40 27 -51 -7 -18 -57 -41 -136 -62 -69 -18 -131 -54 -195 -113 -27 -26 -60 -52 -72 -59 -61 -31 -191 4 -321 88 -70 45 -81 56 -67 64 22 12 166 1 259 -20 100 -22 214 -14 292 21 64 29 147 104 159 144 9 29 15 28 54 -12z m-542 -25 c81 -22 159 -42 173 -44 14 -2 4 -5 -22 -6 -26 0 -77 6 -115 16 -108 26 -304 22 -420 -9 -96 -25 -102 -21 -32 28 108 75 183 78 416 15z m598 -403 c30 -13 74 -88 53 -88 -7 0 -21 13 -30 30 -9 16 -28 32 -42 36 -35 8 -79 -8 -91 -34 -5 -12 -15 -22 -22 -22 -17 0 -16 6 4 41 26 44 80 59 128 37z"/>
 <path d="M8020 6685 c0 -3 18 -31 39 -63 40 -59 62 -105 75 -156 6 -26 3 -24 -32 21 -22 27 -56 57 -76 67 -42 20 -156 46 -205 46 l-33 0 53 -57 c66 -73 83 -112 75 -175 -7 -47 -6 -48 29 -65 48 -23 58 -10 59 76 1 65 2 68 18 54 33 -29 56 -97 63 -181 l7 -84 38 37 c78 76 114 187 92 283 l-10 44 24 -23 c37 -35 73 -117 80 -185 6 -53 -10 -171 -32 -246 -7 -23 6 -23 60 3 74 35 126 87 161 162 32 69 32 69 39 37 23 -115 -18 -275 -93 -363 -13 -15 -13 -25 -2 -65 6 -25 14 -48 16 -50 10 -10 90 94 126 165 40 77 43 88 47 186 5 118 -10 186 -60 277 -32 58 -99 149 -109 150 -4 0 -9 -51 -12 -112 -3 -73 -11 -131 -23 -163 l-18 -50 -12 87 c-24 176 -104 272 -273 327 -61 20 -111 27 -111 16z"/>
 <path d="M7862 5926 c-39 -35 -80 -67 -93 -71 -19 -6 -20 -9 -6 -17 30 -16 87 3 135 45 56 48 120 78 150 70 34 -9 26 14 -9 26 -72 25 -102 16 -177 -53z"/>
 <path d="M8460 5545 c-15 -40 -13 -48 23 -76 69 -55 197 -113 213 -97 19 20 -87 142 -146 170 -69 31 -79 32 -90 3z"/>
 <path d="M9150 8255 c14 -8 30 -14 35 -14 6 0 -1 6 -15 14 -14 8 -29 14 -35 14 -5 0 1 -6 15 -14z"/>
 <path d="M6240 7785 c-24 -25 -42 -45 -39 -45 3 0 25 20 49 45 24 25 42 45 39 45 -3 0 -25 -20 -49 -45z"/>
 <path d="M9158 3729 c-21 -11 -38 -22 -38 -24 0 -3 18 4 40 15 22 11 40 23 40 25 0 7 0 7 -42 -16z"/>
 </g>

</svg>