<svg version="1.0" xmlns="http://www.w3.org/2000/svg" width="700.000000pt" height="700.000000pt" viewBox="0 0 700.000000 700.000000" preserveAspectRatio="xMidYMid meet">
<metadata>
Created by potrace 1.12, written by Peter Selinger 2001-2015
</metadata>
<g transform="translate(0.000000,700.000000) scale(0.100000,-0.100000)" fill="#000000" stroke="none">
<path d="M3375 6920 c-97 -10 -234 -35 -268 -49 -16 -6 -38 -11 -50 -11 -12
-1 -40 -9 -62 -20 -22 -11 -45 -19 -51 -20 -7 0 -39 -14 -73 -30 -33 -17 -71
-35 -83 -40 -24 -10 -27 -12 -118 -69 -170 -107 -359 -296 -461 -462 -19 -30
-39 -64 -46 -75 -7 -10 -24 -44 -38 -74 -14 -30 -32 -67 -40 -82 -8 -14 -15
-32 -15 -40 -1 -7 -9 -31 -20 -53 -11 -22 -19 -48 -20 -59 0 -10 -7 -39 -15
-65 -8 -25 -22 -86 -32 -136 -16 -82 -18 -181 -21 -1075 -2 -626 1 -1024 7
-1090 13 -128 34 -255 50 -293 6 -16 11 -38 11 -50 1 -12 9 -40 20 -62 11 -22
19 -44 20 -49 0 -5 14 -39 31 -75 17 -36 35 -75 40 -86 5 -11 18 -33 29 -50
11 -16 27 -43 36 -60 79 -141 329 -392 464 -466 19 -11 49 -28 65 -39 17 -11
39 -24 50 -29 11 -5 45 -21 75 -35 143 -70 322 -115 537 -136 218 -22 552 39
738 134 28 14 61 30 75 36 62 27 223 137 300 206 118 104 228 235 299 356 18
29 36 60 41 68 19 29 78 165 97 225 51 152 66 224 83 395 12 121 12 1934 0
2045 -14 124 -35 244 -49 278 -6 16 -11 38 -11 50 -1 12 -9 40 -20 62 -11 22
-19 44 -20 49 0 10 -65 152 -80 176 -5 8 -23 39 -41 68 -94 159 -256 335 -407
441 -143 101 -130 93 -282 163 -149 68 -295 106 -500 128 -96 10 -145 10 -245
0z m375 -291 c58 -12 110 -25 115 -29 6 -4 26 -11 45 -15 19 -4 46 -13 60 -20
14 -7 59 -29 100 -50 121 -60 208 -123 316 -231 126 -124 198 -230 283 -414
14 -30 60 -187 75 -256 14 -63 16 -206 16 -1134 0 -928 -2 -1071 -16 -1134
-14 -67 -60 -223 -74 -256 -156 -354 -457 -627 -805 -728 -151 -43 -210 -52
-364 -52 -223 0 -369 35 -571 135 -121 60 -208 123 -315 230 -157 156 -253
310 -313 501 -66 211 -62 137 -62 1306 0 870 3 1074 14 1118 7 30 17 75 20
100 4 24 10 49 15 55 4 5 13 30 20 55 41 145 158 328 301 470 111 111 197 174
320 235 41 21 83 42 94 47 33 17 108 39 211 63 141 32 366 34 515 4z"></path>
<path d="M3454 5940 c-28 -11 -78 -65 -86 -92 -3 -13 -6 -155 -7 -317 -1 -278
0 -297 20 -337 15 -31 32 -48 63 -63 23 -12 48 -21 56 -21 8 0 33 9 56 21 31
15 48 32 63 63 20 40 21 60 21 336 0 273 -1 297 -20 335 -31 65 -107 99 -166
75z"></path>
<path d="M2325 1448 c-72 -25 -108 -95 -87 -172 8 -28 131 -155 594 -618 320
-321 594 -589 608 -595 50 -22 63 -23 106 -3 34 15 181 156 628 603 631 632
606 603 586 691 -16 71 -92 111 -168 88 -29 -9 -148 -123 -557 -532 -286 -286
-527 -520 -535 -520 -8 0 -247 232 -530 516 -483 484 -561 555 -605 553 -5 0
-23 -5 -40 -11z"></path>
</g>
</svg>