<!DOCTYPE svg PUBLIC "-//W3C//DTD SVG 20010904//EN" "http://www.w3.org/TR/2001/REC-SVG-20010904/DTD/svg10.dtd">
<svg version="1.0" xmlns="http://www.w3.org/2000/svg" width="1600px" height="1018px" viewBox="0 0 16000 10180" preserveAspectRatio="xMidYMid meet">
<g id="layer101" fill="#7d7b7d" stroke="none">
 <path d="M7733 9873 c-47 -26 -151 -130 -181 -182 l-26 -44 24 -19 c21 -17 37 -19 140 -16 102 3 119 6 146 26 41 31 133 41 169 18 22 -14 25 -24 25 -71 0 -30 -4 -55 -10 -55 -5 0 -28 10 -51 22 -53 27 -170 36 -236 17 -38 -10 -64 -29 -126 -91 -112 -112 -122 -137 -113 -308 11 -230 36 -288 166 -372 110 -71 200 -78 302 -25 95 50 97 50 110 22 15 -34 58 -48 132 -43 128 8 141 48 141 428 -1 155 -6 321 -14 380 -11 94 -16 111 -49 159 -47 69 -119 126 -185 147 -33 10 -102 18 -192 21 -122 4 -144 2 -172 -14z m240 -542 c36 -14 57 -77 57 -168 0 -133 -27 -185 -99 -187 -51 -1 -89 26 -119 85 -20 38 -23 56 -20 127 3 82 4 84 40 118 40 36 89 45 141 25z"/>
 <path d="M2062 9600 c-97 -20 -252 -131 -291 -209 -60 -117 -48 -354 23 -462 38 -57 127 -142 172 -165 32 -16 60 -19 164 -19 121 0 127 1 198 34 109 51 170 129 212 267 28 93 24 150 -11 176 -30 23 -151 37 -329 39 -63 0 -126 4 -140 8 -36 10 -36 37 0 71 28 26 40 30 87 30 45 0 58 -4 80 -26 15 -15 41 -33 59 -40 39 -16 186 -19 215 -4 40 22 16 103 -49 173 -87 93 -269 152 -390 127z m157 -546 c27 -6 32 -11 29 -33 -4 -36 -60 -71 -114 -71 -35 0 -49 6 -78 34 -20 18 -36 38 -36 44 0 24 126 40 199 26z"/>
 <path d="M2941 9599 c-233 -40 -387 -276 -337 -516 20 -95 58 -171 118 -232 127 -130 307 -156 487 -70 146 68 199 146 156 228 -34 66 -166 68 -252 4 -77 -59 -150 -48 -193 29 -46 82 -24 254 37 293 35 23 80 14 150 -29 89 -54 216 -71 260 -34 49 40 -46 204 -159 275 -81 51 -171 69 -267 52z"/>
 <path d="M6922 9599 c-78 -15 -176 -67 -230 -122 -171 -175 -165 -450 12 -631 61 -62 123 -94 211 -109 136 -23 325 31 401 116 79 87 121 232 111 380 -10 150 -76 237 -244 322 -98 50 -171 62 -261 44z m158 -268 c40 -42 50 -73 50 -160 0 -76 -15 -125 -52 -166 -39 -45 -91 -48 -137 -10 -41 35 -55 84 -55 191 0 102 11 131 67 164 50 31 84 26 127 -19z"/>
 <path d="M9200 9599 c-112 -22 -251 -123 -290 -211 -47 -107 -50 -337 -6 -433 50 -108 171 -193 312 -215 91 -15 185 4 271 54 106 62 169 155 199 297 31 142 6 157 -276 165 -179 6 -250 15 -250 35 0 5 15 25 33 45 30 33 38 36 86 36 42 0 58 -5 79 -25 49 -45 85 -57 174 -57 120 0 147 23 112 93 -76 149 -280 249 -444 216z m197 -560 c35 -30 -105 -111 -158 -91 -34 13 -80 62 -77 81 2 9 17 19 33 23 43 10 185 1 202 -13z"/>
 <path d="M5530 9588 c-78 -18 -220 -142 -255 -224 -32 -73 -16 -322 26 -422 58 -135 185 -202 384 -202 127 0 189 18 258 73 103 85 154 182 164 314 15 188 -86 368 -246 441 -48 21 -73 26 -171 28 -63 2 -135 -2 -160 -8z m194 -242 c43 -18 66 -74 66 -161 0 -224 -158 -297 -230 -106 -23 60 -26 147 -6 194 18 45 71 87 107 87 16 0 45 -6 63 -14z"/>
 <path d="M9958 9591 c-75 -25 -228 -184 -228 -238 0 -35 35 -47 141 -48 95 0 97 1 150 36 77 52 93 59 137 59 49 0 83 -30 62 -55 -18 -22 -55 -40 -142 -71 -257 -92 -362 -213 -304 -347 20 -46 93 -117 157 -152 53 -29 57 -30 199 -30 172 0 190 7 287 100 76 73 87 105 47 132 -22 14 -48 18 -114 18 -78 0 -91 -3 -126 -27 -30 -21 -52 -28 -86 -28 -138 0 -88 56 102 113 200 62 307 170 287 293 -14 86 -119 194 -222 229 -57 19 -302 30 -347 16z"/>
 <path d="M1281 9561 c-22 -14 -30 -139 -31 -483 0 -302 -1 -327 -17 -332 -10 -2 -70 -7 -134 -11 -64 -4 -121 -10 -128 -14 -18 -11 -30 -75 -31 -152 l0 -67 143 -7 c78 -3 267 -5 419 -3 l276 3 26 24 c57 54 56 145 -2 189 -33 25 -44 27 -150 31 l-114 3 3 408 4 408 -59 6 c-84 9 -189 7 -205 -3z"/>
 <path d="M3494 9556 c-19 -13 -22 -29 -28 -148 -4 -73 -4 -307 0 -520 l7 -388 143 0 c166 0 146 -18 164 144 10 98 22 136 41 136 5 0 22 -8 36 -17 43 -29 194 -25 251 5 70 37 128 102 138 153 10 47 8 420 -2 557 l-6 82 -129 0 -129 0 0 -77 c0 -132 -20 -406 -31 -443 -22 -68 -67 -89 -116 -55 -31 22 -41 84 -57 343 -7 122 -16 225 -18 228 -3 3 -59 7 -124 10 -98 5 -123 3 -140 -10z"/>
 <path d="M4923 9560 c-12 -5 -26 -17 -32 -27 -5 -10 -14 -115 -20 -233 -11 -227 -20 -279 -52 -311 -32 -32 -110 -3 -130 48 -9 23 -28 347 -29 482 l0 44 -112 -5 c-170 -7 -158 11 -158 -237 0 -114 3 -290 7 -389 l6 -182 105 0 c94 0 109 3 151 26 l47 27 43 -28 c81 -54 203 -44 310 25 90 59 96 80 95 365 0 263 -10 333 -54 377 -25 25 -35 28 -92 27 -35 0 -73 -4 -85 -9z"/>
 <path d="M6209 9551 c-24 -19 -24 -23 -28 -223 -2 -111 0 -344 4 -515 l7 -313 144 0 144 0 0 529 0 528 -61 7 c-117 12 -185 8 -210 -13z"/>
 <path d="M8478 9557 c-23 -23 -31 -173 -25 -463 3 -160 9 -252 18 -277 14 -43 57 -72 96 -64 19 3 10 -10 -47 -68 -38 -40 -70 -81 -70 -91 1 -11 11 -39 23 -64 18 -36 31 -48 67 -62 53 -20 122 -23 153 -6 31 16 44 36 57 87 14 57 0 102 -48 141 l-36 30 36 37 c66 69 63 53 60 443 -2 195 -4 356 -6 358 -2 2 -62 6 -133 9 -110 5 -131 4 -145 -10z"/>
 <path d="M1885 7514 c-175 -17 -302 -55 -439 -132 -283 -159 -443 -391 -501 -726 -32 -185 -3 -199 363 -179 l121 6 15 71 c39 171 186 365 333 438 190 93 537 89 700 -8 80 -48 158 -127 184 -187 30 -71 24 -161 -15 -242 -34 -70 -138 -178 -207 -216 -47 -27 -242 -102 -294 -114 -16 -4 -109 -29 -207 -56 -397 -109 -551 -188 -734 -376 -135 -137 -184 -270 -184 -493 0 -206 50 -353 170 -498 140 -168 328 -270 613 -334 137 -31 454 -33 586 -5 291 63 451 157 607 359 105 135 150 268 157 466 l5 112 -242 0 -242 0 -18 -87 c-22 -110 -54 -178 -116 -246 -136 -149 -415 -201 -720 -136 -73 16 -169 78 -207 133 -42 62 -58 115 -58 201 0 84 27 139 101 204 85 74 165 107 574 231 585 178 783 280 908 466 97 146 116 224 110 471 -4 171 -6 181 -35 256 -124 312 -412 542 -753 601 -91 16 -479 30 -575 20z"/>
 <path d="M4220 7511 c-194 -28 -368 -117 -511 -262 -101 -103 -156 -180 -214 -300 -75 -155 -79 -191 -80 -594 0 -400 1 -409 85 -577 91 -183 193 -304 335 -400 157 -107 326 -152 570 -152 301 0 474 67 677 262 107 103 176 204 217 317 48 132 61 238 61 491 l0 221 -272 6 c-149 4 -447 7 -662 7 -215 0 -421 3 -457 6 l-66 7 18 92 c28 148 70 238 148 315 89 89 146 111 300 118 260 11 413 -78 502 -294 l24 -57 185 5 c262 7 290 23 255 146 -36 121 -122 250 -258 384 -141 138 -238 195 -406 240 -85 22 -352 33 -451 19z m639 -1449 c-3 -66 -10 -89 -41 -152 -44 -88 -125 -177 -189 -208 -127 -61 -370 -55 -486 14 -111 65 -205 220 -228 377 l-7 47 477 0 477 0 -3 -78z"/>
 <path d="M10380 7505 c-198 -45 -415 -225 -470 -390 -45 -135 -45 -314 0 -469 44 -155 162 -293 313 -365 129 -63 291 -104 637 -162 186 -31 323 -66 337 -86 36 -48 43 -171 15 -241 -22 -53 -91 -105 -165 -124 -33 -8 -111 -13 -212 -13 -151 0 -163 1 -215 26 -105 49 -147 102 -195 248 l-18 54 -187 -5 c-204 -6 -235 -14 -258 -61 -12 -24 -11 -39 3 -105 25 -112 51 -174 101 -242 88 -120 178 -196 309 -261 105 -52 231 -78 415 -86 367 -15 669 79 816 253 113 135 122 199 137 991 7 325 15 595 20 599 4 4 32 11 64 15 93 13 98 22 98 193 0 139 -1 145 -24 170 -36 39 -90 50 -241 49 -103 0 -144 -4 -173 -16 -22 -10 -80 -59 -137 -119 -114 -117 -92 -115 -225 -22 -99 69 -164 102 -280 144 -84 30 -100 33 -245 36 -112 3 -173 0 -220 -11z m478 -425 c142 -40 238 -100 296 -189 56 -84 68 -135 73 -318 l5 -163 -58 21 c-117 41 -191 60 -294 73 -218 29 -390 92 -448 162 -83 101 -72 289 21 369 23 20 62 42 87 50 70 21 232 19 318 -5z"/>
 <path d="M13735 7511 c-128 -22 -258 -93 -359 -196 -117 -120 -157 -236 -158 -460 -1 -288 93 -448 330 -564 158 -77 276 -107 697 -177 192 -31 279 -57 300 -87 18 -25 21 -151 4 -210 -33 -120 -186 -177 -443 -164 -98 4 -115 8 -174 38 -83 43 -131 104 -165 208 l-24 76 -201 -1 c-222 -1 -244 -6 -255 -62 -13 -64 57 -260 132 -369 64 -95 163 -176 276 -228 157 -72 257 -90 500 -89 220 0 318 15 460 71 236 93 370 247 395 454 15 125 30 612 30 991 l0 327 35 6 c19 3 51 7 70 10 60 10 70 38 70 191 0 127 -1 133 -25 159 -41 44 -79 55 -198 55 -129 0 -214 -14 -263 -43 -19 -12 -71 -61 -113 -109 -43 -49 -81 -88 -85 -88 -3 0 -28 18 -56 41 -131 105 -228 158 -367 199 -81 24 -322 36 -413 21z m433 -426 c135 -32 265 -112 317 -195 54 -87 68 -145 73 -317 2 -90 2 -163 -1 -163 -3 0 -26 9 -52 20 -52 22 -190 55 -395 95 -166 31 -241 55 -305 98 -161 105 -120 394 65 457 68 24 208 26 298 5z"/>
 <path d="M8439 7494 c-229 -41 -450 -204 -548 -405 -40 -81 -71 -197 -71 -265 0 -88 4 -89 256 -89 238 0 225 -4 245 70 53 193 212 295 458 295 248 -1 432 -138 390 -292 -26 -99 -64 -119 -396 -213 -555 -156 -684 -217 -798 -372 -71 -96 -98 -184 -98 -318 0 -91 4 -123 26 -188 53 -162 195 -321 362 -403 241 -119 678 -124 917 -9 149 70 265 177 358 328 49 80 90 185 90 233 0 43 -21 73 -56 80 -18 3 -104 5 -191 3 -192 -5 -212 -13 -258 -104 -36 -72 -94 -132 -155 -162 -71 -34 -208 -48 -338 -34 -117 13 -173 34 -212 75 -22 25 -25 36 -25 106 0 145 40 169 450 275 388 100 568 172 671 268 111 103 158 226 158 417 0 138 -15 211 -59 305 -36 76 -149 207 -218 253 -146 99 -208 124 -366 147 -125 19 -486 19 -592 -1z"/>
 <path d="M12558 7470 c-56 -14 -148 -65 -194 -107 -56 -52 -90 -107 -109 -178 -20 -76 -34 -516 -35 -1096 l0 -416 -77 -7 c-42 -3 -102 -6 -135 -6 l-58 0 0 -179 0 -179 48 -6 c26 -3 86 -8 133 -12 l87 -6 6 -102 c3 -55 8 -181 12 -278 l6 -178 238 0 238 0 6 68 c3 37 8 162 12 278 l6 212 112 6 c61 4 137 9 169 12 l57 6 0 179 0 179 -72 0 c-40 0 -117 3 -170 7 l-98 6 0 682 0 683 113 6 c61 4 137 9 168 12 l56 6 7 136 c6 123 -1 223 -18 239 -3 3 -29 12 -58 20 -64 18 -395 27 -450 13z"/>
 <path d="M5732 7451 c-19 -5 -39 -14 -45 -20 -16 -16 -21 -647 -12 -1478 l7 -653 224 0 223 0 5 33 c3 17 9 64 13 102 l8 70 50 -46 c159 -147 373 -229 595 -229 143 1 318 40 419 96 137 74 272 298 292 483 10 101 12 822 2 1304 l-6 337 -241 -2 -241 -3 -6 -610 c-6 -546 -18 -866 -36 -978 -9 -56 -41 -97 -103 -128 -73 -37 -131 -49 -243 -49 -198 0 -348 75 -408 204 -57 123 -65 216 -84 994 -7 310 -15 565 -16 566 -9 8 -368 14 -397 7z"/>
 <path d="M1160 3261 c-90 -29 -204 -133 -243 -221 -28 -62 -28 -188 0 -251 27 -61 132 -172 191 -200 68 -34 216 -34 284 0 57 28 142 117 183 192 26 47 30 64 29 134 0 98 -21 146 -101 234 -76 85 -135 114 -238 117 -44 2 -91 0 -105 -5z"/>
 <path d="M5635 3257 c-88 -29 -157 -84 -223 -176 l-47 -66 0 -95 c0 -85 3 -101 29 -155 41 -82 117 -157 184 -179 90 -30 216 -20 303 25 57 29 132 108 164 172 60 124 29 256 -84 365 -103 98 -230 140 -326 109z"/>
 <path d="M8104 3260 c-166 -33 -294 -194 -294 -371 0 -131 118 -273 260 -313 70 -20 110 -20 185 -1 236 62 333 369 173 549 -90 103 -218 157 -324 136z"/>
 <path d="M12369 3240 c-47 -25 -138 -108 -172 -157 -98 -141 -64 -330 79 -450 84 -71 199 -91 308 -53 90 31 190 111 226 180 38 75 31 231 -14 319 -23 44 -74 100 -117 126 -86 55 -240 72 -310 35z"/>
 <path d="M4223 2426 c-139 -45 -266 -211 -267 -350 -2 -132 82 -261 210 -327 60 -30 77 -34 143 -34 69 0 83 4 149 39 133 71 198 174 209 327 5 70 3 80 -22 123 -35 60 -155 170 -221 202 -63 31 -144 39 -201 20z"/>
 <path d="M12390 2414 c-99 -36 -190 -128 -226 -229 -26 -75 -24 -196 4 -260 61 -134 237 -230 377 -204 116 21 220 98 268 199 31 66 31 235 -1 301 -26 56 -97 123 -175 168 -71 41 -175 51 -247 25z"/>
 <path d="M13252 2416 c-93 -31 -188 -131 -223 -235 -28 -82 -24 -205 8 -266 30 -56 96 -117 178 -162 64 -35 77 -38 145 -38 96 1 172 35 247 112 145 151 144 338 -2 487 -72 73 -143 106 -237 112 -47 2 -88 -1 -116 -10z"/>
 <path d="M1180 2411 c-153 -50 -273 -204 -274 -351 -1 -56 4 -73 31 -120 18 -31 54 -78 80 -105 142 -146 321 -146 467 0 113 112 139 229 79 357 -63 134 -173 217 -295 224 -35 2 -74 0 -88 -5z"/>
 <path d="M6499 2397 c-59 -22 -102 -53 -163 -116 -78 -83 -100 -134 -94 -225 11 -162 131 -284 313 -317 79 -15 120 -7 180 35 220 157 236 442 31 573 -79 51 -201 74 -267 50z"/>
 <path d="M8011 2379 c-52 -32 -129 -117 -158 -177 -81 -166 -6 -345 183 -438 68 -34 78 -36 142 -32 152 11 275 120 312 276 29 124 -36 279 -143 340 -90 51 -274 69 -336 31z"/>
 <path d="M8937 1579 c-59 -14 -134 -56 -177 -100 -76 -78 -110 -244 -76 -363 15 -50 28 -69 92 -131 97 -94 127 -109 234 -113 119 -5 183 20 267 104 78 77 104 133 111 237 3 59 0 88 -13 125 -28 75 -101 176 -143 200 -81 45 -204 62 -295 41z"/>
 <path d="M2050 1567 c-25 -7 -61 -21 -80 -30 -57 -27 -147 -124 -182 -194 -27 -56 -30 -70 -25 -122 6 -76 43 -143 118 -221 84 -85 118 -100 231 -100 71 0 103 5 137 20 59 27 162 134 196 204 24 50 27 65 23 126 -7 90 -49 163 -135 234 -92 77 -196 107 -283 83z"/>
 <path d="M10905 1571 c-138 -36 -227 -115 -276 -246 -57 -152 39 -341 215 -424 87 -42 135 -39 243 14 178 88 256 255 199 425 -23 67 -125 174 -200 210 -53 25 -131 34 -181 21z"/>
 <path d="M3338 1547 c-80 -34 -169 -114 -207 -185 -35 -65 -30 -206 9 -287 47 -98 158 -174 266 -183 116 -9 249 47 301 127 43 64 87 203 80 250 -13 97 -103 223 -191 268 -75 38 -181 42 -258 10z"/>
 <path d="M5594 1550 c-79 -26 -153 -91 -191 -168 -24 -50 -28 -69 -28 -147 0 -84 3 -96 34 -159 39 -75 100 -133 178 -168 68 -31 199 -31 265 -1 97 44 179 149 208 266 32 123 -70 311 -200 370 -66 30 -187 33 -266 7z"/>
 <path d="M6453 1545 c-63 -31 -151 -124 -187 -196 -49 -99 -28 -236 53 -338 20 -26 56 -52 99 -73 61 -30 74 -33 162 -33 84 0 102 3 152 28 76 37 138 107 162 183 74 232 -70 441 -309 451 -70 3 -87 0 -132 -22z"/>
 <path d="M13281 1560 c-89 -19 -167 -84 -217 -180 -26 -49 -29 -65 -29 -150 0 -136 41 -220 139 -285 131 -88 302 -61 428 67 71 72 93 134 86 242 -6 90 -28 137 -98 207 -82 83 -202 121 -309 99z"/>
 <path d="M14820 1551 c-74 -26 -168 -124 -199 -205 -58 -157 9 -328 161 -411 43 -23 69 -30 135 -33 74 -4 88 -2 136 22 70 34 141 105 180 180 27 53 31 71 32 136 0 60 -5 84 -24 120 -30 56 -127 153 -184 181 -60 31 -165 36 -237 10z"/>
 </g>
<g id="layer102" fill="#b9b8b9" stroke="none">
 <path d="M7729 9870 c-42 -22 -161 -146 -185 -192 -16 -31 -16 -32 5 -50 19 -15 40 -17 142 -15 103 2 123 5 134 20 26 36 142 50 183 21 18 -12 22 -25 22 -70 0 -62 -4 -64 -68 -33 -56 28 -165 36 -228 19 -37 -11 -64 -30 -125 -91 -43 -42 -85 -92 -95 -110 -23 -45 -28 -142 -15 -269 16 -156 24 -176 94 -245 88 -86 142 -110 242 -110 74 0 85 3 148 39 l69 38 27 -33 c25 -30 34 -33 92 -36 92 -6 128 15 153 87 18 50 20 83 20 335 -1 299 -14 456 -44 515 -25 49 -113 135 -163 158 -93 44 -341 57 -408 22z m272 -561 c24 -31 33 -92 27 -187 -7 -100 -21 -129 -69 -142 -21 -6 -50 -8 -63 -4 -107 27 -149 243 -63 332 30 32 35 34 91 30 47 -4 62 -9 77 -29z"/>
 <path d="M2074 9600 c-137 -27 -282 -141 -320 -251 -22 -64 -25 -211 -5 -304 18 -82 47 -129 134 -211 85 -82 112 -92 244 -92 162 -1 275 54 348 167 50 79 74 145 82 227 5 57 4 62 -22 82 -32 25 -58 29 -297 39 -149 6 -191 11 -203 24 -14 14 -14 18 6 42 44 57 125 70 176 29 70 -56 74 -57 174 -59 84 -2 99 0 114 17 23 25 15 67 -25 124 -76 112 -273 192 -406 166z m149 -545 c68 -17 7 -99 -78 -105 -48 -3 -52 -2 -90 31 -61 54 -41 75 76 78 37 1 78 -1 92 -4z"/>
 <path d="M6926 9600 c-27 -5 -78 -23 -112 -40 -149 -73 -234 -199 -242 -357 -5 -95 6 -150 50 -240 83 -172 248 -254 449 -224 243 38 369 209 354 482 -4 70 -11 104 -29 143 -29 61 -37 70 -96 117 -121 96 -258 139 -374 119z m160 -273 c42 -49 52 -84 47 -157 -6 -95 -16 -125 -56 -167 -55 -59 -133 -40 -175 42 -16 32 -25 130 -17 191 8 65 48 119 99 132 44 12 62 5 102 -41z"/>
 <path d="M9249 9606 c-2 -2 -24 -7 -49 -10 -62 -8 -162 -61 -220 -116 -81 -75 -106 -160 -104 -350 2 -200 89 -315 285 -379 40 -13 145 -16 199 -7 65 12 158 63 208 115 58 60 97 136 116 228 30 143 13 154 -254 165 -200 9 -270 19 -270 41 0 7 16 28 35 47 30 29 42 34 85 34 40 0 55 -5 77 -26 44 -41 97 -58 183 -58 60 0 83 4 100 18 21 17 22 22 11 54 -29 89 -133 180 -246 216 -58 19 -149 35 -156 28z m134 -559 c15 -5 27 -12 27 -16 0 -18 -59 -61 -106 -77 -50 -17 -51 -17 -88 5 -60 38 -73 84 -24 94 39 8 161 4 191 -6z"/>
 <path d="M2870 9577 c-84 -33 -111 -51 -158 -101 -129 -138 -152 -345 -59 -531 40 -81 121 -153 212 -188 221 -86 585 92 503 246 -17 32 -38 45 -86 53 -53 8 -111 -7 -173 -47 -88 -56 -150 -45 -191 34 -42 81 -22 252 35 292 34 24 68 18 160 -29 103 -53 174 -66 230 -42 45 19 48 44 12 119 -33 71 -109 148 -181 183 -51 25 -71 29 -154 31 -77 1 -105 -3 -150 -20z"/>
 <path d="M5535 9588 c-80 -15 -215 -131 -256 -221 -35 -79 -18 -336 30 -440 57 -124 190 -189 382 -186 140 2 204 26 284 105 72 70 96 112 120 205 58 221 -69 465 -275 530 -69 21 -187 24 -285 7z m188 -239 c50 -26 62 -50 66 -133 4 -103 -13 -176 -52 -216 -30 -31 -37 -34 -72 -31 -41 4 -66 26 -96 86 -47 95 -40 216 15 270 35 35 97 45 139 24z"/>
 <path d="M9970 9593 c-34 -7 -105 -60 -166 -125 -62 -66 -77 -93 -70 -124 8 -30 37 -38 148 -39 85 0 87 0 145 42 88 62 152 73 189 32 16 -18 16 -20 -1 -39 -21 -23 -37 -31 -175 -84 -141 -53 -219 -108 -260 -181 -22 -40 -26 -105 -7 -147 20 -46 105 -126 166 -155 53 -26 64 -28 191 -28 127 0 138 2 190 27 63 31 156 120 165 160 11 43 -30 63 -129 63 -70 0 -87 -4 -128 -27 -68 -40 -181 -37 -165 4 7 19 104 65 162 78 158 35 293 146 303 248 8 89 -71 203 -180 258 -70 35 -277 55 -378 37z"/>
 <path d="M1289 9563 c-10 -2 -20 -14 -24 -26 -4 -12 -9 -196 -12 -408 l-5 -386 -117 -7 c-139 -8 -162 -11 -173 -28 -4 -7 -8 -56 -8 -109 l0 -96 133 -6 c72 -4 259 -6 414 -4 l283 2 25 26 c29 29 47 88 38 130 -12 60 -78 88 -210 89 l-93 0 0 409 0 408 -61 7 c-67 7 -164 6 -190 -1z"/>
 <path d="M3503 9561 c-12 -6 -25 -20 -27 -33 -12 -57 -15 -292 -9 -645 l6 -383 143 0 143 0 5 33 c3 17 10 71 15 119 10 88 23 128 42 128 5 0 22 -8 36 -17 21 -14 48 -18 113 -18 99 1 152 20 213 78 66 64 71 85 69 322 -1 116 -4 256 -8 313 l-6 103 -127 -3 -126 -3 -2 -70 c-7 -188 -24 -414 -33 -447 -14 -48 -34 -68 -71 -68 -42 0 -75 36 -83 91 -3 24 -13 145 -21 268 -8 123 -16 225 -18 227 -9 9 -234 13 -254 5z"/>
 <path d="M4922 9560 c-12 -5 -26 -20 -31 -32 -5 -13 -14 -117 -20 -233 -12 -229 -20 -278 -49 -307 -15 -15 -27 -18 -55 -13 -81 15 -91 56 -103 389 l-6 199 -114 -5 c-165 -8 -154 11 -153 -272 1 -127 4 -298 8 -381 l6 -150 99 -3 c90 -3 104 0 151 24 l52 26 44 -29 c38 -25 51 -28 124 -28 68 1 90 5 137 28 75 37 114 74 127 123 15 52 14 497 0 566 -7 33 -22 62 -39 80 -25 25 -35 28 -92 27 -35 0 -73 -4 -86 -9z"/>
 <path d="M6220 9557 c-20 -10 -26 -23 -32 -62 -9 -67 -9 -412 -1 -732 l6 -263 144 0 143 0 0 529 0 528 -67 6 c-103 10 -165 8 -193 -6z"/>
 <path d="M8488 9564 c-28 -9 -33 -63 -33 -384 0 -343 6 -384 57 -414 16 -10 41 -16 54 -13 20 4 12 -9 -46 -68 -38 -40 -70 -80 -70 -89 0 -32 41 -97 73 -116 72 -44 182 -35 207 17 38 82 29 147 -25 190 -19 16 -35 33 -35 39 0 5 13 20 30 32 65 49 65 49 62 442 -2 195 -4 356 -6 357 -6 6 -251 12 -268 7z"/>
 <path d="M1854 7510 c-126 -11 -230 -42 -361 -106 -172 -84 -305 -201 -406 -356 -80 -124 -147 -337 -147 -470 0 -104 30 -114 305 -103 l182 7 21 84 c28 114 89 218 182 313 94 95 165 134 296 161 113 24 281 28 367 10 31 -6 59 -11 62 -11 11 2 116 -49 151 -73 198 -134 229 -305 89 -491 -96 -128 -229 -192 -630 -300 -351 -95 -515 -167 -666 -293 -138 -116 -194 -187 -235 -300 -34 -94 -48 -207 -41 -336 10 -192 57 -313 178 -454 109 -128 254 -219 450 -282 155 -50 247 -64 434 -64 224 -1 308 10 475 64 223 71 415 237 520 448 50 101 70 194 70 331 l0 111 -238 0 -238 0 -18 -90 c-22 -110 -53 -174 -117 -244 -133 -146 -389 -197 -704 -140 -45 8 -132 50 -176 84 -55 45 -100 141 -107 230 -4 64 -2 76 27 133 20 40 47 74 76 97 103 81 166 106 590 236 674 207 849 316 968 601 l32 78 0 210 c0 203 -1 212 -27 283 -108 297 -400 545 -714 606 -44 9 -99 18 -124 21 -84 10 -434 14 -526 5z"/>
 <path d="M4221 7510 c-138 -19 -294 -83 -398 -161 -77 -57 -196 -183 -246 -258 -66 -99 -124 -227 -144 -316 -15 -68 -18 -133 -18 -420 0 -387 3 -410 78 -562 90 -183 192 -310 327 -405 60 -43 203 -113 246 -121 11 -2 26 -7 34 -10 88 -32 402 -41 525 -14 116 25 122 27 210 68 176 80 383 291 452 461 54 134 64 205 70 486 l6 262 -249 3 c-348 3 -371 3 -817 5 -374 2 -398 3 -393 20 3 9 8 40 12 67 26 200 138 369 280 424 82 31 187 43 282 31 194 -25 297 -96 374 -260 l43 -91 180 5 c203 6 251 15 265 52 31 81 -86 297 -251 464 -154 154 -246 208 -439 255 -78 19 -337 28 -429 15z m645 -1437 c-8 -91 -44 -178 -109 -262 -82 -107 -187 -151 -357 -151 -160 0 -264 39 -347 130 -54 60 -108 167 -128 255 -9 39 -18 78 -21 88 -5 16 23 17 482 17 l487 0 -7 -77z"/>
 <path d="M10425 7514 c-130 -20 -252 -82 -353 -179 -104 -98 -146 -162 -173 -260 -19 -70 -21 -96 -16 -220 6 -159 26 -244 79 -333 131 -217 307 -301 813 -387 110 -18 251 -46 312 -60 l113 -27 15 -51 c35 -117 10 -230 -61 -279 -68 -47 -118 -59 -274 -65 -167 -6 -243 7 -313 56 -75 52 -92 77 -142 214 l-17 48 -203 -3 c-179 -3 -205 -5 -223 -21 -28 -26 -32 -59 -15 -140 21 -103 49 -169 97 -235 130 -176 308 -289 516 -328 117 -22 410 -26 515 -6 39 7 84 15 100 18 86 14 247 81 315 132 61 46 131 125 156 177 56 120 69 291 80 1025 3 261 8 477 10 479 2 2 32 8 66 13 99 13 103 20 103 192 0 137 -1 146 -23 169 -35 37 -86 47 -238 47 -179 -1 -195 -7 -323 -141 l-96 -100 -65 48 c-127 94 -235 152 -369 194 -52 17 -97 22 -211 24 -80 2 -158 1 -175 -1z m334 -414 c93 -12 149 -29 235 -71 79 -39 124 -79 168 -151 51 -82 68 -166 68 -332 l0 -136 -67 24 c-108 39 -212 64 -292 71 -156 14 -345 77 -420 140 -94 80 -104 278 -17 373 46 52 108 76 231 91 6 0 48 -4 94 -9z"/>
 <path d="M13744 7511 c-126 -20 -254 -86 -346 -177 -85 -84 -123 -141 -151 -229 -19 -62 -22 -92 -22 -250 1 -173 2 -183 29 -255 81 -215 258 -333 627 -419 46 -11 102 -22 124 -26 53 -8 65 -9 245 -41 189 -32 274 -57 295 -87 25 -36 21 -182 -7 -237 -54 -105 -151 -140 -384 -137 l-151 2 -69 35 c-82 42 -133 103 -166 200 -12 36 -21 69 -20 73 1 4 -94 7 -212 5 -236 -3 -245 -6 -248 -64 -5 -103 74 -296 169 -408 83 -99 240 -198 363 -228 39 -9 49 -12 130 -30 32 -7 130 -13 235 -13 159 0 224 6 335 30 14 4 36 8 50 11 13 3 58 19 100 36 218 90 354 249 381 448 7 52 13 323 16 702 l5 617 26 5 c15 2 48 8 75 11 73 10 82 30 82 191 l0 133 -29 30 c-17 17 -46 36 -65 41 -48 13 -213 13 -286 -1 -89 -16 -134 -45 -219 -141 -43 -49 -81 -88 -84 -88 -4 0 -29 18 -57 41 -132 107 -216 151 -365 195 -67 20 -113 26 -220 29 -74 2 -158 0 -186 -4z m506 -451 c174 -68 258 -157 295 -312 13 -57 22 -338 11 -338 -2 0 -26 9 -52 20 -48 21 -184 53 -404 95 -212 41 -305 82 -357 158 -55 82 -53 198 4 297 57 97 119 122 293 117 113 -3 133 -7 210 -37z"/>
 <path d="M8446 7494 c-228 -41 -451 -202 -548 -395 -42 -83 -78 -210 -78 -280 0 -73 18 -83 159 -87 64 -2 161 -1 217 3 l101 7 23 66 c13 37 30 81 39 97 45 85 142 151 263 180 82 19 228 19 303 0 177 -47 282 -167 244 -282 -32 -99 -69 -118 -409 -213 -529 -148 -666 -211 -780 -362 -138 -183 -140 -448 -5 -659 49 -76 171 -190 253 -236 50 -29 149 -66 207 -79 142 -31 409 -39 530 -15 86 16 172 43 233 73 186 90 376 315 418 493 20 86 12 118 -33 136 -18 7 -91 9 -193 7 -202 -4 -217 -10 -270 -110 -43 -83 -80 -122 -145 -153 -67 -33 -91 -37 -227 -40 -179 -4 -306 30 -339 93 -8 14 -14 56 -14 98 0 138 45 165 445 268 585 152 749 253 814 503 29 110 24 321 -10 416 -61 173 -242 354 -424 425 -50 20 -79 27 -190 48 -76 14 -503 13 -584 -2z"/>
 <path d="M12564 7470 c-113 -23 -236 -119 -284 -221 -44 -95 -50 -204 -50 -936 l0 -641 -102 -7 c-57 -4 -119 -8 -138 -8 l-35 -2 -3 -176 -2 -177 57 -6 c32 -3 92 -8 135 -12 l76 -6 6 -77 c3 -42 8 -167 12 -278 l6 -203 238 0 238 0 6 98 c3 53 8 179 12 279 l6 181 107 6 c58 4 132 9 164 12 l57 6 0 177 0 177 -57 2 c-32 0 -106 4 -165 8 l-108 6 0 683 0 683 103 6 c56 4 132 9 168 12 l66 6 6 136 c4 76 2 157 -3 182 -5 25 -9 48 -10 52 -2 35 -379 63 -506 38z"/>
 <path d="M5737 7451 c-21 -4 -43 -13 -49 -19 -17 -17 -22 -534 -13 -1384 l7 -748 223 0 223 0 6 38 c3 20 8 65 12 100 3 35 9 62 13 60 5 -2 32 -25 62 -51 84 -74 163 -123 247 -156 83 -31 99 -35 239 -52 150 -18 346 11 478 70 143 65 276 254 321 456 10 43 14 915 7 1328 l-6 347 -237 0 -237 0 -7 -31 c-3 -17 -6 -221 -6 -453 0 -443 -13 -900 -31 -1050 -8 -72 -15 -97 -36 -124 -28 -37 -102 -75 -181 -93 -66 -15 -206 -15 -272 1 -118 28 -225 101 -266 181 -64 127 -75 253 -89 999 -3 151 -8 344 -11 428 l-6 152 -72 0 c-40 0 -120 2 -177 5 -57 2 -121 0 -142 -4z"/>
 <path d="M1165 3261 c-57 -15 -100 -43 -163 -107 -85 -87 -102 -126 -102 -238 0 -113 18 -154 109 -247 82 -83 121 -101 226 -103 122 -2 168 16 245 94 36 36 78 90 94 120 26 48 30 65 30 135 0 69 -4 87 -29 133 -41 75 -121 159 -179 189 -53 27 -173 40 -231 24z"/>
 <path d="M5635 3256 c-63 -21 -96 -42 -145 -88 -51 -49 -89 -97 -114 -146 -20 -40 -20 -156 0 -214 22 -63 82 -147 130 -181 188 -132 479 -29 554 197 7 22 12 66 12 99 -3 194 -264 393 -437 333z"/>
 <path d="M8050 3244 c-100 -36 -186 -130 -220 -241 -42 -135 -20 -223 80 -324 82 -83 151 -113 255 -112 239 1 401 236 320 463 -24 68 -117 165 -190 200 -65 31 -179 37 -245 14z"/>
 <path d="M12370 3241 c-95 -52 -188 -163 -215 -255 -43 -147 37 -318 181 -391 51 -26 70 -30 139 -30 69 0 89 4 146 31 81 39 180 132 199 188 8 24 11 72 8 135 -3 79 -9 106 -32 153 -53 112 -163 178 -305 185 -71 3 -92 0 -121 -16z"/>
 <path d="M4223 2426 c-139 -45 -266 -211 -267 -350 -2 -133 83 -263 211 -326 57 -29 79 -34 139 -35 63 0 79 4 149 40 134 68 199 169 212 331 4 46 1 70 -13 100 -26 55 -164 188 -228 219 -64 31 -145 40 -203 21z"/>
 <path d="M12415 2421 c-88 -22 -185 -102 -229 -189 -50 -99 -55 -237 -10 -324 24 -46 96 -114 159 -149 56 -32 66 -34 155 -34 85 0 101 3 155 29 71 35 137 101 166 165 33 72 37 190 9 271 -52 157 -249 269 -405 231z"/>
 <path d="M13273 2421 c-71 -18 -159 -86 -208 -161 -59 -88 -72 -259 -27 -345 45 -88 188 -187 288 -201 166 -21 355 131 384 310 24 146 -83 318 -236 382 -41 17 -158 26 -201 15z"/>
 <path d="M1163 2401 c-127 -43 -222 -154 -253 -296 -20 -90 10 -166 105 -266 137 -145 325 -146 471 -1 111 111 136 228 76 356 -80 172 -248 258 -399 207z"/>
 <path d="M6462 2380 c-51 -23 -171 -139 -196 -189 -10 -18 -20 -63 -23 -100 -13 -174 122 -321 324 -353 93 -14 128 -1 212 78 87 81 124 152 129 246 8 134 -54 242 -174 303 -79 39 -206 47 -272 15z"/>
 <path d="M8023 2384 c-47 -23 -151 -136 -174 -189 -72 -162 3 -341 179 -427 56 -28 78 -33 137 -33 61 0 81 5 139 34 138 70 218 226 186 363 -25 106 -79 182 -159 223 -86 43 -248 58 -308 29z"/>
 <path d="M8943 1580 c-103 -22 -210 -108 -243 -196 -43 -117 -35 -267 18 -339 45 -60 162 -152 209 -166 71 -20 191 -7 258 27 158 80 243 272 189 431 -18 53 -70 136 -110 177 -55 54 -218 88 -321 66z"/>
 <path d="M2064 1569 c-71 -13 -131 -48 -194 -115 -82 -88 -104 -133 -105 -214 0 -85 33 -153 116 -239 82 -84 120 -101 233 -101 110 0 156 19 236 100 76 75 111 138 117 210 9 97 -27 172 -127 267 -78 74 -181 108 -276 92z"/>
 <path d="M10895 1566 c-140 -48 -206 -105 -254 -221 -35 -83 -38 -129 -15 -201 50 -148 221 -285 340 -271 67 7 189 72 246 132 129 134 121 329 -19 463 -98 94 -207 129 -298 98z"/>
 <path d="M3363 1556 c-63 -20 -105 -50 -170 -119 -67 -73 -83 -113 -83 -213 1 -155 92 -276 240 -320 78 -23 170 -11 265 36 71 34 111 88 147 196 31 93 29 154 -7 227 -63 128 -159 197 -283 203 -39 2 -84 -2 -109 -10z"/>
 <path d="M5611 1555 c-69 -19 -109 -45 -156 -96 -61 -67 -79 -120 -80 -224 0 -79 3 -97 28 -148 47 -95 142 -174 234 -194 15 -4 60 -6 98 -6 123 2 214 60 280 178 60 106 64 199 13 304 -30 64 -114 150 -168 173 -60 27 -179 33 -249 13z"/>
 <path d="M6470 1552 c-53 -20 -155 -118 -196 -188 -26 -44 -29 -58 -29 -134 0 -72 4 -93 27 -140 36 -74 83 -121 154 -156 53 -26 69 -29 154 -29 83 1 102 4 150 29 117 59 170 143 178 283 4 69 1 93 -17 141 -28 74 -103 149 -181 182 -73 31 -179 36 -240 12z"/>
 <path d="M14826 1551 c-67 -24 -156 -106 -192 -178 -25 -50 -29 -69 -29 -143 0 -110 26 -171 101 -240 66 -59 134 -86 225 -89 89 -3 160 31 232 109 72 79 101 147 100 237 0 63 -4 79 -33 126 -41 68 -127 145 -194 174 -62 27 -141 29 -210 4z"/>
 <path d="M13234 1544 c-54 -19 -118 -74 -150 -130 -104 -177 -49 -401 120 -484 159 -79 362 -11 451 151 27 48 30 63 30 144 0 50 -4 99 -9 110 -5 11 -10 23 -10 27 -1 3 -15 27 -33 52 -41 57 -114 112 -177 131 -62 19 -168 18 -222 -1z"/>
 </g>
<g id="layer103" fill="#fefefe" stroke="none">
 <path d="M7720 9861 c-59 -39 -129 -113 -163 -172 l-27 -46 23 -16 c18 -11 51 -15 128 -15 97 0 106 1 138 26 37 27 123 41 175 28 32 -8 54 -71 40 -115 l-9 -30 -55 27 c-72 34 -194 40 -255 13 -42 -19 -121 -91 -168 -154 -51 -67 -57 -93 -51 -223 8 -218 29 -276 128 -356 123 -99 251 -109 378 -31 46 28 65 29 73 4 10 -33 35 -45 100 -47 86 -4 122 20 149 96 18 49 20 83 19 315 0 298 -15 470 -45 524 -27 49 -94 117 -143 146 -61 35 -108 45 -255 51 l-135 6 -45 -31z m277 -544 c28 -28 41 -86 38 -174 -3 -99 -19 -142 -61 -159 -43 -18 -58 -18 -100 2 -108 51 -124 282 -24 343 42 25 116 19 147 -12z"/>
 <path d="M2030 9588 c-57 -23 -78 -34 -130 -69 -74 -50 -104 -83 -137 -154 -24 -54 -27 -71 -27 -165 1 -179 38 -268 156 -377 75 -69 98 -76 228 -77 75 -1 127 4 150 13 126 48 177 91 228 189 38 76 65 184 57 229 -11 60 -45 68 -325 77 -197 7 -223 14 -202 52 25 47 62 69 116 69 45 0 58 -5 89 -32 43 -38 91 -53 169 -53 108 0 135 29 98 104 -58 120 -209 204 -367 204 -43 0 -89 -5 -103 -10z m221 -545 c28 -33 -37 -94 -105 -96 -45 -1 -78 12 -103 41 -48 54 -20 72 109 70 62 0 91 -5 99 -15z"/>
 <path d="M2919 9591 c-113 -24 -226 -116 -281 -228 -31 -64 -33 -74 -33 -178 0 -127 16 -188 73 -273 98 -148 274 -210 448 -158 85 25 194 87 224 128 48 65 33 135 -35 164 -57 24 -96 17 -191 -32 -99 -50 -137 -53 -181 -12 -70 66 -65 281 8 332 38 26 81 19 157 -24 87 -50 168 -67 227 -48 51 17 55 41 21 111 -38 77 -106 149 -176 186 -53 28 -74 34 -144 37 -44 1 -97 -1 -117 -5z"/>
 <path d="M5536 9583 c-88 -20 -200 -113 -250 -207 -36 -68 -37 -180 -1 -376 7 -39 46 -113 78 -150 31 -35 118 -80 185 -96 84 -19 243 -12 312 15 59 22 144 96 184 159 134 214 47 521 -180 633 -61 30 -75 33 -168 35 -56 0 -127 -5 -160 -13z m220 -255 c71 -70 41 -310 -44 -351 -90 -44 -174 56 -175 206 0 84 18 128 66 158 44 28 119 22 153 -13z"/>
 <path d="M6893 9591 c-112 -28 -225 -123 -283 -238 -34 -65 -35 -72 -35 -178 0 -107 1 -112 38 -187 99 -201 259 -285 467 -244 191 38 287 127 328 303 18 77 21 172 7 254 -25 147 -231 295 -415 297 -41 0 -90 -3 -107 -7z m153 -227 c97 -46 123 -235 48 -345 -14 -20 -36 -41 -50 -48 -35 -16 -97 2 -123 35 -44 56 -54 238 -16 301 16 28 77 72 98 73 5 0 24 -7 43 -16z"/>
 <path d="M9174 9591 c-85 -22 -219 -123 -253 -190 -31 -61 -45 -142 -45 -256 1 -89 5 -121 23 -167 54 -138 195 -231 363 -237 98 -3 160 15 247 73 89 59 153 161 175 276 15 77 9 107 -24 132 -28 21 -71 25 -302 32 -193 6 -224 18 -180 72 28 35 65 52 107 49 54 -3 52 -2 74 -26 35 -37 91 -56 176 -58 73 -2 82 0 103 22 l22 24 -20 46 c-29 66 -96 129 -181 171 -66 32 -86 38 -164 41 -50 2 -104 1 -121 -4z m208 -543 c34 -12 35 -24 6 -50 -35 -30 -79 -51 -120 -55 -32 -4 -42 0 -79 37 l-44 42 23 18 c17 14 40 18 104 18 44 0 94 -5 110 -10z"/>
 <path d="M9978 9589 c-48 -13 -93 -43 -153 -103 -91 -89 -108 -120 -87 -154 11 -16 48 -23 142 -25 68 -2 80 1 123 28 113 70 120 73 157 71 40 -2 70 -24 70 -50 0 -21 -34 -42 -125 -76 -245 -92 -344 -176 -345 -291 0 -48 45 -117 112 -170 79 -63 108 -72 235 -75 151 -4 197 9 287 80 35 27 96 108 96 128 0 21 -68 41 -142 41 -63 1 -83 -3 -106 -20 -35 -26 -67 -36 -116 -37 -42 -2 -81 22 -68 40 11 18 80 49 182 83 289 95 363 248 204 420 -56 61 -118 94 -201 107 -52 8 -238 11 -265 3z"/>
 <path d="M1288 9559 c-30 -17 -37 -109 -37 -530 l-1 -286 -122 -7 c-68 -4 -134 -13 -148 -19 -24 -12 -25 -17 -28 -113 l-3 -101 128 -5 c271 -10 677 -4 704 10 36 19 60 64 61 114 0 35 -5 47 -30 69 -41 37 -89 49 -192 49 l-85 0 3 410 3 410 -38 1 c-168 7 -200 6 -215 -2z"/>
 <path d="M3503 9560 c-13 -5 -23 -13 -24 -17 0 -4 -3 -17 -5 -28 -7 -31 -5 -851 2 -937 l7 -78 137 0 138 0 5 33 c3 17 9 64 13 102 11 113 19 145 37 145 7 0 35 -9 63 -19 121 -46 276 4 349 114 18 27 20 50 23 220 2 105 1 250 -3 323 l-7 132 -124 0 c-120 0 -124 -1 -128 -22 -3 -13 -8 -104 -11 -204 -9 -309 -22 -354 -98 -354 -35 0 -74 35 -80 72 -7 37 -12 108 -27 347 -6 91 -12 166 -13 168 -8 8 -235 10 -254 3z"/>
 <path d="M4922 9554 c-18 -7 -33 -20 -33 -29 -1 -8 -2 -18 -3 -22 -1 -5 -6 -80 -10 -168 -14 -315 -31 -373 -105 -361 -54 8 -78 30 -87 78 -11 63 -11 65 -19 288 -4 113 -8 206 -9 207 -1 1 -50 3 -108 5 -88 1 -111 -2 -134 -16 l-27 -19 7 -375 c4 -207 9 -378 12 -381 2 -3 48 -6 101 -7 85 -3 101 0 144 22 60 30 63 30 104 -2 30 -22 45 -26 112 -27 69 -1 86 3 145 31 76 37 113 75 129 134 7 27 10 128 7 292 -3 231 -5 255 -25 298 -11 25 -29 51 -40 56 -27 14 -124 12 -161 -4z"/>
 <path d="M6223 9557 c-13 -5 -26 -19 -30 -31 -8 -26 -7 -890 2 -968 l7 -58 139 0 139 0 0 530 0 530 -47 1 c-27 1 -79 3 -118 4 -38 2 -80 -2 -92 -8z"/>
 <path d="M8486 9557 c-13 -10 -20 -35 -27 -98 -12 -112 -4 -584 10 -630 15 -48 44 -72 86 -72 41 0 39 -6 -41 -82 -29 -27 -55 -59 -58 -70 -10 -35 34 -108 78 -129 48 -24 146 -27 172 -6 26 22 44 74 44 126 0 42 -4 51 -40 84 -22 20 -40 41 -40 46 0 5 16 24 35 41 20 18 40 45 46 60 14 36 12 713 -2 727 -3 4 -60 8 -126 11 -89 4 -124 1 -137 -8z"/>
 <path d="M1950 7517 c-3 -2 -41 -7 -85 -10 -102 -8 -137 -15 -231 -45 -151 -50 -318 -154 -424 -267 -30 -32 -63 -65 -72 -73 -10 -9 -18 -21 -18 -26 0 -5 -11 -23 -23 -40 -13 -17 -38 -62 -56 -101 -18 -38 -37 -78 -42 -87 -17 -34 -59 -238 -59 -290 0 -64 5 -73 50 -92 27 -11 71 -13 195 -10 88 2 179 6 201 9 39 5 42 9 49 41 24 129 89 248 199 362 78 81 155 127 250 147 12 2 32 6 46 10 89 20 254 26 335 12 83 -14 102 -19 160 -44 71 -31 113 -61 173 -122 107 -108 116 -246 25 -381 -62 -91 -121 -143 -221 -194 -55 -28 -260 -98 -352 -121 -278 -68 -522 -159 -669 -250 -57 -35 -189 -159 -236 -221 -30 -40 -55 -76 -55 -80 0 -3 -6 -20 -14 -37 -66 -151 -75 -400 -20 -565 32 -97 122 -236 203 -313 140 -132 397 -242 646 -276 111 -15 378 -8 470 11 80 17 164 39 189 50 17 7 36 14 41 15 6 0 52 23 104 49 77 38 111 63 180 132 111 111 138 147 189 251 52 105 69 181 71 322 l2 107 -239 0 -239 0 -6 -37 c-3 -21 -9 -49 -12 -63 -3 -14 -8 -35 -11 -48 -9 -44 -54 -127 -92 -168 -72 -80 -183 -138 -307 -161 -54 -10 -298 -10 -359 0 -154 25 -272 108 -313 221 -27 72 -27 193 0 242 20 39 114 134 132 134 7 0 15 3 17 8 10 22 161 82 333 133 353 103 704 227 805 282 91 51 162 102 212 154 59 62 143 210 160 282 14 60 18 356 6 427 -31 181 -200 418 -385 536 -157 100 -258 139 -433 163 -30 5 -64 10 -75 11 -42 6 -390 16 -395 11z"/>
 <path d="M4290 7517 c-3 -2 -30 -7 -60 -11 -148 -16 -298 -76 -410 -164 -242 -190 -382 -434 -399 -696 -18 -287 -3 -674 28 -751 73 -177 197 -366 293 -446 108 -89 252 -163 378 -194 108 -26 352 -38 445 -22 22 4 56 10 75 13 213 35 479 232 608 450 33 56 78 181 87 241 3 22 8 50 11 63 3 14 8 134 11 266 l6 241 -54 6 c-30 4 -358 9 -729 13 -371 3 -677 8 -678 9 -2 2 6 52 19 112 52 251 160 376 364 421 17 4 77 6 135 5 216 -2 352 -84 436 -262 l37 -79 131 -4 c148 -4 292 11 307 33 6 8 8 39 6 69 -10 126 -167 350 -355 503 -79 65 -136 97 -229 128 -72 24 -74 25 -113 33 -14 3 -36 8 -50 11 -35 8 -294 19 -300 12z m577 -1449 c-9 -110 -56 -207 -147 -299 -81 -83 -127 -100 -290 -107 -181 -7 -276 22 -366 113 -80 82 -129 180 -149 302 -4 21 -9 46 -12 56 -4 16 24 17 483 17 l487 0 -6 -82z"/>
 <path d="M10450 7517 c-3 -3 -21 -7 -40 -10 -155 -23 -322 -129 -428 -271 -79 -107 -101 -186 -100 -356 2 -293 116 -487 354 -601 108 -51 325 -110 494 -135 31 -4 70 -11 175 -28 17 -3 55 -10 85 -16 30 -6 66 -13 80 -16 14 -2 32 -7 40 -10 8 -3 26 -8 39 -10 43 -8 56 -21 68 -66 23 -81 25 -114 9 -173 -33 -128 -143 -178 -396 -178 -164 0 -250 30 -324 112 -34 38 -45 58 -77 149 l-22 63 -187 -1 c-154 -1 -194 -5 -222 -18 l-33 -17 1 -71 c3 -166 100 -333 266 -462 123 -94 238 -139 423 -167 203 -30 519 -1 685 65 192 75 320 205 358 360 23 95 28 180 37 555 12 522 13 577 14 717 1 153 -5 142 86 153 28 3 56 12 63 19 21 20 32 83 32 184 0 177 -23 195 -255 199 -186 3 -196 -1 -333 -139 l-97 -98 -62 41 c-35 23 -63 46 -63 50 0 5 -4 9 -10 9 -5 0 -34 15 -63 34 -50 32 -207 101 -252 111 -11 2 -31 7 -45 10 -32 9 -293 19 -300 12z m405 -432 c89 -21 193 -75 251 -132 68 -66 102 -138 119 -254 17 -111 20 -289 5 -289 -6 0 -26 7 -46 15 -74 31 -252 74 -327 79 -43 3 -81 8 -86 10 -4 3 -23 8 -41 11 -18 3 -61 15 -94 26 -201 68 -260 133 -260 289 -1 69 3 93 21 126 34 64 92 110 154 123 30 6 63 13 74 15 31 7 163 -4 230 -19z"/>
 <path d="M13760 7510 c-25 -4 -61 -11 -80 -14 -19 -4 -73 -25 -119 -48 -115 -57 -224 -161 -275 -260 -20 -40 -39 -84 -41 -98 -3 -14 -8 -36 -11 -50 -3 -14 -8 -90 -9 -170 -2 -117 1 -159 16 -220 62 -243 255 -381 655 -469 77 -17 158 -33 180 -36 146 -22 392 -68 419 -79 52 -22 65 -50 65 -140 0 -154 -45 -220 -175 -254 -90 -24 -247 -32 -348 -18 -130 18 -223 99 -271 235 l-28 82 -196 -1 c-207 -2 -239 -8 -249 -47 -15 -60 29 -208 98 -333 19 -35 103 -142 126 -160 99 -81 244 -147 397 -182 121 -28 407 -31 536 -5 246 49 423 149 520 296 89 133 99 245 100 1047 l0 490 48 2 c64 3 105 18 121 43 18 29 25 239 9 276 -33 78 -78 94 -243 88 -66 -2 -136 -7 -155 -10 -55 -10 -113 -50 -171 -116 -30 -34 -66 -74 -81 -90 l-26 -29 -72 59 c-118 96 -267 172 -386 196 -22 5 -46 10 -54 12 -35 9 -259 11 -300 3z m335 -410 c260 -38 417 -164 454 -364 6 -33 11 -122 11 -198 l0 -139 -29 16 c-53 27 -232 73 -386 100 -16 2 -41 7 -55 10 -14 3 -38 8 -55 10 -118 21 -230 71 -279 125 -44 48 -51 74 -50 170 1 160 85 251 249 273 54 7 69 7 140 -3z"/>
 <path d="M8529 7506 c-2 -2 -31 -7 -64 -11 -33 -3 -87 -16 -120 -27 -63 -21 -179 -79 -206 -104 -8 -8 -18 -14 -22 -14 -15 0 -123 -110 -162 -165 -78 -110 -134 -259 -135 -362 0 -85 44 -99 278 -89 81 3 159 6 173 6 22 0 28 7 39 43 19 66 68 167 79 167 6 0 11 6 11 13 0 24 74 72 165 109 73 29 276 36 365 13 152 -39 250 -130 250 -233 0 -51 -19 -99 -51 -129 -37 -34 -150 -80 -239 -98 -8 -2 -44 -12 -80 -23 -36 -11 -103 -31 -150 -43 -180 -47 -394 -121 -480 -166 -167 -87 -267 -223 -296 -404 -13 -78 -13 -100 0 -172 27 -155 79 -252 200 -370 159 -155 352 -220 661 -221 115 0 187 7 295 29 65 13 199 76 268 127 166 122 311 344 315 481 1 60 -13 73 -90 83 -62 7 -276 -1 -313 -13 -44 -14 -66 -36 -98 -99 -50 -99 -121 -153 -242 -182 -36 -9 -267 -8 -318 1 -139 25 -199 103 -171 224 22 103 103 145 414 220 196 47 447 129 562 184 160 76 253 183 287 329 19 83 19 291 -1 374 -14 63 -65 165 -105 211 -147 171 -294 261 -477 291 -18 3 -43 8 -55 11 -25 6 -481 15 -487 9z"/>
 <path d="M12565 7466 c-111 -28 -221 -104 -264 -185 -27 -51 -37 -81 -57 -166 -4 -16 -9 -348 -11 -737 l-4 -706 -77 -7 c-42 -3 -103 -7 -134 -7 l-58 -2 0 -178 0 -178 28 -1 c15 -1 38 -3 52 -4 14 -2 55 -4 91 -5 37 -1 73 -6 80 -10 12 -8 26 -240 28 -467 l1 -83 239 0 239 0 6 108 c3 59 8 182 12 274 7 192 -6 174 129 178 44 1 91 3 105 5 14 1 42 3 63 3 l37 2 0 178 0 177 -62 2 c-35 0 -109 4 -165 8 l-103 7 0 684 c0 540 3 684 13 685 70 5 114 8 205 14 58 3 108 8 110 10 7 6 12 88 15 216 2 139 -8 163 -75 174 -24 4 -52 9 -63 12 -50 11 -333 10 -380 -1z"/>
 <path d="M5748 7451 c-27 -4 -52 -11 -58 -17 -17 -17 -23 -457 -15 -1296 l7 -838 224 0 224 0 1 23 c0 12 2 38 5 57 2 19 6 53 7 74 2 22 7 41 12 43 6 2 29 -14 51 -35 214 -195 492 -266 809 -206 52 9 178 57 217 81 93 58 205 215 253 357 29 85 35 265 30 955 -3 377 -8 710 -11 739 l-6 52 -233 0 -233 0 -6 -142 c-3 -79 -8 -377 -11 -663 -3 -286 -8 -545 -10 -575 -20 -258 -16 -244 -71 -296 -105 -102 -371 -121 -539 -39 -129 63 -181 135 -208 290 -25 145 -31 242 -42 725 -15 666 -16 695 -28 702 -7 4 -48 8 -93 8 -45 0 -114 2 -155 4 -41 3 -95 1 -121 -3z"/>
 <path d="M1156 3255 c-66 -17 -166 -101 -224 -187 -25 -39 -27 -49 -27 -147 0 -126 13 -157 104 -251 79 -81 131 -104 241 -104 109 0 155 20 238 104 68 70 97 120 114 202 10 49 9 63 -10 123 -33 98 -120 203 -204 244 -53 25 -164 33 -232 16z"/>
 <path d="M5655 3260 c-86 -19 -213 -125 -269 -225 -26 -46 -28 -56 -23 -130 6 -94 41 -173 108 -242 63 -67 116 -87 230 -88 89 0 99 2 162 34 130 66 210 186 206 310 -2 73 -10 96 -50 156 -84 127 -250 211 -364 185z"/>
 <path d="M8050 3242 c-25 -9 -47 -19 -50 -22 -3 -3 -21 -16 -41 -29 -83 -55 -144 -184 -144 -301 1 -64 5 -83 30 -128 38 -70 101 -127 183 -165 56 -26 79 -31 137 -31 122 1 223 58 285 160 112 185 41 408 -160 503 -71 33 -174 39 -240 13z"/>
 <path d="M12398 3250 c-65 -20 -175 -125 -218 -209 -42 -84 -48 -149 -20 -231 75 -224 297 -310 497 -194 57 34 143 120 160 162 32 78 5 279 -46 334 -12 12 -21 25 -21 29 0 17 -100 79 -157 98 -63 21 -146 26 -195 11z"/>
 <path d="M4225 2423 c-52 -16 -125 -63 -161 -105 -47 -54 -95 -146 -103 -197 -36 -229 193 -445 420 -396 53 12 140 64 182 109 90 98 132 267 88 354 -20 38 -167 192 -185 192 -5 0 -17 7 -27 16 -18 16 -111 44 -144 43 -11 0 -42 -7 -70 -16z"/>
 <path d="M12390 2409 c-130 -50 -215 -155 -239 -294 -23 -128 25 -243 132 -318 127 -89 232 -101 357 -40 129 63 192 158 196 298 4 118 -20 185 -91 251 -116 108 -245 146 -355 103z"/>
 <path d="M13282 2423 c-42 -8 -139 -72 -177 -115 -63 -74 -89 -141 -92 -238 -2 -72 1 -94 21 -135 31 -68 68 -109 135 -152 118 -75 212 -86 317 -36 84 40 85 41 132 97 62 73 84 127 90 212 4 68 2 78 -31 146 -20 40 -49 87 -64 103 -87 91 -222 139 -331 118z"/>
 <path d="M1156 2396 c-126 -47 -210 -147 -245 -293 -14 -57 -8 -90 32 -168 29 -57 128 -152 189 -180 71 -33 163 -34 230 -2 49 23 148 100 164 127 49 85 59 117 59 190 -1 65 -5 84 -33 138 -85 165 -249 242 -396 188z"/>
 <path d="M6496 2393 c-77 -21 -213 -156 -242 -239 -27 -77 0 -200 60 -279 61 -79 189 -136 308 -137 47 -1 65 4 98 27 58 40 124 115 156 176 25 47 29 66 29 139 0 70 -4 94 -25 135 -54 110 -161 176 -295 181 -38 1 -79 0 -89 -3z"/>
 <path d="M8013 2374 c-214 -143 -252 -368 -89 -528 95 -94 188 -127 294 -106 74 16 104 32 165 88 123 115 145 273 59 416 -62 102 -145 142 -316 151 -66 4 -78 2 -113 -21z"/>
 <path d="M8951 1578 c-133 -23 -238 -125 -266 -257 -16 -79 -10 -193 14 -239 20 -39 191 -207 191 -187 0 2 16 -3 35 -11 42 -17 143 -18 199 -2 52 15 142 75 180 119 15 19 40 59 55 89 22 46 26 69 26 140 0 77 -3 92 -33 151 -50 99 -105 153 -180 178 -70 24 -155 31 -221 19z"/>
 <path d="M10897 1565 c-123 -33 -213 -113 -261 -233 -22 -55 -28 -82 -24 -119 11 -117 110 -248 232 -309 38 -18 81 -34 95 -34 78 0 236 85 287 153 55 75 67 107 72 194 4 74 2 88 -22 137 -34 69 -125 160 -192 192 -59 28 -127 35 -187 19z"/>
 <path d="M2005 1553 c-22 -9 -41 -20 -43 -25 -2 -4 -8 -8 -13 -8 -16 0 -114 -101 -141 -145 -55 -88 -55 -193 0 -280 40 -62 132 -155 177 -175 31 -15 60 -19 135 -17 84 2 101 5 142 29 113 67 202 195 204 297 3 85 -47 179 -129 246 -27 22 -54 45 -61 52 -22 20 -117 43 -175 42 -31 0 -74 -7 -96 -16z"/>
 <path d="M3349 1546 c-70 -28 -103 -52 -158 -111 -68 -74 -85 -122 -78 -224 5 -88 16 -117 68 -193 63 -92 203 -141 329 -115 19 4 65 22 102 39 60 28 70 37 97 87 72 137 90 228 58 303 -20 47 -73 126 -107 157 -80 75 -209 99 -311 57z"/>
 <path d="M5670 1564 c-137 -23 -210 -75 -270 -194 -18 -35 -23 -62 -23 -125 -1 -111 28 -181 102 -256 171 -170 441 -121 547 99 41 84 43 185 5 267 -58 125 -158 201 -276 209 -33 2 -71 2 -85 0z"/>
 <path d="M6480 1554 c-63 -22 -172 -131 -210 -209 -24 -49 -28 -71 -26 -120 3 -70 40 -169 82 -218 78 -93 251 -128 385 -78 77 29 123 71 161 149 30 62 33 74 33 162 -1 78 -5 103 -24 142 -66 137 -263 221 -401 172z"/>
 <path d="M14841 1555 c-95 -27 -194 -131 -226 -239 -22 -71 -11 -167 27 -237 17 -33 47 -74 67 -91 84 -73 215 -105 310 -73 133 44 252 203 245 329 -5 86 -25 127 -98 202 -39 39 -90 81 -113 93 -57 28 -144 35 -212 16z"/>
 <path d="M13224 1536 c-68 -31 -120 -86 -155 -160 -38 -82 -46 -154 -25 -236 27 -107 79 -170 176 -216 49 -23 64 -26 135 -22 134 8 250 81 305 193 21 42 25 64 25 135 -1 126 -43 200 -155 276 -89 60 -215 72 -306 30z"/>
 </g>

</svg>