<!DOCTYPE svg PUBLIC "-//W3C//DTD SVG 20010904//EN" "http://www.w3.org/TR/2001/REC-SVG-20010904/DTD/svg10.dtd">
<svg version="1.0" xmlns="http://www.w3.org/2000/svg" width="1181px" height="278px" viewBox="0 0 11810 2780" preserveAspectRatio="xMidYMid meet">
<g id="layer101" fill="#ffffff" stroke="none">
 <path d="M27 2752 l-27 -28 0 -462 c0 -510 -1 -499 62 -521 20 -7 181 -11 465 -11 374 0 438 2 464 16 55 28 59 54 59 363 l0 280 27 20 c26 21 30 21 669 19 602 -3 644 -4 661 -21 17 -16 18 -52 21 -480 2 -325 -1 -469 -9 -489 -6 -15 -24 -31 -41 -37 -21 -8 -340 -11 -1000 -11 -1069 0 -1004 4 -1027 -62 -15 -43 -15 -1223 0 -1266 23 -67 -80 -62 1389 -62 l1332 0 29 29 29 29 0 287 0 287 -34 34 -34 34 -457 0 -457 0 -34 -34 -34 -34 0 -116 c0 -111 -1 -118 -25 -141 l-24 -25 -285 0 c-157 0 -296 4 -309 9 -42 16 -47 55 -47 336 0 281 5 320 47 336 14 5 423 9 998 9 l975 0 32 29 33 29 3 799 c2 586 -1 805 -9 826 -26 61 103 57 -1734 57 l-1681 0 -27 -28z"/>
 <path d="M4037 2769 c-46 -27 -47 -41 -47 -518 l0 -449 26 -31 c16 -19 38 -33 62 -37 20 -3 47 -13 60 -20 l22 -14 0 -310 0 -310 -22 -14 c-13 -7 -40 -17 -60 -20 -24 -4 -46 -18 -62 -37 l-26 -31 0 -449 c0 -480 1 -493 49 -519 13 -6 211 -10 568 -10 l549 0 30 31 29 30 3 475 c1 261 6 474 10 474 4 0 234 -227 512 -505 l505 -505 493 0 c319 0 500 4 513 10 45 25 49 52 49 346 l0 276 -34 34 -34 34 -488 0 -488 0 -168 167 c-92 92 -168 172 -168 178 0 6 152 162 338 348 l338 337 477 0 c534 0 536 0 562 64 12 29 15 110 15 465 0 244 -4 440 -9 454 -6 14 -20 35 -32 46 -23 21 -26 21 -694 21 l-670 0 -505 -505 c-278 -278 -508 -505 -512 -505 -4 0 -9 213 -10 474 l-3 475 -29 30 -30 31 -550 0 c-356 -1 -557 -4 -569 -11z"/>
 <path d="M8189 2751 l-29 -29 0 -460 0 -460 26 -31 c18 -22 38 -33 66 -38 80 -12 78 -4 78 -343 0 -339 2 -331 -78 -343 -28 -5 -48 -16 -66 -38 l-26 -31 0 -460 0 -460 29 -29 29 -29 1769 0 1769 0 27 28 27 28 0 288 c0 178 -4 295 -10 307 -27 49 -25 49 -685 49 -660 0 -658 0 -685 -49 -5 -11 -10 -64 -10 -119 0 -115 -12 -160 -47 -173 -14 -5 -257 -9 -567 -9 -534 0 -544 0 -570 21 l-26 20 0 304 0 304 26 20 c25 20 39 21 229 21 233 0 237 -1 258 -84 8 -33 21 -56 40 -70 28 -21 37 -21 489 -21 l460 0 29 33 29 32 0 280 c0 184 -4 287 -11 304 -6 13 -25 32 -43 41 -28 14 -78 16 -484 13 l-454 -3 -29 -33 c-18 -20 -29 -43 -29 -61 0 -16 -9 -39 -19 -52 -19 -24 -20 -24 -236 -24 -271 0 -255 -11 -255 171 0 142 7 156 78 167 28 5 48 16 66 38 l26 31 0 460 0 460 -29 29 -29 29 -552 0 -552 0 -29 -29z"/>
 </g>

</svg>