<!DOCTYPE svg PUBLIC "-//W3C//DTD SVG 20010904//EN" "http://www.w3.org/TR/2001/REC-SVG-20010904/DTD/svg10.dtd">
<svg version="1.0" xmlns="http://www.w3.org/2000/svg" width="1600px" height="860px" viewBox="0 0 16000 8600" preserveAspectRatio="xMidYMid meet">
<g id="layer101" fill="#ffffff" stroke="none">
 <path d="M1800 8579 c-24 -11 -47 -23 -50 -27 -3 -4 -17 -15 -31 -24 -34 -22 -85 -128 -94 -195 l-7 -53 66 0 66 0 6 41 c21 131 174 201 328 149 80 -26 106 -57 106 -124 0 -76 -17 -91 -144 -131 -61 -19 -140 -41 -176 -49 -82 -17 -107 -28 -149 -64 -40 -34 -61 -88 -61 -161 0 -120 44 -192 148 -243 62 -31 74 -33 167 -33 94 0 105 2 170 34 39 19 78 41 88 50 29 24 60 101 65 159 l4 52 -64 0 -64 0 -12 -44 c-6 -24 -26 -60 -44 -79 -28 -29 -43 -36 -91 -42 -58 -7 -152 0 -174 13 -24 15 -63 84 -63 111 0 40 39 94 75 102 17 4 80 21 140 38 61 17 119 31 130 31 28 0 94 36 132 73 49 46 67 102 61 191 -6 89 -38 144 -113 194 -69 45 -102 52 -245 52 -104 0 -133 -4 -170 -21z"/>
 <path d="M3615 8583 c-16 -9 -35 -22 -43 -30 -7 -7 -22 -18 -32 -23 -10 -5 -33 -40 -52 -77 -32 -66 -33 -72 -33 -188 0 -113 2 -123 30 -180 74 -148 216 -207 374 -155 128 42 171 109 187 291 l7 79 -237 0 -236 0 0 23 c1 31 35 103 63 131 14 14 44 30 67 36 75 20 173 -30 195 -100 5 -17 15 -20 72 -20 55 0 64 2 59 16 -3 9 -9 28 -13 42 -13 56 -72 121 -140 156 -44 22 -225 22 -268 -1z m300 -415 c-4 -13 -15 -41 -26 -64 -45 -95 -181 -112 -251 -30 -22 25 -58 91 -58 106 0 6 59 10 171 10 l170 0 -6 -22z"/>
 <path d="M4283 8587 c-12 -7 -42 -31 -66 -54 -155 -148 -113 -515 68 -593 90 -39 199 -32 270 15 l35 24 0 -149 0 -150 55 0 55 0 0 455 0 455 -50 0 -50 0 0 -35 0 -35 -51 40 -51 40 -96 0 c-57 -1 -106 -6 -119 -13z m212 -116 c16 -9 43 -38 59 -64 24 -39 30 -62 34 -126 7 -121 -23 -194 -99 -240 -43 -26 -79 -26 -129 -1 -106 54 -141 226 -74 362 27 55 42 67 114 92 21 7 60 -2 95 -23z"/>
 <path d="M8045 8584 c-50 -26 -84 -65 -105 -121 -32 -87 -30 -93 38 -93 l59 0 12 39 c23 77 143 114 233 71 109 -51 68 -145 -72 -165 -65 -9 -138 -34 -192 -64 -71 -39 -91 -99 -67 -198 25 -97 121 -149 262 -141 107 7 163 31 201 89 16 24 31 63 34 87 l5 42 -60 0 c-58 0 -59 -1 -68 -32 -15 -50 -65 -78 -138 -78 -52 0 -65 4 -89 27 -61 58 -26 99 117 139 225 63 255 87 255 201 0 94 -45 165 -124 198 -50 21 -260 21 -301 -1z"/>
 <path d="M8664 8586 c-59 -26 -64 -52 -64 -318 l0 -238 -45 0 -45 0 0 -50 0 -50 45 0 45 0 0 -90 0 -90 60 0 60 0 0 90 0 90 55 0 55 0 0 50 0 50 -55 0 -55 0 0 215 c0 240 -2 235 74 235 l36 0 0 54 0 53 -37 7 c-57 9 -95 7 -129 -8z"/>
 <path d="M9250 8579 c-67 -38 -108 -130 -94 -207 8 -48 61 -132 83 -132 9 0 26 -7 38 -15 12 -8 79 -24 148 -35 70 -10 133 -24 141 -31 15 -12 18 -48 8 -86 -9 -32 -62 -53 -134 -53 -57 0 -64 3 -92 32 -16 17 -32 44 -35 60 -5 27 -8 28 -66 28 l-60 0 7 -39 c17 -111 49 -147 155 -178 62 -18 181 -13 241 9 111 42 114 50 120 328 l5 225 33 3 c31 3 32 4 32 52 0 55 -7 60 -76 60 -56 0 -79 -12 -99 -51 l-16 -29 -32 24 c-64 47 -92 56 -184 56 -70 0 -95 -5 -123 -21z m242 -111 c60 -26 79 -56 86 -135 l5 -64 -27 10 c-14 6 -68 16 -119 22 -83 11 -95 15 -124 45 -51 50 -40 98 29 133 48 24 72 22 150 -11z"/>
 <path d="M10635 8586 c-37 -16 -103 -87 -109 -118 -3 -13 -7 -40 -10 -60 l-5 -38 57 0 58 0 19 42 c25 53 61 79 116 85 88 10 179 -37 179 -91 0 -42 -54 -73 -166 -97 -109 -23 -182 -57 -221 -103 -23 -27 -25 -37 -21 -101 2 -50 8 -77 20 -88 9 -9 26 -28 37 -42 45 -58 200 -82 308 -48 59 18 133 86 133 122 0 10 3 33 6 50 l7 31 -59 0 c-59 -1 -59 -1 -77 -40 -23 -50 -60 -70 -127 -70 -90 0 -134 41 -111 102 8 22 22 30 68 43 118 33 258 79 271 89 27 20 52 86 52 135 0 82 -49 158 -127 200 -31 16 -260 14 -298 -3z"/>
 <path d="M11290 8580 c-62 -34 -106 -83 -135 -150 -25 -56 -29 -78 -28 -160 0 -81 4 -105 28 -165 40 -100 90 -149 178 -176 82 -25 156 -22 232 11 100 43 145 123 159 283 l7 77 -236 0 -235 0 0 23 c0 41 52 130 89 151 74 42 175 15 220 -61 l26 -42 62 -1 61 0 -10 38 c-22 80 -70 138 -143 173 -57 27 -225 26 -275 -1z m300 -422 c-50 -173 -242 -185 -315 -19 -8 18 -15 37 -15 42 0 5 76 9 169 9 l170 0 -9 -32z"/>
 <path d="M13790 8589 c-35 -14 -130 -80 -130 -91 0 -5 -11 -25 -24 -46 -20 -30 -46 -124 -46 -164 0 -4 31 -8 69 -8 l68 0 7 48 c9 69 56 122 128 145 72 22 121 21 196 -4 97 -32 135 -105 97 -179 -8 -16 -24 -34 -35 -40 -32 -17 -136 -49 -250 -76 -181 -44 -240 -101 -240 -235 0 -87 56 -209 96 -209 7 0 14 -4 14 -9 0 -5 24 -19 53 -32 43 -19 69 -23 152 -24 95 0 104 2 176 36 104 50 149 117 149 223 l0 36 -63 0 -63 0 -12 -44 c-6 -24 -26 -60 -44 -79 -28 -29 -43 -36 -91 -42 -58 -7 -153 0 -173 13 -23 15 -64 88 -64 113 0 38 40 92 75 100 17 4 80 21 140 38 61 17 119 31 130 31 28 0 94 36 132 73 49 46 67 102 61 189 -7 108 -40 158 -136 209 l-74 39 -136 -1 c-75 0 -148 -5 -162 -10z"/>
 <path d="M2470 8260 l0 -330 60 0 60 0 0 32 0 32 28 -26 c35 -32 102 -58 152 -58 52 0 120 27 146 58 l22 25 34 -26 c72 -55 166 -71 249 -42 53 19 75 38 103 90 20 38 21 57 24 308 l3 267 -64 0 c-50 0 -66 -4 -71 -16 -3 -9 -6 -122 -6 -253 0 -263 -2 -270 -65 -291 -31 -10 -41 -9 -82 12 -87 43 -88 46 -91 314 l-3 234 -65 0 -64 0 0 -249 0 -249 -25 -30 c-34 -41 -73 -48 -122 -24 -93 48 -103 81 -103 342 l0 210 -60 0 -60 0 0 -330z"/>
 <path d="M5410 8195 l0 -395 -150 0 -150 0 0 -55 0 -55 365 0 365 0 0 55 0 55 -150 0 -150 0 0 395 0 395 -65 0 -65 0 0 -395z"/>
 <path d="M5810 8515 l0 -75 70 0 70 0 0 75 0 75 -70 0 -70 0 0 -75z"/>
 <path d="M6480 8140 l0 -450 65 0 65 0 0 200 c0 110 2 200 5 200 3 0 51 -45 108 -100 56 -55 148 -145 204 -200 l101 -100 96 0 c53 0 96 3 96 6 0 3 -23 26 -50 51 -55 49 -157 147 -257 245 l-62 61 56 81 c31 45 67 92 80 107 12 14 23 30 23 36 0 6 7 16 15 23 8 6 43 53 77 102 35 50 78 108 96 129 19 21 31 43 27 49 -3 5 -43 10 -90 10 l-83 0 -43 -62 c-71 -105 -83 -122 -111 -156 -16 -18 -28 -39 -28 -47 0 -8 -4 -15 -9 -15 -4 0 -29 -32 -55 -70 -26 -39 -52 -73 -59 -76 -7 -2 -40 22 -75 54 l-62 58 0 157 0 157 -65 0 -65 0 0 -450z"/>
 <path d="M7280 8260 l0 -330 60 0 60 0 0 37 0 37 33 -32 c39 -38 94 -62 142 -62 l35 0 0 65 0 65 -35 0 c-54 0 -110 34 -140 83 -25 43 -25 47 -25 255 l0 212 -65 0 -65 0 0 -330z"/>
 <path d="M7680 8260 l0 -330 70 0 70 0 -2 328 -3 327 -67 3 -68 3 0 -331z"/>
 <path d="M8917 8583 c-4 -3 -7 -152 -7 -330 l0 -323 65 0 65 0 0 330 0 330 -58 0 c-32 0 -62 -3 -65 -7z"/>
 <path d="M9867 8583 c-4 -3 -7 -152 -7 -330 l0 -323 65 0 65 0 0 32 0 31 23 -21 c41 -38 133 -65 203 -59 90 9 142 40 168 102 19 45 21 74 24 313 l3 262 -65 0 -65 0 -3 -243 -3 -244 -27 -35 c-16 -21 -40 -39 -57 -43 -67 -14 -163 43 -182 108 -5 18 -9 128 -9 244 l0 213 -63 0 c-35 0 -67 -3 -70 -7z"/>
 <path d="M11840 8260 l0 -330 65 0 65 0 0 32 c0 32 0 32 16 10 8 -12 21 -22 27 -22 7 0 25 -7 41 -15 49 -26 137 -30 198 -10 60 19 81 35 105 79 15 27 18 68 21 309 l3 277 -60 0 -61 0 0 -219 c0 -120 -3 -232 -6 -248 -8 -38 -52 -88 -87 -97 -41 -10 -96 10 -141 49 -50 44 -54 72 -55 328 l-1 187 -65 0 -65 0 0 -330z"/>
 <path d="M12740 8576 c0 -7 11 -39 25 -70 14 -31 25 -63 25 -70 0 -13 32 -94 50 -127 5 -9 14 -36 20 -60 12 -43 41 -116 60 -151 6 -10 10 -24 10 -32 0 -8 18 -58 40 -112 22 -54 40 -103 40 -110 0 -6 14 -43 31 -83 l32 -71 72 0 72 0 31 73 c18 39 45 110 61 157 45 130 62 177 96 270 18 47 40 108 50 135 9 28 33 93 51 145 19 52 34 100 34 107 0 9 -21 13 -75 13 l-74 0 -11 -42 c-7 -24 -28 -85 -47 -135 l-36 -93 -161 0 -162 0 -13 33 c-7 17 -23 64 -36 102 -47 144 -40 135 -117 135 -51 0 -68 -3 -68 -14z m516 -383 c-4 -9 -14 -40 -22 -67 -8 -28 -31 -90 -50 -138 -19 -48 -34 -98 -35 -110 0 -23 -1 -23 -11 2 -31 69 -39 91 -66 170 -16 47 -37 102 -46 123 l-16 37 126 0 c114 0 126 -2 120 -17z"/>
 <path d="M7680 7760 l0 -70 70 0 70 0 0 70 0 70 -70 0 -70 0 0 -70z"/>
 <path d="M8910 7760 l0 -70 65 0 65 0 0 70 0 70 -65 0 -65 0 0 -70z"/>
 <path d="M760 6635 c-67 -7 -140 -21 -175 -35 -33 -12 -76 -28 -97 -36 -81 -30 -199 -114 -280 -199 -78 -84 -107 -130 -185 -300 -17 -38 -18 -147 -21 -2715 -2 -1929 0 -2688 8 -2720 17 -68 77 -200 111 -242 16 -20 29 -40 29 -43 0 -13 105 -125 118 -125 7 0 15 -7 19 -15 10 -26 189 -125 296 -163 l102 -37 7315 0 7315 0 102 37 c107 38 286 137 296 163 4 8 12 15 19 15 13 0 118 112 118 125 0 3 13 23 29 43 34 42 94 174 111 242 8 32 10 791 8 2720 -3 2568 -4 2677 -21 2715 -78 170 -107 216 -185 300 -81 85 -199 169 -280 199 -21 8 -64 24 -97 36 -136 51 211 49 -7420 48 -5549 0 -7145 -3 -7235 -13z m14290 -3310 l0 -2375 -365 0 -365 0 0 1965 0 1965 -380 0 -380 0 0 -182 -1 -183 -20 25 c-99 125 -148 181 -187 216 -66 56 -165 124 -183 124 -8 0 -19 4 -25 10 -22 22 -153 61 -251 75 -138 19 -290 19 -426 -1 -204 -30 -415 -141 -578 -305 -74 -73 -199 -227 -199 -243 0 -3 -16 -30 -35 -60 -19 -30 -35 -58 -35 -62 0 -4 -15 -39 -34 -78 -64 -134 -122 -389 -126 -548 0 -17 -56 -18 -1034 -18 l-1035 0 5 38 c32 231 63 320 155 437 45 57 93 105 105 105 3 0 26 14 50 32 93 66 240 107 395 107 144 1 196 -8 305 -56 71 -31 100 -50 163 -113 42 -41 87 -96 100 -122 l24 -48 404 0 c361 0 403 2 403 16 0 42 -36 158 -73 234 -43 88 -144 240 -159 240 -5 0 -11 8 -15 18 -6 15 -65 76 -158 161 -40 37 -167 120 -235 153 -136 68 -222 97 -375 128 -369 74 -729 43 -1040 -88 -91 -39 -222 -109 -248 -133 -12 -10 -24 -19 -29 -19 -4 0 -40 -25 -80 -56 -185 -141 -323 -333 -393 -549 l-23 -70 -1 473 -1 472 -425 0 -425 0 0 -1047 c0 -704 -4 -1061 -11 -1088 -17 -66 -71 -165 -114 -208 -78 -79 -180 -117 -315 -117 -215 0 -381 103 -457 285 -61 144 -57 67 -61 1168 l-3 1007 -409 0 -409 0 -4 -1032 c-3 -952 -4 -1038 -20 -1093 -10 -33 -21 -71 -24 -85 -8 -33 -70 -121 -108 -152 -16 -13 -59 -37 -95 -54 -62 -28 -71 -29 -205 -29 -130 0 -145 2 -206 28 -36 15 -70 27 -75 27 -5 0 -29 18 -54 40 -25 22 -48 40 -52 40 -5 0 -8 5 -8 12 0 6 -11 26 -25 44 -33 43 -45 74 -63 164 -12 63 -15 238 -19 1083 l-4 1007 -414 0 -415 0 0 -237 c-1 -191 -3 -234 -13 -218 -41 69 -245 255 -279 255 -10 0 -18 3 -18 8 0 8 -89 54 -135 70 -376 128 -760 154 -1204 81 -147 -24 -294 -73 -414 -137 -215 -115 -379 -310 -455 -537 -41 -120 -52 -181 -52 -275 l0 -80 399 0 398 0 7 53 c12 99 65 214 121 264 68 60 172 102 296 118 290 38 547 -3 643 -104 74 -77 72 -214 -5 -293 -20 -21 -40 -38 -43 -38 -4 0 -31 -11 -59 -24 -29 -13 -77 -31 -107 -40 -30 -9 -102 -30 -160 -47 -58 -17 -125 -35 -150 -39 -25 -4 -85 -20 -135 -34 -49 -15 -118 -31 -152 -36 -34 -6 -113 -26 -175 -46 -62 -19 -129 -40 -148 -46 -19 -6 -59 -21 -88 -34 -29 -13 -57 -24 -62 -24 -16 0 -182 -91 -218 -119 -46 -37 -135 -122 -147 -142 -5 -9 -19 -28 -29 -43 -10 -15 -35 -73 -54 -129 -31 -92 -35 -115 -40 -237 -2 -79 1 -160 7 -195 16 -85 49 -193 74 -240 12 -22 30 -58 41 -80 47 -94 243 -295 336 -345 16 -8 50 -27 76 -43 25 -15 52 -27 58 -27 6 0 23 -7 38 -14 71 -37 233 -75 418 -97 117 -14 412 -5 525 16 44 9 107 20 140 25 122 19 374 123 468 194 61 45 207 200 207 218 0 4 14 31 31 60 18 29 37 69 45 88 11 30 13 -5 13 -252 l1 -288 400 0 400 0 2 208 3 207 44 -65 c25 -36 53 -74 63 -85 48 -54 148 -152 174 -172 36 -27 208 -113 227 -113 8 0 49 -10 93 -22 67 -18 107 -21 259 -22 155 -1 194 2 280 22 153 36 287 103 362 182 64 68 93 104 93 115 0 7 4 15 9 17 12 5 61 86 61 102 0 7 8 24 18 36 l19 23 21 -31 c12 -16 22 -34 22 -39 0 -21 178 -197 255 -253 46 -33 88 -60 93 -60 5 0 38 -13 74 -30 35 -16 84 -34 108 -39 25 -5 81 -17 125 -27 61 -15 119 -19 240 -19 141 1 173 4 268 29 115 29 222 75 300 128 50 34 207 182 207 195 0 5 14 23 30 42 36 41 108 187 120 244 4 23 16 76 24 117 9 41 20 113 24 160 l8 85 13 -55 c8 -30 29 -87 47 -126 19 -39 34 -74 34 -78 0 -11 89 -156 119 -194 29 -38 194 -206 231 -237 50 -42 177 -121 250 -156 209 -101 418 -144 700 -144 283 0 512 46 705 141 39 19 73 34 76 34 10 0 140 88 181 123 150 127 265 277 349 457 59 125 81 185 99 274 15 72 20 65 55 -71 13 -54 38 -127 55 -161 16 -34 30 -68 30 -75 0 -7 16 -39 35 -71 19 -32 35 -62 35 -66 0 -14 135 -187 194 -248 53 -55 186 -162 201 -162 3 0 22 -11 43 -25 56 -37 238 -106 307 -116 169 -26 239 -31 340 -26 150 8 262 31 349 73 27 13 53 24 57 24 29 0 259 184 259 206 0 8 4 14 9 14 5 0 23 19 40 42 l31 42 0 -662 0 -662 -6285 0 -6285 0 0 2375 0 2375 7050 0 7050 0 0 -2375z m-2038 981 c203 -29 353 -155 448 -376 47 -111 56 -144 71 -260 25 -188 12 -459 -27 -595 -29 -97 -82 -213 -116 -249 -10 -11 -18 -25 -18 -30 0 -6 -16 -27 -35 -46 -19 -19 -35 -38 -35 -42 0 -4 -5 -8 -11 -8 -7 0 -31 -16 -55 -35 -53 -44 -169 -91 -263 -107 -128 -22 -334 28 -417 101 -18 16 -39 33 -46 38 -28 17 -101 124 -142 208 -8 17 -31 79 -51 139 -30 92 -38 132 -45 245 -11 161 -4 349 16 445 21 98 69 230 104 287 16 27 30 53 30 57 0 5 24 35 54 68 78 86 183 143 295 159 114 17 130 17 243 1z m-8762 -1121 l0 -335 -362 -2 -363 -3 -10 -65 c-13 -74 -22 -94 -75 -166 -31 -41 -54 -59 -121 -92 -74 -36 -98 -42 -197 -53 -116 -12 -280 -2 -362 23 -36 11 -130 67 -130 77 0 4 -11 18 -25 33 -71 76 -58 190 31 267 20 18 46 36 58 41 77 30 401 119 521 143 28 5 115 25 195 44 80 19 156 36 170 39 46 9 224 75 310 116 118 56 210 119 288 198 37 36 68 67 70 68 1 1 2 -149 2 -333z m6467 -110 c-21 -152 -95 -306 -185 -385 -54 -48 -161 -112 -212 -128 -59 -18 -199 -42 -250 -42 -96 0 -262 36 -318 69 -29 17 -56 31 -60 31 -10 0 -110 100 -139 138 -57 75 -133 262 -133 327 l0 35 651 0 652 0 -6 -45z"/>
 </g>

</svg>