<!DOCTYPE svg PUBLIC "-//W3C//DTD SVG 20010904//EN" "http://www.w3.org/TR/2001/REC-SVG-20010904/DTD/svg10.dtd">
<svg version="1.0" xmlns="http://www.w3.org/2000/svg" width="1600px" height="472px" viewBox="0 0 16000 4720" preserveAspectRatio="xMidYMid meet">
<g id="layer101" fill="#ffffff" stroke="none">
 <path d="M4709 4692 c-13 -15 -76 -88 -139 -162 -63 -74 -117 -137 -120 -140 -4 -4 -34 -40 -122 -145 -9 -11 -26 -31 -37 -45 l-20 -25 -1 268 0 267 -50 0 -50 0 0 -349 c0 -369 -1 -362 48 -374 16 -4 28 2 42 20 11 14 47 56 80 93 33 37 70 81 82 96 13 16 37 45 55 64 17 19 42 48 55 65 13 16 30 37 38 46 20 20 97 112 115 135 12 17 14 -17 15 -248 l0 -268 45 0 45 0 0 359 c0 318 -2 360 -16 365 -28 11 -40 7 -65 -22z"/>
 <path d="M5880 4691 l-55 -29 2 -52 c3 -61 8 -69 31 -52 76 54 119 72 173 72 51 0 60 -3 88 -32 25 -25 31 -40 31 -74 0 -53 -29 -80 -144 -134 -131 -60 -161 -99 -160 -205 0 -84 22 -128 87 -171 37 -25 51 -28 122 -29 70 0 86 4 128 28 59 35 60 49 11 125 -1 2 -19 -8 -41 -21 -63 -41 -104 -50 -145 -33 -100 42 -85 143 29 196 144 66 178 90 207 147 34 67 14 177 -43 234 -44 43 -93 59 -185 59 -69 0 -89 -4 -136 -29z"/>
 <path d="M12792 4689 l-63 -31 7 -46 c9 -67 18 -76 46 -49 7 8 35 26 61 40 151 85 300 -46 180 -157 -15 -14 -31 -26 -35 -26 -16 0 -142 -63 -164 -83 -48 -41 -66 -84 -66 -151 0 -72 16 -110 66 -154 45 -40 105 -56 176 -48 49 6 131 43 145 65 6 11 -33 91 -44 91 -4 0 -16 -8 -27 -18 -11 -10 -40 -26 -65 -36 -42 -16 -48 -16 -85 -1 -40 16 -74 57 -74 90 0 33 42 75 108 107 105 50 170 95 192 130 30 49 28 156 -4 206 -49 77 -100 102 -210 102 -70 0 -90 -5 -144 -31z"/>
 <path d="M15458 4713 l-58 -4 0 -353 0 -353 53 -7 c84 -10 160 -7 243 9 138 26 218 80 270 182 25 50 29 71 32 155 3 75 0 108 -14 145 -52 141 -129 195 -308 219 -56 7 -114 13 -131 12 -16 -1 -56 -3 -87 -5z m207 -97 c39 -7 86 -20 106 -29 67 -28 119 -122 119 -215 0 -108 -52 -198 -141 -247 -45 -24 -67 -29 -151 -33 l-98 -5 0 272 0 271 48 0 c26 0 79 -6 117 -14z"/>
 <path d="M60 4678 c0 -17 4 -59 9 -92 6 -34 17 -124 26 -201 9 -77 20 -167 25 -200 5 -33 12 -88 16 -122 l6 -63 42 0 c42 0 43 1 66 53 12 28 38 84 56 123 18 39 47 102 65 140 17 38 44 97 60 132 17 35 35 75 40 90 l10 27 14 -30 c8 -17 30 -66 51 -110 39 -86 85 -185 154 -332 44 -93 44 -93 81 -93 46 0 44 -4 64 175 9 77 20 174 25 215 23 182 30 247 30 283 l0 37 -49 0 -50 0 -5 -42 c-3 -24 -10 -81 -15 -128 -6 -47 -13 -128 -16 -180 -3 -52 -9 -111 -12 -130 l-5 -35 -13 35 c-13 37 -49 116 -120 265 -23 50 -55 118 -71 153 -27 60 -29 62 -66 62 -35 0 -39 -3 -62 -52 -13 -29 -47 -102 -76 -163 -46 -97 -80 -172 -110 -240 -5 -11 -10 -27 -13 -35 -2 -8 -9 35 -16 95 -7 61 -17 135 -21 165 -5 30 -12 94 -16 143 l-6 87 -49 0 c-48 0 -49 0 -49 -32z"/>
 <path d="M1360 4355 l0 -355 195 0 195 0 0 45 0 45 -140 0 -140 0 0 100 0 100 125 0 125 0 0 45 0 45 -125 0 -125 0 0 120 0 120 165 0 c179 0 171 -3 159 59 l-6 31 -214 0 -214 0 0 -355z"/>
 <path d="M2220 4350 l0 -360 50 0 50 0 0 170 c0 94 3 170 8 169 4 0 24 -21 46 -47 85 -103 275 -292 294 -292 26 0 82 20 82 30 0 4 -65 74 -143 156 l-144 148 66 81 c36 45 81 100 99 123 19 22 41 50 50 61 10 11 28 34 42 52 14 18 31 38 38 45 6 7 12 15 12 18 0 13 -129 6 -142 -7 -7 -8 -65 -80 -128 -160 l-115 -147 -32 32 -33 32 0 128 0 128 -50 0 -50 0 0 -360z"/>
 <path d="M3100 4683 c10 -28 18 -47 38 -93 6 -14 23 -54 38 -90 14 -36 32 -78 39 -95 8 -16 30 -70 50 -120 20 -49 45 -109 56 -132 10 -24 19 -45 19 -48 0 -4 8 -25 19 -48 10 -23 21 -50 24 -59 5 -13 17 -18 47 -18 30 0 42 5 47 18 3 9 17 41 29 70 13 29 24 55 24 58 0 3 6 20 14 37 7 18 21 52 31 77 10 25 29 69 42 98 13 29 23 55 23 58 0 3 6 20 14 37 39 87 106 254 106 265 0 8 -18 12 -54 12 l-53 0 -43 -110 -42 -110 -138 0 c-98 0 -140 4 -147 13 -5 6 -26 56 -48 110 l-38 97 -53 0 -54 0 10 -27z m432 -290 c-18 -34 -49 -109 -77 -183 -22 -57 -30 -70 -35 -55 -35 97 -85 222 -92 230 -18 21 -3 25 102 25 102 0 110 -1 102 -17z"/>
 <path d="M5280 4350 l0 -360 55 0 55 0 0 360 0 360 -55 0 -55 0 0 -360z"/>
 <path d="M6700 4349 l0 -360 53 3 52 3 -2 170 -2 170 61 -65 c290 -309 275 -297 347 -267 l32 13 -150 155 c-82 85 -146 156 -142 159 3 3 60 73 126 155 66 83 128 159 138 170 46 50 43 55 -30 55 l-68 -1 -70 -91 c-38 -50 -95 -121 -125 -159 l-55 -69 -27 30 c-28 28 -28 31 -28 159 l0 131 -55 0 -55 0 0 -361z"/>
 <path d="M7650 4355 l0 -355 195 0 195 0 0 45 0 45 -140 0 -140 0 0 100 0 100 130 0 130 0 0 45 0 45 -130 0 -130 0 0 120 0 120 165 0 c179 0 171 -3 159 59 l-6 31 -214 0 -214 0 0 -355z"/>
 <path d="M9248 4673 c-9 -21 -26 -63 -38 -93 -11 -30 -27 -68 -34 -85 -8 -16 -32 -77 -55 -135 -23 -58 -46 -114 -51 -125 -6 -11 -26 -60 -46 -110 -19 -49 -38 -95 -40 -101 -6 -12 12 -22 64 -34 31 -8 33 -6 51 34 10 22 28 67 40 100 12 32 30 77 40 100 10 22 42 104 71 181 29 77 56 144 60 149 5 5 14 -11 20 -35 7 -24 20 -61 30 -84 16 -34 156 -389 173 -437 5 -14 12 -15 49 -7 24 6 46 13 50 17 6 6 -40 132 -89 242 -11 25 -33 79 -48 120 -15 41 -31 80 -35 85 -4 6 -17 39 -30 75 -13 36 -26 70 -30 75 -4 6 -14 31 -24 58 -18 47 -18 47 -65 47 -45 0 -48 -2 -63 -37z"/>
 <path d="M10050 4355 l0 -355 190 0 190 0 0 45 0 45 -140 0 -140 0 0 100 0 100 130 0 130 0 0 45 0 45 -130 0 -130 0 0 120 0 120 166 0 165 0 -3 43 -3 42 -212 3 -213 2 0 -355z"/>
 <path d="M10900 4356 l0 -353 31 -7 c51 -10 213 -7 250 5 134 43 184 117 164 245 -5 38 -16 56 -55 95 -27 27 -56 49 -65 49 -11 0 -2 18 30 63 24 34 48 67 52 72 17 20 123 177 123 181 0 2 -28 4 -63 4 l-63 0 -79 -117 c-44 -65 -83 -120 -86 -123 -3 -3 -11 -15 -18 -27 -10 -20 -20 -23 -66 -23 l-55 0 0 145 0 145 -50 0 -50 0 0 -354z m304 -51 c33 -37 40 -64 33 -118 -10 -76 -81 -114 -192 -105 l-40 3 -3 129 -3 128 90 -3 c85 -4 91 -5 115 -34z"/>
 <path d="M11840 4350 l0 -360 50 0 50 0 0 172 0 172 46 -50 c203 -218 281 -294 300 -294 29 0 86 21 82 30 -2 5 -64 73 -139 152 -75 78 -137 148 -138 153 0 6 7 19 17 30 9 11 33 40 52 65 19 25 43 54 52 65 9 11 52 65 96 120 l80 100 -66 3 c-48 2 -69 -1 -77 -11 -14 -18 -57 -73 -135 -171 -36 -45 -74 -94 -86 -110 l-21 -29 -31 34 -32 34 0 128 0 127 -50 0 -50 0 0 -360z"/>
 <path d="M13780 4400 l0 -310 -120 0 -120 0 0 -45 0 -45 295 0 295 0 0 45 0 45 -125 0 -125 0 0 310 0 310 -50 0 -50 0 0 -310z"/>
 <path d="M14540 4355 l0 -355 190 0 190 0 0 45 0 45 -140 0 -140 0 0 100 0 100 130 0 130 0 0 45 0 45 -130 0 -130 0 0 120 0 120 171 0 c152 0 170 2 165 16 -3 9 -6 29 -6 45 l0 29 -215 0 -215 0 0 -355z"/>
 <path d="M2916 3817 c-15 -19 -26 -45 -26 -59 0 -22 32 -107 60 -159 7 -14 0 -18 -51 -23 -34 -4 -70 -11 -82 -16 -12 -5 -49 -16 -82 -26 -33 -9 -64 -20 -70 -24 -5 -4 -21 -11 -35 -15 -47 -14 -158 -95 -218 -160 -115 -122 -156 -250 -156 -480 0 -164 14 -243 62 -345 33 -70 33 -69 122 -160 103 -103 190 -146 430 -210 102 -28 344 -49 571 -49 l165 -1 18 -42 c39 -89 53 -124 66 -156 25 -63 84 -88 145 -60 45 20 69 93 45 136 -5 9 -19 40 -30 67 -11 28 -25 57 -30 66 -7 14 0 18 52 23 33 4 95 16 137 27 42 11 91 24 109 29 152 38 334 185 401 322 42 86 60 162 67 287 15 248 -44 438 -177 570 -40 40 -169 131 -184 131 -4 0 -21 6 -38 14 -71 32 -164 58 -285 81 -115 22 -430 37 -599 29 -98 -4 -143 -3 -143 4 0 6 -13 39 -28 74 -16 35 -35 78 -42 96 -17 45 -46 62 -102 62 -42 0 -50 -4 -72 -33z m934 -426 c122 -22 209 -49 300 -94 64 -32 152 -108 181 -157 81 -135 81 -437 0 -570 -77 -126 -289 -227 -536 -255 l-61 -6 -28 63 c-16 35 -35 77 -42 93 -7 17 -28 66 -47 110 -19 44 -49 114 -67 155 -18 41 -45 103 -61 138 -16 35 -29 66 -29 69 0 2 -13 34 -30 70 -16 35 -30 66 -30 68 0 3 -11 28 -24 57 -31 68 -90 202 -110 252 l-16 39 247 -6 c177 -5 278 -12 353 -26z m-781 -61 c17 -39 31 -72 31 -74 0 -3 14 -35 31 -73 51 -115 74 -167 134 -308 26 -61 60 -138 76 -173 16 -35 29 -65 29 -67 0 -2 14 -34 31 -72 17 -37 37 -84 45 -103 9 -19 19 -44 24 -55 5 -11 18 -42 29 -69 l21 -49 -202 7 c-460 16 -709 106 -811 294 -73 135 -76 397 -5 536 31 61 115 137 199 179 94 48 154 65 330 96 4 1 20 -31 38 -69z"/>
 <path d="M60 3613 c-64 -23 -84 -117 -34 -164 l26 -24 781 -5 c730 -5 785 -7 832 -24 112 -42 157 -101 157 -207 1 -102 -24 -145 -109 -188 -78 -39 -139 -43 -748 -51 -641 -8 -628 -7 -759 -68 -94 -44 -151 -106 -191 -206 -20 -52 -20 -245 0 -304 45 -130 147 -213 315 -258 58 -15 146 -18 840 -21 720 -4 777 -3 807 13 39 20 56 68 43 116 -20 66 26 62 -835 69 -836 5 -796 3 -895 54 -64 33 -111 135 -96 208 12 57 46 114 85 140 81 54 108 56 726 61 632 4 679 8 805 69 73 36 150 108 181 170 46 96 43 305 -7 397 -73 134 -204 202 -428 220 -117 10 -1470 12 -1496 3z"/>
 <path d="M7234 3613 c-38 -7 -59 -41 -59 -94 0 -37 5 -54 23 -71 l23 -23 782 -5 c878 -6 842 -3 930 -80 53 -47 71 -96 65 -178 -5 -79 -36 -124 -104 -157 -91 -43 -140 -47 -759 -54 -579 -7 -591 -8 -655 -30 -147 -52 -197 -86 -256 -177 -67 -104 -72 -303 -12 -422 48 -96 154 -170 298 -209 59 -16 138 -18 848 -21 l782 -3 30 30 c43 42 42 101 -1 142 l-30 28 -777 3 -777 3 -65 25 c-113 44 -158 113 -147 231 6 67 25 100 81 138 84 58 107 60 731 65 494 3 581 6 650 21 163 36 274 110 331 222 28 56 29 63 29 193 0 121 -3 140 -24 182 -13 27 -43 68 -67 93 -89 90 -192 130 -371 145 -112 9 -1454 12 -1499 3z"/>
 <path d="M4875 3585 l-25 -24 0 -709 0 -708 31 -30 c30 -29 32 -29 162 -32 73 -2 425 2 782 7 706 11 710 11 839 70 145 67 216 185 216 359 0 207 -88 326 -296 398 -74 25 -82 30 -71 45 7 9 34 50 62 90 27 41 52 76 56 79 3 3 34 47 70 98 35 51 90 130 121 175 67 96 74 135 33 180 -21 22 -34 27 -74 27 -56 0 -68 -11 -171 -160 -32 -47 -63 -90 -68 -95 -5 -6 -17 -24 -28 -40 -10 -17 -23 -34 -27 -40 -5 -5 -35 -48 -67 -95 -33 -47 -66 -94 -74 -105 -8 -11 -30 -42 -49 -70 l-34 -50 -611 -3 -612 -2 0 308 0 309 -23 21 c-34 32 -109 31 -142 -3z m1634 -855 c119 -35 171 -101 171 -217 0 -97 -41 -152 -147 -194 l-58 -24 -717 -3 -718 -3 0 231 0 230 701 0 c671 0 705 -1 768 -20z"/>
 <path d="M9516 3579 l-26 -31 0 -691 c0 -531 3 -698 13 -717 7 -14 29 -33 50 -44 32 -15 42 -16 68 -6 16 7 39 24 49 38 19 24 20 42 20 398 0 206 3 374 6 374 7 0 208 -105 509 -265 39 -21 115 -61 170 -90 159 -84 309 -163 540 -285 363 -192 342 -183 380 -170 63 21 93 92 61 149 -7 13 -44 40 -82 60 -161 86 -382 203 -554 294 -104 54 -199 105 -330 175 -47 25 -100 53 -118 62 l-33 16 48 26 c26 13 80 42 118 63 69 37 137 74 258 139 34 18 89 48 122 66 33 18 87 47 120 65 33 18 87 47 120 65 33 18 96 51 140 75 145 77 160 86 183 111 30 35 29 84 -4 123 -22 27 -33 31 -72 31 -26 0 -58 -6 -72 -13 -14 -8 -52 -28 -85 -46 -33 -19 -96 -52 -140 -76 -44 -23 -147 -79 -228 -124 -82 -44 -150 -81 -152 -81 -2 0 -34 -17 -72 -38 -37 -21 -104 -58 -148 -82 -44 -24 -105 -57 -135 -73 -30 -17 -91 -50 -135 -73 l-79 -42 -96 50 c-52 28 -126 67 -165 87 l-70 37 -5 216 c-5 213 -5 217 -29 237 -17 15 -38 21 -72 21 -40 0 -51 -4 -73 -31z"/>
 <path d="M11646 3577 l-26 -34 0 -387 c0 -497 11 -578 100 -726 82 -138 190 -220 370 -280 77 -26 148 -38 343 -56 152 -14 184 -14 335 0 253 23 353 46 474 108 117 61 212 156 266 269 68 140 72 180 72 663 l0 425 -25 26 c-37 36 -111 36 -146 -1 -23 -25 -24 -30 -27 -220 l-3 -194 -775 0 -774 0 0 169 c0 231 -16 271 -111 271 -43 0 -51 -4 -73 -33z m1734 -745 c0 -114 -4 -150 -21 -203 -28 -85 -62 -142 -110 -183 -44 -37 -162 -97 -224 -114 -22 -6 -62 -17 -90 -24 -36 -9 -131 -13 -335 -13 -281 1 -286 1 -385 29 -182 50 -286 124 -347 245 -32 66 -33 67 -36 234 l-4 167 776 0 776 0 0 -138z"/>
 <path d="M13965 3584 l-25 -27 0 -704 0 -705 29 -28 c16 -16 40 -32 55 -36 14 -3 367 -2 784 4 793 11 793 11 919 58 109 40 197 132 227 236 33 114 15 283 -40 369 -48 76 -152 143 -281 180 -48 14 -51 5 32 119 30 41 76 107 102 145 26 39 51 75 56 80 5 6 40 54 78 109 79 114 88 151 44 199 -21 22 -34 27 -74 27 -44 0 -52 -4 -81 -37 -25 -31 -93 -126 -160 -223 -5 -8 -48 -69 -95 -135 -47 -66 -89 -127 -95 -135 -5 -8 -27 -40 -48 -70 l-38 -55 -612 -3 -612 -2 0 308 0 309 -23 21 c-35 33 -110 31 -142 -4z m1634 -854 c119 -35 171 -101 171 -217 0 -97 -41 -152 -147 -194 l-58 -24 -717 -3 -718 -3 0 231 0 230 701 0 c671 0 705 -1 768 -20z"/>
 <path d="M12526 1933 c-33 -9 -108 -54 -143 -86 -18 -17 -45 -55 -60 -86 -22 -47 -27 -69 -27 -141 0 -72 5 -94 27 -142 32 -65 89 -120 155 -150 36 -16 68 -22 132 -22 73 0 93 4 142 27 62 30 115 83 150 149 19 36 23 58 23 138 0 79 -4 102 -23 137 -33 64 -77 109 -140 145 -49 28 -67 32 -137 34 -44 2 -89 0 -99 -3z m141 -210 c81 -46 82 -160 3 -207 -58 -34 -135 -10 -164 52 -20 41 -20 63 0 105 29 61 103 84 161 50z"/>
 <path d="M10315 1870 c-6 -9 22 -80 36 -90 3 -3 16 -27 28 -54 12 -28 33 -64 46 -82 l24 -32 -20 -26 c-32 -41 -133 -114 -201 -146 -110 -52 -191 -60 -328 -34 -81 16 -89 15 -175 -4 -49 -11 -115 -28 -145 -37 -30 -9 -79 -21 -108 -27 -75 -14 -61 -22 133 -74 211 -56 362 -83 500 -91 l121 -6 149 78 c279 145 279 145 339 145 65 0 107 -17 196 -80 93 -67 143 -90 210 -97 56 -5 146 6 215 28 17 5 71 18 120 30 233 53 315 75 312 84 -5 15 -97 61 -142 71 -22 5 -134 9 -250 9 -200 0 -213 1 -272 25 -34 13 -79 39 -100 57 l-38 32 52 1 c83 0 98 12 66 51 -47 55 -164 99 -348 129 -193 32 -284 63 -348 119 -35 32 -61 39 -72 21z"/>
 <path d="M10640 988 c0 -20 39 -73 87 -118 32 -30 95 -89 139 -131 138 -131 241 -170 584 -224 161 -25 164 -26 195 -60 17 -18 70 -76 119 -130 49 -53 112 -112 140 -130 88 -58 226 -94 416 -111 105 -9 196 -30 258 -61 29 -14 55 -23 58 -20 11 11 -19 81 -50 115 -49 54 -151 122 -198 131 -118 24 -159 35 -223 59 -84 31 -129 58 -177 105 -43 41 -58 67 -58 99 0 44 21 60 78 60 48 -1 52 1 52 23 0 15 -12 33 -32 49 -18 14 -70 55 -116 90 -100 78 -117 85 -142 56 -14 -17 -23 -19 -37 -12 -10 6 -72 15 -138 22 -194 18 -245 28 -300 55 -29 14 -64 25 -80 25 -24 0 -27 -3 -21 -25 3 -14 9 -37 12 -51 l7 -25 -38 15 c-20 9 -73 38 -118 65 -45 27 -116 66 -157 87 -67 34 -84 39 -167 42 -51 3 -93 2 -93 0z"/>
 </g>

</svg>