<!DOCTYPE svg PUBLIC "-//W3C//DTD SVG 20010904//EN" "http://www.w3.org/TR/2001/REC-SVG-20010904/DTD/svg10.dtd">
<svg version="1.0" xmlns="http://www.w3.org/2000/svg" width="1347px" height="356px" viewBox="0 0 13470 3560" preserveAspectRatio="xMidYMid meet">
<g id="layer101" fill="#ffffff" stroke="none">
 <path d="M7010 3540 c-30 -10 -65 -31 -78 -46 -21 -23 -23 -35 -19 -78 4 -40 11 -55 37 -79 31 -28 35 -29 89 -20 31 4 97 8 146 8 78 -1 97 -4 142 -28 92 -48 114 -128 72 -263 -41 -133 -125 -275 -178 -300 -43 -21 -78 -13 -142 31 -138 95 -340 100 -513 13 -235 -119 -492 -430 -580 -703 -35 -111 -48 -193 -48 -315 0 -268 90 -419 285 -475 70 -20 222 -21 321 -1 64 13 74 12 125 -6 75 -26 127 -19 164 22 20 23 27 41 27 73 0 52 20 95 189 402 73 132 170 317 216 410 45 94 112 231 148 305 36 74 87 173 113 220 25 47 70 128 99 180 75 136 88 184 83 289 -6 109 -31 165 -113 247 -65 66 -122 93 -245 120 -97 21 -272 18 -340 -6z m-104 -1029 c74 -33 106 -108 84 -192 -15 -58 -82 -190 -184 -363 -45 -78 -113 -194 -151 -259 -38 -66 -81 -128 -99 -141 -88 -67 -220 -46 -280 44 -76 113 -64 298 33 502 143 301 419 490 597 409z"/>
 <path d="M990 3034 c-459 -53 -772 -232 -910 -519 -80 -167 -81 -316 -4 -475 51 -103 171 -223 281 -277 75 -37 80 -38 187 -38 96 0 117 3 153 22 55 30 83 67 83 112 0 84 -52 121 -168 121 -115 0 -190 46 -244 150 -33 65 -32 164 5 244 106 230 484 370 956 353 122 -4 178 -11 256 -31 207 -53 375 -165 445 -297 59 -112 52 -256 -22 -403 -54 -108 -111 -170 -224 -241 -129 -82 -313 -153 -600 -230 -342 -93 -738 -222 -846 -275 -116 -58 -232 -171 -289 -283 -52 -101 -62 -268 -25 -412 49 -184 183 -343 372 -438 307 -155 699 -155 1012 0 176 86 261 197 270 352 10 175 -73 279 -258 327 -117 30 -251 0 -279 -63 -15 -32 -14 -85 2 -106 6 -9 45 -32 85 -52 58 -28 76 -42 89 -71 17 -34 17 -37 -2 -71 -26 -47 -111 -94 -213 -119 -93 -22 -272 -25 -352 -5 -154 38 -294 140 -352 259 -65 131 -37 247 82 354 112 100 261 156 714 269 520 130 663 175 803 257 246 144 394 317 464 542 19 61 24 98 24 200 0 145 -12 204 -65 315 -134 279 -436 443 -943 511 -110 14 -418 26 -487 18z"/>
 <path d="M3474 2825 c-78 -39 -164 -116 -281 -253 -237 -276 -440 -541 -612 -800 -133 -200 -161 -258 -161 -340 0 -120 44 -168 147 -160 92 8 106 24 280 318 298 502 488 723 563 655 63 -57 6 -225 -170 -500 -190 -297 -214 -415 -96 -460 59 -23 107 -14 151 28 19 18 144 201 279 407 134 206 260 396 280 422 82 109 166 97 166 -23 0 -89 -41 -208 -141 -406 -55 -107 -106 -220 -115 -250 -33 -114 9 -193 102 -193 57 0 93 19 139 72 46 55 173 312 219 444 117 342 153 814 73 973 -30 61 -67 86 -123 84 -62 -2 -121 -40 -196 -125 -128 -146 -183 -198 -211 -198 -39 0 -54 31 -71 146 -8 55 -20 112 -26 126 -28 60 -113 74 -196 33z"/>
 <path d="M5900 2839 c-14 -6 -50 -34 -80 -64 -30 -30 -68 -59 -83 -64 -40 -15 -99 1 -161 42 -125 85 -210 103 -340 73 -199 -47 -476 -235 -608 -414 -51 -68 -118 -204 -151 -307 -105 -320 -78 -582 75 -720 119 -108 259 -138 448 -96 119 27 160 26 236 -1 113 -40 171 -4 183 114 6 55 16 80 77 183 119 200 342 600 432 775 47 91 106 190 130 220 53 65 64 91 64 149 0 33 -6 50 -27 71 -41 43 -137 62 -195 39z m-485 -328 c22 -10 51 -31 65 -45 22 -24 25 -37 25 -99 0 -64 -5 -82 -41 -157 -70 -145 -353 -624 -385 -651 -58 -50 -149 -60 -220 -24 -71 37 -119 136 -119 244 0 80 34 210 79 307 145 309 421 506 596 425z"/>
 <path d="M8308 2835 c-273 -51 -568 -256 -742 -518 -66 -100 -148 -269 -171 -352 -40 -150 -27 -328 32 -437 58 -107 220 -221 350 -249 133 -27 314 9 431 87 166 110 253 280 253 492 0 211 -67 319 -253 412 -130 64 -143 103 -64 185 58 60 135 87 251 88 163 1 277 -51 339 -157 38 -65 79 -96 127 -96 89 0 146 69 136 167 -8 73 -67 182 -131 240 -123 111 -370 172 -558 138z m-238 -747 c137 -70 144 -293 13 -438 -54 -60 -101 -86 -170 -96 -93 -12 -176 37 -209 121 -25 67 -16 181 23 265 33 72 104 144 157 159 59 17 139 12 186 -11z"/>
 <path d="M9483 2831 c-51 -32 -100 -106 -313 -481 -112 -195 -294 -510 -405 -700 -213 -364 -308 -531 -501 -880 -113 -203 -119 -218 -119 -271 0 -67 16 -90 81 -115 41 -16 47 -16 88 0 54 21 52 19 248 361 86 149 197 342 248 430 155 269 403 703 477 835 39 69 80 143 93 165 12 22 81 141 152 264 72 123 135 240 140 258 16 59 -5 101 -66 129 -62 29 -82 30 -123 5z"/>
 <path d="M11835 2826 c-105 -49 -167 -141 -600 -896 -434 -756 -476 -830 -633 -1088 -144 -238 -175 -329 -137 -403 32 -60 102 -83 169 -55 56 23 97 75 210 266 61 102 162 273 226 380 64 107 169 285 235 395 65 110 141 238 168 285 63 105 84 130 113 130 32 0 63 -42 136 -181 106 -204 220 -318 360 -360 128 -39 248 -12 279 64 19 44 1 67 -131 167 -230 175 -288 256 -277 383 14 163 137 285 439 434 327 162 540 216 839 212 201 -3 223 3 235 65 15 82 -48 157 -163 195 -118 39 -393 24 -613 -34 -135 -35 -325 -133 -495 -256 -207 -149 -246 -164 -273 -104 -24 51 -8 109 57 208 22 35 43 77 47 94 9 45 -17 87 -66 107 -53 21 -65 20 -125 -8z"/>
 <path d="M10401 2825 c-156 -34 -313 -105 -432 -194 -183 -138 -377 -410 -451 -631 -28 -86 -31 -107 -32 -225 -1 -146 9 -190 57 -261 42 -63 96 -94 165 -94 59 0 78 -8 138 -56 104 -85 230 -110 402 -80 199 35 340 115 509 289 173 179 270 344 324 552 32 125 33 315 2 392 -44 109 -134 198 -270 267 -109 54 -274 71 -412 41z m257 -280 c71 -32 97 -57 128 -118 36 -71 41 -154 16 -256 -53 -206 -194 -392 -398 -524 -116 -75 -163 -90 -284 -91 -111 -1 -145 9 -197 57 -30 27 -29 44 7 111 36 69 31 86 -41 163 -48 51 -50 55 -44 96 3 23 28 88 56 144 41 85 65 119 136 194 129 135 266 224 384 249 72 15 173 4 237 -25z"/>
 <path d="M12272 2084 c-129 -64 -142 -242 -26 -331 51 -38 151 -45 212 -14 108 55 139 207 59 298 -65 74 -156 92 -245 47z m172 -33 c44 -25 68 -64 74 -121 12 -132 -113 -219 -227 -158 -55 29 -81 76 -81 143 0 126 124 198 234 136z"/>
 <path d="M12290 1916 l0 -116 63 0 c71 0 97 13 99 50 2 49 -2 60 -27 66 -14 3 -25 8 -25 11 0 2 14 24 30 48 35 51 36 55 11 55 -13 0 -29 -17 -48 -50 -20 -36 -34 -50 -50 -50 -20 0 -22 5 -20 47 1 38 -2 48 -16 51 -15 3 -17 -8 -17 -112z m123 -38 c16 -25 -9 -48 -52 -48 -36 0 -37 1 -35 33 1 17 2 33 3 35 4 11 76 -6 84 -20z"/>
 </g>

</svg>