<!DOCTYPE svg PUBLIC "-//W3C//DTD SVG 20010904//EN" "http://www.w3.org/TR/2001/REC-SVG-20010904/DTD/svg10.dtd">
<svg version="1.0" xmlns="http://www.w3.org/2000/svg" width="1473px" height="518px" viewBox="0 0 14730 5180" preserveAspectRatio="xMidYMid meet">
<g id="layer101" fill="#ffffff" stroke="none">
 <path d="M2653 5166 c-129 -14 -153 -27 -153 -84 0 -30 10 -44 82 -111 108 -101 273 -283 360 -395 103 -135 104 -136 138 -136 19 0 37 8 49 23 10 12 65 81 122 152 57 72 172 199 256 283 135 135 153 157 153 186 0 55 -24 67 -162 82 -154 16 -691 16 -845 0z"/>
 <path d="M1814 4971 c-182 -70 -295 -123 -311 -147 -10 -16 -13 -35 -9 -59 6 -30 18 -42 94 -91 162 -106 286 -208 442 -364 218 -217 365 -418 495 -671 52 -101 58 -109 85 -109 28 0 60 22 60 41 0 19 87 232 145 357 72 155 71 170 -16 298 -122 178 -277 358 -457 526 -116 110 -269 234 -306 247 -52 20 -117 12 -222 -28z"/>
 <path d="M4112 4993 c-56 -27 -272 -215 -407 -354 -199 -205 -386 -449 -405 -529 -13 -55 -8 -70 63 -220 30 -63 71 -160 92 -215 47 -129 58 -145 95 -145 27 0 33 7 71 83 211 419 537 785 938 1052 107 71 123 93 105 144 -11 32 -123 90 -301 156 -134 49 -195 56 -251 28z"/>
 <path d="M1035 4548 c-36 -20 -168 -131 -242 -202 -63 -59 -73 -74 -73 -103 0 -19 5 -43 10 -53 6 -10 74 -50 153 -89 222 -108 366 -212 536 -384 253 -256 417 -563 493 -923 l23 -109 5 -1230 c5 -1154 6 -1233 23 -1258 28 -43 57 -56 202 -93 228 -57 268 -56 300 7 14 26 15 169 12 1317 -4 1408 0 1318 -61 1577 -51 217 -179 511 -306 705 -219 335 -539 627 -883 809 -83 43 -149 53 -192 29z"/>
 <path d="M4954 4529 c-600 -317 -1037 -861 -1198 -1491 -73 -285 -70 -202 -73 -1617 -3 -964 -1 -1282 8 -1303 17 -42 62 -62 119 -54 82 11 318 72 344 90 14 9 34 28 43 43 17 25 18 104 23 1258 l6 1230 27 121 c80 362 229 641 482 903 165 171 329 289 552 397 73 36 137 73 143 84 5 10 10 34 10 53 0 30 -10 44 -67 100 -77 74 -193 171 -238 198 -47 29 -112 25 -181 -12z"/>
 <path d="M415 3892 c-34 -22 -132 -181 -199 -324 -101 -215 -172 -456 -200 -676 -21 -159 -21 -444 -1 -599 67 -509 308 -986 700 -1379 206 -207 415 -366 665 -504 118 -65 167 -74 205 -36 l26 26 -4 1132 c-3 1128 -3 1133 -25 1230 -121 528 -500 952 -1006 1124 -84 29 -121 30 -161 6z"/>
 <path d="M5575 3884 c-504 -176 -882 -605 -998 -1134 -20 -93 -21 -122 -24 -1212 -4 -1243 -8 -1171 61 -1184 44 -8 62 -2 171 58 397 219 746 536 986 897 199 298 329 641 375 985 20 143 22 441 5 566 -46 332 -152 640 -317 916 -84 141 -121 156 -259 108z"/>
 <path d="M3041 3626 c-35 -42 -141 -399 -180 -606 -45 -245 -46 -265 -46 -1642 l0 -1308 33 -32 32 -33 185 -3 c157 -3 190 -1 220 14 70 33 65 -60 65 1331 0 1291 -2 1368 -41 1618 -33 210 -138 580 -185 653 -17 25 -65 30 -83 8z"/>
 <path d="M11020 3293 c-31 -11 -73 -62 -361 -432 -161 -209 -298 -380 -303 -380 -5 -1 -37 24 -72 54 l-63 56 -3 314 -3 315 -33 32 c-31 32 -36 33 -121 36 -67 3 -96 0 -119 -12 -66 -34 -62 43 -62 -1240 0 -732 4 -1174 10 -1190 17 -46 65 -66 158 -66 61 0 92 5 113 17 60 36 59 17 59 743 0 364 4 660 8 658 4 -1 185 -151 400 -333 257 -216 406 -335 431 -343 59 -20 114 -1 173 58 52 51 58 75 32 118 -9 15 -158 146 -331 292 -173 146 -317 270 -320 276 -2 7 133 186 302 399 373 471 365 460 365 499 0 43 -21 69 -84 105 -42 25 -65 31 -107 30 -30 0 -61 -3 -69 -6z"/>
 <path d="M7303 3270 c-17 -10 -37 -28 -42 -39 -8 -14 -11 -359 -11 -1110 l0 -1091 -312 0 c-292 0 -315 -1 -345 -20 -28 -17 -53 -66 -53 -105 0 -39 25 -88 53 -105 31 -19 57 -20 822 -20 772 0 791 1 823 20 36 22 52 54 52 105 0 51 -16 83 -52 105 -31 19 -51 20 -345 20 l-313 0 0 1093 c0 1201 4 1119 -60 1152 -44 23 -176 20 -217 -5z"/>
 <path d="M8422 3265 c-160 -55 -267 -158 -307 -296 -14 -49 -15 -123 -13 -590 l3 -534 29 -58 c56 -110 184 -206 322 -242 83 -22 614 -22 697 0 137 36 268 134 323 242 l29 58 3 249 c3 212 1 256 -13 292 -19 51 -79 108 -132 125 -27 9 -166 14 -480 16 l-443 4 0 165 c0 179 8 215 57 266 15 16 51 37 80 48 49 18 78 20 331 20 294 0 338 5 378 45 20 20 24 34 24 84 0 53 -4 65 -29 93 l-29 33 -379 2 -378 3 -73 -25z m748 -1150 c0 -225 -12 -255 -125 -307 -43 -19 -71 -23 -206 -26 -179 -5 -246 6 -312 48 -78 49 -87 79 -87 285 l0 175 365 0 365 0 0 -175z"/>
 <path d="M11618 3275 c-60 -34 -58 1 -58 -875 0 -531 3 -808 10 -821 18 -33 64 -49 140 -49 76 0 92 9 141 81 l17 24 113 -55 114 -55 255 0 c239 1 259 2 314 23 123 46 225 136 274 240 l27 57 3 675 c4 751 6 722 -63 754 -44 21 -166 21 -210 0 -66 -31 -65 -15 -65 -691 0 -687 3 -655 -80 -726 -66 -57 -111 -67 -286 -67 -179 0 -236 15 -296 77 -67 70 -63 28 -68 720 l-5 633 -33 32 c-31 32 -35 33 -125 36 -68 2 -99 -2 -119 -13z"/>
 <path d="M13699 3280 c-110 -27 -240 -105 -293 -174 -15 -20 -39 -62 -53 -93 -24 -52 -27 -72 -31 -213 -7 -255 17 -346 120 -449 26 -27 76 -62 111 -79 118 -58 152 -62 517 -62 l332 0 -4 -132 c-3 -123 -5 -136 -30 -179 -19 -31 -42 -54 -80 -75 l-53 -29 -317 -5 c-302 -5 -318 -6 -345 -26 -53 -39 -67 -101 -38 -170 26 -62 40 -64 437 -64 381 0 408 3 515 55 75 37 163 122 204 197 l34 63 3 564 c3 620 3 621 -58 713 -38 57 -117 112 -201 141 -60 20 -86 21 -399 23 -184 2 -351 -1 -371 -6z m596 -275 c95 -49 99 -64 103 -332 l3 -223 -269 0 c-309 0 -351 7 -413 69 -48 47 -59 91 -59 229 0 150 21 200 107 253 50 31 106 38 294 36 174 -2 176 -3 234 -32z"/>
 </g>

</svg>