<!DOCTYPE svg PUBLIC "-//W3C//DTD SVG 20010904//EN" "http://www.w3.org/TR/2001/REC-SVG-20010904/DTD/svg10.dtd">
<svg version="1.0" xmlns="http://www.w3.org/2000/svg" width="1600px" height="473px" viewBox="0 0 16000 4730" preserveAspectRatio="xMidYMid meet">
<g id="layer101" fill="#ffffff" stroke="none">
 <path d="M4639 4719 c-142 -18 -199 -74 -199 -195 l0 -44 50 0 50 0 0 44 c0 102 59 120 370 114 179 -3 210 -6 245 -23 52 -26 67 -56 62 -128 -4 -76 -24 -95 -108 -107 -35 -5 -145 -10 -244 -10 -280 -1 -354 -17 -402 -90 -18 -26 -23 -47 -23 -98 0 -122 37 -184 129 -218 58 -21 462 -32 554 -15 115 21 162 65 174 160 l6 51 -52 0 -51 0 0 -33 c0 -44 -23 -74 -68 -87 -105 -30 -463 -20 -536 15 -72 34 -77 157 -9 202 24 16 60 19 283 24 276 7 344 17 392 57 43 36 58 79 58 165 0 135 -54 194 -200 217 -76 12 -386 11 -481 -1z"/>
 <path d="M8861 4714 c-77 -21 -115 -53 -142 -121 -22 -54 -23 -73 -23 -258 0 -184 2 -205 23 -258 47 -120 104 -137 473 -137 156 0 288 5 318 11 89 19 128 67 145 177 l7 42 -50 0 -50 0 -6 -45 c-5 -31 -15 -51 -36 -69 -26 -21 -43 -25 -147 -31 -65 -4 -196 -5 -290 -2 -280 9 -285 14 -287 316 -2 297 -6 292 297 303 117 3 252 3 302 -2 130 -13 157 -38 170 -157 l7 -63 -206 0 -206 0 0 -40 0 -40 256 0 257 0 -5 113 c-3 95 -8 122 -29 163 -28 57 -70 88 -140 103 -79 17 -571 13 -638 -5z"/>
 <path d="M390 4375 l0 -345 -195 0 -195 0 0 -45 0 -45 440 0 440 0 0 45 0 45 -195 0 -195 0 0 345 0 345 -50 0 -50 0 0 -345z"/>
 <path d="M970 4330 l0 -390 390 0 390 0 0 45 0 45 -340 0 -340 0 0 125 0 125 325 0 325 0 0 40 0 40 -325 0 -325 0 0 140 0 140 345 0 345 0 0 40 0 40 -395 0 -395 0 0 -390z"/>
 <path d="M1940 4330 l0 -390 45 0 45 0 0 170 0 170 68 0 c65 0 69 -2 162 -63 52 -34 169 -111 259 -170 l163 -107 81 0 c68 0 79 2 67 13 -8 7 -135 92 -282 188 -148 96 -268 176 -268 179 0 3 134 93 298 200 l297 195 -87 3 -86 3 -169 -114 c-408 -276 -357 -247 -434 -247 l-69 0 0 180 0 180 -45 0 -45 0 0 -390z"/>
 <path d="M2960 4330 l0 -390 78 0 77 1 95 90 c52 50 210 206 351 345 141 140 259 254 263 254 3 0 6 -155 6 -345 l0 -345 50 0 50 0 0 390 0 390 -82 -1 -83 0 -350 -345 -350 -345 -3 345 -2 346 -50 0 -50 0 0 -390z"/>
 <path d="M4140 4330 l0 -390 50 0 50 0 0 390 0 390 -50 0 -50 0 0 -390z"/>
 <path d="M5500 4330 l0 -390 50 0 50 0 0 170 0 170 65 0 65 0 259 -170 259 -171 79 3 78 3 -275 182 c-151 101 -275 187 -275 193 0 6 133 98 295 205 l295 195 -89 0 -90 0 -267 -180 -267 -180 -66 0 -66 0 0 180 0 180 -50 0 -50 0 0 -390z"/>
 <path d="M6850 4330 l0 -390 370 0 370 0 0 45 0 45 -320 0 -320 0 0 125 0 125 305 0 305 0 0 40 0 40 -305 0 -305 0 0 180 0 180 -50 0 -50 0 0 -390z"/>
 <path d="M7623 4633 c29 -49 133 -224 231 -390 l178 -303 63 0 62 0 213 358 c117 196 222 372 233 390 l19 32 -59 0 -58 0 -46 -83 -46 -82 -314 -3 -314 -2 -48 85 -48 85 -59 0 -60 0 53 -87z m726 -185 c-17 -31 -230 -390 -244 -410 -10 -15 -15 -11 -41 35 -78 134 -207 354 -220 375 l-14 22 265 0 266 0 -12 -22z"/>
 <path d="M9850 4330 l0 -390 50 0 50 0 0 170 0 170 360 0 360 0 0 -170 0 -170 45 0 45 0 0 390 0 390 -45 0 -45 0 0 -180 0 -180 -360 0 -360 0 0 180 0 180 -50 0 -50 0 0 -390z"/>
 <path d="M10850 4715 c0 -4 102 -180 227 -391 l228 -385 64 3 64 3 228 385 229 385 -46 3 c-26 2 -52 1 -59 -2 -7 -2 -33 -41 -59 -85 l-47 -81 -312 0 -312 0 -46 83 -46 82 -57 3 c-31 2 -56 0 -56 -3z m778 -253 c-1 -5 -61 -106 -132 -225 l-129 -218 -17 28 c-9 16 -69 117 -133 226 l-116 197 265 0 c146 0 264 -4 262 -8z"/>
 <path d="M11970 4330 l0 -390 82 0 81 0 256 254 c141 139 299 294 351 344 l95 90 3 -344 2 -344 50 0 50 0 0 390 0 390 -81 0 -81 0 -292 -289 c-160 -159 -318 -314 -351 -345 l-60 -56 -3 345 -2 345 -50 0 -50 0 0 -390z"/>
 <path d="M13150 4335 l0 -386 393 3 c391 3 392 3 441 27 99 49 132 150 124 386 -8 205 -37 277 -132 328 -40 21 -51 22 -433 25 l-393 3 0 -386z m727 294 c63 -16 108 -64 122 -129 16 -76 14 -286 -4 -346 -16 -56 -53 -96 -104 -113 -22 -7 -138 -11 -337 -11 l-304 0 0 305 0 305 291 0 c185 0 307 -4 336 -11z"/>
 <path d="M14300 4330 l0 -390 385 0 385 0 0 45 0 45 -335 0 -335 0 0 125 0 125 325 0 325 0 0 40 0 40 -325 0 -325 0 0 140 0 140 340 0 340 0 0 40 0 40 -390 0 -390 0 0 -390z"/>
 <path d="M15260 4330 l0 -390 50 0 50 0 0 350 0 350 305 0 305 0 0 40 0 40 -355 0 -355 0 0 -390z"/>
 <path d="M8860 3239 c-583 -35 -807 -126 -935 -379 -60 -119 -76 -209 -82 -447 l-6 -213 482 0 481 0 0 53 c0 175 94 259 318 286 137 17 1026 14 1287 -3 222 -15 285 -28 339 -70 122 -93 105 -344 -28 -421 -102 -58 -85 -57 -911 -65 -921 -10 -1240 -24 -1420 -66 -299 -68 -459 -219 -530 -500 -64 -249 -52 -668 24 -887 60 -173 186 -301 372 -377 293 -121 882 -162 2009 -141 381 8 616 16 675 25 284 42 447 125 586 296 101 126 149 307 149 567 l0 113 -474 0 -473 0 -7 -51 c-15 -109 -72 -181 -177 -220 -97 -37 -464 -48 -989 -29 -516 19 -615 33 -688 101 -54 50 -64 81 -60 175 3 73 7 87 33 125 40 57 104 96 190 114 79 18 713 34 1355 35 517 0 721 18 911 79 124 40 213 93 294 175 105 105 166 236 202 430 23 127 23 465 -1 594 -74 405 -285 579 -791 651 -278 40 -843 62 -1524 60 -262 -1 -537 -6 -611 -10z"/>
 <path d="M13045 3239 c-466 -29 -689 -92 -829 -233 -136 -136 -186 -306 -186 -629 l0 -177 478 2 477 3 6 77 c14 166 97 233 322 258 135 16 1033 13 1282 -4 283 -19 340 -39 390 -140 20 -40 25 -65 25 -128 0 -93 -16 -138 -68 -191 -46 -48 -118 -74 -235 -87 -50 -5 -409 -12 -797 -14 -997 -7 -1243 -23 -1453 -95 -164 -57 -284 -158 -354 -301 -56 -112 -81 -221 -95 -412 -22 -290 16 -572 96 -726 119 -226 331 -335 756 -391 306 -41 867 -56 1580 -42 545 10 669 17 785 42 164 35 304 103 404 196 160 148 216 298 228 611 l6 152 -475 0 -476 0 -7 -45 c-20 -137 -91 -211 -231 -240 -149 -31 -941 -28 -1351 5 -244 20 -337 85 -337 235 0 145 72 226 233 261 74 17 704 32 1341 34 620 1 829 26 1035 126 276 134 398 394 398 849 0 354 -61 561 -208 711 -166 168 -416 243 -915 274 -468 29 -1499 39 -1825 19z"/>
 <path d="M1420 2030 l0 -1190 -710 0 -710 0 0 -400 0 -400 1905 0 1905 0 0 400 0 400 -705 0 -705 0 0 1190 0 1190 -490 0 -490 0 0 -1190z"/>
 <path d="M4050 1630 l0 -1590 1775 0 1775 0 0 360 0 360 -1290 0 -1290 0 0 275 0 275 1205 0 1205 0 0 315 0 315 -1205 0 -1205 0 0 280 0 280 1290 0 1290 0 0 360 0 360 -1775 0 -1775 0 0 -1590z"/>
 </g>

</svg>