<!DOCTYPE svg PUBLIC "-//W3C//DTD SVG 20010904//EN" "http://www.w3.org/TR/2001/REC-SVG-20010904/DTD/svg10.dtd">
<svg version="1.0" xmlns="http://www.w3.org/2000/svg" width="1600px" height="560px" viewBox="0 0 16000 5600" preserveAspectRatio="xMidYMid meet">
<g id="layer101" fill="#ffffff" stroke="none">
 <path d="M900 5583 c-120 -32 -160 -45 -166 -54 -3 -5 -12 -9 -20 -9 -21 0 -140 -78 -185 -121 -88 -84 -159 -207 -195 -339 -47 -168 -54 -278 -54 -906 l0 -580 -25 -50 c-29 -59 -60 -74 -151 -74 -86 0 -104 -7 -104 -40 0 -18 6 -29 18 -32 31 -6 869 -1 881 6 6 4 11 16 11 27 0 24 -36 39 -94 39 -61 0 -99 16 -119 50 -25 42 -36 262 -37 734 0 601 20 779 104 936 28 51 143 180 161 180 5 0 22 10 39 23 31 23 137 69 186 81 213 53 404 45 568 -25 17 -7 32 -17 32 -21 0 -4 7 -8 15 -8 31 0 11 31 -45 71 -19 13 -46 29 -60 35 -78 34 -100 42 -150 54 -30 7 -77 19 -104 26 -71 20 -431 18 -506 -3z"/>
 <path d="M3290 5472 c0 -4 4 -12 8 -17 12 -14 55 -143 80 -240 44 -169 46 -180 76 -345 33 -183 40 -272 40 -465 -1 -207 -10 -280 -53 -406 -22 -65 -72 -168 -101 -209 -11 -15 -20 -31 -20 -35 0 -19 -125 -167 -229 -271 -135 -135 -169 -167 -261 -244 -36 -30 -67 -57 -70 -60 -3 -3 -54 -46 -115 -95 -60 -50 -118 -98 -127 -107 -10 -10 -22 -18 -27 -18 -5 0 -11 -4 -13 -8 -1 -5 -30 -30 -63 -57 -67 -54 -147 -120 -215 -180 -77 -67 -344 -338 -375 -380 -16 -22 -34 -44 -40 -50 -15 -14 -115 -153 -115 -161 0 -3 -9 -18 -19 -33 -71 -99 -148 -283 -184 -436 -75 -319 -50 -653 70 -915 34 -76 91 -172 105 -178 5 -2 8 -10 8 -18 0 -8 4 -14 8 -14 4 0 15 -12 24 -28 38 -62 206 -214 298 -270 19 -11 73 -39 120 -62 47 -23 93 -46 102 -51 34 -17 194 -66 253 -77 33 -7 95 -18 139 -27 110 -21 580 -21 715 0 171 28 215 35 276 49 106 25 180 36 236 36 30 0 60 4 68 9 15 10 14 88 -9 456 -5 88 -9 231 -10 318 0 173 -9 207 -56 207 -34 0 -53 -37 -63 -121 -5 -41 -14 -94 -21 -119 -6 -25 -16 -63 -22 -85 -53 -205 -208 -354 -458 -438 -279 -94 -615 -93 -850 1 -67 27 -163 80 -168 94 -2 4 -8 8 -14 8 -16 0 -161 151 -182 190 -11 19 -22 37 -25 40 -12 10 -40 76 -64 150 -93 277 -40 576 146 829 79 108 292 320 430 429 31 25 57 49 57 53 0 5 6 9 14 9 8 0 16 4 18 8 2 7 55 50 238 195 8 7 35 28 60 47 25 19 54 43 65 53 11 10 35 27 53 38 17 12 32 25 32 30 0 5 5 9 11 9 7 0 19 8 28 18 9 9 43 40 76 67 208 174 487 469 560 593 11 17 23 32 27 32 4 0 8 5 8 12 0 6 6 19 14 27 13 15 110 204 126 246 4 11 14 38 23 60 8 22 19 58 25 80 6 22 15 59 21 82 17 62 41 277 41 364 0 42 -7 118 -15 170 -13 88 -19 114 -46 214 -17 62 -59 187 -74 220 -7 17 -17 41 -23 55 -44 108 -165 331 -184 338 -4 2 -8 8 -8 14 0 9 -45 74 -66 93 -5 6 -22 26 -36 45 -46 62 -168 181 -228 223 -26 18 -50 22 -50 9z"/>
 <path d="M1514 5056 c-9 -24 5 -36 39 -36 52 0 105 -19 125 -45 33 -42 42 -207 42 -791 0 -296 -5 -573 -10 -614 -13 -96 -31 -116 -118 -128 -67 -9 -88 -22 -79 -46 5 -13 51 -15 357 -15 306 0 352 2 357 15 9 24 -12 37 -74 45 -76 10 -98 24 -112 69 -8 26 -11 237 -11 699 0 659 3 736 34 767 19 18 79 35 154 41 67 5 73 8 70 27 -3 21 -6 21 -386 24 -328 2 -383 0 -388 -12z"/>
 <path d="M12495 4940 c-118 -10 -179 -31 -235 -82 -46 -42 -60 -80 -60 -162 0 -75 0 -76 43 -119 23 -25 49 -46 57 -49 11 -3 7 -14 -18 -44 -29 -34 -32 -45 -32 -102 0 -75 17 -110 69 -143 l37 -23 -28 -30 c-54 -59 -73 -113 -73 -206 0 -100 24 -161 88 -222 96 -91 265 -120 422 -73 17 5 22 -1 33 -38 20 -66 73 -97 169 -97 l73 0 0 60 0 60 -35 0 c-52 0 -102 24 -119 58 -15 29 -14 32 18 86 39 64 61 158 52 213 -18 96 -100 204 -181 237 -53 22 -176 37 -220 26 -69 -17 -98 -12 -133 19 -32 30 -37 45 -26 76 12 31 58 43 184 49 291 15 370 31 431 88 81 75 86 221 12 307 -37 44 -111 83 -188 99 -69 15 -232 20 -340 12z m323 -143 c85 -26 131 -93 99 -146 -28 -47 -68 -58 -242 -65 -88 -4 -178 -9 -200 -12 -35 -5 -45 -1 -82 31 -38 32 -43 41 -43 79 0 64 52 106 155 127 57 11 262 2 313 -14z m-99 -658 c43 -32 70 -77 77 -130 6 -47 -10 -129 -26 -129 -6 0 -10 -6 -10 -12 -1 -19 -74 -66 -114 -74 -122 -22 -236 68 -236 187 0 78 65 168 131 182 56 12 146 0 178 -24z"/>
 <path d="M6960 4614 c-137 -25 -240 -89 -318 -199 -15 -20 -62 -126 -62 -138 0 -12 137 -55 143 -46 2 2 13 25 25 51 47 97 118 154 228 182 71 18 129 20 194 6 55 -13 120 -40 120 -52 0 -4 6 -8 14 -8 20 0 66 -101 66 -146 0 -70 -72 -148 -160 -173 -100 -29 -138 -39 -195 -51 -209 -43 -319 -117 -361 -243 -29 -88 -15 -212 32 -285 100 -154 406 -211 604 -112 99 50 185 150 204 237 6 27 4 29 -46 42 -101 25 -108 26 -108 2 0 -48 -63 -119 -138 -157 -50 -26 -68 -29 -147 -29 -104 0 -145 15 -205 75 -40 40 -51 77 -42 143 6 49 70 107 138 125 27 8 69 20 94 27 25 7 72 18 105 25 208 42 314 107 370 225 43 91 33 229 -23 319 -49 79 -111 128 -206 162 -41 15 -274 28 -326 18z"/>
 <path d="M7995 4611 c-42 -10 -65 -25 -99 -60 -52 -55 -59 -104 -64 -443 l-3 -308 -80 0 -80 0 3 -62 3 -63 78 -3 77 -3 0 -109 0 -110 49 0 c27 0 63 -3 80 -6 l31 -6 0 115 0 116 98 3 97 3 3 63 3 62 -101 0 -100 0 0 300 c0 396 0 395 163 392 l87 -2 0 59 0 58 -46 7 c-59 8 -160 6 -199 -3z"/>
 <path d="M8577 4610 c-21 -6 -51 -17 -66 -25 -33 -16 -101 -78 -101 -90 0 -5 -8 -17 -17 -28 -15 -16 -18 -38 -18 -122 0 -84 3 -106 18 -122 9 -11 17 -24 17 -30 0 -6 20 -29 45 -52 87 -80 203 -111 412 -111 l136 0 -7 -67 c-11 -104 -58 -155 -162 -172 -75 -12 -177 6 -223 38 -17 13 -43 45 -57 73 -18 35 -30 48 -40 44 -9 -3 -40 -9 -70 -12 -30 -4 -54 -9 -54 -12 0 -23 29 -94 51 -126 35 -48 83 -81 157 -108 47 -17 81 -21 197 -21 122 0 146 3 186 21 62 29 112 78 139 138 22 47 23 64 30 399 4 193 10 358 14 368 7 15 1 17 -73 17 l-81 0 0 -64 c0 -36 -4 -67 -8 -70 -4 -2 -16 8 -26 22 -20 31 -85 80 -131 100 -37 17 -217 25 -268 12z m262 -141 c90 -46 146 -135 157 -248 l7 -74 -139 6 c-154 7 -211 21 -266 67 -88 73 -88 188 -1 246 60 39 170 41 242 3z"/>
 <path d="M10409 4611 c-48 -10 -118 -47 -146 -78 -48 -51 -66 -103 -66 -188 0 -64 4 -89 22 -124 70 -134 212 -191 479 -191 92 0 132 -3 132 -11 0 -7 -5 -41 -12 -77 -10 -54 -19 -73 -48 -102 -31 -31 -47 -38 -106 -48 -133 -21 -246 22 -286 111 -18 40 -26 47 -43 42 -11 -3 -42 -8 -69 -12 l-48 -6 6 -37 c13 -81 63 -138 163 -186 99 -47 319 -55 419 -15 49 19 104 61 104 79 0 6 4 12 8 12 5 0 17 19 27 43 16 36 19 86 25 362 5 176 11 344 15 373 l8 52 -77 0 -76 0 -1 -47 c-1 -46 -15 -122 -18 -95 -2 22 -83 98 -130 122 -36 18 -65 23 -145 26 -56 2 -117 0 -137 -5z m266 -147 c50 -29 105 -92 123 -139 13 -37 32 -128 32 -157 0 -21 -2 -21 -138 -15 -141 7 -195 19 -260 59 -42 26 -87 115 -78 154 9 35 48 94 63 94 6 0 13 5 15 11 12 37 176 33 243 -7z"/>
 <path d="M13500 4611 c-61 -13 -129 -53 -178 -106 -73 -78 -84 -100 -113 -215 -47 -186 -1 -385 116 -507 60 -62 133 -101 218 -114 72 -12 183 -3 222 17 15 8 31 14 37 14 30 0 137 116 165 178 30 68 53 169 53 234 l0 48 -325 0 -325 0 0 58 c0 89 41 180 98 218 90 61 180 71 261 29 47 -23 110 -89 124 -128 6 -16 14 -18 60 -12 100 13 106 23 60 103 -29 49 -109 132 -128 132 -6 0 -16 5 -23 12 -34 34 -233 59 -322 39z m350 -596 c0 -39 -37 -129 -66 -160 -53 -57 -142 -84 -211 -65 -98 27 -150 79 -190 190 -27 74 -41 70 227 70 l240 0 0 -35z"/>
 <path d="M5560 4145 l0 -465 75 0 75 0 0 465 0 465 -75 0 -75 0 0 -465z"/>
 <path d="M9597 4588 c-3 -13 -15 -48 -27 -78 -12 -30 -30 -80 -40 -110 -11 -30 -33 -93 -50 -140 -34 -93 -56 -156 -95 -270 -14 -41 -30 -84 -35 -95 -5 -11 -16 -42 -25 -69 -8 -26 -19 -56 -24 -65 -4 -9 -11 -31 -14 -48 l-6 -33 83 0 c91 0 86 -3 108 65 5 17 13 44 18 60 5 17 23 68 40 115 17 47 40 112 50 145 11 33 40 119 65 190 25 72 45 132 45 135 2 20 130 -345 212 -605 36 -112 29 -105 109 -105 79 0 75 -5 48 70 -6 19 -14 42 -17 50 -3 8 -18 51 -34 95 -16 44 -31 89 -34 100 -3 11 -10 29 -15 40 -4 11 -22 61 -38 110 -17 50 -38 110 -47 135 -9 25 -20 59 -25 75 -4 17 -22 68 -39 115 -18 47 -34 97 -37 113 -5 27 -6 27 -88 27 -78 0 -83 -1 -88 -22z"/>
 <path d="M11270 4145 l0 -465 75 0 75 0 0 71 0 71 27 -34 c76 -92 136 -122 248 -122 102 -1 152 19 220 89 82 84 85 100 85 508 l0 347 -75 0 -75 0 0 -338 c0 -330 0 -339 -22 -382 -69 -137 -273 -115 -360 38 -38 66 -48 159 -48 430 l0 252 -75 0 -75 0 0 -465z"/>
 <path d="M14280 4145 l0 -465 70 0 70 0 0 86 0 86 43 -63 c59 -89 104 -118 195 -126 l72 -6 0 77 c0 73 -1 76 -23 76 -13 0 -48 7 -77 16 -75 22 -138 87 -174 176 -26 66 -26 68 -26 337 l0 271 -75 0 -75 0 0 -465z"/>
 <path d="M5550 3455 l0 -85 85 0 85 0 0 85 0 85 -85 0 -85 0 0 -85z"/>
 <path d="M5831 2640 c-25 -5 -49 -14 -55 -20 -5 -5 -17 -10 -26 -10 -29 0 -126 -97 -152 -152 -43 -91 -48 -154 -48 -626 l0 -442 85 0 85 0 0 455 0 455 25 62 c31 76 64 102 167 130 70 18 76 18 143 2 84 -20 112 -33 145 -71 63 -70 70 -136 70 -634 l0 -400 68 3 67 3 0 470 c0 414 -2 476 -17 522 -33 102 -107 185 -206 230 -50 22 -74 26 -182 29 -69 2 -145 -1 -169 -6z"/>
 <path d="M9350 2644 c-104 -19 -213 -105 -264 -209 -42 -87 -50 -125 -50 -255 0 -180 38 -283 137 -378 67 -63 127 -91 216 -102 266 -34 442 118 466 403 l7 87 -331 0 -331 0 0 24 c0 40 20 129 35 161 22 45 55 79 105 111 39 24 55 28 120 28 66 1 81 -3 125 -30 29 -18 63 -50 81 -77 17 -26 34 -50 36 -53 5 -5 139 14 146 20 1 2 -9 29 -24 60 -34 73 -97 134 -180 176 -61 30 -76 34 -168 36 -56 1 -112 0 -126 -2z m340 -585 c0 -41 -32 -130 -57 -160 -49 -57 -98 -81 -172 -81 -77 -1 -119 17 -170 71 -38 40 -66 96 -76 154 l-7 37 241 0 c238 0 241 0 241 -21z"/>
 <path d="M10993 2640 c-48 -10 -153 -59 -153 -72 0 -4 -7 -8 -15 -8 -8 0 -15 -4 -15 -8 0 -5 -8 -17 -18 -28 -26 -28 -59 -85 -65 -115 -6 -23 -3 -26 38 -37 25 -7 60 -12 78 -12 28 1 35 6 52 43 54 114 288 157 397 73 63 -47 73 -113 25 -164 -30 -32 -66 -46 -177 -66 -166 -31 -253 -59 -294 -97 -11 -11 -23 -19 -27 -19 -4 0 -19 -24 -33 -54 -47 -99 -24 -230 52 -297 68 -61 197 -94 322 -83 149 14 232 60 286 161 35 67 32 80 -18 88 -24 3 -55 8 -70 11 -22 4 -29 0 -41 -23 -36 -69 -119 -113 -209 -113 -152 1 -240 111 -155 194 33 34 82 48 257 77 98 16 186 51 227 91 41 40 73 123 73 188 0 116 -66 205 -190 255 -52 20 -257 30 -327 15z"/>
 <path d="M12437 2636 c-57 -21 -80 -42 -122 -116 -18 -33 -20 -57 -23 -362 l-4 -328 -79 0 -79 0 0 -60 0 -60 80 0 80 0 0 -114 0 -113 46 -7 c26 -3 60 -6 75 -6 l29 0 0 120 0 120 100 0 100 0 0 60 0 60 -100 0 -100 0 0 278 c0 152 5 296 10 320 18 78 68 105 175 95 l65 -6 0 60 c0 60 0 61 -31 67 -54 10 -182 6 -222 -8z"/>
 <path d="M13119 2637 c-155 -44 -253 -167 -286 -357 -23 -135 -2 -280 54 -372 13 -21 23 -40 23 -43 0 -12 67 -79 106 -106 67 -46 127 -62 235 -61 94 0 158 13 190 39 8 7 20 13 26 13 6 0 29 19 52 43 77 79 120 184 128 310 l6 87 -332 0 -331 0 0 25 c0 41 20 128 37 160 58 110 166 160 287 135 46 -9 67 -21 107 -59 27 -26 49 -51 49 -57 0 -6 6 -18 13 -28 11 -15 20 -16 82 -6 38 6 71 13 73 15 2 2 -9 29 -23 60 -36 75 -97 135 -181 175 -60 30 -78 34 -168 37 -62 2 -119 -2 -147 -10z m357 -612 c-6 -54 -39 -122 -75 -155 -60 -54 -178 -70 -249 -34 -74 38 -131 119 -145 207 l-6 37 241 0 241 0 -7 -55z"/>
 <path d="M14125 2645 c-5 -2 -22 -6 -36 -9 -39 -9 -105 -80 -123 -133 -13 -39 -16 -100 -16 -360 l0 -313 -80 0 -80 0 0 -60 0 -60 80 0 80 0 0 -114 0 -113 38 -7 c20 -3 54 -6 75 -6 l37 0 0 120 0 120 100 0 100 0 0 60 0 60 -100 0 -100 0 0 303 c0 283 1 304 20 334 28 47 75 63 160 56 l70 -6 0 60 0 60 -37 7 c-39 6 -170 7 -188 1z"/>
 <path d="M14785 2641 c-101 -27 -202 -108 -244 -194 -77 -158 -81 -362 -12 -517 75 -166 231 -250 434 -233 122 11 238 93 292 208 26 54 55 185 55 248 l0 37 -331 0 -331 0 7 68 c12 112 48 173 135 228 40 25 54 28 125 28 61 0 87 -5 110 -19 43 -28 91 -79 107 -115 12 -30 15 -31 58 -25 85 11 100 16 100 33 0 35 -95 172 -119 172 -6 0 -11 4 -11 8 0 5 -30 24 -67 42 -62 30 -77 33 -173 36 -58 2 -118 0 -135 -5z m355 -591 c0 -69 -55 -163 -120 -206 -32 -21 -51 -26 -107 -26 -121 -1 -202 63 -242 191 -24 76 -39 71 229 71 l240 0 0 -30z"/>
 <path d="M15758 2640 c-41 -12 -87 -48 -112 -89 -38 -61 -46 -135 -46 -438 l0 -283 -80 0 -80 0 0 -60 0 -60 80 0 80 0 0 -114 0 -113 53 -7 c106 -12 97 -22 97 114 l0 120 105 0 105 0 0 60 0 60 -105 0 -105 0 0 263 c0 275 9 366 39 396 30 30 77 41 146 34 l65 -6 0 60 c0 60 0 61 -31 67 -43 8 -178 6 -211 -4z"/>
 <path d="M6730 2180 l0 -460 70 0 69 0 3 73 c3 64 4 69 15 46 15 -33 98 -106 143 -126 49 -21 202 -20 253 2 47 19 124 94 142 138 27 66 36 191 33 487 l-3 295 -75 0 -75 0 -5 -350 c-5 -363 -7 -379 -49 -413 -25 -20 -98 -52 -118 -52 -44 0 -120 37 -164 80 -77 77 -81 99 -87 443 l-4 297 -74 0 -74 0 0 -460z"/>
 <path d="M7777 2633 c-4 -3 -7 -210 -7 -460 l0 -453 75 0 75 0 0 460 0 460 -68 0 c-38 0 -72 -3 -75 -7z"/>
 <path d="M8422 2578 c-11 -35 -30 -88 -42 -118 -12 -30 -30 -80 -40 -110 -11 -30 -33 -93 -50 -140 -75 -207 -102 -287 -110 -318 -4 -18 -12 -38 -17 -45 -5 -7 -15 -32 -22 -56 -7 -23 -15 -50 -18 -57 -5 -12 9 -14 82 -12 l87 3 15 40 c8 22 23 67 33 100 11 33 40 119 65 190 25 72 62 177 81 235 46 135 48 139 61 103 19 -51 54 -158 63 -188 5 -16 43 -132 86 -257 l77 -228 69 0 c48 0 68 4 68 13 -1 14 -16 58 -90 267 -28 80 -55 159 -60 175 -5 17 -23 68 -40 115 -17 47 -35 99 -40 115 -9 31 -13 44 -54 160 l-24 70 -80 3 -80 3 -20 -63z"/>
 <path d="M10120 2180 l0 -460 65 0 64 0 3 88 3 87 23 -47 c27 -54 79 -110 122 -131 37 -19 130 -32 159 -22 19 6 21 14 21 75 l0 68 -57 7 c-76 9 -114 28 -163 81 -81 88 -84 101 -88 427 l-4 287 -74 0 -74 0 0 -460z"/>
 <path d="M11780 2180 l0 -460 75 0 75 0 0 460 0 460 -75 0 -75 0 0 -460z"/>
 <path d="M7770 1480 l0 -90 80 0 80 0 0 90 0 90 -80 0 -80 0 0 -90z"/>
 <path d="M11772 1483 l3 -88 83 -3 82 -3 0 91 0 90 -85 0 -86 0 3 -87z"/>
 </g>

</svg>