<!DOCTYPE svg PUBLIC "-//W3C//DTD SVG 20010904//EN" "http://www.w3.org/TR/2001/REC-SVG-20010904/DTD/svg10.dtd">
<svg version="1.0" xmlns="http://www.w3.org/2000/svg" width="1600px" height="454px" viewBox="0 0 16000 4540" preserveAspectRatio="xMidYMid meet">
<g id="layer101" fill="#b2b2b2" stroke="none">
 <path d="M670 3980 l0 -560 7250 0 7250 0 0 560 0 560 -7250 0 -7250 0 0 -560z m7232 224 c13 -9 9 -42 -8 -58 -11 -11 -34 -16 -77 -16 -95 0 -137 -42 -137 -137 0 -96 59 -147 161 -141 62 3 69 -1 69 -46 0 -21 -6 -24 -60 -29 -75 -6 -117 3 -171 39 -55 37 -85 81 -94 140 -18 124 34 213 147 250 40 13 148 11 170 -2z m1899 1 c92 -32 138 -104 139 -215 0 -84 -28 -143 -87 -184 -84 -58 -222 -32 -278 52 -87 133 -31 309 113 352 41 13 64 11 113 -5z m1214 4 c97 -27 168 -154 146 -260 -15 -68 -35 -103 -76 -134 -98 -75 -239 -42 -302 70 -80 142 14 328 167 334 14 0 43 -4 65 -10z m2907 -5 c76 -25 114 -85 97 -150 -11 -37 -38 -64 -108 -101 -64 -34 -81 -55 -65 -80 9 -14 26 -18 80 -18 l69 0 0 -35 c0 -34 -1 -35 -50 -42 -73 -12 -117 -1 -158 36 -53 49 -61 106 -20 152 10 12 47 36 83 55 60 32 65 38 68 71 4 43 -12 50 -103 41 -58 -5 -62 -4 -68 17 -8 32 0 46 36 58 47 15 88 14 139 -4z m-11939 -1 c4 -6 64 -280 68 -311 1 -8 20 88 44 221 l17 97 53 0 53 0 25 -102 c14 -57 37 -149 52 -206 15 -57 24 -110 21 -118 -4 -11 -17 -14 -43 -12 l-38 3 -21 100 c-12 55 -25 124 -29 152 -8 68 -21 75 -29 15 -3 -26 -16 -98 -28 -160 l-22 -114 -45 7 c-25 4 -49 10 -52 13 -3 4 -16 61 -28 126 -23 121 -38 173 -47 164 -2 -3 -14 -59 -25 -124 -11 -65 -23 -134 -26 -153 -6 -33 -7 -33 -50 -28 -24 2 -46 7 -49 9 -2 3 16 89 41 192 25 103 45 193 45 200 0 23 24 36 66 36 24 0 45 -3 47 -7z m717 -213 l0 -220 -45 0 -45 0 0 220 0 220 45 0 45 0 0 -220z m412 68 l3 -153 54 105 c29 58 67 126 83 153 29 46 31 47 80 47 l49 0 -3 -209 c-2 -115 -5 -211 -8 -214 -3 -2 -22 -7 -42 -11 l-38 -7 0 153 0 153 -59 -110 c-112 -211 -99 -195 -158 -195 l-53 0 0 220 0 220 45 0 44 0 3 -152z m853 118 c25 -15 58 -46 73 -68 23 -36 27 -52 27 -117 0 -131 -52 -188 -191 -212 -33 -5 -87 -7 -121 -3 l-63 6 0 216 0 215 114 -5 c101 -5 120 -8 161 -32z m505 -83 c0 -65 -3 -162 -7 -215 l-6 -98 -42 0 -42 0 -6 143 c-4 78 -7 175 -7 215 l0 72 55 0 55 0 0 -117z m396 -45 l-7 -163 37 70 c20 39 53 99 73 135 20 36 42 77 50 93 13 24 20 27 69 27 l54 0 -4 -210 c-2 -115 -6 -211 -8 -214 -3 -2 -22 -7 -42 -11 l-38 -7 0 148 c0 84 -4 144 -9 138 -4 -5 -26 -43 -47 -84 -53 -104 -94 -173 -112 -187 -9 -7 -35 -13 -59 -13 l-43 0 0 220 0 220 46 0 47 0 -7 -162z m927 147 c15 -6 17 -22 17 -121 l0 -114 -81 0 -80 0 3 33 c3 28 7 32 36 35 31 3 32 4 32 53 l0 49 -58 0 c-68 0 -96 -16 -117 -67 -31 -74 -9 -163 47 -195 14 -7 57 -12 106 -12 l83 0 -3 -35 -3 -36 -87 -3 c-71 -2 -95 1 -126 17 -53 27 -109 92 -122 141 -12 45 -5 120 15 160 17 33 73 86 105 99 27 12 203 8 233 -4z m837 -160 l0 -175 60 0 61 0 -7 -37 c-4 -21 -7 -39 -8 -39 0 -1 -74 -4 -163 -8 l-163 -7 0 45 0 46 60 0 60 0 0 175 0 175 50 0 50 0 0 -175z m670 135 l0 -40 -90 0 -90 0 0 -49 c0 -56 7 -61 103 -61 l57 0 0 -35 0 -35 -80 0 -80 0 0 -45 0 -45 85 0 85 0 0 -45 0 -45 -130 0 -130 0 0 220 0 220 135 0 135 0 0 -40z m1010 -55 l0 -95 80 0 80 0 0 95 0 95 52 0 51 0 -7 -212 c-3 -116 -7 -213 -9 -214 -1 -1 -21 -5 -44 -9 l-43 -7 0 86 0 86 -79 0 -80 0 -7 -80 c-4 -53 -11 -80 -19 -80 -7 0 -27 -3 -44 -6 l-31 -6 0 221 0 221 50 0 50 0 0 -95z m654 -67 c-7 -185 -10 -184 68 -33 20 39 51 97 70 130 l34 60 52 3 52 3 0 -220 0 -221 -45 0 -44 0 -3 149 -3 150 -54 -103 c-29 -57 -66 -124 -82 -150 -28 -45 -30 -46 -79 -46 l-50 0 0 220 0 220 45 0 45 0 -6 -162z m1546 122 l0 -40 -85 0 -85 0 0 -181 0 -181 -31 6 c-17 3 -40 6 -50 6 -18 0 -19 11 -19 215 l0 215 135 0 135 0 0 -40z m1303 25 c16 -7 17 -20 15 -119 l-3 -111 -77 -3 -78 -3 0 35 c0 30 3 35 28 38 25 3 27 7 30 51 l3 47 -58 0 c-64 -1 -90 -15 -117 -68 -37 -72 -9 -155 66 -193 35 -18 53 -21 104 -16 61 6 62 6 67 -21 9 -43 -11 -55 -100 -55 -69 -1 -86 3 -133 29 -80 43 -110 96 -110 192 0 110 42 171 138 203 29 9 196 5 225 -6z m517 -81 l0 -97 65 -114 c36 -62 63 -118 60 -123 -9 -14 -68 -12 -88 3 -8 6 -30 48 -47 92 -32 82 -50 112 -50 83 0 -9 -16 -55 -36 -102 l-36 -86 -43 0 c-24 0 -46 4 -50 10 -5 8 95 212 116 235 5 5 9 51 9 102 l0 93 50 0 50 0 0 -96z m851 44 l16 -53 61 -3 c67 -3 78 6 92 73 5 28 9 30 54 33 l48 3 -6 -36 c-4 -20 -18 -68 -31 -108 -13 -40 -38 -121 -56 -182 -18 -60 -34 -111 -35 -113 -1 -2 -29 0 -62 4 -69 7 -55 -17 -127 224 -24 80 -48 158 -54 173 -6 16 -11 30 -11 33 0 2 22 4 48 4 l48 0 15 -52z"/>
 <path d="M9679 4122 c-23 -20 -49 -88 -49 -134 0 -41 29 -105 55 -122 70 -46 145 3 153 98 9 114 -24 176 -96 176 -24 0 -49 -7 -63 -18z"/>
 <path d="M10914 4130 c-32 -13 -54 -70 -54 -140 0 -97 31 -140 104 -140 92 0 137 151 73 247 -28 42 -72 54 -123 33z"/>
 <path d="M3790 4001 l0 -151 41 0 c87 0 139 52 139 138 0 83 -38 137 -104 147 -22 4 -49 9 -58 11 -17 5 -18 -7 -18 -145z"/>
 <path d="M13232 3948 c11 -40 23 -77 27 -81 8 -8 41 104 41 138 0 11 -11 15 -44 15 l-43 0 19 -72z"/>
 <path d="M1520 2870 c-425 -60 -726 -354 -817 -800 -13 -63 -16 -221 -20 -1007 l-5 -933 350 0 349 0 6 317 c4 174 7 597 7 941 l0 624 37 70 c62 119 155 167 299 155 111 -9 194 -71 244 -184 18 -40 19 -93 26 -983 l7 -940 342 0 342 0 6 923 c6 1017 3 975 70 1073 21 31 51 58 87 78 51 29 62 31 150 31 80 0 102 -4 138 -23 54 -29 105 -82 134 -141 22 -45 23 -58 29 -431 4 -212 7 -638 8 -947 l1 -563 351 0 351 0 -5 938 c-4 1043 0 976 -76 1193 -22 61 -56 135 -75 165 -20 30 -36 58 -36 63 0 5 -52 58 -115 119 -151 146 -240 195 -450 248 -53 14 -110 18 -235 18 -152 0 -173 -2 -260 -28 -110 -32 -223 -89 -312 -158 -117 -91 -97 -89 -187 -17 -174 138 -333 198 -546 204 -71 2 -159 0 -195 -5z"/>
 <path d="M8385 2850 c-238 -50 -355 -111 -509 -266 -116 -117 -187 -234 -242 -403 -21 -62 -26 -103 -31 -221 -3 -80 0 -188 5 -241 27 -251 156 -473 365 -632 192 -146 393 -205 657 -194 74 3 152 11 173 17 l37 11 0 304 c0 167 -2 310 -5 318 -5 12 -15 11 -63 -6 -43 -16 -83 -21 -162 -21 -99 -1 -109 1 -171 31 -78 39 -140 102 -177 181 -21 45 -27 75 -30 147 -8 192 67 315 227 376 47 17 72 20 156 17 161 -6 231 -48 306 -184 l39 -71 0 -814 c0 -448 3 -871 7 -942 l6 -127 334 0 333 0 0 843 c0 884 -7 1070 -42 1202 -24 93 -93 233 -155 315 -122 162 -324 295 -533 350 -122 32 -396 38 -525 10z"/>
 <path d="M12430 2850 c-216 -54 -351 -129 -506 -284 -127 -127 -194 -236 -239 -392 -23 -78 -25 -103 -25 -268 0 -226 15 -302 92 -481 145 -335 510 -555 922 -555 133 0 198 10 323 51 192 62 307 130 459 272 93 87 111 116 92 150 -14 27 -241 268 -534 566 -249 254 -326 340 -318 352 9 15 182 10 247 -7 59 -15 206 -82 237 -108 25 -21 120 -76 130 -76 6 0 10 10 10 21 0 12 27 159 61 326 44 219 58 308 50 316 -23 23 -387 107 -551 127 -137 16 -363 12 -450 -10z m136 -1049 c104 -117 199 -226 212 -242 l23 -28 -23 -13 c-14 -7 -59 -12 -118 -12 -111 1 -165 21 -237 87 -59 55 -91 111 -108 193 -15 70 -10 139 16 222 10 30 13 32 29 20 10 -7 103 -109 206 -227z"/>
 <path d="M14505 2863 c-191 -44 -313 -95 -429 -178 -88 -63 -200 -185 -260 -284 -27 -44 -65 -127 -85 -183 -36 -103 -36 -103 -39 -298 -4 -219 3 -269 54 -406 103 -276 283 -461 565 -580 46 -19 114 -42 152 -50 90 -18 332 -19 430 0 142 28 352 109 387 151 12 14 -4 51 -125 288 -76 150 -141 276 -146 281 -5 5 -41 -6 -87 -27 -142 -65 -271 -72 -381 -21 -88 40 -117 68 -158 152 -35 73 -37 82 -38 177 0 93 2 104 30 155 39 71 109 142 173 174 47 24 62 26 169 26 105 0 127 -4 203 -30 46 -17 92 -30 102 -30 14 0 50 65 149 265 72 145 128 269 125 274 -7 11 -182 80 -277 109 -37 11 -101 25 -144 31 -74 11 -330 13 -370 4z"/>
 <path d="M4420 1865 l0 -985 335 0 335 0 0 985 0 985 -335 0 -335 0 0 -985z"/>
 <path d="M5490 2333 c0 -285 5 -572 10 -638 34 -409 279 -726 635 -821 100 -27 399 -27 500 -1 299 79 549 323 624 612 34 126 41 273 41 838 l0 527 -335 0 -335 0 0 -198 c0 -109 -3 -382 -7 -607 l-6 -408 -31 -41 c-43 -57 -104 -85 -186 -86 -57 0 -73 4 -120 33 -43 25 -60 43 -82 87 l-27 55 -7 583 -7 582 -333 0 -334 0 0 -517z"/>
 <path d="M10500 1840 l0 -990 -300 0 -300 0 0 -355 0 -355 950 0 950 0 0 355 0 355 -300 0 -300 0 0 990 0 990 -350 0 -350 0 0 -990z"/>
 <path d="M4633 812 c-164 -68 -256 -234 -224 -407 22 -119 87 -207 189 -257 62 -31 74 -33 167 -33 88 0 107 4 159 28 68 31 134 96 168 165 19 38 24 67 26 153 3 100 2 111 -24 162 -34 71 -103 140 -174 175 -46 23 -70 27 -150 29 -72 2 -105 -1 -137 -15z"/>
 <path d="M14620 321 l0 -140 -42 -3 c-40 -3 -43 -5 -46 -35 l-3 -33 130 0 131 0 0 35 c0 35 0 35 -45 35 l-45 0 0 140 0 140 -40 0 -40 0 0 -139z"/>
 <path d="M14810 285 l0 -175 53 0 53 0 31 96 30 96 29 -94 30 -93 52 -3 52 -3 0 175 0 176 -35 0 -35 0 0 -117 -1 -118 -35 107 c-35 109 -60 142 -82 115 -6 -7 -27 -60 -46 -117 l-34 -105 -1 118 -1 117 -30 0 -30 0 0 -175z"/>
 </g>
<g id="layer102" fill="#ffffff" stroke="none">
 <path d="M670 3980 l0 -560 7250 0 7250 0 0 560 0 560 -7250 0 -7250 0 0 -560z m7233 221 c14 -14 0 -59 -21 -65 -9 -3 -43 -6 -75 -7 -69 -3 -100 -23 -117 -75 -20 -61 -8 -121 34 -162 33 -34 39 -36 103 -36 73 -1 83 -7 83 -47 0 -32 -12 -36 -100 -34 -126 2 -215 79 -227 197 -15 151 89 254 246 243 36 -2 69 -9 74 -14z m1924 -5 c77 -40 119 -119 116 -222 -4 -185 -217 -270 -348 -139 -34 33 -44 53 -54 102 -27 126 22 225 133 270 37 15 114 10 153 -11z m1229 -2 c56 -36 95 -100 109 -176 17 -93 -54 -212 -144 -239 -50 -15 -140 -1 -167 26 -8 8 -19 15 -24 15 -4 0 -22 21 -38 46 -76 114 -38 274 80 333 52 26 140 23 184 -5z m2909 -9 c34 -19 47 -34 54 -62 20 -72 -6 -113 -107 -170 -67 -38 -82 -56 -65 -82 8 -12 27 -16 79 -16 69 0 69 0 72 -29 5 -38 -5 -45 -65 -52 -74 -8 -126 9 -162 54 -59 71 -34 135 74 192 65 34 70 39 70 70 0 41 -23 50 -107 40 -56 -6 -57 -6 -63 22 -8 35 -1 45 38 58 51 15 133 4 182 -25z m-11956 -87 c32 -155 44 -204 47 -193 1 6 14 76 29 158 l27 147 54 0 c30 0 54 -2 54 -4 0 -2 9 -41 21 -87 11 -46 23 -93 25 -103 2 -11 10 -40 18 -65 22 -68 38 -159 31 -171 -3 -5 -23 -10 -44 -10 l-38 0 -28 148 c-15 81 -29 154 -32 162 -3 8 -14 -32 -24 -90 -9 -58 -23 -131 -30 -163 l-12 -57 -48 2 c-57 3 -50 -10 -84 163 -27 138 -40 169 -49 114 -3 -19 -15 -89 -27 -156 l-21 -123 -37 0 c-62 0 -64 6 -41 106 42 183 72 309 76 322 2 7 23 12 56 12 l54 0 23 -112z m691 -108 l0 -220 -45 0 -45 0 0 220 0 220 45 0 45 0 0 -220z m412 70 l3 -149 59 112 c100 189 98 187 156 187 l50 0 0 -214 0 -213 -31 -7 c-62 -12 -59 -19 -59 146 l0 153 -56 -110 c-31 -61 -61 -117 -68 -125 -6 -8 -18 -27 -26 -42 -12 -25 -19 -28 -67 -28 l-53 0 0 220 0 220 45 0 44 0 3 -150z m843 123 c78 -41 115 -104 115 -197 0 -72 -41 -152 -91 -178 -51 -26 -152 -41 -226 -33 l-63 7 0 215 0 216 113 -5 c88 -4 121 -9 152 -25z m515 -132 c0 -87 -3 -186 -6 -220 l-7 -61 -42 0 -42 0 -6 107 c-4 58 -7 157 -7 220 l0 113 55 0 55 0 0 -159z m396 -3 l-6 -163 49 95 c27 52 65 124 84 160 l36 65 55 3 56 3 0 -203 c0 -112 -4 -209 -8 -216 -5 -7 -25 -15 -45 -19 l-36 -6 -3 149 c-3 143 -4 148 -19 119 -9 -16 -36 -68 -60 -114 -62 -118 -66 -124 -85 -138 -10 -7 -37 -13 -61 -13 l-43 0 0 220 0 220 47 0 46 0 -7 -162z m932 148 c8 -5 12 -44 12 -122 l0 -114 -80 0 -80 0 0 35 c0 33 2 35 35 35 l35 0 0 50 0 50 -46 0 c-58 0 -108 -23 -124 -58 -36 -75 -16 -168 41 -197 35 -19 107 -25 152 -13 32 8 47 -13 37 -52 -5 -21 -14 -26 -53 -32 -58 -8 -146 3 -173 23 -56 39 -87 73 -105 114 -46 105 2 233 106 281 31 15 219 15 243 0z m832 -161 l0 -175 60 0 c64 0 65 -1 54 -56 l-6 -29 -164 -3 -164 -3 0 45 0 46 60 0 60 0 0 175 0 175 50 0 50 0 0 -175z m670 135 l0 -40 -90 0 -90 0 0 -50 c0 -47 1 -50 28 -52 15 -1 38 -3 52 -4 14 -1 37 -3 53 -3 24 -1 27 -5 27 -36 l0 -35 -80 0 -80 0 0 -45 0 -45 85 0 85 0 0 -45 0 -45 -130 0 -130 0 0 220 0 220 135 0 135 0 0 -40z m1010 -55 l0 -95 80 0 80 0 0 95 0 95 51 0 52 0 -5 -211 c-3 -115 -8 -212 -10 -214 -2 -2 -23 -7 -46 -11 l-42 -7 0 87 0 86 -80 0 -80 0 -2 -47 c-1 -27 -3 -63 -3 -82 -1 -33 -3 -34 -48 -38 l-47 -4 0 221 0 220 50 0 50 0 0 -95z m655 -55 c-4 -90 -4 -150 2 -150 5 0 34 49 65 108 30 60 67 127 82 150 25 40 28 42 76 42 l50 0 0 -220 0 -220 -45 0 -45 0 0 153 -1 152 -53 -105 c-29 -58 -65 -123 -80 -144 -14 -21 -26 -43 -26 -47 0 -5 -25 -9 -55 -9 l-55 0 0 220 0 220 46 0 46 0 -7 -150z m1545 110 l0 -40 -85 0 -85 0 0 -180 0 -181 -50 3 -50 3 0 218 0 217 135 0 135 0 0 -40z m1303 25 c15 -6 17 -22 17 -121 l0 -114 -80 0 -80 0 0 35 c0 30 3 35 24 35 27 0 36 16 36 66 l0 34 -51 0 c-64 0 -102 -22 -124 -71 -21 -45 -15 -110 12 -147 11 -14 41 -35 67 -46 41 -16 56 -18 98 -9 43 9 50 8 59 -9 5 -10 7 -18 3 -18 -3 0 -1 -7 6 -15 20 -24 -41 -44 -125 -41 -133 6 -221 88 -229 213 -6 102 43 181 134 216 21 7 211 2 233 -8z m517 -81 l0 -97 65 -114 c36 -62 63 -118 60 -123 -9 -14 -68 -12 -88 3 -8 6 -30 48 -47 92 -32 82 -50 112 -50 83 0 -9 -16 -55 -36 -102 l-36 -86 -43 0 c-24 0 -46 4 -50 10 -5 8 95 212 116 235 5 5 9 51 9 102 l0 93 50 0 50 0 0 -96z m854 40 l17 -55 60 2 c64 2 75 11 85 67 7 38 16 44 66 40 l45 -3 -39 -130 c-21 -71 -51 -170 -65 -218 l-26 -88 -61 4 -61 4 -32 94 c-17 52 -34 103 -36 114 -6 27 -54 186 -62 208 -6 15 -1 17 42 17 l49 0 18 -56z"/>
 <path d="M9688 4124 c-48 -25 -70 -153 -37 -217 32 -62 99 -75 151 -28 32 29 33 31 33 115 0 80 -2 86 -29 115 -33 35 -73 40 -118 15z"/>
 <path d="M10914 4128 c-32 -15 -54 -71 -54 -139 0 -92 34 -139 100 -138 65 0 103 52 103 140 0 112 -69 176 -149 137z"/>
 <path d="M3790 3998 l0 -150 56 5 c59 6 86 23 110 69 35 68 -1 193 -60 204 -6 2 -32 7 -58 12 l-48 9 0 -149z"/>
 <path d="M13224 3988 c4 -18 9 -43 12 -55 6 -32 24 -77 28 -72 6 6 36 129 36 145 0 10 -12 14 -41 14 l-41 0 6 -32z"/>
 <path d="M1600 2877 c-3 -2 -34 -7 -70 -11 -133 -12 -311 -78 -430 -159 -72 -49 -183 -165 -237 -249 -83 -127 -150 -311 -168 -463 -3 -27 -9 -458 -12 -957 l-5 -908 351 0 351 0 0 208 c0 114 1 536 2 937 l2 730 28 58 c65 132 139 177 289 177 124 0 202 -51 267 -173 l27 -52 3 -942 3 -943 344 0 345 0 1 858 c0 471 2 891 5 933 7 142 67 248 169 295 40 19 67 24 135 24 141 0 218 -51 281 -184 l29 -61 0 -932 0 -933 351 0 352 0 -6 918 c-4 504 -9 933 -12 952 -21 144 -85 330 -147 433 -50 83 -205 242 -291 298 -75 49 -218 103 -327 125 -90 18 -267 24 -363 12 -149 -19 -331 -107 -479 -231 l-47 -39 -58 49 c-124 106 -266 180 -399 208 -78 17 -274 32 -284 22z"/>
 <path d="M8470 2860 c-144 -16 -298 -64 -410 -130 -95 -56 -251 -211 -312 -310 -89 -144 -134 -279 -137 -406 -1 -48 -4 -91 -6 -95 -3 -3 0 -69 5 -145 16 -256 97 -432 275 -603 159 -152 317 -233 520 -266 66 -11 321 -7 380 5 l56 12 -1 271 c-1 150 -4 291 -7 315 -5 39 -8 43 -27 37 -12 -3 -25 -7 -31 -9 -5 -1 -29 -8 -52 -15 -214 -60 -444 66 -488 269 -12 54 -9 181 5 225 56 180 188 269 385 260 121 -6 204 -47 264 -130 18 -25 30 -45 27 -45 -3 0 5 -16 18 -34 33 -49 36 -132 36 -1021 -1 -412 -1 -787 0 -832 l0 -83 336 0 336 0 -5 928 c-6 1001 -7 1016 -61 1177 -96 283 -355 515 -668 600 -105 29 -304 40 -438 25z"/>
 <path d="M12520 2863 c-43 -4 -158 -31 -185 -42 -11 -5 -50 -21 -86 -35 -108 -44 -186 -96 -285 -189 -113 -107 -175 -187 -225 -292 -67 -139 -78 -201 -75 -425 3 -176 6 -203 29 -280 93 -309 233 -482 495 -614 215 -108 506 -144 720 -87 135 35 253 81 316 122 32 22 61 39 65 39 15 0 217 179 244 217 28 40 29 43 14 65 -18 27 -226 246 -575 605 -268 277 -287 297 -277 313 20 33 212 17 323 -27 58 -23 170 -85 265 -147 15 -10 27 -17 28 -15 0 2 2 11 4 19 1 8 6 34 9 58 4 23 29 152 56 287 55 273 58 301 33 309 -39 10 -280 68 -303 73 -13 2 -56 11 -95 19 -122 26 -376 40 -495 27z m-119 -871 c135 -146 394 -446 397 -458 5 -21 -53 -32 -153 -30 -81 2 -96 5 -153 36 -139 74 -210 223 -184 385 12 69 28 115 40 115 5 0 29 -22 53 -48z"/>
 <path d="M14555 2864 c-57 -5 -198 -35 -210 -44 -5 -4 -21 -11 -35 -15 -43 -13 -163 -75 -213 -111 -26 -19 -49 -34 -52 -34 -3 0 -36 -31 -74 -69 -118 -118 -200 -255 -252 -421 -22 -69 -24 -92 -24 -285 1 -202 2 -213 29 -300 100 -318 310 -541 628 -665 29 -12 64 -23 78 -26 14 -3 43 -9 65 -14 22 -5 112 -8 200 -6 177 4 273 21 409 76 128 50 176 78 176 100 0 15 -254 528 -275 558 -1 1 -31 -10 -66 -26 -122 -55 -130 -57 -244 -57 -100 0 -115 3 -162 28 -78 41 -119 82 -155 156 -31 62 -33 73 -33 171 0 94 3 111 28 161 31 63 111 145 178 180 40 22 56 24 169 23 112 0 132 -3 195 -28 122 -49 103 -65 242 211 67 133 125 253 129 267 7 30 -11 41 -153 92 -164 59 -228 72 -389 77 -82 2 -167 3 -189 1z"/>
 <path d="M4420 1865 l0 -985 335 0 335 0 0 985 0 985 -335 0 -335 0 0 -985z"/>
 <path d="M5493 2263 c5 -453 10 -605 21 -664 69 -361 288 -621 601 -715 78 -23 111 -27 245 -29 201 -4 304 16 445 88 136 69 251 169 331 289 27 40 54 76 59 80 6 4 7 8 2 8 -4 0 3 21 17 48 70 139 86 318 86 995 l0 487 -334 0 -334 0 -4 -604 -3 -603 -25 -36 c-34 -48 -66 -71 -121 -90 -119 -41 -247 17 -297 133 -17 39 -22 270 -22 873 l0 327 -336 0 -337 0 6 -587z"/>
 <path d="M10510 1840 l0 -990 -300 0 -300 0 0 -355 0 -355 945 0 945 0 0 355 0 355 -300 0 -300 0 0 990 0 990 -345 0 -345 0 0 -990z"/>
 <path d="M4675 821 c-97 -26 -197 -109 -238 -199 -32 -68 -31 -236 1 -305 32 -71 102 -140 175 -173 53 -24 74 -28 152 -28 77 0 99 4 152 28 73 33 143 103 176 174 18 39 22 65 22 157 0 109 -1 112 -35 169 -68 114 -170 175 -297 182 -43 2 -91 0 -108 -5z"/>
 <path d="M14630 315 l0 -135 -45 0 c-45 0 -45 0 -45 -35 l0 -35 120 0 120 0 0 35 c0 35 0 35 -45 35 l-45 0 0 135 0 135 -30 0 -30 0 0 -135z"/>
 <path d="M14820 279 l0 -170 47 3 47 3 31 100 32 100 32 -102 33 -103 49 0 49 0 0 170 0 170 -29 0 c-37 0 -41 -11 -42 -133 l-1 -102 -33 103 c-56 172 -72 174 -125 12 l-38 -115 -1 118 -1 117 -25 0 -25 0 0 -171z"/>
 </g>

</svg>